<?xml version="1.0" encoding="UTF-8"?>
<!DOCTYPE svg PUBLIC "-//W3C//DTD SVG 1.1//EN" "http://www.w3.org/Graphics/SVG/1.1/DTD/svg11.dtd">
<svg version="1.1" xmlns="http://www.w3.org/2000/svg" xmlns:xlink="http://www.w3.org/1999/xlink" x="0" y="0" width="150" height="150" viewBox="0, 0, 150, 150">
  <g id="Layer_1">
    <path d="M120,101.07 C120,121.575 100.494,138.386 76.431,138.386 C52.367,138.386 32.86,121.575 32.86,101.07 C32.86,80.563 52.367,63.94 76.431,63.94 C100.494,63.94 120,80.563 120,101.07" fill="#9C5937"/>
    <path d="M59.306,24.775 C61.224,24.04 63.038,24.209 64.686,24.661 C66.329,25.142 67.816,26.011 69.055,27.155 C70.296,28.297 71.278,29.734 71.88,31.353 C72.454,32.983 72.694,34.788 72.1,36.735 C70.201,36.004 68.886,35.246 67.682,34.48 C66.494,33.71 65.477,32.919 64.53,32.034 C63.58,31.151 62.704,30.176 61.843,29.036 C60.985,27.872 60.171,26.592 59.306,24.775" fill="#A43C39"/>
    <path d="M76.26,13.125 C78.068,14.486 79.191,16.098 80.082,17.774 C80.947,19.46 81.516,21.241 81.805,23.088 C82.088,24.932 82.084,26.85 81.692,28.786 C81.267,30.69 80.51,32.75 78.757,34.241 C77.771,32.235 77.039,30.693 76.461,29.036 C75.895,27.405 75.476,25.773 75.224,24.09 C74.973,22.409 74.875,20.681 74.985,18.879 C75.117,17.067 75.407,15.207 76.26,13.125" fill="#A43C39"/>
    <path d="M83.229,17.078 C84.665,18.667 85.378,20.35 85.85,22.041 C86.294,23.738 86.428,25.46 86.261,27.181 C86.098,28.901 85.628,30.629 84.753,32.276 C83.867,33.857 82.548,35.607 80.421,36.215 C80.165,34.132 79.785,32.68 79.651,31.106 C79.502,29.568 79.484,28.058 79.638,26.532 C79.79,25.006 80.103,23.468 80.635,21.902 C81.193,20.333 81.91,18.751 83.229,17.078" fill="#A43C39"/>
    <path d="M29.144,65.466 C31.51,64.106 34.255,63.501 37.129,63.46 C38.565,63.49 40.024,63.699 41.457,64.11 C42.876,64.544 44.253,65.178 45.531,65.967 C46.807,66.758 48.071,67.614 49.213,68.612 C50.351,69.614 51.226,70.849 51.794,72.196 C52.902,74.908 53.291,77.829 52.322,80.856 L51.687,81.058 C49.163,79.185 47.59,77.308 46.067,75.589 C45.323,74.725 44.727,73.838 44.193,72.881 C43.673,71.918 43.077,70.97 42.302,70.206 C41.539,69.431 40.68,68.748 39.727,68.183 C38.791,67.587 37.752,67.106 36.641,66.752 C34.427,65.979 31.893,65.795 29.386,66.088 L29.144,65.466" fill="#303331"/>
    <path d="M28.49,55.693 C30.082,54.478 31.879,53.573 33.847,52.987 C35.807,52.4 37.969,52.156 40.153,52.488 C42.328,52.841 44.452,53.804 46.228,55.158 C47.997,56.529 49.422,58.233 50.6,60.017 C51.788,61.888 52.727,63.485 53.746,65.248 C54.711,66.994 55.461,68.853 55.93,70.828 C56.387,72.8 56.68,74.85 56.62,76.963 C56.546,79.051 56.343,81.279 54.972,83.25 L54.344,83.035 C52.983,79.435 51.131,76.317 49.626,72.975 C48.86,71.318 48.204,69.61 47.676,67.82 C47.161,66.071 46.624,64.116 45.956,62.629 C44.553,59.541 42.446,56.889 39.336,55.717 C36.24,54.46 32.317,54.896 28.84,56.26 L28.49,55.693" fill="#303331"/>
    <path d="M45.758,50.494 C47.436,49.77 49.352,49.704 51.259,50.126 C52.201,50.359 53.133,50.722 54.015,51.195 C54.876,51.692 55.685,52.294 56.417,52.963 C57.151,53.637 57.911,54.306 58.589,55.051 C59.255,55.801 59.687,56.689 59.852,57.641 C60.015,58.589 60.016,59.566 59.787,60.547 C59.582,61.523 59.2,62.503 58.421,63.492 L57.767,63.618 C56.677,63.009 55.927,62.406 55.279,61.816 C54.613,61.231 54.103,60.656 53.665,60.097 C53.228,59.535 52.971,58.948 52.842,58.276 C52.721,57.604 52.585,56.911 52.288,56.323 C51.998,55.731 51.652,55.168 51.246,54.648 C50.86,54.103 50.401,53.598 49.865,53.149 C48.82,52.22 47.422,51.501 45.867,51.15 L45.758,50.494" fill="#303331"/>
    <path d="M75.721,101.426 C75.398,101.416 75.084,101.384 74.773,101.34 C54.36,100.515 43.395,84.63 43.395,84.63 C40.392,93.663 40.38,103.827 40.38,103.827 C40.852,123.332 56.799,139 76.417,139 L76.417,101.38 C76.264,101.39 76.122,101.426 75.97,101.426 L75.721,101.426" fill="#303331"/>
    <path d="M51.563,56.088 L51.552,56.075 C51.552,56.075 51.553,56.147 51.553,56.261 C51.501,56.93 51.453,57.602 51.453,58.286 C51.453,58.494 51.475,58.699 51.479,58.906 C51.337,61.422 50.964,65.351 49.869,69.495 C49.099,72.402 47.978,75.413 46.319,78.117 C45.113,80.087 44.159,82.323 43.395,84.63 C43.395,84.63 54.36,100.515 74.773,101.34 L74.777,101.34 C75.085,101.384 75.399,101.416 75.721,101.426 L75.97,101.426 C76.122,101.426 76.264,101.39 76.417,101.38 L76.417,33.323 C63.371,33.323 52.677,43.333 51.563,56.088" fill="#9C5937"/>
    <path d="M109.582,85.026 C109.582,85.026 97.887,101.38 76.417,101.38 L76.417,139 C96.05,139 112.007,123.307 112.452,103.782 C112.452,103.782 112.442,93.947 109.582,85.026" fill="#494C4A"/>
    <path d="M106.54,78.117 C105.025,75.63 103.951,72.884 103.191,70.202 C101.889,65.622 101.495,61.22 101.369,58.588 C101.369,58.488 101.38,58.387 101.38,58.286 C101.38,57.83 101.336,57.386 101.313,56.936 C101.303,56.4 101.31,56.075 101.31,56.075 L101.272,56.131 C100.175,43.352 89.477,33.323 76.417,33.323 L76.417,101.38 C97.887,101.38 109.582,85.026 109.582,85.026 C108.8,82.583 107.812,80.203 106.54,78.117" fill="#DF7D41"/>
    <path d="M85.413,75.919 L85.413,75.903 C85.413,70.358 80.396,65.86 76.26,65.86 C72.124,65.86 67.107,70.358 67.107,75.903 C67.107,78.126 66.935,83.957 71.13,83.957 C72.366,83.957 73.46,83.389 74.197,82.508 C74.891,82.583 75.589,82.618 76.26,82.618 C76.933,82.618 77.629,82.583 78.324,82.508 C79.06,83.389 80.153,83.957 81.392,83.957 C85.578,83.957 85.413,78.149 85.413,75.919" fill="#E05B5B"/>
    <path d="M66.197,47.592 C60.062,47.592 55.088,52.318 55.088,58.146 C55.088,63.977 60.062,68.7 66.197,68.7 C70.784,68.7 74.721,69.369 76.417,65.615 L76.417,54.005 C74.721,50.234 70.786,47.592 66.197,47.592" fill="#A43C39"/>
    <path d="M86.665,68.7 C92.8,68.7 97.776,63.977 97.776,58.146 C97.776,52.318 92.8,47.592 86.665,47.592 C82.065,47.592 78.12,50.247 76.431,54.03 L76.417,54.005 L76.417,65.615 L76.431,65.59 C78.12,69.373 82.065,68.7 86.665,68.7" fill="#E05B5B"/>
    <path d="M74.463,66.135 L71.773,67.911 C70.691,68.625 70.349,70.121 71.012,71.235 L75.224,78.308 C75.556,78.868 75.993,79.147 76.431,79.147 L76.431,65.599 C75.715,65.599 75.005,65.778 74.463,66.135" fill="#EB9742"/>
    <path d="M77.638,78.308 L81.85,71.235 C82.515,70.121 82.171,68.625 81.089,67.911 L78.399,66.135 C77.857,65.778 77.144,65.599 76.431,65.599 L76.431,79.147 C76.868,79.147 77.306,78.868 77.638,78.308" fill="#F4D864"/>
    <path d="M68.143,58.168 C68.143,60.158 66.527,61.77 64.542,61.77 C62.553,61.77 60.942,60.158 60.942,58.168 C60.942,56.182 62.553,54.57 64.542,54.57 C66.527,54.57 68.143,56.182 68.143,58.168" fill="#331014"/>
    <path d="M91.58,58.168 C91.58,60.158 89.966,61.77 87.98,61.77 C85.992,61.77 84.379,60.158 84.379,58.168 C84.379,56.182 85.992,54.57 87.98,54.57 C89.966,54.57 91.58,56.182 91.58,58.168" fill="#331014"/>
    <path d="M67.107,56.741 C67.107,57.421 66.555,57.973 65.875,57.973 C65.195,57.973 64.645,57.421 64.645,56.741 C64.645,56.061 65.195,55.51 65.875,55.51 C66.555,55.51 67.107,56.061 67.107,56.741" fill="#FFFFFE"/>
    <path d="M90.441,56.741 C90.441,57.421 89.891,57.973 89.209,57.973 C88.529,57.973 87.98,57.421 87.98,56.741 C87.98,56.061 88.529,55.51 89.209,55.51 C89.891,55.51 90.441,56.061 90.441,56.741" fill="#FFFFFE"/>
    <path d="M59.906,9.693 C63.183,11.492 65.678,13.592 67.964,15.372 C68.524,15.816 69.077,16.215 69.553,16.549 C69.806,16.728 70.014,16.811 70.242,16.967 L71.167,17.58 C72.501,18.484 74.044,19.79 75.296,21.366 C77.874,24.551 79.048,28.528 79.104,32.11 C79.144,35.737 78.302,39.183 76.26,42.351 C74.146,39.239 72.817,36.374 71.45,33.868 C70.115,31.337 68.873,29.328 67.492,27.595 C66.786,26.701 66.015,25.859 64.968,24.713 L64.118,23.772 C63.765,23.397 63.408,22.932 63.131,22.531 C62.538,21.713 62.098,20.89 61.712,20.076 C60.247,16.804 59.554,13.456 59.906,9.693" fill="#E05B5B"/>
  </g>
</svg>
