<?xml version="1.0" encoding="UTF-8"?>
<!DOCTYPE svg PUBLIC "-//W3C//DTD SVG 1.1//EN" "http://www.w3.org/Graphics/SVG/1.1/DTD/svg11.dtd">
<svg version="1.1" xmlns="http://www.w3.org/2000/svg" xmlns:xlink="http://www.w3.org/1999/xlink" x="0" y="0" width="150" height="150" viewBox="0, 0, 150, 150">
  <g id="Layer_1">
    <path d="M52.871,61.487 C52.871,61.487 41.369,67.273 28.524,52.534 C29.812,51.198 41.532,40.649 59.031,49.076 L52.871,61.487" fill="#A27767"/>
    <path d="M52.038,58.229 C52.038,58.229 42.935,60.238 35.935,53.223 C35.935,53.223 42.594,46.941 55.712,52.143 L52.038,58.229" fill="#C66870"/>
    <path d="M95.654,61.487 C95.654,61.487 107.156,67.273 120,52.534 C118.711,51.198 106.992,40.649 89.493,49.076 L95.654,61.487" fill="#A27767"/>
    <path d="M96.487,58.229 C96.487,58.229 105.588,60.238 112.587,53.223 C112.587,53.223 105.928,46.941 92.812,52.143 L96.487,58.229" fill="#C66870"/>
    <path d="M73.083,125.198 C73.891,125.198 74.671,125.172 75.441,125.133 C74.663,125.176 73.879,125.198 73.083,125.198" fill="#A27767"/>
    <path d="M61.156,125.127 C80.626,124.089 87.369,110.857 87.369,110.857 C82.369,118.859 72.917,124.445 61.156,125.127" fill="#A27767"/>
    <path d="M74.366,125.133 L74.157,125.119 L74.366,125.133" fill="#EB9742"/>
    <path d="M76.704,125.127 L76.617,125.133 C75.849,125.172 75.069,125.198 74.263,125.198 L74.263,135.617 C75.977,135.617 77.649,135.457 79.282,135.197 L79.282,142.21 L90.289,142.21 L90.289,131.211 C97.62,126.757 102.526,119.332 102.914,110.857 C102.914,110.857 96.172,124.089 76.704,125.127" fill="#A27767"/>
    <path d="M105.615,98.795 C105.615,82.405 91.578,69.118 74.263,69.118 C56.946,69.118 42.911,82.405 42.911,98.795 C42.911,115.185 56.946,128.472 74.263,128.472 C91.578,128.472 105.615,115.185 105.615,98.795" fill="#775749"/>
    <path d="M71.95,125.133 L71.743,125.119 C52.547,124.039 45.609,110.857 45.609,110.857 C45.996,119.332 50.904,126.757 58.235,131.211 L58.235,142.21 L69.243,142.21 L69.243,135.197 C70.875,135.457 72.545,135.617 74.263,135.617 L74.263,125.198 C73.47,125.198 72.704,125.172 71.95,125.133" fill="#775749"/>
    <path d="M63.623,144.049 C64.088,144.049 64.467,144.427 64.467,144.89 L64.467,147 L73.322,147 C73.322,141.709 69.029,137.418 63.739,137.418 C58.448,137.418 54.156,141.709 54.156,147 L62.778,147 L62.778,144.89 C62.778,144.427 63.155,144.049 63.623,144.049" fill="#2F1312"/>
    <path d="M84.669,144.049 C85.136,144.049 85.514,144.427 85.514,144.89 L85.514,147 L94.369,147 C94.369,141.709 90.08,137.418 84.787,137.418 C79.495,137.418 75.205,141.709 75.205,147 L83.826,147 L83.826,144.89 C83.826,144.427 84.202,144.049 84.669,144.049" fill="#2F1312"/>
    <path d="M74.263,44.442 L74.263,124.088 C75.057,124.088 75.842,124.066 76.617,124.022 L76.704,124.016 C88.589,123.565 97.978,117.873 102.914,109.746 C105.362,105.719 106.805,101.152 106.805,96.254 C106.805,80.883 104.664,44.442 74.263,44.442" fill="#A27767"/>
    <path d="M61.052,47.285 C54.795,50.662 50.482,56.69 50.482,56.69 C42.393,68.721 41.718,86.621 41.718,96.254 C41.718,101.152 43.224,105.682 45.609,109.746 C50.296,117.734 59.285,123.46 71.743,124.009 L71.95,124.023 C72.712,124.065 73.483,124.088 74.263,124.088 L74.263,44.442 C69.072,44.442 64.647,45.346 61.052,47.285" fill="#775749"/>
    <path d="M55.641,75.131 C55.641,80.176 58.579,84.264 62.201,84.264 C65.824,84.264 68.761,80.176 68.761,75.131 C68.761,70.086 65.824,65.996 62.201,65.996 C58.579,65.996 55.641,70.086 55.641,75.131" fill="#ECBD8E"/>
    <path d="M79.763,75.131 C79.763,80.176 82.7,84.264 86.324,84.264 C89.946,84.264 92.883,80.176 92.883,75.131 C92.883,70.086 89.946,65.996 86.324,65.996 C82.7,65.996 79.763,70.086 79.763,75.131" fill="#ECBD8E"/>
    <path d="M59.346,77.271 C59.346,78.848 60.622,80.127 62.2,80.127 C63.778,80.127 65.056,78.848 65.056,77.271 L65.056,72.989 C65.056,71.412 63.778,70.135 62.2,70.135 C60.622,70.135 59.346,71.412 59.346,72.989 L59.346,77.271" fill="#2F1312"/>
    <path d="M83.468,77.271 C83.468,78.848 84.746,80.127 86.322,80.127 C87.901,80.127 89.178,78.848 89.178,77.271 L89.178,72.989 C89.178,71.412 87.901,70.135 86.322,70.135 C84.746,70.135 83.468,71.412 83.468,72.989 L83.468,77.271" fill="#2F1312"/>
    <path d="M85.348,73.083 C85.348,74.004 86.009,74.749 86.827,74.749 C87.645,74.749 88.307,74.004 88.307,73.083 C88.307,72.163 87.645,71.418 86.827,71.418 C86.009,71.418 85.348,72.163 85.348,73.083" fill="#FFFFFE"/>
    <path d="M61.194,73.083 C61.194,74.004 61.857,74.749 62.674,74.749 C63.493,74.749 64.155,74.004 64.155,73.083 C64.155,72.163 63.493,71.418 62.674,71.418 C61.857,71.418 61.194,72.163 61.194,73.083" fill="#FFFFFE"/>
    <path d="M73.037,97.077 C72.052,97.077 71.253,97.877 71.253,98.859 C71.253,99.846 72.052,100.644 73.037,100.644 C74.023,100.644 74.822,99.846 74.822,98.859 C74.822,97.877 74.023,97.077 73.037,97.077" fill="#F2E0D6"/>
    <path d="M88.96,101.967 C84.272,97.008 78.202,97.147 77.931,97.151 C76.99,97.181 76.252,97.964 76.277,98.907 C76.303,99.837 77.07,100.574 77.993,100.574 L78.033,100.573 C78.086,100.582 82.866,100.506 86.472,104.319 C86.809,104.678 87.261,104.856 87.714,104.856 C88.138,104.856 88.56,104.701 88.892,104.388 C89.581,103.737 89.61,102.654 88.96,101.967" fill="#F2E0D6"/>
    <path d="M87.714,104.856 C87.261,104.856 86.809,104.678 86.472,104.319 C82.866,100.506 78.086,100.582 78.033,100.573 L77.993,100.574 C77.07,100.574 76.303,99.837 76.277,98.907 C76.252,97.964 76.99,97.181 77.931,97.151 C78.202,97.147 84.272,97.008 88.96,101.967 C89.61,102.654 89.581,103.737 88.892,104.388 C88.56,104.701 88.138,104.856 87.714,104.856 z M73.037,100.644 C72.052,100.644 71.253,99.846 71.253,98.859 C71.253,97.877 72.052,97.077 73.037,97.077 C74.023,97.077 74.822,97.877 74.822,98.859 C74.822,99.846 74.023,100.644 73.037,100.644 z M74.263,94.794 C64.467,94.794 56.529,99.873 56.529,106.141 C56.529,108.268 57.46,110.25 59.05,111.951 C59.443,111.397 59.931,110.914 60.488,110.527 C61.412,109.888 62.529,109.512 63.739,109.512 C66.912,109.512 69.488,112.086 69.488,115.261 C69.488,115.402 69.461,115.537 69.448,115.676 C69.408,116.137 69.324,116.585 69.186,117.012 C70.794,117.319 72.496,117.489 74.263,117.489 C76.028,117.489 77.728,117.319 79.339,117.012 C79.244,116.713 79.167,116.404 79.114,116.089 C79.069,115.82 79.038,115.544 79.038,115.261 C79.038,112.086 81.613,109.512 84.787,109.512 C86.376,109.512 87.806,110.171 88.845,111.217 C89.072,111.446 89.289,111.687 89.475,111.951 C91.066,110.25 91.997,108.268 91.997,106.141 C91.997,99.873 84.057,94.794 74.263,94.794" fill="#2F1312"/>
    <path d="M63.994,34.881 C62.571,30.961 62.048,17.601 62.473,6.397 C62.556,4.251 60.883,2.446 58.738,2.364 C56.59,2.281 54.788,3.955 54.708,6.1 C54.572,9.658 54.474,14.063 54.554,18.554 C54.423,18.54 54.295,18.513 54.161,18.513 C53.634,18.513 53.456,18.368 53.294,18.192 C52.214,17.018 51.872,13.553 52.04,11.502 C52.224,9.367 50.647,7.487 48.511,7.297 C46.372,7.112 44.486,8.687 44.297,10.826 C44.175,12.203 43.759,19.288 47.557,23.437 C49.264,25.302 51.548,26.288 54.161,26.288 C54.412,26.288 54.652,26.259 54.888,26.215 C55.139,29.57 55.542,32.713 56.16,35.296 C55.098,35.343 54.03,35.343 52.975,35.235 C48.17,34.746 48.019,27.574 48.013,27.244 C47.998,25.109 46.263,23.385 44.126,23.385 L44.116,23.385 C41.969,23.391 40.235,25.136 40.241,27.283 C40.255,32.29 42.772,42.01 52.188,42.968 C54.972,43.252 57.546,43.022 59.818,42.82 C60.609,42.75 61.598,42.662 62.459,42.624 L62.476,42.626 L62.519,42.621 C63.378,42.586 64.104,42.6 64.364,42.735 C64.367,42.74 64.73,43.249 64.73,45.19 C64.73,47.336 66.47,49.076 68.617,49.076 C70.761,49.076 72.503,47.336 72.503,45.19 C72.503,41.462 71.565,38.792 69.636,37.027 C68.008,35.539 66.062,35.004 63.994,34.881" fill="#EB9742"/>
    <path d="M104.429,23.395 C102.265,23.418 100.538,25.103 100.51,27.242 C100.508,27.548 100.364,34.745 95.551,35.235 C94.496,35.343 93.428,35.344 92.365,35.297 C92.982,32.713 93.386,29.57 93.637,26.215 C93.873,26.259 94.115,26.288 94.364,26.288 C96.978,26.288 99.261,25.302 100.967,23.437 C104.766,19.288 104.35,12.203 104.228,10.826 C104.038,8.687 102.151,7.112 100.014,7.297 C97.876,7.487 96.295,9.373 96.485,11.512 C96.661,13.491 96.316,17.007 95.235,18.188 C95.071,18.367 94.892,18.513 94.364,18.513 C94.23,18.513 94.102,18.54 93.971,18.554 C94.05,14.063 93.954,9.658 93.817,6.1 C93.738,3.955 91.905,2.284 89.788,2.364 C87.643,2.446 85.969,4.251 86.051,6.397 C86.476,17.601 85.954,30.96 84.532,34.881 C82.465,35.004 80.516,35.538 78.89,37.027 C76.959,38.792 76.023,41.462 76.023,45.19 C76.023,47.336 77.763,49.076 79.908,49.076 C82.055,49.076 83.794,47.336 83.794,45.19 C83.794,43.355 84.121,42.8 84.101,42.791 C84.706,42.465 87.113,42.679 88.707,42.82 C90.978,43.022 93.552,43.252 96.337,42.968 C105.753,42.01 108.27,32.29 108.286,27.283 C108.29,25.144 106.567,23.411 104.429,23.395" fill="#EB9742"/>
  </g>
</svg>
