<?xml version="1.0" encoding="UTF-8"?>
<!DOCTYPE svg PUBLIC "-//W3C//DTD SVG 1.1//EN" "http://www.w3.org/Graphics/SVG/1.1/DTD/svg11.dtd">
<svg version="1.1" xmlns="http://www.w3.org/2000/svg" xmlns:xlink="http://www.w3.org/1999/xlink" x="0" y="0" width="150" height="150" viewBox="0, 0, 150, 150">
  <g id="Layer_1">
    <path d="M64.014,73.112 C66.731,69.451 71.735,68.965 74.696,69.034 L74.696,19.55 L74.537,19.546 C53.57,19.546 36.571,36.544 36.571,57.513 C36.571,59.367 36.71,61.185 36.965,62.969 C34.875,65.853 33.715,69.026 33.715,72.36 C33.715,79.105 38.461,85.196 46.096,89.551 L46.096,89.547 C48.858,91.125 51.998,92.472 55.427,93.544 L55.662,93.618 C56.945,94.012 58.27,94.366 59.63,94.681 C59.782,94.715 59.934,94.75 60.087,94.783 C60.753,94.932 61.428,95.073 62.111,95.204 C57.981,82.451 59.995,78.525 64.014,73.112" fill="#9C9EBE"/>
    <path d="M74.696,80.503 C73.78,80.549 72.885,80.646 72.006,80.811 C70.514,81.096 69.055,81.564 67.589,82.218 C66.117,82.871 64.652,83.674 63.072,84.65 C63.562,82.826 64.733,81.262 66.176,80.023 C67.634,78.789 69.452,77.907 71.38,77.54 C72.478,77.327 73.598,77.303 74.696,77.413 L74.696,80.503 z M74.696,89.502 C74.31,89.581 73.92,89.649 73.54,89.749 C72.302,90.069 71.082,90.509 69.829,91.06 C68.568,91.609 67.295,92.246 65.855,92.984 C66.222,91.375 67.185,90.011 68.369,88.895 C69.568,87.79 71.067,86.953 72.696,86.526 C73.352,86.351 74.023,86.265 74.696,86.229 L74.696,89.502 z M74.696,97.33 C73.817,97.76 72.925,98.223 71.986,98.709 C70.893,99.266 69.767,99.841 68.422,100.371 C68.724,98.939 69.455,97.737 70.344,96.68 C71.25,95.634 72.368,94.746 73.667,94.121 C73.997,93.961 74.342,93.821 74.696,93.701 L74.696,97.33 z M105.446,98.027 C105.31,98.145 105.198,98.291 105.105,98.444 C104.556,99.043 103.293,100.164 101.031,100.996 L100.969,101.018 C100.705,101.114 100.427,101.204 100.135,101.291 L99.925,101.349 C99.673,101.42 99.413,101.487 99.14,101.548 C99.033,101.574 98.925,101.597 98.813,101.621 C98.564,101.672 98.305,101.719 98.039,101.762 C97.9,101.786 97.762,101.807 97.619,101.828 C97.362,101.864 97.094,101.894 96.823,101.92 C96.659,101.938 96.497,101.954 96.328,101.967 C96.053,101.989 95.763,102 95.473,102.011 C95.294,102.019 95.119,102.029 94.934,102.032 C94.614,102.038 94.277,102.031 93.941,102.023 C93.769,102.019 93.606,102.022 93.431,102.015 C92.909,101.994 92.371,101.958 91.809,101.905 C87.762,101.516 85.985,98.738 85.314,95.486 C86.077,95.363 86.827,95.224 87.57,95.077 C87.716,95.048 87.861,95.021 88.005,94.991 C93.669,93.827 98.76,91.943 102.975,89.537 L102.976,89.549 C110.61,85.195 115.36,79.105 115.36,72.36 C115.36,69.026 114.199,65.853 112.107,62.969 C112.367,61.185 112.503,59.367 112.503,57.513 C112.503,36.599 95.591,19.638 74.696,19.55 L74.696,68.182 C71.735,68.115 65.789,68.897 63.072,72.556 C59.054,77.97 58.537,83.453 62.111,95.204 C63.627,101.553 67.23,108.78 74.696,112.254 C77.258,113.449 80.269,114.204 83.817,114.322 C84.462,114.344 85.09,114.352 85.705,114.351 C86.244,114.351 86.766,114.337 87.282,114.319 L87.491,114.314 C88.652,114.268 89.754,114.18 90.802,114.058 L90.799,114.059 C106.116,112.275 109.66,102.876 109.66,102.876 C110.642,102.022 110.496,100.246 109.331,98.908 C108.171,97.566 106.432,97.175 105.446,98.027" fill="#B4BEC3"/>
    <path d="M87.491,114.314 C88.653,114.268 89.752,114.18 90.799,114.059 L90.802,114.058 C89.754,114.18 88.652,114.268 87.491,114.314" fill="#B4BEC3"/>
    <path d="M87.282,114.319 C86.766,114.337 86.244,114.351 85.705,114.351 C86.244,114.351 86.766,114.337 87.282,114.319" fill="#B4BEC3"/>
    <path d="M100.135,101.291 L99.925,101.349 L100.135,101.291" fill="#B4BEC3"/>
    <path d="M99.14,101.548 C99.033,101.574 98.925,101.597 98.813,101.621 C98.925,101.597 99.033,101.574 99.14,101.548" fill="#B4BEC3"/>
    <path d="M95.473,102.011 C95.294,102.019 95.119,102.029 94.934,102.032 C95.119,102.029 95.294,102.019 95.473,102.011" fill="#B4BEC3"/>
    <path d="M96.823,101.92 C96.659,101.938 96.497,101.954 96.328,101.967 C96.497,101.954 96.659,101.938 96.823,101.92" fill="#B4BEC3"/>
    <path d="M85.314,95.486 C86.077,95.363 86.827,95.224 87.57,95.077 C86.827,95.224 86.077,95.363 85.314,95.486" fill="#B4BEC3"/>
    <path d="M101.031,100.996 L100.969,101.018 L101.031,100.996" fill="#B4BEC3"/>
    <path d="M93.941,102.023 C93.769,102.019 93.606,102.022 93.431,102.015 C93.606,102.022 93.769,102.019 93.941,102.023" fill="#B4BEC3"/>
    <path d="M88.005,94.991 C93.669,93.828 98.762,91.954 102.976,89.549 L102.975,89.537 C98.76,91.943 93.669,93.827 88.005,94.991" fill="#B4BEC3"/>
    <path d="M98.039,101.762 C97.9,101.786 97.762,101.807 97.619,101.828 C97.762,101.807 97.9,101.786 98.039,101.762" fill="#B4BEC3"/>
    <path d="M55.662,93.618 L55.427,93.544 L55.662,93.618" fill="#7E7DAD"/>
    <path d="M60.087,94.783 C59.934,94.75 59.782,94.715 59.63,94.681 C59.782,94.715 59.934,94.75 60.087,94.783" fill="#7E7DAD"/>
    <path d="M46.096,89.551 C48.857,91.128 51.997,92.474 55.427,93.544 C51.998,92.472 48.858,91.125 46.096,89.547 L46.096,89.551" fill="#7E7DAD"/>
    <path d="M59.63,94.681 C58.27,94.366 56.945,94.012 55.662,93.618 C56.946,94.01 58.27,94.366 59.63,94.681" fill="#7E7DAD"/>
    <path d="M62.111,95.204 C61.428,95.073 60.753,94.932 60.087,94.783 C60.753,94.932 61.428,95.073 62.111,95.204" fill="#7E7DAD"/>
    <path d="M14.68,50.622 C11.619,66.489 20.495,81.543 34.506,84.246 C36.149,84.564 37.79,84.681 39.412,84.643 C36.381,81.669 34.414,78.281 33.827,74.652 C33.703,73.898 33.624,73.134 33.624,72.36 C33.624,69.026 34.783,65.853 36.875,62.969 C36.618,61.185 36.479,59.367 36.479,57.513 C36.479,49.362 39.056,41.821 43.429,35.635 C45.377,32.875 47.675,30.382 50.272,28.236 C48.788,27.601 47.227,27.101 45.589,26.786 C31.579,24.083 17.742,34.754 14.68,50.622" fill="#B4BEC3"/>
    <path d="M134.396,50.622 C131.335,34.754 117.496,24.083 103.487,26.786 C101.85,27.101 100.289,27.601 98.804,28.236 C101.399,30.382 103.7,32.875 105.648,35.635 C110.02,41.821 112.596,49.362 112.596,57.513 C112.596,59.367 112.456,61.185 112.202,62.969 C114.293,65.853 115.453,69.026 115.453,72.36 C115.453,73.134 115.374,73.898 115.25,74.652 C114.664,78.281 112.695,81.669 109.665,84.643 C111.287,84.681 112.927,84.564 114.571,84.246 C128.581,81.543 137.457,66.489 134.396,50.622" fill="#B4BEC3"/>
    <path d="M77.124,77.907 C76.347,77.651 75.528,77.499 74.696,77.413 C73.598,77.303 72.478,77.327 71.38,77.54 C69.452,77.907 67.634,78.789 66.176,80.023 C64.733,81.262 63.562,82.826 63.072,84.65 C64.652,83.674 66.117,82.871 67.589,82.218 C69.055,81.564 70.514,81.096 72.006,80.811 C72.885,80.646 73.78,80.549 74.696,80.503 C75.334,80.471 75.98,80.46 76.645,80.484 C78.264,80.526 79.94,80.74 81.806,80.888 C80.554,79.496 78.93,78.506 77.124,77.907" fill="#7E7DAD"/>
    <path d="M74.696,86.229 C74.023,86.265 73.352,86.351 72.696,86.526 C71.067,86.953 69.568,87.79 68.369,88.895 C67.185,90.011 66.222,91.375 65.855,92.984 C67.295,92.246 68.568,91.609 69.829,91.06 C71.082,90.509 72.302,90.069 73.54,89.749 C73.92,89.649 74.31,89.581 74.696,89.502 C75.567,89.325 76.455,89.183 77.391,89.106 C78.748,88.982 80.174,88.993 81.806,88.916 C80.051,87.006 77.369,86.086 74.696,86.229" fill="#7E7DAD"/>
    <path d="M77.965,93.286 C76.847,93.181 75.728,93.352 74.696,93.701 C74.342,93.821 73.997,93.961 73.667,94.121 C72.368,94.746 71.25,95.634 70.344,96.68 C69.455,97.737 68.724,98.939 68.422,100.371 C69.767,99.841 70.893,99.266 71.986,98.709 C72.925,98.223 73.817,97.76 74.696,97.33 C74.831,97.263 74.971,97.19 75.105,97.125 C76.117,96.648 77.098,96.22 78.156,95.896 C79.217,95.567 80.355,95.359 81.806,95.233 C80.914,94.076 79.457,93.421 77.965,93.286" fill="#7E7DAD"/>
    <path d="M80.09,99.694 C78.957,99.829 77.831,100.291 76.895,101.041 C75.959,101.792 75.248,102.838 74.912,103.964 C74.592,105.098 74.601,106.289 75.114,107.379 L77.21,105.221 C77.823,104.62 78.392,104.125 78.988,103.633 C79.59,103.149 80.227,102.671 80.951,102.159 C81.682,101.637 82.466,101.093 83.413,100.371 C82.39,99.714 81.222,99.573 80.09,99.694" fill="#7E7DAD"/>
    <path d="M85.283,103.604 C84.442,103.838 83.652,104.365 83.085,105.108 C82.517,105.849 82.207,106.804 82.248,107.714 C82.303,108.625 82.65,109.483 83.413,110.113 C84.032,109.343 84.433,108.776 84.799,108.312 C85.163,107.85 85.459,107.5 85.74,107.12 C86.027,106.741 86.315,106.326 86.668,105.817 C87.02,105.296 87.41,104.713 87.907,103.875 C87.04,103.382 86.127,103.378 85.283,103.604" fill="#7E7DAD"/>
    <path d="M91.76,105.379 C90.977,105.701 90.528,106.128 90.185,106.588 C89.856,107.046 89.667,107.547 89.608,108.075 C89.548,108.6 89.622,109.154 89.863,109.71 C90.118,110.25 90.523,110.858 91.333,111.161 C91.878,110.523 92.233,110.149 92.482,109.717 C92.729,109.296 92.873,108.879 92.919,108.437 C92.965,107.996 92.918,107.533 92.757,107.035 C92.582,106.532 92.321,106.007 91.76,105.379" fill="#7E7DAD"/>
    <path d="M97.994,108.524 C97.972,108.08 97.925,107.669 97.835,107.246 C97.748,106.828 97.621,106.399 97.435,105.95 C97.237,105.499 97.008,105.035 96.594,104.502 C96.085,104.96 95.849,105.495 95.697,106.037 C95.561,106.579 95.549,107.143 95.662,107.698 C95.773,108.25 96.018,108.795 96.409,109.256 C96.806,109.707 97.35,110.091 98.038,110.116 L97.994,108.524" fill="#7E7DAD"/>
    <path d="M57.186,65.508 C57.186,68.03 55.142,70.076 52.619,70.076 C50.097,70.076 48.051,68.03 48.051,65.508 C48.051,62.986 50.097,60.94 52.619,60.94 C55.142,60.94 57.186,62.986 57.186,65.508" fill="#303331"/>
    <path d="M91.888,65.508 C91.888,68.03 93.932,70.076 96.454,70.076 C98.977,70.076 101.023,68.03 101.023,65.508 C101.023,62.986 98.977,60.94 96.454,60.94 C93.932,60.94 91.888,62.986 91.888,65.508" fill="#303331"/>
    <path d="M56.149,64.227 C56.149,65.3 55.278,66.171 54.206,66.171 C53.131,66.171 52.263,65.3 52.263,64.227 C52.263,63.156 53.131,62.285 54.206,62.285 C55.278,62.285 56.149,63.156 56.149,64.227" fill="#FFFFFE"/>
    <path d="M99.982,64.227 C99.982,65.3 99.111,66.171 98.039,66.171 C96.965,66.171 96.096,65.3 96.096,64.227 C96.096,63.156 96.965,62.285 98.039,62.285 C99.111,62.285 99.982,63.156 99.982,64.227" fill="#FFFFFE"/>
    <path d="M103.082,90.483 C103.047,90.172 103.019,89.859 102.976,89.549 C98.762,91.954 93.669,93.828 88.005,94.991 C87.861,95.021 87.716,95.048 87.57,95.077 C86.827,95.224 86.077,95.363 85.314,95.486 C85.655,97.135 86.284,98.66 87.345,99.815 C88.377,100.937 89.815,101.714 91.809,101.905 C92.371,101.958 92.909,101.994 93.431,102.015 C93.606,102.022 93.769,102.019 93.941,102.023 C94.277,102.031 94.615,102.038 94.934,102.032 C95.119,102.029 95.294,102.019 95.473,102.011 C95.763,102 96.053,101.989 96.328,101.967 C96.497,101.954 96.659,101.938 96.823,101.92 C97.094,101.894 97.362,101.864 97.619,101.828 C97.762,101.807 97.9,101.786 98.039,101.762 C98.304,101.719 98.564,101.672 98.813,101.621 C98.925,101.597 99.033,101.574 99.14,101.548 C99.411,101.487 99.674,101.42 99.925,101.349 L100.135,101.291 C100.426,101.204 100.705,101.114 100.969,101.018 L101.031,100.996 C101.324,100.885 101.603,100.774 101.864,100.658 C102.748,98.176 103.227,95.531 103.227,92.784 C103.227,92.004 103.165,91.243 103.082,90.483" fill="#9C9EBE"/>
    <path d="M90.565,122.164 L90.565,114.21 L90.799,114.059 C89.752,114.18 88.653,114.268 87.491,114.314 L87.282,114.319 C86.766,114.337 86.244,114.351 85.705,114.351 C85.092,114.353 84.462,114.344 83.817,114.322 C80.269,114.204 77.258,113.449 74.696,112.254 C67.23,108.78 63.627,101.553 62.111,95.204 C61.428,95.073 60.753,94.932 60.087,94.783 C59.934,94.75 59.782,94.715 59.63,94.681 C58.27,94.366 56.946,94.01 55.662,93.618 L55.427,93.544 C51.997,92.474 48.857,91.128 46.096,89.551 C45.948,90.613 45.848,91.688 45.848,92.784 C45.848,101.705 50.871,109.57 58.509,114.21 L58.509,122.166 C56.045,123.9 54.431,126.76 54.431,130 L73.598,130 C73.598,126.759 71.982,123.899 69.519,122.166 L69.519,118.198 C71.15,118.458 72.821,118.616 74.537,118.616 L74.696,118.609 C75.348,118.599 75.99,118.564 76.628,118.519 C76.948,118.498 77.268,118.473 77.586,118.441 C78.255,118.375 78.911,118.292 79.556,118.198 L79.556,122.166 C77.094,123.902 75.481,126.76 75.481,130 L94.643,130 C94.643,126.758 93.029,123.899 90.565,122.164" fill="#9C9EBE"/>
    <path d="M59.22,92.044 C58.834,92.72 58.514,93.148 58.137,93.656 C57.768,94.138 57.381,94.602 56.972,95.046 C56.157,95.94 55.246,96.765 54.231,97.492 C53.213,98.211 52.079,98.829 50.846,99.238 C49.618,99.656 48.295,99.835 47.019,99.773 C45.873,99.719 44.987,98.745 45.043,97.597 C45.09,96.622 45.801,95.836 46.717,95.656 L46.863,95.628 C48.351,95.335 49.584,94.487 50.62,93.292 C51.134,92.693 51.598,92.02 51.997,91.294 C52.196,90.934 52.382,90.562 52.547,90.186 C52.701,89.833 52.882,89.384 52.931,89.144 C53.319,87.228 55.186,85.989 57.103,86.377 C59.018,86.766 60.257,88.634 59.869,90.55 C59.792,90.923 59.659,91.274 59.482,91.589 L59.22,92.044" fill="#F2E0D6"/>
    <path d="M92.284,89.144 C92.332,89.384 92.514,89.833 92.667,90.186 C92.832,90.562 93.017,90.934 93.217,91.294 C93.616,92.02 94.081,92.693 94.595,93.292 C95.63,94.487 96.863,95.335 98.351,95.628 L98.496,95.656 C99.623,95.877 100.356,96.971 100.135,98.098 C99.946,99.056 99.127,99.73 98.195,99.773 C96.918,99.835 95.595,99.656 94.368,99.238 C93.134,98.829 92.002,98.211 90.983,97.492 C89.968,96.765 89.057,95.94 88.242,95.046 C87.833,94.602 87.446,94.138 87.077,93.656 C86.701,93.148 86.379,92.72 85.994,92.044 L85.741,91.603 C84.771,89.907 85.361,87.744 87.059,86.774 C88.755,85.804 90.917,86.393 91.887,88.092 C92.078,88.422 92.209,88.789 92.284,89.144" fill="#F2E0D6"/>
  </g>
</svg>
