<?xml version="1.0" encoding="UTF-8"?>
<!DOCTYPE svg PUBLIC "-//W3C//DTD SVG 1.1//EN" "http://www.w3.org/Graphics/SVG/1.1/DTD/svg11.dtd">
<svg version="1.1" xmlns="http://www.w3.org/2000/svg" xmlns:xlink="http://www.w3.org/1999/xlink" x="0" y="0" width="150" height="150" viewBox="0, 0, 150, 150">
  <g id="Layer_1">
    <path d="M121.835,87.329 C121.377,86.997 120.782,86.675 120.078,86.381 C120.265,86.497 120.438,86.599 120.602,86.693 C121.055,86.892 121.469,87.105 121.835,87.329" fill="#F1F0C5"/>
    <path d="M121.835,87.329 C121.469,87.105 121.055,86.892 120.602,86.693 C121.347,87.122 121.835,87.329 121.835,87.329" fill="#F1F0C5"/>
    <path d="M48.252,86.381 C47.547,86.675 46.953,86.997 46.492,87.329 C46.86,87.105 47.273,86.892 47.727,86.693 C47.892,86.599 48.065,86.497 48.252,86.381" fill="#F1F0C5"/>
    <path d="M46.492,87.329 C46.492,87.329 46.981,87.122 47.727,86.693 C47.273,86.892 46.86,87.105 46.492,87.329" fill="#F1F0C5"/>
    <path d="M84.081,108.66 C74.597,108.66 66.306,104.121 61.655,97.33 C61.979,103.36 64.652,108.757 68.798,112.617 L68.798,119.728 C66.633,121.415 65.234,124.042 65.234,127 L83.681,127 C83.681,124.042 82.284,121.415 80.117,119.728 L80.117,118.299 C81.427,118.536 82.77,118.679 84.149,118.679 L84.149,108.656 L84.081,108.66" fill="#9C5937"/>
    <path d="M99.502,119.728 L99.502,112.617 C103.699,108.708 106.39,103.225 106.655,97.103 C102.048,104.002 93.709,108.633 84.149,108.656 L84.149,118.679 C85.528,118.679 86.871,118.536 88.183,118.299 L88.183,119.728 C86.017,121.415 84.618,124.042 84.618,127 L103.065,127 C103.065,124.042 101.667,121.415 99.502,119.728" fill="#DF7D41"/>
    <path d="M76.261,102.466 L76.254,102.478 C77.761,103.231 79.33,104.08 80.959,105.035 C82,105.646 83.058,106.285 84.149,106.987 L84.149,73.563 C71.69,73.563 61.593,83.663 61.593,96.121 C61.593,96.53 61.634,96.928 61.655,97.33 C64.034,100.804 67.369,103.682 71.326,105.67 C71.073,104.174 70.846,102.598 70.602,100.945 C72.375,101.485 74.258,101.996 76.261,102.466" fill="#9C5937"/>
    <path d="M84.149,73.563 L84.149,97.152 L84.151,97.152 L84.151,106.987 C85.242,106.285 86.299,105.646 87.343,105.035 C88.969,104.08 90.538,103.231 92.047,102.478 C94.09,101.999 96.009,101.478 97.813,100.928 C97.577,102.529 97.364,104.068 97.126,105.523 C101.04,103.497 104.326,100.593 106.655,97.103 C106.67,96.776 106.707,96.453 106.707,96.121 C106.707,83.663 96.608,73.563 84.149,73.563" fill="#9C5937"/>
    <path d="M84.149,108.656 L84.149,106.987 C83.058,106.285 82,105.646 80.959,105.035 C79.33,104.08 77.761,103.231 76.254,102.478 L76.261,102.466 C74.258,101.996 72.375,101.485 70.602,100.945 C70.846,102.598 71.073,104.174 71.326,105.67 C75.103,107.57 79.447,108.66 84.081,108.66 L84.149,108.656" fill="#C6C6A2"/>
    <path d="M92.047,102.478 C90.538,103.231 88.969,104.08 87.343,105.035 C86.299,105.646 85.242,106.285 84.151,106.987 L84.151,97.152 L84.15,97.152 L84.149,106.987 L84.149,108.656 C88.875,108.644 93.301,107.503 97.126,105.523 C97.364,104.068 97.577,102.529 97.813,100.928 C96.009,101.478 94.09,101.999 92.047,102.478" fill="#C6C6A2"/>
    <path d="M84.081,108.66 C79.447,108.66 75.103,107.57 71.326,105.67 C72.619,113.347 74.664,118.679 84.149,118.679 L84.149,108.656 L84.081,108.66" fill="#C6C6A2"/>
    <path d="M97.126,105.523 C93.301,107.503 88.875,108.644 84.149,108.656 L84.149,118.679 C93.913,118.679 95.861,113.282 97.126,105.523" fill="#F1F0C5"/>
    <g id="right-ear" style="transform-origin: bottom left;">
      <path d="M95.429,53.151 C101.244,29.575 120.417,21.323 120.417,21.323 C120.417,21.323 134.123,57.103 107.923,65.633 L95.429,53.151" fill="#303331"/>
      <path d="M98.227,55.321 C105.716,32.926 117.71,29.02 117.71,29.02 C117.71,29.02 128.076,50.406 105.304,63.449 L98.227,55.321" fill="#9C5937"/>
    </g>
    <g id="left-ear" style="transform-origin: bottom right;">
      <path d="M72.871,53.151 C67.056,29.575 47.883,21.323 47.883,21.323 C47.883,21.323 34.177,57.103 60.376,65.633 L72.871,53.151" fill="#303331"/>
      <path d="M70.073,55.321 C62.584,32.926 50.589,29.02 50.589,29.02 C50.589,29.02 40.225,50.406 62.996,63.449 L70.073,55.321" fill="#9C5937"/>
    </g>
    <g id="tail" style="transform-origin: center right;">
      <path d="M70.06,109.526 C62.419,115.824 52.377,111.606 46.436,105.035 C45.972,104.522 45.445,104.06 44.89,103.621 C42.374,103.503 39.641,103.786 37.398,105.035 C37.398,105.035 41.417,108.069 42.944,111.398 C42.944,111.398 38.439,112.316 34.902,110.088 C34.902,110.088 35.346,115.411 39.116,120.012 C40.296,120.372 41.565,120.695 42.944,120.968 C66.173,125.544 72.858,112.343 72.858,112.343 L70.06,109.526" fill="#9C5937"/>
      <path d="M42.944,111.398 C41.417,108.069 37.398,105.035 37.398,105.035 C39.641,103.786 42.374,103.503 44.89,103.621 C38.333,98.443 26.166,98.247 26.166,98.247 C26.166,98.247 20.467,114.294 39.116,120.012 C35.346,115.411 34.902,110.088 34.902,110.088 C38.439,112.316 42.944,111.398 42.944,111.398" fill="#C6C6A2"/>
    </g>
    <path d="M104.821,86.435 C96.742,88.531 89.632,95.297 88.231,98.247 C87.008,97.568 85.62,97.149 84.122,97.149 L84.122,47.049 C100.053,47.049 112.968,59.964 112.968,75.894 C112.968,76.269 112.926,76.633 112.911,77.003 C114.719,84.367 121.821,87.329 121.821,87.329 C118.792,85.478 112.746,84.38 104.821,86.435" fill="#DF7D41"/>
    <path d="M92.018,102.478 C91.283,100.664 89.929,99.189 88.231,98.247 C89.632,95.974 94.308,89.942 104.821,86.435 C112.587,83.847 119.254,85.478 121.821,87.329 C121.821,87.329 113.98,97.33 92.018,102.478" fill="#F1F0C5"/>
    <path d="M76.225,102.478 C77.734,103.231 79.301,104.08 80.931,105.035 C81.972,105.646 83.03,106.285 84.121,106.987 L84.121,97.149 C82.622,97.149 81.235,97.568 80.011,98.247 C78.314,99.189 76.96,100.664 76.225,102.478" fill="#303331"/>
    <path d="M88.231,98.247 C87.008,97.568 85.62,97.149 84.122,97.149 L84.122,106.987 C85.213,106.285 86.271,105.646 87.314,105.035 C88.942,104.08 90.508,103.231 92.018,102.478 C91.283,100.664 89.929,99.189 88.231,98.247" fill="#303331"/>
    <path d="M63.479,86.435 C71.558,88.531 78.668,95.297 80.068,98.247 C81.292,97.568 82.68,97.149 84.177,97.149 L84.177,47.049 C68.247,47.049 55.332,59.964 55.332,75.894 C55.332,76.269 55.374,76.633 55.389,77.003 C53.581,84.367 46.478,87.329 46.478,87.329 C49.508,85.478 55.554,84.38 63.479,86.435" fill="#9C5937"/>
    <path d="M76.282,102.478 C77.017,100.664 78.37,99.189 80.068,98.247 C78.668,95.974 73.992,89.942 63.479,86.435 C55.712,83.847 49.045,85.478 46.478,87.329 C46.478,87.329 54.32,97.33 76.282,102.478" fill="#C6C6A2"/>
    <path d="M84.136,47.049 L84.136,47.051 L84.165,47.049 L84.136,47.049" fill="#DE653F"/>
    <path d="M80.072,98.224 L80.07,98.226 L80.083,98.247 L80.072,98.224" fill="#000E12"/>
    <path d="M84.192,47.049 L84.165,47.049 L84.192,47.051 L84.192,47.049" fill="#95482F"/>
    <path d="M84.192,72.244 L84.192,47.051 L84.165,47.049 L84.136,47.051 L84.136,72.249 L84.192,72.244" fill="#95482F"/>
    <path d="M84.136,97.149 L84.165,97.15 L84.192,97.149 L84.192,72.244 L84.136,72.249 L84.136,97.149" fill="#95482F"/>
    <path d="M80.072,98.224 L80.083,98.247 C81.291,97.578 82.659,97.163 84.136,97.152 L84.136,97.149 C82.655,97.149 81.284,97.561 80.072,98.224" fill="#95482F"/>
    <path d="M84.136,97.149 L84.136,97.152 L84.165,97.15 L84.136,97.149" fill="#95482F"/>
    <path d="M83.713,127 C83.713,121.899 79.577,117.764 74.477,117.764 C69.377,117.764 65.241,121.899 65.241,127 L83.713,127" fill="#303331"/>
    <path d="M103.103,127 C103.103,121.899 98.969,117.764 93.867,117.764 C88.767,117.764 84.631,121.899 84.631,127 L103.103,127" fill="#303331"/>
    <path d="M61.714,72.432 C61.714,72.432 74.068,68.849 73.791,81.413 C73.791,81.413 61.714,85.798 61.714,72.432" fill="#EB9742"/>
    <path d="M94.034,81.413 C94.034,81.413 106.11,85.798 106.11,72.432 C106.11,72.432 93.756,68.849 94.034,81.413" fill="#EB9742"/>
    <path d="M71.539,75.715 C71.539,76.956 70.533,77.962 69.292,77.962 C68.05,77.962 67.045,76.956 67.045,75.715 C67.045,74.474 68.05,73.468 69.292,73.468 C70.533,73.468 71.539,74.474 71.539,75.715" fill="#FFFFFE" id="left-pupil"/>
    <path d="M103.951,75.715 C103.951,76.956 102.945,77.962 101.704,77.962 C100.462,77.962 99.458,76.956 99.458,75.715 C99.458,74.474 100.462,73.468 101.704,73.468 C102.945,73.468 103.951,74.474 103.951,75.715" fill="#FFFFFE" id="right-pupil"/>
  </g>
</svg>
