<?xml version="1.0" encoding="UTF-8"?>
<!DOCTYPE svg PUBLIC "-//W3C//DTD SVG 1.1//EN" "http://www.w3.org/Graphics/SVG/1.1/DTD/svg11.dtd">
<svg version="1.1" xmlns="http://www.w3.org/2000/svg" xmlns:xlink="http://www.w3.org/1999/xlink" x="0" y="0" width="150" height="150" viewBox="0, 0, 150, 150">
  <g id="Layer_1">
    <path d="M118,95.07 C118,115.576 98.492,132.387 74.43,132.387 C50.366,132.387 30.86,115.576 30.86,95.07 C30.86,74.564 50.366,57.941 74.43,57.941 C98.492,57.941 118,74.564 118,95.07" fill="#9C5937"/>
    <path d="M76.927,32.124 C75.547,32.124 74.43,31.007 74.43,29.627 L74.43,21.306 C74.43,19.927 75.547,18.81 76.927,18.81 C78.307,18.81 79.423,19.927 79.423,21.306 L79.423,29.627 C79.423,31.007 78.307,32.124 76.927,32.124" fill="#A43C39"/>
    <path d="M81.366,34.62 C79.986,34.62 78.869,33.503 78.869,32.124 L78.869,23.803 C78.869,22.424 79.986,21.306 81.366,21.306 C82.744,21.306 83.863,22.424 83.863,23.803 L83.863,32.124 C83.863,33.503 82.744,34.62 81.366,34.62" fill="#A43C39"/>
    <path d="M36.796,87.797 L36.863,87.747 L36.936,87.683 L36.936,87.7 L36.796,87.797" fill="#A4642E"/>
    <path d="M112.459,87.845 L112.456,87.828 L112.527,87.888 L112.595,87.938 L112.459,87.845" fill="#A4642E"/>
    <path d="M74.347,95.424 L74.098,95.424 C69.504,95.293 65.895,91.45 66.043,86.855 C66.043,86.505 66.075,86.174 66.125,85.839 C66.028,86.056 65.91,86.271 65.794,86.489 C63.463,90.45 58.355,91.78 54.394,89.45 C50.432,87.121 49.101,82.013 51.43,78.051 C51.583,77.818 51.733,77.602 51.881,77.384 C51.63,77.618 51.381,77.852 51.096,78.067 C48.316,80.216 44.621,80.311 41.774,78.629 C38.769,87.665 38.76,97.828 38.76,97.828 C39.231,117.332 55.178,133 74.793,133 L74.796,133 L74.796,95.382 C74.643,95.388 74.503,95.424 74.347,95.424" fill="#C5B7B0"/>
    <path d="M51.096,78.067 C51.381,77.852 51.63,77.618 51.881,77.384 C51.733,77.602 51.583,77.818 51.43,78.051 C49.101,82.013 50.432,87.121 54.394,89.45 C58.355,91.78 63.463,90.45 65.794,86.489 C65.91,86.271 66.028,86.056 66.125,85.839 C66.075,86.174 66.043,86.505 66.043,86.855 C65.895,91.45 69.504,95.293 74.098,95.424 L74.347,95.424 C74.503,95.424 74.643,95.388 74.796,95.382 L74.796,27.323 L74.793,27.323 C61.749,27.323 51.055,37.333 49.943,50.09 L49.929,50.074 C49.929,50.074 49.932,50.146 49.934,50.263 C49.878,50.933 49.83,51.602 49.83,52.286 C49.83,52.495 49.852,52.7 49.857,52.909 C49.715,55.425 49.343,59.353 48.248,63.496 C47.476,66.405 46.355,69.415 44.698,72.119 C43.493,74.088 42.538,76.325 41.774,78.629 C44.621,80.311 48.316,80.216 51.096,78.067" fill="#9C5937"/>
    <path d="M110.831,97.781 C110.831,97.781 110.819,87.948 107.96,79.029 C104.841,81.36 100.424,81.252 97.429,78.551 C97.329,78.466 97.23,78.367 97.131,78.285 C97.263,78.466 97.38,78.667 97.496,78.866 C99.744,82.862 98.346,87.934 94.334,90.201 C90.34,92.463 85.264,91.049 83,87.037 C82.866,86.804 82.752,86.572 82.635,86.324 C82.669,86.672 82.685,87.005 82.669,87.353 C82.54,91.711 79.08,95.15 74.796,95.382 L74.796,133 C94.429,133 110.384,117.307 110.831,97.781" fill="#F2E0D6"/>
    <path d="M82.669,87.353 C82.685,87.005 82.669,86.672 82.635,86.324 C82.752,86.572 82.866,86.804 83,87.037 C85.264,91.049 90.34,92.463 94.334,90.201 C98.346,87.934 99.744,82.862 97.496,78.866 C97.38,78.667 97.263,78.466 97.131,78.285 C97.23,78.367 97.329,78.466 97.429,78.551 C100.424,81.252 104.841,81.36 107.96,79.029 C107.177,76.583 106.19,74.202 104.919,72.119 C103.402,69.63 102.331,66.885 101.568,64.201 C100.266,59.62 99.875,55.22 99.746,52.59 C99.746,52.488 99.756,52.388 99.756,52.286 C99.756,51.831 99.713,51.388 99.687,50.94 C99.682,50.402 99.687,50.074 99.687,50.074 L99.649,50.131 C98.553,37.355 87.855,27.323 74.796,27.323 L74.796,95.382 C79.08,95.15 82.54,91.711 82.669,87.353" fill="#AD735D"/>
    <path d="M68.316,15.065 C70.012,16.427 71.136,17.832 72.145,19.022 C72.657,19.645 73.023,19.979 73.537,20.556 C74.059,21.172 74.636,21.929 75.11,22.775 C76.076,24.462 76.674,26.511 76.642,28.533 C76.595,30.559 76.011,32.558 74.557,34.204 C73.239,32.451 72.373,31.027 71.549,29.738 C70.736,28.448 70.026,27.317 69.313,26.047 C68.949,25.408 68.602,24.737 68.211,23.918 C67.791,23.072 67.372,21.887 67.286,20.916 C67.078,18.927 67.329,17.031 68.316,15.065" fill="#E05B5B"/>
    <path d="M83.791,69.918 L83.791,69.905 C83.791,64.359 78.775,59.862 74.638,59.862 C70.502,59.862 65.486,64.359 65.486,69.905 C65.486,72.125 65.313,77.96 69.51,77.96 C70.745,77.96 71.838,77.387 72.576,76.509 C73.27,76.585 73.966,76.62 74.638,76.62 C75.312,76.62 76.006,76.585 76.701,76.509 C77.439,77.387 78.531,77.96 79.771,77.96 C83.957,77.96 83.791,72.148 83.791,69.918" fill="#E05B5B"/>
    <path d="M64.574,41.593 C58.442,41.593 53.467,46.317 53.467,52.148 C53.467,57.976 58.442,62.702 64.574,62.702 C69.164,62.702 73.101,63.368 74.796,59.616 L74.796,48.007 C73.101,44.237 69.164,41.593 64.574,41.593" fill="#C5B7B0"/>
    <path d="M85.043,62.702 C91.179,62.702 96.153,57.976 96.153,52.148 C96.153,46.317 91.179,41.593 85.043,41.593 C80.442,41.593 76.496,44.248 74.811,48.033 L74.796,48.007 L74.796,59.616 L74.811,59.588 C76.496,63.375 80.442,62.702 85.043,62.702" fill="#F2E0D6"/>
    <path d="M72.841,60.135 L70.151,61.911 C69.069,62.626 68.724,64.122 69.389,65.238 L73.602,72.311 C73.935,72.868 74.372,73.146 74.811,73.146 L74.811,59.598 C74.094,59.598 73.383,59.777 72.841,60.135" fill="#EB9742"/>
    <path d="M76.015,72.311 L80.228,65.238 C80.892,64.122 80.549,62.626 79.467,61.911 L76.777,60.135 C76.237,59.777 75.521,59.598 74.811,59.598 L74.811,73.146 C75.245,73.146 75.683,72.868 76.015,72.311" fill="#F4D864"/>
    <path d="M62.92,48.571 C62.204,48.571 61.542,48.785 60.981,49.145 C60.855,49.06 60.709,48.98 60.588,48.855 L59.237,47.257 C59.135,47.994 59.168,48.754 59.432,49.518 C59.531,49.791 59.603,50.137 59.808,50.389 C59.506,50.916 59.321,51.519 59.321,52.17 C59.321,54.159 60.932,55.768 62.92,55.768 C64.906,55.768 66.52,54.159 66.52,52.17 C66.52,50.181 64.906,48.571 62.92,48.571" fill="#331014"/>
    <path d="M89.237,50.027 C89.304,49.855 89.355,49.676 89.411,49.518 C89.674,48.754 89.707,47.994 89.607,47.257 L89.442,47.228 C89.079,47.845 88.679,48.416 88.257,48.855 L88.057,49.015 C87.55,48.741 86.977,48.571 86.36,48.571 C84.368,48.571 82.756,50.181 82.756,52.17 C82.756,54.159 84.368,55.768 86.36,55.768 C88.345,55.768 89.957,54.159 89.957,52.17 C89.957,51.363 89.684,50.627 89.237,50.027" fill="#331014"/>
    <path d="M65.485,51.156 C65.485,51.747 65.004,52.228 64.411,52.228 C63.82,52.228 63.339,51.747 63.339,51.156 C63.339,50.563 63.82,50.082 64.411,50.082 C65.004,50.082 65.485,50.563 65.485,51.156" fill="#FFFFFE"/>
    <path d="M89.012,51.156 C89.012,51.747 88.531,52.228 87.941,52.228 C87.347,52.228 86.868,51.747 86.868,51.156 C86.868,50.563 87.347,50.082 87.941,50.082 C88.531,50.082 89.012,50.563 89.012,51.156" fill="#FFFFFE"/>
  </g>
</svg>
