<?xml version="1.0" encoding="UTF-8"?>
<!DOCTYPE svg PUBLIC "-//W3C//DTD SVG 1.1//EN" "http://www.w3.org/Graphics/SVG/1.1/DTD/svg11.dtd">
<svg version="1.1" xmlns="http://www.w3.org/2000/svg" xmlns:xlink="http://www.w3.org/1999/xlink" x="0" y="0" width="150" height="150" viewBox="0, 0, 150, 150">
  <g id="Layer_1">
    <path d="M65.273,105.066 L65.263,105.082 C67.093,105.995 68.994,107.024 70.969,108.182 C72.231,108.922 73.514,109.698 74.839,110.549 L74.839,70.022 C59.732,70.022 47.488,82.268 47.488,97.375 C47.488,97.87 47.536,98.351 47.562,98.84 C50.448,103.05 54.492,106.542 59.291,108.953 C58.983,107.138 58.707,105.229 58.411,103.223 C60.56,103.877 62.845,104.497 65.273,105.066" fill="#C0906D"/>
    <path d="M74.839,70.022 L74.839,98.625 L74.84,98.625 L74.84,110.549 C76.164,109.698 77.444,108.922 78.712,108.182 C80.685,107.024 82.586,105.995 84.416,105.082 C86.893,104.503 89.22,103.87 91.407,103.202 C91.119,105.143 90.862,107.009 90.575,108.774 C95.32,106.318 99.302,102.797 102.127,98.566 C102.146,98.168 102.192,97.776 102.192,97.375 C102.192,82.268 89.947,70.022 74.839,70.022" fill="#C0906D"/>
    <path d="M74.839,112.573 L74.839,103.817 C73.514,102.965 72.231,102.192 70.969,101.45 C68.994,100.291 65.263,103.736 65.263,103.736 C65.263,103.73 60.56,103.877 58.411,103.223 C58.707,105.229 58.983,107.138 59.291,108.953 C63.866,111.256 69.135,112.577 74.754,112.577 L74.839,112.573" fill="#C0906D"/>
    <path d="M84.168,103.886 C82.34,104.799 80.685,100.291 78.712,101.45 C77.444,102.192 76.164,102.965 74.84,103.817 L74.84,98.625 L74.839,110.549 L74.839,112.573 C80.568,112.559 85.937,111.175 90.575,108.774 C90.862,107.009 91.119,105.143 91.407,103.202 C89.22,103.87 86.646,103.305 84.168,103.886" fill="#C0906D"/>
    <path d="M70.582,124.354 C71.1,124.452 71.65,124.527 72.22,124.586 L72.404,124.606 C73.171,124.677 73.971,124.725 74.839,124.725 L74.839,112.573 L74.754,112.577 C74.045,112.577 73.342,112.555 72.646,112.513 C72.276,112.492 71.917,112.449 71.554,112.418 C71.232,112.388 70.905,112.368 70.585,112.331 C70.09,112.271 69.603,112.192 69.115,112.115 C68.934,112.085 68.752,112.064 68.573,112.031 C67.998,111.929 67.432,111.808 66.868,111.677 L66.616,111.624 C65.991,111.475 65.374,111.307 64.765,111.124 L64.707,111.109 C62.818,110.541 61.005,109.816 59.291,108.953 C54.492,106.543 50.448,103.05 47.562,98.84 C47.955,106.151 51.197,112.695 56.223,117.376 L56.223,126 C53.598,128.044 51.903,131.229 51.903,134.816 L74.27,134.816 C74.27,131.229 72.575,128.044 69.949,126 L69.949,124.266 C70.158,124.303 70.371,124.321 70.582,124.354" fill="#C0906D"/>
    <path d="M93.455,126 L93.455,117.376 C98.543,112.636 101.806,105.987 102.127,98.566 C99.302,102.795 95.32,106.318 90.575,108.774 C88.256,109.974 85.755,110.921 83.118,111.567 L83.007,111.593 C82.385,111.743 81.757,111.88 81.119,111.997 C81.008,112.015 80.894,112.03 80.784,112.048 C80.217,112.146 79.646,112.24 79.072,112.31 C78.82,112.341 78.561,112.355 78.306,112.38 C77.865,112.427 77.421,112.475 76.977,112.505 C76.27,112.547 75.557,112.572 74.839,112.573 L74.839,124.725 C76.539,124.725 78.026,124.577 79.36,124.318 C79.483,124.297 79.609,124.288 79.729,124.266 L79.729,126 C77.102,128.044 75.406,131.229 75.406,134.816 L97.777,134.816 C97.777,131.229 96.079,128.044 93.455,126" fill="#ECBD8E"/>
    <path d="M60.662,112.565 C58.801,112.565 57.294,114.073 57.294,115.931 C57.294,122.732 51.76,128.267 44.959,128.267 C38.643,128.267 33.427,123.497 32.711,117.371 C29.371,118.88 27.151,118.051 25.95,117.201 C26.612,127.125 34.871,135 44.959,135 C55.472,135 64.028,126.447 64.028,115.931 C64.028,114.073 62.52,112.565 60.662,112.565" fill="#C0906D"/>
    <path d="M32.711,117.371 C32.656,116.898 32.619,116.419 32.619,115.931 C32.619,114.515 32.858,113.128 33.327,111.806 C33.949,110.052 33.031,108.128 31.28,107.507 C29.528,106.885 27.605,107.801 26.983,109.554 C26.255,111.603 25.889,113.748 25.889,115.931 C25.889,116.36 25.925,116.779 25.95,117.201 C27.151,118.051 29.371,118.88 32.711,117.371" fill="#311413"/>
    <path d="M126.017,68.614 C126.017,122.417 78.609,115.63 74.84,122.417 C66.641,114.354 23.662,122.417 23.662,68.614 C23.662,38.9 30.284,14.809 74.84,14.809 C122.786,14.809 126.017,38.9 126.017,68.614" fill="#9C5937"/>
    <path d="M64.36,40.506 C64.36,48.553 57.837,55.076 49.789,55.076 C41.745,55.076 35.222,48.553 35.222,40.506 C35.222,32.462 41.745,25.94 49.789,25.94 C57.837,25.94 64.36,32.462 64.36,40.506" fill="#9C5937"/>
    <path d="M58.189,40.506 C58.189,45.147 54.429,48.906 49.789,48.906 C45.152,48.906 41.394,45.147 41.394,40.506 C41.394,35.87 45.152,32.11 49.789,32.11 C54.429,32.11 58.189,35.87 58.189,40.506" fill="#311413"/>
    <path d="M113.687,40.506 C113.687,48.553 107.163,55.076 99.118,55.076 C91.073,55.076 84.552,48.553 84.552,40.506 C84.552,32.462 91.073,25.94 99.118,25.94 C107.163,25.94 113.687,32.462 113.687,40.506" fill="#ECBD8E"/>
    <path d="M107.516,40.506 C107.516,45.147 103.759,48.906 99.118,48.906 C94.48,48.906 90.72,45.147 90.72,40.506 C90.72,35.87 94.48,32.11 99.118,32.11 C103.759,32.11 107.516,35.87 107.516,40.506" fill="#311413"/>
    <path d="M64.36,40.506 C64.36,48.553 57.837,55.076 49.789,55.076 C41.745,55.076 35.222,48.553 35.222,40.506 C35.222,32.462 41.745,25.94 49.789,25.94 C57.837,25.94 64.36,32.462 64.36,40.506" fill="#ECBD8E"/>
    <path d="M58.189,40.506 C58.189,45.147 54.429,48.906 49.789,48.906 C45.152,48.906 41.394,45.147 41.394,40.506 C41.394,35.87 45.152,32.11 49.789,32.11 C54.429,32.11 58.189,35.87 58.189,40.506" fill="#311413"/>
    <path d="M74.823,37.872 L74.823,37.875 L74.856,37.873 L74.823,37.872" fill="#DE653F"/>
    <path d="M69.895,99.925 L69.892,99.926 L69.908,99.953 L69.895,99.925" fill="#000E12"/>
    <path d="M74.891,37.872 L74.856,37.873 L74.891,37.875 L74.891,37.872" fill="#95482F"/>
    <path d="M74.891,68.422 L74.891,37.875 L74.856,37.873 L74.823,37.875 L74.823,68.428 L74.891,68.422" fill="#95482F"/>
    <path d="M74.823,98.62 L74.856,98.622 L74.891,98.62 L74.891,68.422 L74.823,68.428 L74.823,98.62" fill="#95482F"/>
    <path d="M74.823,98.62 L74.823,98.625 L74.856,98.622 L74.823,98.62" fill="#95482F"/>
    <path d="M38.893,69.549 C38.932,78.797 41.394,94.584 41.394,94.584 C41.394,94.584 42.17,97.647 56.907,102.907 C56.907,102.289 56.907,100.511 56.907,95.891 C56.907,90.645 57.548,88.074 58.12,86.813 C64.121,89.185 68.701,92.061 69.892,94.566 C71.373,93.744 73.056,93.233 74.872,93.233 L74.872,32.485 C47.562,32.485 38.809,50.232 38.893,69.549" fill="#C0906D"/>
    <path d="M63.078,83.309 C61.608,83.914 60.198,84.666 59.012,85.63 C59.012,85.63 56.907,86.382 56.907,95.891 C56.907,100.511 56.907,102.289 56.907,102.907 C62.462,104.889 68.227,106.509 74.839,106.509 L74.891,84.111 C68.698,81.064 66.227,82.313 63.078,83.309" fill="#C6C6A2"/>
    <path d="M108.299,94.573 C108.299,94.573 110.729,78.491 110.803,69.549 C110.968,50.233 102.132,32.485 74.825,32.485 L74.825,84.088 C80.981,81.072 83.451,82.317 86.588,83.309 C88.061,83.914 89.472,84.666 90.658,85.63 C90.658,85.63 92.762,86.382 92.762,95.891 C92.762,100.488 92.762,102.269 92.762,102.894 C107.508,97.638 108.299,94.573 108.299,94.573" fill="#ECBD8E"/>
    <path d="M74.859,105.164 L74.828,93.233 L74.825,93.233 L74.825,91.479 L74.806,84.111 L74.825,84.102 L74.825,84.088 L74.779,84.111 L74.832,106.509 C80.456,106.509 85.978,105.193 91.075,103.486 C85.99,105.089 80.495,105.886 74.859,105.164" fill="#F1F0C5"/>
    <path d="M90.658,85.63 C89.472,84.666 88.061,83.914 86.588,83.309 C83.451,82.317 80.981,81.072 74.825,84.088 L74.825,84.102 L74.806,84.111 L74.825,91.479 L74.825,93.233 L74.828,93.233 L74.859,105.164 C80.495,105.886 85.99,105.089 91.075,103.486 C91.648,103.304 92.201,103.093 92.762,102.894 C92.762,102.269 92.762,100.488 92.762,95.891 C92.762,86.382 90.658,85.63 90.658,85.63" fill="#F1F0C5"/>
    <path d="M92.762,102.907 L92.762,102.894 C92.201,103.093 91.648,103.304 91.075,103.486 C91.643,103.296 92.207,103.103 92.762,102.907" fill="#F1F0C5"/>
    <path d="M50.674,63.038 C50.674,63.038 65.654,58.693 65.316,73.926 C65.316,73.926 50.674,79.245 50.674,63.038" fill="#311413"/>
    <path d="M63.724,68.774 C63.724,71.841 61.237,74.33 58.168,74.33 C55.103,74.33 52.616,71.841 52.616,68.774 C52.616,65.706 55.103,63.219 58.168,63.219 C61.237,63.219 63.724,65.706 63.724,68.774" fill="#A4642E"/>
    <path d="M61.941,66.479 C61.941,67.539 61.083,68.395 60.026,68.395 C58.969,68.395 58.111,67.539 58.111,66.479 C58.111,65.422 58.969,64.567 60.026,64.567 C61.083,64.567 61.941,65.422 61.941,66.479" fill="#FFFFFE" id="left-pupil"/>
    <path d="M99.119,63.038 C99.119,63.038 84.14,58.693 84.475,73.926 C84.475,73.926 99.119,79.245 99.119,63.038" fill="#311413"/>
    <path d="M85.974,68.774 C85.974,71.841 88.461,74.33 91.527,74.33 C94.593,74.33 97.08,71.841 97.08,68.774 C97.08,65.706 94.593,63.219 91.527,63.219 C88.461,63.219 85.974,65.706 85.974,68.774" fill="#A4642E"/>
    <path d="M91.796,66.479 C91.796,67.539 92.652,68.395 93.71,68.395 C94.767,68.395 95.625,67.539 95.625,66.479 C95.625,65.422 94.767,64.567 93.71,64.567 C92.652,64.567 91.796,65.422 91.796,66.479" fill="#FFFFFE" id="right-pupil"/>
    <path d="M73.951,89.473 C73.117,89.322 72.409,88.96 71.938,88.41 C69.728,85.819 66.81,84.022 65.254,83.145 C66.771,82.683 69.909,81.973 74.806,81.973 C79.638,81.973 82.802,82.689 84.33,83.147 C81.531,84.858 79.166,86.694 77.454,88.492 C76.979,88.99 76.346,89.32 75.574,89.473 L73.951,89.473" fill="#C66870"/>
    <path d="M74.806,81.418 C67.426,81.418 63.896,83.036 63.92,83.036 L63.922,83.036 C64.007,83.157 68.473,85.204 71.517,88.77 C72.154,89.517 73.056,89.874 73.951,90.029 L75.627,90.029 C76.45,89.876 77.242,89.518 77.858,88.876 C81.032,85.541 85.597,83.061 85.635,83.016 C85.635,83.016 82.108,81.418 74.806,81.418 z M74.806,82.528 C78.529,82.528 81.241,82.959 82.955,83.359 C80.586,84.895 78.569,86.516 77.054,88.108 C76.669,88.511 76.153,88.785 75.519,88.917 L74.052,88.917 C73.299,88.774 72.73,88.482 72.362,88.05 C70.566,85.945 68.328,84.359 66.688,83.346 C68.406,82.949 71.101,82.528 74.806,82.528" fill="#311413"/>
    <path d="M74.133,93.725 C72.762,96.092 71.03,97.433 68.981,97.713 C64.344,98.335 59.42,93.478 59.372,93.431 C59.108,93.165 58.681,93.165 58.418,93.428 C58.156,93.691 58.156,94.116 58.417,94.38 C58.621,94.586 63.193,99.116 68.123,99.116 C68.468,99.116 68.813,99.094 69.159,99.047 C71.394,98.742 73.288,97.443 74.806,95.184 C76.321,97.443 78.217,98.742 80.451,99.047 C80.796,99.094 81.146,99.116 81.489,99.116 C86.418,99.116 90.99,94.586 91.197,94.38 C91.457,94.116 91.456,93.691 91.194,93.425 C90.929,93.166 90.501,93.166 90.24,93.431 C90.191,93.478 85.275,98.329 80.635,97.713 C78.579,97.428 76.855,96.1 75.479,93.725 L75.479,90.062 L75.627,90.029 L73.951,90.029 L74.133,90.066 L74.133,93.725" fill="#311413"/>
    <g id="left-whiskers">
      <path d="M25.889,94.098 C25.724,94.098 25.562,94.04 25.432,93.921 C25.158,93.67 25.14,93.244 25.391,92.97 C38.691,78.461 59.336,86.581 59.541,86.667 C59.887,86.805 60.053,87.197 59.914,87.542 C59.774,87.888 59.382,88.051 59.036,87.914 C58.841,87.835 39.047,80.068 26.384,93.88 C26.249,94.024 26.07,94.098 25.889,94.098" fill="#775749"/>
      <path d="M30.267,98.332 C30.098,98.332 29.928,98.27 29.797,98.142 C29.53,97.883 29.524,97.457 29.781,97.19 C42.241,84.348 58.485,88.672 58.649,88.714 C59.007,88.815 59.217,89.185 59.119,89.544 C59.019,89.904 58.654,90.113 58.289,90.012 C58.134,89.971 42.635,85.873 30.748,98.127 C30.617,98.263 30.443,98.332 30.267,98.332" fill="#775749"/>
      <path d="M35.864,103.046 C35.729,103.046 35.594,103.005 35.474,102.922 C35.17,102.709 35.099,102.289 35.312,101.985 C43.941,89.723 58.39,90.919 58.531,90.928 C58.901,90.963 59.174,91.292 59.14,91.662 C59.107,92.029 58.8,92.307 58.407,92.27 C58.275,92.256 44.585,91.146 36.413,102.759 C36.282,102.946 36.075,103.046 35.864,103.046" fill="#775749"/>
    </g>
    <g id="right-whiskers">
      <path d="M122.769,94.098 C122.585,94.098 122.406,94.024 122.271,93.88 C109.608,80.068 89.816,87.835 89.618,87.914 C89.274,88.051 88.88,87.886 88.741,87.542 C88.601,87.197 88.769,86.805 89.114,86.667 C89.32,86.581 109.964,78.461 123.264,92.97 C123.514,93.244 123.496,93.67 123.222,93.921 C123.093,94.04 122.932,94.098 122.769,94.098" fill="#775749"/>
      <path d="M118.388,98.332 C118.211,98.332 118.038,98.263 117.908,98.127 C105.998,85.856 90.521,89.969 90.366,90.012 C90.005,90.114 89.637,89.902 89.538,89.545 C89.438,89.185 89.647,88.815 90.006,88.714 C90.167,88.672 106.414,84.348 118.874,97.19 C119.131,97.457 119.124,97.883 118.859,98.142 C118.726,98.268 118.558,98.332 118.388,98.332" fill="#775749"/>
      <path d="M112.793,103.046 C112.58,103.046 112.372,102.946 112.243,102.759 C104.067,91.144 90.383,92.257 90.246,92.27 C89.862,92.297 89.549,92.029 89.515,91.662 C89.482,91.292 89.754,90.963 90.126,90.928 C90.265,90.919 104.713,89.722 113.344,101.985 C113.557,102.289 113.485,102.709 113.18,102.922 C113.064,103.005 112.926,103.046 112.793,103.046" fill="#775749"/>
    </g>
    <path d="M74.779,48.175 L62.761,33.883 L74.779,26.965 L86.234,33.707 L74.779,48.175" fill="#9C5937"/>
  </g>
</svg>
