<?xml version="1.0" encoding="UTF-8"?>
<!DOCTYPE svg PUBLIC "-//W3C//DTD SVG 1.1//EN" "http://www.w3.org/Graphics/SVG/1.1/DTD/svg11.dtd">
<svg version="1.1" xmlns="http://www.w3.org/2000/svg" xmlns:xlink="http://www.w3.org/1999/xlink" x="0" y="0" width="150" height="150" viewBox="0, 0, 150, 150">
  <g id="Layer_1">
    <path d="M58.504,117.508 L72.328,117.508 L72.328,132.482 L58.504,132.482 z" fill="#5A372C"/>
    <path d="M78.909,117.508 L92.736,117.508 L92.736,132.482 L78.909,132.482 z" fill="#775749"/>
    <path d="M65.416,127.254 C60.034,127.254 55.671,131.616 55.671,137 L75.16,137 C75.16,131.616 70.798,127.254 65.416,127.254" fill="#ECBD8E"/>
    <path d="M85.821,127.254 C80.44,127.254 76.076,131.616 76.076,137 L95.569,137 C95.569,131.616 91.204,127.254 85.821,127.254" fill="#ECBD8E"/>
    <path d="M53.621,95.719 C52.903,97.93 52.501,100.284 52.501,102.735 C52.501,115.251 62.648,125.396 75.16,125.396 L75.16,106.439 C66.057,106.439 58.101,102.145 53.621,95.719" fill="#5A372C"/>
    <path d="M75.16,106.439 L75.16,125.396 C87.675,125.396 97.822,115.251 97.822,102.735 C97.822,100.284 97.421,97.93 96.703,95.719 C92.221,102.145 84.265,106.439 75.16,106.439" fill="#775749"/>
    <path d="M75.16,80.077 C65.1,80.077 56.577,86.64 53.621,95.719 C58.101,102.145 66.057,106.439 75.16,106.439 C84.265,106.439 92.221,102.145 96.703,95.719 C93.744,86.64 85.224,80.077 75.16,80.077" fill="#5A372C"/>
    <path d="M50.156,62.673 C50.156,69.302 44.782,74.678 38.15,74.678 C31.519,74.678 26.145,69.302 26.145,62.673 C26.145,56.042 31.519,50.666 38.15,50.666 C44.782,50.666 50.156,56.042 50.156,62.673" fill="#5A372C"/>
    <path d="M45.974,62.673 C45.974,66.993 42.471,70.497 38.15,70.497 C33.828,70.497 30.326,66.993 30.326,62.673 C30.326,58.35 33.828,54.848 38.15,54.848 C42.471,54.848 45.974,58.35 45.974,62.673" fill="#C66870"/>
    <path d="M123,62.673 C123,69.302 117.624,74.678 110.993,74.678 C104.361,74.678 98.988,69.302 98.988,62.673 C98.988,56.042 104.361,50.666 110.993,50.666 C117.624,50.666 123,56.042 123,62.673" fill="#775749"/>
    <path d="M118.817,62.673 C118.817,66.993 115.313,70.497 110.993,70.497 C106.674,70.497 103.168,66.993 103.168,62.673 C103.168,58.35 106.674,54.848 110.993,54.848 C115.313,54.848 118.817,58.35 118.817,62.673" fill="#C66870"/>
    <path d="M80.239,12.756 C80.481,14.193 79.996,17.823 76.509,21.774 C74.972,23.515 75.112,23.161 74.524,24.037 C73.935,24.916 73.208,25.701 72.323,26.381 C71.421,27.048 71.118,27.441 69.689,27.754 C69.442,26.311 69.254,26.035 69.154,24.248 C69.092,23.134 69.34,21.576 69.931,20.702 C70.525,19.827 71.182,18.898 72.605,17.927 C73.51,17.259 78.955,15.183 80.239,12.756" fill="#5A372C"/>
    <path d="M84.646,16.633 C84.891,18.07 83.848,24.59 81.211,25.588 C80.917,26.662 79.188,26.187 78.6,27.066 C78.014,27.944 77.284,28.728 76.399,29.407 C75.499,30.074 74.474,30.66 73.043,30.971 C72.796,29.531 72.95,28.361 73.231,27.274 C73.527,26.2 73.888,23.297 76.778,22.017 C80.965,20.164 82.738,19.062 84.646,16.633" fill="#5A372C"/>
    <path d="M37.844,61.118 C37.844,81.726 54.552,98.434 75.16,98.434 L75.16,23.801 C54.552,23.801 37.844,40.508 37.844,61.118" fill="#5A372C"/>
    <path d="M112.477,61.118 C112.477,40.508 95.771,23.801 75.16,23.801 L75.16,98.434 C95.771,98.434 112.477,81.726 112.477,61.118" fill="#775749"/>
    <path d="M108.077,58.355 C108.077,49.118 100.587,41.629 91.349,41.629 C83.545,41.629 77.011,46.979 75.16,54.206 C73.313,46.979 66.777,41.629 58.974,41.629 C49.736,41.629 42.245,49.118 42.245,58.355 C42.245,67.594 49.736,75.083 58.974,75.083 L58.974,83.715 C58.974,92.955 66.463,100.442 75.701,100.442 C84.94,100.442 92.429,92.955 92.429,83.715 L92.429,75.028 C101.16,74.469 108.077,67.229 108.077,58.355" fill="#ECBD8E"/>
    <path d="M73.273,74.813 C73.273,76.154 72.186,77.24 70.845,77.24 C69.503,77.24 68.418,76.154 68.418,74.813 C68.418,73.47 69.503,72.384 70.845,72.384 C72.186,72.384 73.273,73.47 73.273,74.813" fill="#28100F"/>
    <path d="M81.905,74.813 C81.905,76.154 80.82,77.24 79.477,77.24 C78.137,77.24 77.048,76.154 77.048,74.813 C77.048,73.47 78.137,72.384 79.477,72.384 C80.82,72.384 81.905,73.47 81.905,74.813" fill="#28100F"/>
    <path d="M64.501,59.976 C64.501,63.289 61.816,65.974 58.504,65.974 C55.19,65.974 52.501,63.289 52.501,59.976 C52.501,56.662 55.19,53.973 58.504,53.973 C61.816,53.973 64.501,56.662 64.501,59.976" fill="#28100F"/>
    <path d="M97.822,59.976 C97.822,63.289 95.135,65.974 91.821,65.974 C88.509,65.974 85.821,63.289 85.821,59.976 C85.821,56.662 88.509,53.973 91.821,53.973 C95.135,53.973 97.822,56.662 97.822,59.976" fill="#28100F"/>
    <path d="M62.528,57.973 C62.528,59.078 61.632,59.974 60.528,59.974 C59.423,59.974 58.528,59.078 58.528,57.973 C58.528,56.868 59.423,55.972 60.528,55.972 C61.632,55.972 62.528,56.868 62.528,57.973" fill="#FFFFFE"/>
    <path d="M95.822,57.973 C95.822,59.078 94.924,59.974 93.819,59.974 C92.715,59.974 91.819,59.078 91.819,57.973 C91.819,56.868 92.715,55.972 93.819,55.972 C94.924,55.972 95.822,56.868 95.822,57.973" fill="#FFFFFE"/>
    <path d="M75.16,95.117 C69.07,95.117 66.642,91.691 66.542,91.546 C66.367,91.293 66.431,90.947 66.683,90.772 C66.936,90.597 67.282,90.663 67.454,90.916 C67.553,91.05 69.698,94.007 75.16,94.007 C80.176,94.007 82.875,90.902 82.901,90.87 C83.101,90.637 83.451,90.609 83.684,90.806 C83.916,91.007 83.946,91.356 83.745,91.59 C83.623,91.734 80.685,95.117 75.16,95.117" fill="#28100F"/>
    <path d="M86.157,116.09 C83.028,116.09 80.491,113.554 80.491,110.424 C80.491,107.296 83.028,104.759 86.157,104.759" fill="#ECBD8E"/>
    <path d="M64.166,116.09 C67.294,116.09 69.83,113.554 69.83,110.424 C69.83,107.296 67.294,104.759 64.166,104.759" fill="#ECBD8E"/>
    <path d="M58.866,104.277 C57.077,104.277 55.629,105.726 55.629,107.513 C55.629,112.981 51.18,117.43 45.713,117.43 C40.245,117.43 35.8,112.981 35.8,107.513 C35.8,103.815 37.839,100.589 40.849,98.882 C38.173,96.904 38.619,93.759 38.893,92.63 C33.256,95.223 29.325,100.912 29.325,107.513 C29.325,116.549 36.675,123.905 45.713,123.905 C54.749,123.905 62.104,116.549 62.104,107.513 C62.104,105.726 60.653,104.277 58.866,104.277" fill="#5A372C"/>
    <path d="M40.849,98.882 C42.287,98.068 43.944,97.599 45.713,97.599 C47.5,97.599 48.951,96.149 48.951,94.361 C48.951,92.573 47.5,91.123 45.713,91.123 C43.279,91.123 40.973,91.673 38.893,92.63 C38.619,93.759 38.173,96.904 40.849,98.882" fill="#ECBD8E"/>
  </g>
</svg>
