<?xml version="1.0" encoding="UTF-8"?>
<!DOCTYPE svg PUBLIC "-//W3C//DTD SVG 1.1//EN" "http://www.w3.org/Graphics/SVG/1.1/DTD/svg11.dtd">
<svg version="1.1" xmlns="http://www.w3.org/2000/svg" xmlns:xlink="http://www.w3.org/1999/xlink" x="0" y="0" width="150" height="150" viewBox="0, 0, 150, 150">
  <g id="Layer_1">
    <g id="left-ear" style="transform-origin: 75% 25%;">
      <path d="M22.5,62.273 C22.5,62.273 25.69,40.362 38.033,40.362 C50.375,40.362 54.519,40.362 54.519,40.362 C54.519,40.362 48.851,62.273 36.508,62.273 C24.165,62.273 22.5,62.273 22.5,62.273" fill="#EA9291"/>
      <path d="M28.175,58.391 C28.175,58.391 30.233,44.244 38.202,44.244 C46.17,44.244 48.846,44.244 48.846,44.244 C48.846,44.244 45.185,58.391 37.216,58.391 C29.25,58.391 28.175,58.391 28.175,58.391" fill="#C66870"/>
    </g>
    <g id="right-ear" style="transform-origin: 25% 25%;">
      <path d="M127,62.273 C127,62.273 123.811,40.362 111.468,40.362 C99.122,40.362 94.979,40.362 94.979,40.362 C94.979,40.362 100.65,62.273 112.993,62.273 C125.334,62.273 127,62.273 127,62.273" fill="#EA9291"/>
      <path d="M121.326,58.391 C121.326,58.391 119.266,44.244 111.297,44.244 C103.331,44.244 100.654,44.244 100.654,44.244 C100.654,44.244 104.315,58.391 112.284,58.391 C120.251,58.391 121.326,58.391 121.326,58.391" fill="#C66870"/>
    </g>
    <path d="M58.935,99.168 L69.798,99.168 L69.798,114.146 L58.935,114.146 z" fill="#C66870"/>
    <path d="M79.702,99.168 L90.565,99.168 L90.565,114.146 L79.702,114.146 z" fill="#EA9291"/>
    <path d="M64.251,116.089 C64.711,116.089 65.085,116.46 65.085,116.921 L65.085,119 L73.822,119 C73.822,113.779 69.585,109.547 64.367,109.547 C59.147,109.547 54.911,113.779 54.911,119 L63.419,119 L63.419,116.921 C63.419,116.46 63.791,116.089 64.251,116.089" fill="#303331"/>
    <path d="M85.019,116.089 C85.478,116.089 85.852,116.46 85.852,116.921 L85.852,119 L94.589,119 C94.589,113.779 90.358,109.547 85.132,109.547 C79.916,109.547 75.68,113.779 75.68,119 L84.187,119 L84.187,116.921 C84.187,116.46 84.558,116.089 85.019,116.089" fill="#303331"/>
    <path d="M41.988,79.172 C41.904,79.993 41.842,80.82 41.842,81.66 C41.842,97.378 56.573,110.122 74.749,110.122 L74.749,96.336 C60.069,96.336 47.47,89.268 41.988,79.172" fill="#C66870"/>
    <path d="M74.749,96.336 L74.749,53.2 C57.548,53.2 43.445,64.619 41.988,79.172 C47.47,89.268 60.069,96.336 74.749,96.336" fill="#C66870"/>
    <path d="M74.749,53.2 L74.749,96.336 C89.429,96.336 102.027,89.268 107.511,79.172 C106.053,64.619 91.951,53.2 74.749,53.2" fill="#C66870"/>
    <path d="M107.657,81.66 C107.657,80.82 107.657,77.971 106.263,73.496 C101.599,89.631 89.429,96.336 74.749,96.336 L74.749,110.122 C92.925,110.122 107.657,97.378 107.657,81.66" fill="#EA9291"/>
    <path d="M103.023,85.593 C105.663,87.82 110.039,88.253 113.151,86.814 C114.988,85.967 119.467,82.226 115.425,81.07 C113.233,80.444 111.145,81.889 111.387,84.157 C111.727,87.346 115.012,88.919 117.866,88.771 C118.882,88.719 121.144,87.093 119.098,87.199 C116.607,87.327 114.131,85.162 114.434,82.524 C114.455,82.431 114.481,82.339 114.506,82.245 C113.081,82.243 112.919,82.579 114.023,83.255 C114.385,84.114 112.598,85.321 112.112,85.639 C110.364,86.787 107.322,85.666 105.878,84.447 C105.115,83.804 102.295,84.981 103.023,85.593" fill="#EA9291" id="tail" style="transform-origin: bottom left;" />
    <path d="M46.667,50.209 C46.667,51.087 46.765,51.946 46.912,52.795 C43.612,56.615 41.674,61.144 41.674,66.018 C41.674,79.575 56.484,90.565 74.749,90.565 L74.749,29.613 C59.24,29.613 46.667,38.833 46.667,50.209" fill="#C66870"/>
    <path d="M107.827,66.018 C107.827,61.144 105.889,56.615 102.588,52.795 C102.733,51.946 102.834,51.087 102.834,50.209 C102.834,38.833 90.26,29.613 74.749,29.613 L74.749,90.565 C93.016,90.565 107.827,79.575 107.827,66.018" fill="#EA9291"/>
    <path d="M58.524,56.657 C58.524,58.553 56.99,60.089 55.09,60.089 C53.196,60.089 51.66,58.553 51.66,56.657 C51.66,54.761 53.196,53.224 55.09,53.224 C56.99,53.224 58.524,54.761 58.524,56.657" fill="#303331"/>
    <path d="M97.84,56.657 C97.84,58.553 96.305,60.089 94.41,60.089 C92.51,60.089 90.977,58.553 90.977,56.657 C90.977,54.761 92.51,53.224 94.41,53.224 C96.305,53.224 97.84,54.761 97.84,56.657" fill="#303331"/>
    <path d="M57.459,55.762 C57.459,56.477 56.879,57.057 56.165,57.057 C55.448,57.057 54.867,56.477 54.867,55.762 C54.867,55.045 55.448,54.465 56.165,54.465 C56.879,54.465 57.459,55.045 57.459,55.762" fill="#FFFFFE"/>
    <path d="M97,55.762 C97,56.477 96.419,57.057 95.704,57.057 C94.989,57.057 94.408,56.477 94.408,55.762 C94.408,55.045 94.989,54.465 95.704,54.465 C96.419,54.465 97,55.045 97,55.762" fill="#FFFFFE"/>
    <g id="snout">
      <path d="M74.749,85.783 C64.046,85.783 55.661,80.254 55.661,73.195 C55.661,66.137 64.046,60.608 74.749,60.608 C85.455,60.608 93.838,66.137 93.838,73.195 C93.838,80.254 85.455,85.783 74.749,85.783" fill="#C66870"/>
      <path d="M74.749,58.942 C63.111,58.942 53.995,65.203 53.995,73.195 C53.995,81.187 63.111,87.448 74.749,87.448 C86.388,87.448 95.504,81.187 95.504,73.195 C95.504,65.203 86.388,58.942 74.749,58.942 z M74.749,62.273 C84.375,62.273 92.173,67.163 92.173,73.195 C92.173,79.227 84.375,84.117 74.749,84.117 C65.126,84.117 57.327,79.227 57.327,73.195 C57.327,67.163 65.126,62.273 74.749,62.273" fill="#EA9291"/>
      <path d="M68.354,71.53 C68.354,73.024 67.142,74.235 65.649,74.235 C64.155,74.235 62.945,73.024 62.945,71.53 C62.945,70.037 64.155,68.826 65.649,68.826 C67.142,68.826 68.354,70.037 68.354,71.53" fill="#303331"/>
      <path d="M86.972,71.53 C86.972,73.024 85.762,74.235 84.267,74.235 C82.773,74.235 81.563,73.024 81.563,71.53 C81.563,70.037 82.773,68.826 84.267,68.826 C85.762,68.826 86.972,70.037 86.972,71.53" fill="#303331"/>
    </g>
  </g>
</svg>
