<?xml version="1.0" encoding="UTF-8"?>
<!DOCTYPE svg PUBLIC "-//W3C//DTD SVG 1.1//EN" "http://www.w3.org/Graphics/SVG/1.1/DTD/svg11.dtd">
<svg version="1.1" xmlns="http://www.w3.org/2000/svg" xmlns:xlink="http://www.w3.org/1999/xlink" x="0" y="0" width="150" height="150" viewBox="0, 0, 150, 150">
  <g id="Layer_1">
    <path d="M61.222,106.564 C59.362,106.564 57.853,108.07 57.853,109.93 C57.853,116.732 52.319,122.267 45.518,122.267 C39.202,122.267 33.988,117.495 33.272,111.368 C29.932,112.878 27.712,112.05 26.511,111.2 C27.17,121.122 35.431,129 45.518,129 C56.032,129 64.588,120.447 64.588,109.93 C64.588,108.07 63.081,106.564 61.222,106.564" fill="#9C5937"/>
    <path d="M33.272,111.368 C33.215,110.896 33.178,110.418 33.178,109.929 C33.178,108.514 33.417,107.126 33.886,105.803 C34.507,104.051 33.591,102.128 31.839,101.506 C30.088,100.884 28.164,101.8 27.541,103.552 C26.816,105.601 26.446,107.746 26.446,109.929 C26.446,110.358 26.485,110.778 26.511,111.2 C27.712,112.05 29.932,112.878 33.272,111.368" fill="#311413"/>
    <path d="M94.014,119.997 L94.014,111.373 C99.104,106.634 102.366,99.986 102.687,92.565 C97.102,100.929 86.991,106.543 75.397,106.572 L75.397,118.726 C77.069,118.726 78.698,118.552 80.289,118.263 L80.289,119.997 C77.661,122.042 75.966,125.227 75.966,128.815 L98.335,128.815 C98.335,125.227 96.639,122.042 94.014,119.997" fill="#DF7D41"/>
    <path d="M49.407,94.56 C49.758,94.997 50.116,95.429 50.491,95.847 C50.116,95.429 49.758,94.997 49.407,94.56 z M50.604,95.967 C51.002,96.405 51.408,96.835 51.833,97.249 C51.408,96.833 51.002,96.405 50.604,95.967 z M48.046,91.373 C48.046,91.869 48.096,92.35 48.123,92.84 C48.481,93.363 48.857,93.873 49.252,94.375 C48.857,93.873 48.481,93.363 48.123,92.84 C48.514,100.151 51.756,106.693 56.783,111.373 L56.783,119.997 C54.158,122.042 52.461,125.227 52.461,128.815 L74.83,128.815 C74.83,125.227 73.136,122.042 70.508,119.997 L70.508,118.263 C72.096,118.552 73.724,118.726 75.397,118.726 L75.397,106.572 L75.313,106.576 C66.039,106.576 57.708,102.994 51.873,97.287 C54.177,99.535 56.866,101.453 59.85,102.953 C59.542,101.136 59.267,99.225 58.971,97.22 C61.119,97.875 63.405,98.497 65.833,99.066 L65.824,99.081 C67.651,99.993 69.554,101.023 71.528,102.18 C72.792,102.921 74.074,103.698 75.397,104.548 L75.397,64.019 C60.29,64.019 48.046,76.267 48.046,91.373" fill="#9C5937"/>
    <path d="M75.397,64.019 L75.397,92.622 L75.4,92.622 L75.4,104.548 C76.723,103.698 78.004,102.921 79.27,102.18 C81.243,101.023 83.144,99.993 84.975,99.081 C87.453,98.501 89.781,97.869 91.967,97.2 C91.679,99.142 91.422,101.008 91.136,102.773 C95.879,100.316 99.863,96.794 102.687,92.565 C102.706,92.165 102.751,91.775 102.751,91.373 C102.751,76.267 90.506,64.019 75.397,64.019" fill="#9C5937"/>
    <path d="M75.4,97.815 L75.397,97.815 C74.074,96.964 61.119,97.875 58.971,97.22 C59.267,99.225 59.542,101.136 59.85,102.953 C61.417,112.261 63.897,118.726 75.397,118.726 L75.397,106.572 C81.128,106.558 86.495,105.175 91.136,102.773 C91.422,101.008 91.679,99.142 91.967,97.2 C89.781,97.869 76.723,96.964 75.4,97.815" fill="#C6C6A2"/>
    <path d="M91.136,102.773 C86.495,105.175 81.128,106.558 75.397,106.572 L75.397,118.726 C87.237,118.726 89.599,112.181 91.136,102.773" fill="#F1F0C5"/>
    <path d="M70.452,93.924 L70.45,93.925 L70.465,93.951 L70.452,93.924" fill="#000E12"/>
    <path d="M75.382,92.619 L75.415,92.621 L75.45,92.619 L75.45,62.422 L75.382,62.427 L75.382,92.619" fill="#95482F"/>
    <path d="M75.382,92.619 L75.382,92.622 L75.415,92.621 L75.382,92.619" fill="#95482F"/>
    <path d="M64.919,33.95 C64.919,41.996 58.395,48.518 50.351,48.518 C42.306,48.518 35.784,41.996 35.784,33.95 C35.784,25.905 42.306,19.383 50.351,19.383 C58.395,19.383 64.919,25.905 64.919,33.95" fill="#9C5937"/>
    <path d="M58.749,33.95 C58.749,38.588 54.988,42.35 50.351,42.35 C45.712,42.35 41.953,38.588 41.953,33.95 C41.953,29.313 45.712,25.551 50.351,25.551 C54.988,25.551 58.749,29.313 58.749,33.95" fill="#311413"/>
    <path d="M114.246,33.95 C114.246,41.996 107.724,48.518 99.678,48.518 C91.634,48.518 85.111,41.996 85.111,33.95 C85.111,25.905 91.634,19.383 99.678,19.383 C107.724,19.383 114.246,25.905 114.246,33.95" fill="#DF7D41"/>
    <path d="M108.077,33.95 C108.077,38.588 104.317,42.35 99.678,42.35 C95.039,42.35 91.281,38.588 91.281,33.95 C91.281,29.313 95.039,25.551 99.678,25.551 C104.317,25.551 108.077,29.313 108.077,33.95" fill="#311413"/>
    <path d="M64.919,33.95 C64.919,41.996 58.395,48.518 50.351,48.518 C42.306,48.518 35.784,41.996 35.784,33.95 C35.784,25.905 42.306,19.383 50.351,19.383 C58.395,19.383 64.919,25.905 64.919,33.95" fill="#DF7D41"/>
    <path d="M58.749,33.95 C58.749,38.588 54.988,42.35 50.351,42.35 C45.712,42.35 41.953,38.588 41.953,33.95 C41.953,29.313 45.712,25.551 50.351,25.551 C54.988,25.551 58.749,29.313 58.749,33.95" fill="#311413"/>
    <path d="M75.382,31.313 L75.382,31.316 L75.415,31.315 L75.382,31.313" fill="#DE653F"/>
    <path d="M75.45,31.313 L75.415,31.315 L75.45,31.316 L75.45,31.313" fill="#95482F"/>
    <path d="M75.45,61.865 L75.45,31.316 L75.415,31.315 L75.382,31.316 L75.382,61.871 L75.45,61.865" fill="#95482F"/>
    <path d="M75.382,92.063 L75.415,92.064 L75.45,92.063 L75.45,61.865 L75.382,61.871 L75.382,92.063" fill="#95482F"/>
    <path d="M39.381,61.171 C39.419,70.419 41.881,86.205 41.881,86.205 C41.881,86.205 42.658,89.267 57.396,94.527 C57.396,93.911 57.396,92.132 57.396,87.513 C57.396,82.268 58.035,79.694 58.609,78.435 C64.609,80.808 69.19,83.682 70.379,86.188 C71.863,85.364 73.546,84.856 75.36,84.856 L75.36,24.107 C48.052,24.107 39.298,41.855 39.381,61.171" fill="#9C5937"/>
    <path d="M75.313,24.107 L75.313,75.709 L75.266,75.732 L75.32,98.131 C80.946,98.131 86.468,96.816 91.565,95.106 C92.131,94.917 92.695,94.726 93.25,94.527 L93.25,94.515 C107.997,89.258 108.788,86.193 108.788,86.193 C108.788,86.193 111.216,70.112 111.293,61.171 C111.458,41.855 102.622,24.107 75.313,24.107" fill="#DF7D41"/>
    <path d="M63.639,76.749 C62.167,77.355 60.758,78.109 59.571,79.072 C59.571,79.072 57.466,79.824 57.466,89.335 C57.466,93.953 57.466,95.732 57.466,96.349 C63.021,98.33 68.785,99.953 75.397,99.953 L75.45,77.552 C69.257,74.505 66.785,75.756 63.639,76.749" fill="#C6C6A2"/>
    <path d="M87.149,76.749 C88.62,77.355 90.032,78.108 91.217,79.072 C91.217,79.072 93.322,79.824 93.322,89.335 C93.322,93.953 93.322,95.732 93.322,96.349 C87.767,98.33 81.64,99.953 75.391,99.953 L75.339,77.552 C81.53,74.505 84.001,75.756 87.149,76.749" fill="#F1F0C5"/>
    <path d="M51.234,56.48 C51.234,56.48 66.213,52.135 65.877,67.368 C65.877,67.368 51.234,72.688 51.234,56.48" fill="#311413"/>
    <path d="M64.283,62.217 C64.283,65.285 61.796,67.771 58.73,67.771 C55.663,67.771 53.175,65.285 53.175,62.217 C53.175,59.15 55.663,56.663 58.73,56.663 C61.796,56.663 64.283,59.15 64.283,62.217" fill="#ECBD8E"/>
    <path d="M62.501,59.922 C62.501,60.98 61.643,61.837 60.586,61.837 C59.529,61.837 58.671,60.98 58.671,59.922 C58.671,58.866 59.529,58.009 60.586,58.009 C61.643,58.009 62.501,58.866 62.501,59.922" fill="#FFFFFE"/>
    <path d="M99.678,56.48 C99.678,56.48 84.699,52.135 85.035,67.368 C85.035,67.368 99.678,72.688 99.678,56.48" fill="#311413"/>
    <path d="M86.532,62.217 C86.532,65.285 89.019,67.771 92.086,67.771 C95.154,67.771 97.641,65.285 97.641,62.217 C97.641,59.15 95.154,56.663 92.086,56.663 C89.019,56.663 86.532,59.15 86.532,62.217" fill="#ECBD8E"/>
    <path d="M92.355,59.922 C92.355,60.98 93.212,61.837 94.27,61.837 C95.327,61.837 96.183,60.98 96.183,59.922 C96.183,58.866 95.327,58.009 94.27,58.009 C93.212,58.009 92.355,58.866 92.355,59.922" fill="#FFFFFE"/>
    <path d="M74.511,82.916 C73.678,82.763 72.969,82.403 72.498,81.853 C70.286,79.259 67.372,77.465 65.814,76.588 C67.332,76.126 70.469,75.415 75.366,75.415 C80.198,75.415 83.363,76.132 84.892,76.59 C82.123,78.285 79.704,80.163 78.015,81.935 C77.538,82.433 76.906,82.765 76.134,82.916 L74.511,82.916" fill="#C66870"/>
    <path d="M75.366,74.859 C67.984,74.859 64.456,76.479 64.481,76.479 L64.481,76.477 C64.567,76.6 69.033,78.647 72.076,82.213 C72.714,82.958 73.616,83.317 74.511,83.47 L76.187,83.47 C77.01,83.319 77.802,82.961 78.417,82.318 C81.595,78.983 86.156,76.503 86.197,76.458 C86.197,76.458 82.667,74.859 75.366,74.859 z M75.366,75.969 C79.088,75.969 81.8,76.402 83.516,76.8 C81.15,78.336 79.135,79.955 77.614,81.55 C77.227,81.955 76.712,82.228 76.079,82.36 L74.61,82.36 C73.86,82.217 73.29,81.924 72.921,81.492 C71.126,79.388 68.889,77.802 67.248,76.787 C68.965,76.39 71.662,75.969 75.366,75.969" fill="#311413"/>
    <path d="M74.693,87.168 C73.322,89.534 71.589,90.873 69.541,91.155 C64.904,91.779 59.981,86.921 59.93,86.872 C59.667,86.606 59.242,86.606 58.979,86.871 C58.715,87.133 58.715,87.558 58.976,87.821 C59.181,88.029 63.753,92.558 68.683,92.558 C69.028,92.558 69.371,92.538 69.72,92.491 C71.955,92.185 73.85,90.883 75.366,88.625 C76.882,90.883 78.777,92.185 81.012,92.491 C81.358,92.538 81.705,92.558 82.048,92.558 C86.978,92.558 91.55,88.029 91.753,87.821 C92.017,87.558 92.015,87.133 91.752,86.871 C91.488,86.609 91.063,86.609 90.799,86.872 C90.751,86.921 85.835,91.772 81.195,91.155 C79.14,90.869 77.414,89.543 76.039,87.168 L76.039,83.505 L76.187,83.47 L74.511,83.47 L74.693,83.509 L74.693,87.168" fill="#311413"/>
    <path d="M26.446,87.54 C26.284,87.54 26.121,87.483 25.991,87.363 C25.717,87.113 25.7,86.686 25.951,86.412 C39.251,71.904 59.896,80.026 60.101,80.108 C60.447,80.248 60.612,80.639 60.473,80.985 C60.332,81.33 59.94,81.494 59.596,81.357 C59.398,81.278 39.606,73.509 26.944,87.322 C26.81,87.467 26.628,87.54 26.446,87.54" fill="#ECBD8E"/>
    <path d="M30.826,91.775 C30.657,91.775 30.488,91.711 30.358,91.583 C30.09,91.327 30.084,90.9 30.343,90.631 C42.797,77.791 59.044,82.113 59.209,82.158 C59.567,82.257 59.777,82.628 59.678,82.986 C59.578,83.345 59.21,83.559 58.848,83.456 C58.694,83.413 43.193,79.317 31.308,91.572 C31.177,91.706 31.002,91.775 30.826,91.775" fill="#ECBD8E"/>
    <path d="M36.422,96.487 C36.289,96.487 36.153,96.447 36.034,96.365 C35.73,96.149 35.658,95.732 35.871,95.428 C44.502,83.163 58.949,84.359 59.091,84.371 C59.462,84.406 59.733,84.734 59.699,85.104 C59.665,85.474 59.36,85.747 58.967,85.713 C58.831,85.703 45.145,84.589 36.972,96.201 C36.842,96.388 36.634,96.487 36.422,96.487" fill="#ECBD8E"/>
    <path d="M123.327,87.54 C123.146,87.54 122.965,87.467 122.831,87.322 C110.167,73.509 90.376,81.278 90.178,81.357 C89.831,81.494 89.441,81.33 89.3,80.985 C89.162,80.639 89.328,80.248 89.672,80.108 C89.879,80.026 110.524,71.904 123.824,86.412 C124.074,86.686 124.056,87.113 123.782,87.363 C123.653,87.483 123.49,87.54 123.327,87.54" fill="#ECBD8E"/>
    <path d="M118.949,91.775 C118.772,91.775 118.598,91.706 118.466,91.572 C106.558,79.297 91.081,83.412 90.925,83.456 C90.564,83.557 90.197,83.345 90.096,82.986 C89.996,82.628 90.208,82.257 90.565,82.158 C90.728,82.113 106.972,77.789 119.432,90.631 C119.69,90.9 119.684,91.327 119.416,91.583 C119.285,91.711 119.117,91.775 118.949,91.775" fill="#ECBD8E"/>
    <path d="M113.352,96.487 C113.14,96.487 112.932,96.388 112.802,96.201 C104.627,84.586 90.938,85.7 90.808,85.713 C90.422,85.74 90.109,85.472 90.075,85.104 C90.041,84.734 90.314,84.406 90.683,84.371 C90.825,84.359 105.273,83.163 113.903,95.428 C114.116,95.732 114.044,96.149 113.74,96.365 C113.62,96.447 113.486,96.487 113.352,96.487" fill="#ECBD8E"/>
  </g>
</svg>
