<?xml version="1.0" encoding="UTF-8"?>
<!DOCTYPE svg PUBLIC "-//W3C//DTD SVG 1.1//EN" "http://www.w3.org/Graphics/SVG/1.1/DTD/svg11.dtd">
<svg version="1.1" xmlns="http://www.w3.org/2000/svg" xmlns:xlink="http://www.w3.org/1999/xlink" x="0" y="0" width="150" height="150" viewBox="0, 0, 150, 150">
  <g id="Layer_1">
    <path d="M24.093,27.722 C24.093,27.722 27.17,48.882 39.089,48.882 C51.008,48.882 55.01,48.882 55.01,48.882 C55.01,48.882 49.535,27.722 37.617,27.722 C25.696,27.722 24.093,27.722 24.093,27.722" fill="#F2E0D6"/>
    <path d="M29.569,31.472 C29.569,31.472 31.558,45.132 39.253,45.132 C46.947,45.132 49.531,45.132 49.531,45.132 C49.531,45.132 45.995,31.472 38.302,31.472 C30.608,31.472 29.569,31.472 29.569,31.472" fill="#C66870"/>
    <path d="M125,27.722 C125,27.722 121.92,48.882 110.001,48.882 C98.08,48.882 94.08,48.882 94.08,48.882 C94.08,48.882 99.555,27.722 111.475,27.722 C123.391,27.722 125,27.722 125,27.722" fill="#F2E0D6"/>
    <path d="M119.522,31.472 C119.522,31.472 117.531,45.132 109.841,45.132 C102.146,45.132 99.559,45.132 99.559,45.132 C99.559,45.132 103.094,31.472 110.791,31.472 C118.486,31.472 119.522,31.472 119.522,31.472" fill="#C66870"/>
    <path d="M71.608,19.662 C70.887,20.385 70.476,21.395 70.476,22.417 L70.497,22.636 L70.335,22.656 L70.309,22.438 C69.854,20.34 67.776,19.018 65.678,19.485 C63.578,19.94 62.258,22.016 62.724,24.115 L62.79,24.325 L62.642,24.377 L62.558,24.149 C61.625,22.217 59.293,21.417 57.371,22.36 C55.438,23.293 54.64,25.626 55.574,27.558 L55.696,27.772 L55.578,27.85 L55.427,27.635 C54.03,26.014 51.573,25.838 49.942,27.236 C48.32,28.646 48.144,31.089 49.542,32.721 L49.735,32.901 L49.636,33.017 L49.42,32.844 C47.623,31.668 45.211,32.166 44.046,33.966 C42.868,35.764 43.369,38.174 45.167,39.352 L45.416,39.489 L45.356,39.616 C45.267,39.581 45.184,39.534 45.089,39.507 C43.035,38.896 40.871,40.074 40.259,42.128 C39.65,44.193 40.824,46.347 42.892,46.958 C42.983,46.986 43.076,47 43.17,47.021 L43.15,47.163 C43.057,47.157 42.965,47.136 42.868,47.136 C40.715,47.147 38.982,48.89 38.993,51.033 C38.993,53.177 40.734,54.909 42.879,54.909 L42.892,54.909 L43.087,54.889 L43.103,55.033 L42.958,55.043 C40.835,55.409 39.415,57.419 39.771,59.529 L39.771,59.54 C40.103,61.429 41.736,62.771 43.601,62.771 C43.814,62.771 44.035,62.75 44.257,62.704 L44.359,62.677 L44.388,62.808 C42.298,63.27 40.971,65.342 41.425,67.435 L41.437,67.435 C41.825,69.257 43.434,70.489 45.223,70.489 C45.483,70.489 45.744,70.467 46.004,70.41 L46.03,70.552 L45.99,70.556 C43.89,71.011 42.558,73.075 43.024,75.176 C43.412,76.997 45.025,78.241 46.812,78.241 C47.089,78.241 47.367,78.207 47.644,78.152 L47.66,78.148 L47.693,78.34 C47.015,78.494 46.375,78.809 45.879,79.306 C45.146,80.028 44.733,81.038 44.733,82.061 C44.733,83.083 45.146,84.081 45.879,84.804 C46.139,85.064 46.444,85.269 46.768,85.448 L46.622,85.392 C44.544,84.848 42.411,86.081 41.858,88.146 C41.314,90.223 42.535,92.344 44.602,92.899 C42.468,92.876 40.715,94.575 40.671,96.709 C40.626,98.851 42.337,100.628 44.48,100.673 L44.591,100.673 L44.434,100.728 C42.446,101.55 41.491,103.815 42.302,105.803 L42.313,105.803 C43.124,107.791 45.391,108.735 47.378,107.925 L47.509,107.868 L47.444,107.925 C45.879,109.401 45.8,111.854 47.267,113.42 C48.733,114.987 51.196,115.064 52.762,113.598 L52.798,113.577 C51.697,115.421 52.308,117.796 54.161,118.896 C55.993,119.984 58.371,119.385 59.472,117.553 C58.859,119.584 60.003,121.738 62.035,122.371 C64.067,123.005 66.222,121.884 66.889,119.873 C66.723,121.983 68.277,123.838 70.386,124.037 C70.509,124.048 70.641,124.048 70.765,124.048 C72.368,124.048 73.781,123.047 74.358,121.593 L74.358,18.596 C73.346,18.596 72.334,18.941 71.608,19.662" fill="#C5B7B0"/>
    <path d="M78.859,124.015 C80.969,123.804 82.514,121.95 82.346,119.851 C83.023,121.849 85.179,122.949 87.21,122.316 C89.231,121.672 90.364,119.517 89.755,117.485 C90.863,119.307 93.241,119.895 95.071,118.795 C96.905,117.696 97.506,115.309 96.404,113.466 L96.438,113.498 C98.016,114.954 100.481,114.854 101.937,113.277 C103.389,111.7 103.29,109.245 101.712,107.791 L101.635,107.725 L101.779,107.779 C103.78,108.568 106.033,107.602 106.834,105.604 C107.621,103.615 106.642,101.35 104.656,100.55 L104.488,100.494 L104.623,100.494 C106.777,100.439 108.465,98.652 108.411,96.508 C108.354,94.377 106.589,92.688 104.467,92.721 C106.533,92.144 107.742,90.011 107.177,87.957 C106.611,85.882 104.467,84.659 102.402,85.225 C102.31,85.251 102.231,85.294 102.143,85.325 L102.129,85.294 C102.479,85.114 102.81,84.895 103.089,84.615 C103.813,83.892 104.222,82.894 104.222,81.86 C104.222,80.839 103.813,79.841 103.089,79.118 C102.587,78.613 101.937,78.297 101.247,78.145 L101.264,78.051 L101.277,77.989 L101.304,77.996 C101.581,78.052 101.858,78.085 102.125,78.085 C103.912,78.085 105.522,76.841 105.922,75.019 C106.365,72.922 105.044,70.845 102.947,70.389 L102.906,70.385 L102.914,70.343 L102.927,70.277 C103.186,70.334 103.455,70.356 103.712,70.356 C105.49,70.356 107.099,69.124 107.499,67.303 C107.953,65.207 106.636,63.144 104.543,62.685 L104.567,62.567 L104.667,62.594 C104.89,62.638 105.101,62.649 105.322,62.649 C107.187,62.649 108.832,61.305 109.142,59.419 C109.508,57.298 108.076,55.287 105.966,54.931 L105.814,54.922 L105.824,54.799 L106.033,54.82 C108.176,54.81 109.909,53.066 109.909,50.923 C109.909,48.78 108.166,47.036 106.023,47.047 C105.928,47.047 105.835,47.069 105.743,47.075 L105.726,46.95 C105.817,46.929 105.909,46.919 106,46.891 C108.066,46.269 109.23,44.104 108.62,42.05 C107.999,39.995 105.833,38.829 103.78,39.441 C103.687,39.468 103.604,39.514 103.516,39.549 L103.461,39.437 L103.712,39.296 C105.5,38.119 106,35.708 104.822,33.921 C103.646,32.122 101.236,31.622 99.447,32.799 L99.232,32.975 L99.144,32.87 L99.337,32.689 C100.736,31.067 100.558,28.614 98.926,27.215 C97.306,25.814 94.851,25.992 93.451,27.614 L93.298,27.833 L93.192,27.763 L93.317,27.546 C94.262,25.615 93.451,23.293 91.529,22.349 C89.597,21.406 87.265,22.217 86.322,24.149 L86.239,24.368 L86.123,24.328 L86.188,24.115 C86.655,22.016 85.333,19.94 83.236,19.485 C81.137,19.018 79.071,20.34 78.604,22.438 L78.577,22.656 L78.414,22.637 L78.438,22.417 C78.438,21.395 78.015,20.385 77.293,19.662 C76.548,18.919 75.497,18.564 74.454,18.589 L74.358,18.596 L74.358,121.593 C74.481,121.287 74.577,120.969 74.616,120.628 C74.872,122.717 76.748,124.226 78.859,124.015" fill="#F2E0D6"/>
    <path d="M58.731,111.168 L69.592,111.168 L69.592,126.146 L58.731,126.146 z" fill="#C5B7B0"/>
    <path d="M79.499,111.168 L90.363,111.168 L90.363,126.146 L79.499,126.146 z" fill="#F2E0D6"/>
    <path d="M64.046,128.086 C64.507,128.086 64.88,128.459 64.88,128.919 L64.88,131 L73.616,131 C73.616,125.778 69.383,121.545 64.162,121.545 C58.942,121.545 54.707,125.778 54.707,131 L63.214,131 L63.214,128.919 C63.214,128.459 63.588,128.086 64.046,128.086" fill="#C66870"/>
    <path d="M84.815,128.086 C85.275,128.086 85.647,128.459 85.647,128.919 L85.647,131 L94.385,131 C94.385,125.778 90.15,121.545 84.93,121.545 C79.71,121.545 75.476,125.778 75.476,131 L83.982,131 L83.982,128.919 C83.982,128.459 84.355,128.086 84.815,128.086" fill="#C66870"/>
    <path d="M74.547,104.873 C92.132,104.873 98.464,94.741 102.129,85.294 C102.129,85.294 91.064,100.526 75.025,99.943 C61.421,99.448 46.622,85.392 46.622,85.392 C50.288,94.841 60.936,104.873 74.547,104.873" fill="#C5B7B0"/>
    <path d="M103.684,57.131 C103.684,48.953 97.057,42.324 88.877,42.324 C81.969,42.324 76.184,47.059 74.547,53.459 C72.911,47.059 67.123,42.324 60.218,42.324 C52.038,42.324 45.405,48.951 45.405,57.131 C45.405,65.31 50.928,71.94 59.106,71.94 C59.106,71.94 60.078,77.656 60.218,79.582 C60.808,87.74 64.162,99.943 75.025,99.943 C84.93,99.943 89.247,87.74 89.833,79.582 C89.974,77.643 90.943,71.89 90.943,71.89 C98.674,71.396 103.684,64.987 103.684,57.131" fill="#ECBD8E"/>
    <path d="M65.109,58.564 C65.109,61.497 62.732,63.876 59.799,63.876 C56.863,63.876 54.487,61.497 54.487,58.564 C54.487,55.631 56.863,53.253 59.799,53.253 C62.732,53.253 65.109,55.631 65.109,58.564" fill="#28100F"/>
    <path d="M94.608,58.564 C94.608,61.497 92.229,63.876 89.295,63.876 C86.363,63.876 83.983,61.497 83.983,58.564 C83.983,55.631 86.363,53.253 89.295,53.253 C92.229,53.253 94.608,55.631 94.608,58.564" fill="#28100F"/>
    <path d="M63.362,56.792 C63.362,57.77 62.571,58.564 61.592,58.564 C60.613,58.564 59.821,57.77 59.821,56.792 C59.821,55.814 60.613,55.02 61.592,55.02 C62.571,55.02 63.362,55.814 63.362,56.792" fill="#FFFFFE"/>
    <path d="M92.835,56.792 C92.835,57.77 92.041,58.564 91.066,58.564 C90.085,58.564 89.294,57.77 89.294,56.792 C89.294,55.814 90.085,55.02 91.066,55.02 C92.041,55.02 92.835,55.814 92.835,56.792" fill="#FFFFFE"/>
    <path d="M80.969,82.262 L74.544,82.996 L68.121,82.262 C67.521,82.185 66.96,82.629 66.89,83.239 C66.821,83.848 67.26,84.398 67.865,84.468 L73.36,85.097 L73.36,93.169 C72.996,93.601 72.152,94.414 71.296,93.954 C70.753,93.663 70.081,93.866 69.793,94.407 C69.503,94.946 69.704,95.62 70.244,95.911 C70.788,96.203 71.32,96.325 71.822,96.325 C72.896,96.325 73.842,95.769 74.532,95.139 C75.212,95.771 76.15,96.326 77.235,96.326 C77.739,96.326 78.275,96.206 78.831,95.918 C79.376,95.637 79.588,94.966 79.306,94.422 C79.026,93.877 78.354,93.665 77.81,93.947 C76.893,94.418 76.081,93.618 75.732,93.184 L75.732,85.097 L81.222,84.468 C81.833,84.398 82.268,83.848 82.199,83.239 C82.13,82.628 81.578,82.183 80.969,82.262" fill="#EA9291"/>
  </g>
</svg>
