<?xml version="1.0" encoding="UTF-8" standalone="no"?>
<!-- Created with Inkscape (http://www.inkscape.org/) -->

<svg
   xmlns:dc="http://purl.org/dc/elements/1.1/"
   xmlns:cc="http://creativecommons.org/ns#"
   xmlns:rdf="http://www.w3.org/1999/02/22-rdf-syntax-ns#"
   xmlns:svg="http://www.w3.org/2000/svg"
   xmlns="http://www.w3.org/2000/svg"
   xmlns:sodipodi="http://sodipodi.sourceforge.net/DTD/sodipodi-0.dtd"
   xmlns:inkscape="http://www.inkscape.org/namespaces/inkscape"
   id="svg5661"
   version="1.1"
   inkscape:version="0.48.1 "
   width="183.75"
   height="166.25"
   xml:space="preserve"
   sodipodi:docname="Quail_1.pdf"><metadata
     id="metadata5667"><rdf:RDF><cc:Work
         rdf:about=""><dc:format>image/svg+xml</dc:format><dc:type
           rdf:resource="http://purl.org/dc/dcmitype/StillImage" /><dc:title></dc:title></cc:Work></rdf:RDF></metadata><defs
     id="defs5665" /><sodipodi:namedview
     pagecolor="#ffffff"
     bordercolor="#666666"
     borderopacity="1"
     objecttolerance="10"
     gridtolerance="10"
     guidetolerance="10"
     inkscape:pageopacity="0"
     inkscape:pageshadow="2"
     inkscape:window-width="640"
     inkscape:window-height="480"
     id="namedview5663"
     showgrid="false"
     inkscape:zoom="1.7503759"
     inkscape:cx="91.875"
     inkscape:cy="83.125"
     inkscape:window-x="0"
     inkscape:window-y="0"
     inkscape:window-maximized="0"
     inkscape:current-layer="g5669" /><g
     id="g5669"
     inkscape:groupmode="layer"
     inkscape:label="Quail_1"
     transform="matrix(1.25,0,0,-1.25,0,166.25)"><g
       id="g5671"
       transform="scale(0.24,0.24)"><path
         d="m 169.25,455.25 8,8 9,8 7,5 6,4 8,3 16,0 9,-2 9,-2 7,-3 9,-5 8,-7 8,-7 7,-6 5,-5 5,-5 4,-4 5,-5 5,-3 7,-4 8,-2 13,-4 11,-2 12,-1 11,-1 12,-2 11,-3 11,-3 10,-4 7,-3 8,-4 9,-4 10,-5 11,-7 11,-8 8,-7 6,-7 5,-8 6,-8 5,-8 6,-8 5,-8 5,-8 5,-9 6,-9 4,-8 3,-7 2,-8 1,-8 1,-10 2,-13 2,-16 1,-4 0,-3 1,-3 1,-2 1,-3 1,-3 1,-4 1,-5 3,-3 3,-4 5,-6 6,-7 7,-7 5,-7 4,-4 1,-3 3,-2 3,-2 4,-3 4,-3 3,-3 3,-3 1,-4 1,-3 -3,-2 -9,0 -7,1 -3,1 -4,1 -4,1 -5,2 -6,2 -6,1 -5,2 -6,1 -9,2 -8,2 -8,2 -7,3 -6,3 -6,4 -5,3 -5,4 -4,4 -4,5 -4,5 -3,4 -6,-5 -5,-3 -5,-1 -17,0 -7,-2 -5,-2 -4,-3 -4,-1 -5,0 -4,-1 -7,0 -6,-2 -5,-1 -7,-1 -6,-1 -7,0 -6,-1 -5,1 -3,1 -5,1 -5,1 -6,3 -6,4 -6,4 -10,7 -8,4 -10,4 -7,4 -16,10 -13,10 -10,11 -9,11 -7,11 -7,11 -7,11 -6,9 8,0 8,1 5,2 4,3 2,2 1,5 1,6 1,3 0,6 1,7 -1,9 -1,11 -2,10 -2,11 -2,9 0,10 -1,10 -1,11 0,23 -1,7 0,11 1,8 3,6 0,4 -2,4 -5,5 -7,6 -9,4 -10,2 -9,-1 -9,-3 -9,-5 -9,-6 -7,-5 -1,3"
         style="fill:#ababab;fill-opacity:1;fill-rule:nonzero;stroke:none"
         id="path5673" /><path
         d="m 169.25,455.25 8,8 9,8 7,5 6,4 8,3 16,0 9,-2 9,-2 7,-3 9,-5 8,-7 8,-7 7,-6 5,-5 5,-5 4,-4 5,-5 5,-3 7,-4 8,-2 13,-4 11,-2 12,-1 11,-1 12,-2 11,-3 11,-3 10,-4 7,-3 8,-4 9,-4 10,-5 11,-7 11,-8 8,-7 6,-7 5,-8 6,-8 5,-8 6,-8 5,-8 5,-8 5,-9 6,-9 4,-8 3,-7 2,-8 1,-8 1,-10 2,-13 2,-16 1,-4 0,-3 1,-3 1,-2 1,-3 1,-3 1,-4 1,-5 3,-3 3,-4 5,-6 6,-7 7,-7 5,-7 4,-4 1,-3 3,-2 3,-2 4,-3 4,-3 3,-3 3,-3 1,-4 1,-3 -3,-2 -9,0 -7,1 -3,1 -4,1 -4,1 -5,2 -6,2 -6,1 -5,2 -6,1 -9,2 -8,2 -8,2 -7,3 -6,3 -6,4 -5,3 -5,4 -4,4 -4,5 -4,5 -3,4 -6,-5 -5,-3 -5,-1 -17,0 -7,-2 -5,-2 -4,-3 -4,-1 -5,0 -4,-1 -7,0 -6,-2 -5,-1 -7,-1 -6,-1 -7,0 -6,-1 -5,1 -3,1 -5,1 -5,1 -6,3 -6,4 -6,4 -10,7 -8,4 -10,4 -7,4 -16,10 -13,10 -10,11 -9,11 -7,11 -7,11 -7,11 -6,9 8,0 8,1 5,2 4,3 2,2 1,5 1,6 1,3 0,6 1,7 -1,9 -1,11 -2,10 -2,11 -2,9 0,10 -1,10 -1,11 0,23 -1,7 0,11 1,8 3,6 0,4 -2,4 -5,5 -7,6 -9,4 -10,2 -9,-1 -9,-3 -9,-5 -9,-6 -7,-5 -1,3 z"
         style="fill:none;stroke:#ababab;stroke-opacity:1;stroke-width:0.1875;stroke-linecap:butt;stroke-linejoin:miter;stroke-miterlimit:4;stroke-dasharray:none"
         id="path5675" /><path
         d="m 171.25,456.25 1,-3 2,4 1,-2 2,4 0,-2 4,6 0,-3 4,6 0,-3 4,5 1,-3 3,5 1,-3 4,5 0,-3 3,4 0,-3 6,5 -1,-4 6,4 -1,-3 6,3 0,-4 5,4 1,-5 5,3 0,-4 5,1 1,-5 3,2 -1,-4 3,2 -1,-4 4,1 0,-4 3,3 0,-7 2,1 -1,-4 3,1 -2,-5 1,0 -4,-6 4,0 -5,-5 3,0 -4,-4 3,1 -2,-4 2,0 -2,-6 1,2 -2,-7 -1,-10 -2,-9 -2,-7 -3,-6 -4,-6 -5,-5 -4,-6 -5,-4 -6,-4 -5,-5 0,12 -1,7 0,7 -2,7 -1,6 -2,5 -1,3 -1,3 -2,2 -2,4 -2,5 -3,3 -3,4 -4,3 -8,6 -3,20 1,3"
         style="fill:#000000;fill-opacity:1;fill-rule:nonzero;stroke:none"
         id="path5677" /><path
         d="m 171.25,456.25 1,-3 2,4 1,-2 2,4 0,-2 4,6 0,-3 4,6 0,-3 4,5 1,-3 3,5 1,-3 4,5 0,-3 3,4 0,-3 6,5 -1,-4 6,4 -1,-3 6,3 0,-4 5,4 1,-5 5,3 0,-4 5,1 1,-5 3,2 -1,-4 3,2 -1,-4 4,1 0,-4 3,3 0,-7 2,1 -1,-4 3,1 -2,-5 1,0 -4,-6 4,0 -5,-5 3,0 -4,-4 3,1 -2,-4 2,0 -2,-6 1,2 -2,-7 -1,-10 -2,-9 -2,-7 -3,-6 -4,-6 -5,-5 -4,-6 -5,-4 -6,-4 -5,-5 0,12 -1,7 0,7 -2,7 -1,6 -2,5 -1,3 -1,3 -2,2 -2,4 -2,5 -3,3 -3,4 -4,3 -8,6 -3,20 1,3 z"
         style="fill:none;stroke:#ababab;stroke-opacity:1;stroke-width:0.1875;stroke-linecap:butt;stroke-linejoin:miter;stroke-miterlimit:4;stroke-dasharray:none"
         id="path5679" /><path
         d="m 238.25,418.25 -2,-14 -2,6 -3,-15 -1,7 -2,-10 -2,5 -2,-10 -1,5 -3,-14 0,11 -4,-11 0,9 -5,-19 -1,12 -2,-14 -3,12 0,-48 1,-5 1,-6 1,-6 1,-5 1,-6 2,-5 2,-6 2,-6 4,-6 5,-8 4,-7 7,-9 -11,19 14,-21 -9,22 8,-16 -5,17 7,-18 -3,16 6,-16 -4,19 8,-21 -5,20 6,-16 -3,19 6,-20 -4,18 5,-13 -3,19 5,-19 -2,21 2,-10 -1,17 2,-8 -2,16 3,-11 -1,11 0,8 1,-2 -1,10 2,-4 -3,10 -1,7 -1,5 0,4 -1,3 -2,9 -1,5 0,8 -1,6 0,3 -1,8 2,-4 -3,18 4,-6 -3,19 2,-5 -1,7 3,-3 -2,9 0,10 -1,5 1,15 -6,-12 -3,-22 -1,7"
         style="fill:#00ffff;fill-opacity:1;fill-rule:nonzero;stroke:none"
         id="path5681" /><path
         d="m 238.25,418.25 -2,-14 -2,6 -3,-15 -1,7 -2,-10 -2,5 -2,-10 -1,5 -3,-14 0,11 -4,-11 0,9 -5,-19 -1,12 -2,-14 -3,12 0,-48 1,-5 1,-6 1,-6 1,-5 1,-6 2,-5 2,-6 2,-6 4,-6 5,-8 4,-7 7,-9 -11,19 14,-21 -9,22 8,-16 -5,17 7,-18 -3,16 6,-16 -4,19 8,-21 -5,20 6,-16 -3,19 6,-20 -4,18 5,-13 -3,19 5,-19 -2,21 2,-10 -1,17 2,-8 -2,16 3,-11 -1,11 0,8 1,-2 -1,10 2,-4 -3,10 -1,7 -1,5 0,4 -1,3 -2,9 -1,5 0,8 -1,6 0,3 -1,8 2,-4 -3,18 4,-6 -3,19 2,-5 -1,7 3,-3 -2,9 0,10 -1,5 1,15 -6,-12 -3,-22 -1,7 z"
         style="fill:none;stroke:#00ffff;stroke-opacity:1;stroke-width:0.1875;stroke-linecap:butt;stroke-linejoin:miter;stroke-miterlimit:4;stroke-dasharray:none"
         id="path5683" /><path
         d="m 303.25,198.25 33,-16 -1,2 -1,1 11,-10 -1,1 0,2 1,0 2,-1 1,-1 1,0 2,-1 1,0 2,-1 1,0 -1,1 0,1 1,-1 2,-1 2,-1 2,-1 2,-1 3,0 3,-1 -1,2 0,1 1,1 1,-1 1,0 2,-1 3,0 1,1 3,0 2,-1 2,-1 6,0 1,1 7,0 0,1 1,1 4,0 2,1 5,0 2,1 5,0 3,1 2,1 3,0 2,1 2,0 2,1 2,1 2,0 -35,1 2,-2 -8,0 -1,1 -5,0 -1,-2 -10,0 0,-1 1,-1 -4,0 -2,1 -2,0 -2,1 -5,0 -2,1 -3,1 -2,0 -2,1 -3,1 -2,1 -1,1 -2,1 -1,1 0,-3 -4,0 -3,1 -2,1 -3,1 -2,2 -2,1 -3,2 -2,1 -3,1 -2,2 -3,1 -2,1 -2,1 -5,0 -1,-1 -3,0 0,0"
         style="fill:#ffffff;fill-opacity:1;fill-rule:nonzero;stroke:none"
         id="path5685" /><path
         d="m 303.25,198.25 33,-16 -1,2 -1,1 11,-10 -1,1 0,2 1,0 2,-1 1,-1 1,0 2,-1 1,0 2,-1 1,0 -1,1 0,1 1,-1 2,-1 2,-1 2,-1 2,-1 3,0 3,-1 -1,2 0,1 1,1 1,-1 1,0 2,-1 3,0 1,1 3,0 2,-1 2,-1 6,0 1,1 7,0 0,1 1,1 4,0 2,1 5,0 2,1 5,0 3,1 2,1 3,0 2,1 2,0 2,1 2,1 2,0 -35,1 2,-2 -8,0 -1,1 -5,0 -1,-2 -10,0 0,-1 1,-1 -4,0 -2,1 -2,0 -2,1 -5,0 -2,1 -3,1 -2,0 -2,1 -3,1 -2,1 -1,1 -2,1 -1,1 0,-3 -4,0 -3,1 -2,1 -3,1 -2,2 -2,1 -3,2 -2,1 -3,1 -2,2 -3,1 -2,1 -2,1 -5,0 -1,-1 -3,0 0,0 z"
         style="fill:none;stroke:#ffffff;stroke-opacity:1;stroke-width:0.1875;stroke-linecap:butt;stroke-linejoin:miter;stroke-miterlimit:4;stroke-dasharray:none"
         id="path5687" /><path
         d="m 264.25,226.25 3,-2 1,-1 2,-1 2,-2 2,-2 2,-1 2,-2 3,-2 2,-1 2,-1 2,-1 3,0 2,1 1,-1 1,-1 2,0 1,-1 1,-1 1,-1 2,0 2,1 1,0 2,-1 2,-1 3,0 2,-1 4,-1 2,0 3,-1 4,0 2,-1 8,0 2,-2 2,-1 1,-1 2,-1 2,-1 1,0 2,2 1,0 1,-1 2,0 2,-1 1,-1 2,0 1,-1 2,-1 1,1 1,0 1,-1 2,-1 2,-1 4,0 2,-1 4,0 0,1 -1,2 2,-1 2,-1 6,0 1,2 4,0 2,-1 3,0 1,-1 2,0 2,1 1,1 0,1 4,0 2,1 0,2 -1,1 -2,0 -2,1 -19,0 -4,-1 -3,0 -3,1 -3,0 -3,1 -3,1 -3,2 -2,2 0,-1 1,-2 1,-1 -2,1 -2,1 -1,1 -3,1 -2,1 -2,1 -3,1 -2,1 -3,1 -2,0 -2,1 -6,0 -2,1 -1,1 -2,1 -1,1 -2,0 0,-4 1,0 -3,0 -2,1 -2,1 -1,1 -2,1 -1,0 0,-3 1,-1 -4,2 -2,1 -2,2 -2,2 -2,1 -1,1 -2,1 -1,-1 1,-1 0,-2 1,-1 -2,1 -1,1 -2,1 -2,1 -2,1 -3,1 -2,0 -2,1 -2,0 -3,1 -2,0 -2,1 -3,0 -2,1 -2,1 -2,1 0,-1 -3,0"
         style="fill:#ffffff;fill-opacity:1;fill-rule:nonzero;stroke:none"
         id="path5689" /><path
         d="m 264.25,226.25 3,-2 1,-1 2,-1 2,-2 2,-2 2,-1 2,-2 3,-2 2,-1 2,-1 2,-1 3,0 2,1 1,-1 1,-1 2,0 1,-1 1,-1 1,-1 2,0 2,1 1,0 2,-1 2,-1 3,0 2,-1 4,-1 2,0 3,-1 4,0 2,-1 8,0 2,-2 2,-1 1,-1 2,-1 2,-1 1,0 2,2 1,0 1,-1 2,0 2,-1 1,-1 2,0 1,-1 2,-1 1,1 1,0 1,-1 2,-1 2,-1 4,0 2,-1 4,0 0,1 -1,2 2,-1 2,-1 6,0 1,2 4,0 2,-1 3,0 1,-1 2,0 2,1 1,1 0,1 4,0 2,1 0,2 -1,1 -2,0 -2,1 -19,0 -4,-1 -3,0 -3,1 -3,0 -3,1 -3,1 -3,2 -2,2 0,-1 1,-2 1,-1 -2,1 -2,1 -1,1 -3,1 -2,1 -2,1 -3,1 -2,1 -3,1 -2,0 -2,1 -6,0 -2,1 -1,1 -2,1 -1,1 -2,0 0,-4 1,0 -3,0 -2,1 -2,1 -1,1 -2,1 -1,0 0,-3 1,-1 -4,2 -2,1 -2,2 -2,2 -2,1 -1,1 -2,1 -1,-1 1,-1 0,-2 1,-1 -2,1 -1,1 -2,1 -2,1 -2,1 -3,1 -2,0 -2,1 -2,0 -3,1 -2,0 -2,1 -3,0 -2,1 -2,1 -2,1 0,-1 -3,0 z"
         style="fill:none;stroke:#ffffff;stroke-opacity:1;stroke-width:0.1875;stroke-linecap:butt;stroke-linejoin:miter;stroke-miterlimit:4;stroke-dasharray:none"
         id="path5691" /><path
         d="m 244.25,252.25 0,-2 1,-1 1,-2 0,-1 1,-1 1,-2 2,-2 1,-1 1,-1 1,-2 1,-1 2,-1 1,-1 2,-1 1,-1 1,-1 -1,2 -1,1 0,4 2,-2 1,0 1,-1 1,-1 2,-1 1,-1 1,0 1,1 -1,1 0,1 2,-1 1,-1 2,0 1,-1 2,0 0,1 1,-1 2,0 1,-1 8,0 -1,2 -1,1 -2,1 -1,2 -2,1 -1,1 -2,2 -1,1 -2,1 -2,2 -1,1 -2,1 -1,1 -2,2 -1,1 -2,1 1,-2 0,-1 1,-1 0,-2 -2,0 -1,2 -2,1 -1,1 -1,1 0,-1 1,-1 -3,0 -1,1 -1,1 -1,1 -1,-2 0,-1 -2,0 -1,1 -1,1 -1,0 -2,1 -1,-1 -1,1"
         style="fill:#ffffff;fill-opacity:1;fill-rule:nonzero;stroke:none"
         id="path5693" /><path
         d="m 244.25,252.25 0,-2 1,-1 1,-2 0,-1 1,-1 1,-2 2,-2 1,-1 1,-1 1,-2 1,-1 2,-1 1,-1 2,-1 1,-1 1,-1 -1,2 -1,1 0,4 2,-2 1,0 1,-1 1,-1 2,-1 1,-1 1,0 1,1 -1,1 0,1 2,-1 1,-1 2,0 1,-1 2,0 0,1 1,-1 2,0 1,-1 8,0 -1,2 -1,1 -2,1 -1,2 -2,1 -1,1 -2,2 -1,1 -2,1 -2,2 -1,1 -2,1 -1,1 -2,2 -1,1 -2,1 1,-2 0,-1 1,-1 0,-2 -2,0 -1,2 -2,1 -1,1 -1,1 0,-1 1,-1 -3,0 -1,1 -1,1 -1,1 -1,-2 0,-1 -2,0 -1,1 -1,1 -1,0 -2,1 -1,-1 -1,1 z"
         style="fill:none;stroke:#ffffff;stroke-opacity:1;stroke-width:0.1875;stroke-linecap:butt;stroke-linejoin:miter;stroke-miterlimit:4;stroke-dasharray:none"
         id="path5695" /><path
         d="m 290.25,241.25 1,-2 1,-1 1,-1 1,-2 2,0 1,-1 1,0 2,-1 2,-1 1,-1 2,-1 2,-1 1,-2 2,-1 2,0 1,-1 2,-2 1,0 0,3 -1,1 2,-1 1,-1 1,-1 1,-1 2,-1 1,0 1,-1 2,-1 1,0 2,-1 1,0 2,-1 1,0 2,-1 4,0 -1,1 0,3 1,-2 2,-1 2,-1 3,-1 2,-1 3,-1 3,-1 3,0 3,-1 14,0 2,1 2,1 -2,1 -1,1 -2,0 -1,1 -1,0 -1,1 -2,0 -1,1 -1,0 -2,1 -1,0 -2,2 -1,1 -11,0 0,-2 -1,1 -1,1 -2,1 -1,1 -2,1 -1,1 -2,0 -2,1 -1,1 -2,1 -2,0 -1,1 -2,1 -1,1 -1,1 -2,1 0,-1 1,-1 0,-3 -1,1 -2,1 -1,1 -2,1 -1,1 -2,1 -1,1 -1,2 0,-3 -2,1 -1,1 -3,1 -2,2 -2,1 -2,1 -2,1 -1,2 0,-3 -1,1 -2,1 -2,1 -2,1 -2,1 -2,1 -1,1 -2,0 2,-1 -3,0 -2,1 -1,2 -1,1 0,-2 1,-2 1,-2 2,-1 1,-2 2,-1 1,-2 1,0"
         style="fill:#ffffff;fill-opacity:1;fill-rule:nonzero;stroke:none"
         id="path5697" /><path
         d="m 290.25,241.25 1,-2 1,-1 1,-1 1,-2 2,0 1,-1 1,0 2,-1 2,-1 1,-1 2,-1 2,-1 1,-2 2,-1 2,0 1,-1 2,-2 1,0 0,3 -1,1 2,-1 1,-1 1,-1 1,-1 2,-1 1,0 1,-1 2,-1 1,0 2,-1 1,0 2,-1 1,0 2,-1 4,0 -1,1 0,3 1,-2 2,-1 2,-1 3,-1 2,-1 3,-1 3,-1 3,0 3,-1 14,0 2,1 2,1 -2,1 -1,1 -2,0 -1,1 -1,0 -1,1 -2,0 -1,1 -1,0 -2,1 -1,0 -2,2 -1,1 -11,0 0,-2 -1,1 -1,1 -2,1 -1,1 -2,1 -1,1 -2,0 -2,1 -1,1 -2,1 -2,0 -1,1 -2,1 -1,1 -1,1 -2,1 0,-1 1,-1 0,-3 -1,1 -2,1 -1,1 -2,1 -1,1 -2,1 -1,1 -1,2 0,-3 -2,1 -1,1 -3,1 -2,2 -2,1 -2,1 -2,1 -1,2 0,-3 -1,1 -2,1 -2,1 -2,1 -2,1 -2,1 -1,1 -2,0 2,-1 -3,0 -2,1 -1,2 -1,1 0,-2 1,-2 1,-2 2,-1 1,-2 2,-1 1,-2 1,0 z"
         style="fill:none;stroke:#ffffff;stroke-opacity:1;stroke-width:0.1875;stroke-linecap:butt;stroke-linejoin:miter;stroke-miterlimit:4;stroke-dasharray:none"
         id="path5699" /><path
         d="m 423.25,196.25 1,-1 1,-1 2,0 2,-1 1,0 2,-1 3,0 2,-1 2,0 1,-1 2,0 1,-1 2,-1 1,-1 1,-1 -1,-1 -2,0 -2,-1 -6,0 -2,1 -1,1 -6,0 -2,1 -3,0 -2,1 -2,0 -1,1 -3,1 -1,0 4,0 1,1 3,0 1,1 1,1 0,3"
         style="fill:#ffffff;fill-opacity:1;fill-rule:nonzero;stroke:none"
         id="path5701" /><path
         d="m 423.25,196.25 1,-1 1,-1 2,0 2,-1 1,0 2,-1 3,0 2,-1 2,0 1,-1 2,0 1,-1 2,-1 1,-1 1,-1 -1,-1 -2,0 -2,-1 -6,0 -2,1 -1,1 -6,0 -2,1 -3,0 -2,1 -2,0 -1,1 -3,1 -1,0 4,0 1,1 3,0 1,1 1,1 0,3 z"
         style="fill:none;stroke:#ffffff;stroke-opacity:1;stroke-width:0.1875;stroke-linecap:butt;stroke-linejoin:miter;stroke-miterlimit:4;stroke-dasharray:none"
         id="path5703" /><path
         d="m 461.25,180.25 -2,-1 -1,-1 -2,0 -2,-1 -2,0 -2,1 -3,0 -1,-1 -1,0 -2,-1 -1,0 -1,-1 -2,-1 -1,0 -1,-1 -5,0 2,1 1,1 2,1 1,1 2,1 2,1 2,0 1,1 16,0"
         style="fill:#000000;fill-opacity:1;fill-rule:nonzero;stroke:none"
         id="path5705" /><path
         d="m 461.25,180.25 -2,-1 -1,-1 -2,0 -2,-1 -2,0 -2,1 -3,0 -1,-1 -1,0 -2,-1 -1,0 -1,-1 -2,-1 -1,0 -1,-1 -5,0 2,1 1,1 2,1 1,1 2,1 2,1 2,0 1,1 16,0 z"
         style="fill:none;stroke:#000000;stroke-opacity:1;stroke-width:0.1875;stroke-linecap:butt;stroke-linejoin:miter;stroke-miterlimit:4;stroke-dasharray:none"
         id="path5707" /><path
         d="m 416.25,172.25 -5,0 -3,-1 -2,-1 -3,0 -3,-1 -3,-1 -3,0 -3,-1 -3,-1 -2,0 -3,-1 -5,0 -2,1 -2,0 1,-1 2,0 3,-1 11,0 4,1 3,0 3,1 3,1 3,1 3,0 2,1 2,1 2,0 1,2 -1,0"
         style="fill:#000000;fill-opacity:1;fill-rule:nonzero;stroke:none"
         id="path5709" /><path
         d="m 416.25,172.25 -5,0 -3,-1 -2,-1 -3,0 -3,-1 -3,-1 -3,0 -3,-1 -3,-1 -2,0 -3,-1 -5,0 -2,1 -2,0 1,-1 2,0 3,-1 11,0 4,1 3,0 3,1 3,1 3,1 3,0 2,1 2,1 2,0 1,2 -1,0 z"
         style="fill:none;stroke:#000000;stroke-opacity:1;stroke-width:0.1875;stroke-linecap:butt;stroke-linejoin:miter;stroke-miterlimit:4;stroke-dasharray:none"
         id="path5711" /><path
         d="m 342.25,171.25 2,-1 1,0 2,-1 1,-1 1,0 2,-1 1,0 1,-1 3,0 1,-1 9,0 -2,1 -2,1 -1,1 -2,0 -1,1 -4,0 -1,1 -7,0 -1,1 -3,0"
         style="fill:#000000;fill-opacity:1;fill-rule:nonzero;stroke:none"
         id="path5713" /><path
         d="m 342.25,171.25 2,-1 1,0 2,-1 1,-1 1,0 2,-1 1,0 1,-1 3,0 1,-1 9,0 -2,1 -2,1 -1,1 -2,0 -1,1 -4,0 -1,1 -7,0 -1,1 -3,0 z"
         style="fill:none;stroke:#000000;stroke-opacity:1;stroke-width:0.1875;stroke-linecap:butt;stroke-linejoin:miter;stroke-miterlimit:4;stroke-dasharray:none"
         id="path5715" /><path
         d="m 363.25,206.25 2,0 2,-1 3,0 2,-1 10,0 2,-1 5,0 -3,3 -23,0"
         style="fill:#000000;fill-opacity:1;fill-rule:nonzero;stroke:none"
         id="path5717" /><path
         d="m 363.25,206.25 2,0 2,-1 3,0 2,-1 10,0 2,-1 5,0 -3,3 -23,0 z"
         style="fill:none;stroke:#000000;stroke-opacity:1;stroke-width:0.1875;stroke-linecap:butt;stroke-linejoin:miter;stroke-miterlimit:4;stroke-dasharray:none"
         id="path5719" /><path
         d="m 352.25,189.25 0,-1 2,-2 2,-1 2,-1 2,-1 2,-1 13,0 2,1 6,0 -2,0 -2,1 -8,0 -3,1 -5,0 -2,1 -4,0 -2,1 -1,1 -1,0 -1,1"
         style="fill:#000000;fill-opacity:1;fill-rule:nonzero;stroke:none"
         id="path5721" /><path
         d="m 352.25,189.25 0,-1 2,-2 2,-1 2,-1 2,-1 2,-1 13,0 2,1 6,0 -2,0 -2,1 -8,0 -3,1 -5,0 -2,1 -4,0 -2,1 -1,1 -1,0 -1,1 z"
         style="fill:none;stroke:#000000;stroke-opacity:1;stroke-width:0.1875;stroke-linecap:butt;stroke-linejoin:miter;stroke-miterlimit:4;stroke-dasharray:none"
         id="path5723" /><path
         d="m 281.25,209.25 1,-1 1,-2 2,0 2,-1 6,0 1,-1 2,0 2,-1 1,0 2,-2 1,-1 -1,-1 -1,0 -1,1 -2,1 -1,0 -2,1 -1,1 -2,1 -2,0 -1,1 -1,1 -2,1 -1,0 -2,2 -1,0"
         style="fill:#000000;fill-opacity:1;fill-rule:nonzero;stroke:none"
         id="path5725" /><path
         d="m 281.25,209.25 1,-1 1,-2 2,0 2,-1 6,0 1,-1 2,0 2,-1 1,0 2,-2 1,-1 -1,-1 -1,0 -1,1 -2,1 -1,0 -2,1 -1,1 -2,1 -2,0 -1,1 -1,1 -2,1 -1,0 -2,2 -1,0 z"
         style="fill:none;stroke:#000000;stroke-opacity:1;stroke-width:0.1875;stroke-linecap:butt;stroke-linejoin:miter;stroke-miterlimit:4;stroke-dasharray:none"
         id="path5727" /><path
         d="m 330.25,276.25 0,-1 1,-3 1,-1 1,-2 2,-2 1,-1 1,-2 2,-2 1,-1 2,-2 1,-1 2,-1 2,-1 2,-1 4,0 -1,0 -2,2 -2,1 -1,1 -2,2 -1,1 -2,1 -1,2 -2,1 -1,2 -2,1 -1,2 -1,1 -2,1 -1,2 -1,1"
         style="fill:#000000;fill-opacity:1;fill-rule:nonzero;stroke:none"
         id="path5729" /><path
         d="m 330.25,276.25 0,-1 1,-3 1,-1 1,-2 2,-2 1,-1 1,-2 2,-2 1,-1 2,-2 1,-1 2,-1 2,-1 2,-1 4,0 -1,0 -2,2 -2,1 -1,1 -2,2 -1,1 -2,1 -1,2 -2,1 -1,2 -2,1 -1,2 -1,1 -2,1 -1,2 -1,1 z"
         style="fill:none;stroke:#000000;stroke-opacity:1;stroke-width:0.1875;stroke-linecap:butt;stroke-linejoin:miter;stroke-miterlimit:4;stroke-dasharray:none"
         id="path5731" /><path
         d="m 375.25,257.25 2,-1 1,-1 2,-1 2,-1 3,-2 2,-1 2,-2 3,-1 2,-1 3,-1 2,-1 2,-1 2,-1 5,0 0,2 -3,2 -2,2 -2,1 -2,2 -2,0 -2,1 -2,1 -3,0 -2,1 -2,0 -2,1 -3,0 -2,1 -2,0 -2,1"
         style="fill:#000000;fill-opacity:1;fill-rule:nonzero;stroke:none"
         id="path5733" /><path
         d="m 375.25,257.25 2,-1 1,-1 2,-1 2,-1 3,-2 2,-1 2,-2 3,-1 2,-1 3,-1 2,-1 2,-1 2,-1 5,0 0,2 -3,2 -2,2 -2,1 -2,2 -2,0 -2,1 -2,1 -3,0 -2,1 -2,0 -2,1 -3,0 -2,1 -2,0 -2,1 z"
         style="fill:none;stroke:#000000;stroke-opacity:1;stroke-width:0.1875;stroke-linecap:butt;stroke-linejoin:miter;stroke-miterlimit:4;stroke-dasharray:none"
         id="path5735" /><path
         d="m 407.25,231.25 1,-1 2,-1 3,-2 4,-2 3,-1 4,-1 5,-1 4,0 4,-1 8,0 3,-1 6,0 2,1 1,0 -23,-3 -3,0 -3,1 -2,0 -3,1 -2,0 -2,1 -2,1 -2,0 -2,1 -2,1 -2,1 -2,1 -2,2 -2,1 -2,2 -2,2 3,0 1,-1 3,0 1,-1 0,0"
         style="fill:#000000;fill-opacity:1;fill-rule:nonzero;stroke:none"
         id="path5737" /><path
         d="m 407.25,231.25 1,-1 2,-1 3,-2 4,-2 3,-1 4,-1 5,-1 4,0 4,-1 8,0 3,-1 6,0 2,1 1,0 -23,-3 -3,0 -3,1 -2,0 -3,1 -2,0 -2,1 -2,1 -2,0 -2,1 -2,1 -2,1 -2,1 -2,2 -2,1 -2,2 -2,2 3,0 1,-1 3,0 1,-1 0,0 z"
         style="fill:none;stroke:#000000;stroke-opacity:1;stroke-width:0.1875;stroke-linecap:butt;stroke-linejoin:miter;stroke-miterlimit:4;stroke-dasharray:none"
         id="path5739" /><path
         d="m 354.25,300.25 0,-3 1,-3 1,-2 1,-3 2,-2 3,-2 2,-3 2,-2 3,-2 3,-2 3,-1 3,-2 2,-1 3,-1 5,0 -1,0 -3,3 -2,2 -2,1 -2,2 -3,2 -2,2 -2,2 -2,2 -3,1 -2,2 -2,2 -2,2 -2,2 -2,2 -2,2"
         style="fill:#000000;fill-opacity:1;fill-rule:nonzero;stroke:none"
         id="path5741" /><path
         d="m 354.25,300.25 0,-3 1,-3 1,-2 1,-3 2,-2 3,-2 2,-3 2,-2 3,-2 3,-2 3,-1 3,-2 2,-1 3,-1 5,0 -1,0 -3,3 -2,2 -2,1 -2,2 -3,2 -2,2 -2,2 -2,2 -3,1 -2,2 -2,2 -2,2 -2,2 -2,2 -2,2 z"
         style="fill:none;stroke:#000000;stroke-opacity:1;stroke-width:0.1875;stroke-linecap:butt;stroke-linejoin:miter;stroke-miterlimit:4;stroke-dasharray:none"
         id="path5743" /><path
         d="m 363.25,243.25 1,-1 0,-1 2,-2 1,-1 1,-1 2,-1 1,-2 2,-1 1,-1 2,-1 2,-1 1,0 2,-1 3,0 2,1 -2,1 -1,1 -1,1 -2,1 -1,1 -2,1 -1,0 -2,1 -1,1 -2,1 -1,0 -2,1 -1,1 -2,0 -1,1 -1,1"
         style="fill:#000000;fill-opacity:1;fill-rule:nonzero;stroke:none"
         id="path5745" /><path
         d="m 363.25,243.25 1,-1 0,-1 2,-2 1,-1 1,-1 2,-1 1,-2 2,-1 1,-1 2,-1 2,-1 1,0 2,-1 3,0 2,1 -2,1 -1,1 -1,1 -2,1 -1,1 -2,1 -1,0 -2,1 -1,1 -2,1 -1,0 -2,1 -1,1 -2,0 -1,1 -1,1 z"
         style="fill:none;stroke:#000000;stroke-opacity:1;stroke-width:0.1875;stroke-linecap:butt;stroke-linejoin:miter;stroke-miterlimit:4;stroke-dasharray:none"
         id="path5747" /><path
         d="m 426.25,272.25 1,-1 2,-1 2,-1 3,-1 2,-2 2,-1 3,-1 3,-1 2,-1 3,-1 2,-1 3,0 2,-1 2,0 2,1 2,0 -1,1 -2,2 -3,2 -3,2 -3,2 -3,2 -4,2 -3,2 -4,2 -4,2 -3,2 -4,2 -3,2 -4,2 -3,2 -3,3 -3,2 2,-1 1,-1 1,-2 1,-1 1,-2 1,-1 1,-2 1,-1 1,-2 2,-3 1,-2 1,-1 1,-1 2,-2"
         style="fill:#000000;fill-opacity:1;fill-rule:nonzero;stroke:none"
         id="path5749" /><path
         d="m 426.25,272.25 1,-1 2,-1 2,-1 3,-1 2,-2 2,-1 3,-1 3,-1 2,-1 3,-1 2,-1 3,0 2,-1 2,0 2,1 2,0 -1,1 -2,2 -3,2 -3,2 -3,2 -3,2 -4,2 -3,2 -4,2 -4,2 -3,2 -4,2 -3,2 -4,2 -3,2 -3,3 -3,2 2,-1 1,-1 1,-2 1,-1 1,-2 1,-1 1,-2 1,-1 1,-2 2,-3 1,-2 1,-1 1,-1 2,-2 z"
         style="fill:none;stroke:#000000;stroke-opacity:1;stroke-width:0.1875;stroke-linecap:butt;stroke-linejoin:miter;stroke-miterlimit:4;stroke-dasharray:none"
         id="path5751" /><path
         d="m 316.25,293.25 0,-5 1,-2 0,-3 1,-1 1,-3 1,-2 1,-2 2,-2 1,-2 1,-2 2,-2 1,-2 2,-2 1,-2 2,-2 2,-2 2,-2 2,-2 1,-1 2,-2 2,-2 2,-1 2,-2 2,-1 2,-2 1,-1 2,-1 2,-1 1,-1 2,-1"
         style="fill:none;stroke:#ffffff;stroke-opacity:1;stroke-width:0.1875;stroke-linecap:butt;stroke-linejoin:miter;stroke-miterlimit:4;stroke-dasharray:none"
         id="path5753" /><path
         d="m 395.25,226.25 1,-1 0,-1 1,-1 1,0 0,0 1,-1 1,0 0,0 1,-1 1,0 0,-1 1,0 0,0 1,-1 1,0 1,-1 1,0 0,0 1,-1 2,0 0,-1 1,0 1,0"
         style="fill:none;stroke:#ffffff;stroke-opacity:1;stroke-width:0.1875;stroke-linecap:butt;stroke-linejoin:miter;stroke-miterlimit:4;stroke-dasharray:none"
         id="path5755" /><path
         d="m 467.25,268.25 1,-1 1,-1 0,-1 1,-1 0,0 1,-1 0,-1 1,-1 0,-1 1,0 0,-1 1,0 0,-2 1,0 0,-1 1,0 0,-1 1,-1 0,-1 1,0 0,-1 1,-1"
         style="fill:none;stroke:#ffffff;stroke-opacity:1;stroke-width:0.1875;stroke-linecap:butt;stroke-linejoin:miter;stroke-miterlimit:4;stroke-dasharray:none"
         id="path5757" /><path
         d="m 419.25,9.25 -45,-1 -2,5 -3,5 -5,5 -6,6 -6,6 -7,5 -7,5 -7,5 -3,3 -5,4 -4,3 -5,3 -5,2 -3,2 -3,1 -6,4 -5,3 -5,4 -5,3 -4,3 -5,4 -5,2 -6,3 -5,2 -5,3 -5,3 -6,4 -5,3 -5,4 -5,3 -5,2 -13,8 -13,7 -12,7 -13,7 -13,7 -14,7 -16,8 -18,8 -20,8 -18,6 -16,5 -13,4 -11,4 -14,6 -3,3 -1,3 -1,4 48,-14 -48,16 -1,4 0,2 1,4 3,4 5,2 11,-3 9,-4 9,-3 10,-3 9,-3 10,-5 17,-7 22,-5 21,-10 20,-8 5,2 6,-5 11,-8 11,-6 10,-5 12,-6 12,-6 16,-8 17,-9 21,-11 21,-10 17,-9 13,-8 10,-7 9,-6 8,-5 7,-6 7,-5 6,-5 8,-7 7,-8 7,-8 6,-8 6,-9 4,-8 4,-7"
         style="fill:#ffbd00;fill-opacity:1;fill-rule:nonzero;stroke:none"
         id="path5759" /><path
         d="m 419.25,9.25 -45,-1 -2,5 -3,5 -5,5 -6,6 -6,6 -7,5 -7,5 -7,5 -3,3 -5,4 -4,3 -5,3 -5,2 -3,2 -3,1 -6,4 -5,3 -5,4 -5,3 -4,3 -5,4 -5,2 -6,3 -5,2 -5,3 -5,3 -6,4 -5,3 -5,4 -5,3 -5,2 -13,8 -13,7 -12,7 -13,7 -13,7 -14,7 -16,8 -18,8 -20,8 -18,6 -16,5 -13,4 -11,4 -14,6 -3,3 -1,3 -1,4 48,-14 -48,16 -1,4 0,2 1,4 3,4 5,2 11,-3 9,-4 9,-3 10,-3 9,-3 10,-5 17,-7 22,-5 21,-10 20,-8 5,2 6,-5 11,-8 11,-6 10,-5 12,-6 12,-6 16,-8 17,-9 21,-11 21,-10 17,-9 13,-8 10,-7 9,-6 8,-5 7,-6 7,-5 6,-5 8,-7 7,-8 7,-8 6,-8 6,-9 4,-8 4,-7 z"
         style="fill:none;stroke:#000000;stroke-opacity:1;stroke-width:0.1875;stroke-linecap:butt;stroke-linejoin:miter;stroke-miterlimit:4;stroke-dasharray:none"
         id="path5761" /><path
         d="m 76.25,209.25 2,-1 1,0 2,-1 2,0 1,-1 2,0 1,-1 2,0 2,-1 1,-1 2,0 1,-1 2,-1 2,0 1,-1 2,-1 1,0 2,-1 1,-1 2,0 2,-1 1,0 2,-1 2,0 1,-1 2,0 2,-1 8,0"
         style="fill:none;stroke:#000000;stroke-opacity:1;stroke-width:0.1875;stroke-linecap:butt;stroke-linejoin:miter;stroke-miterlimit:4;stroke-dasharray:none"
         id="path5763" /><path
         d="m 132.25,178.25 1,-1 3,-2 2,-1 3,-1 2,-1 3,-1 2,0 3,-1 2,-1 3,-1 2,0 2,-1 3,-1 2,0 3,-1 2,-1 1,-1 2,0 1,-1 2,-1 1,-1 2,-2 2,-1 2,-1 1,-2 2,-1 2,-1 2,-1 1,-1 2,0 2,-1 1,0 1,-1 2,-2 2,-2 2,-1 2,-2 3,-1 2,-2 3,-1 2,-1 3,-1 3,-2 2,-1 3,-1 2,-1 2,-1 2,0"
         style="fill:none;stroke:#000000;stroke-opacity:1;stroke-width:0.1875;stroke-linecap:butt;stroke-linejoin:miter;stroke-miterlimit:4;stroke-dasharray:none"
         id="path5765" /><path
         d="m 199.25,139.25 1,-1 2,0 3,-2 3,-1 3,-2 3,-2 3,-2 3,-2 2,-2 3,-2 3,-2 3,-2 3,-2 3,-1 3,-2 3,-1 3,-2 2,-1"
         style="fill:none;stroke:#000000;stroke-opacity:1;stroke-width:0.1875;stroke-linecap:butt;stroke-linejoin:miter;stroke-miterlimit:4;stroke-dasharray:none"
         id="path5767" /><path
         d="m 245.25,137.25 1,0 1,-1 1,0 1,-1 2,0 1,-1 1,0 1,-1 1,0 1,-1 1,0 1,-1 1,0 1,-1 1,0 1,-1 1,0 1,-1 2,0 1,-1 1,0 1,-1 1,0 1,-1 0,0 1,-1 1,-1 1,-1 1,0 1,-1"
         style="fill:none;stroke:#000000;stroke-opacity:1;stroke-width:0.1875;stroke-linecap:butt;stroke-linejoin:miter;stroke-miterlimit:4;stroke-dasharray:none"
         id="path5769" /><path
         d="m 259.25,123.25 1,-1 1,0 1,-1 0,0 1,-1 1,0 1,-1 1,0 0,-1 1,0 1,-1 2,0 0,-1 1,-1 1,0 1,-1"
         style="fill:none;stroke:#000000;stroke-opacity:1;stroke-width:0.1875;stroke-linecap:butt;stroke-linejoin:miter;stroke-miterlimit:4;stroke-dasharray:none"
         id="path5771" /><path
         d="m 324.25,85.25 1,0 1,-1 2,0 1,-1 1,0 1,-1 1,0 1,-1 0,-1 1,0 1,-1 1,-1 1,0 1,-1"
         style="fill:none;stroke:#000000;stroke-opacity:1;stroke-width:0.1875;stroke-linecap:butt;stroke-linejoin:miter;stroke-miterlimit:4;stroke-dasharray:none"
         id="path5773" /><path
         d="m 298.25,83.25 1,-1 1,0 1,-1 0,0 1,-1 1,0 0,-1 1,0 1,-1 0,0 1,-1 1,-1 1,0"
         style="fill:none;stroke:#000000;stroke-opacity:1;stroke-width:0.1875;stroke-linecap:butt;stroke-linejoin:miter;stroke-miterlimit:4;stroke-dasharray:none"
         id="path5775" /><path
         d="m 313.25,84.25 0,-1 1,-1 0,-1 1,0 0,0 1,-1 0,0"
         style="fill:none;stroke:#000000;stroke-opacity:1;stroke-width:0.1875;stroke-linecap:butt;stroke-linejoin:miter;stroke-miterlimit:4;stroke-dasharray:none"
         id="path5777" /><path
         d="m 327.25,62.25 0,-1 1,-1 1,-1 0,0 1,-1 0,0 1,-1 1,-1 1,0 0,-1 1,-1 1,0 0,-1 1,-1"
         style="fill:none;stroke:#000000;stroke-opacity:1;stroke-width:0.1875;stroke-linecap:butt;stroke-linejoin:miter;stroke-miterlimit:4;stroke-dasharray:none"
         id="path5779" /><path
         d="m 372.25,59.25 2,-1 1,-1 1,-1 2,-1 1,-2 1,-1 1,-1 1,-1 2,-2 1,-1 1,-2 1,-1 1,-1 1,-2 1,-1 1,-2 0,-1 1,-2 1,-1 1,-2 1,-1 1,-2 1,-1 1,-1 1,-2 1,-1 0,-1 1,-2 1,-1 1,-1 1,-1 1,-1"
         style="fill:none;stroke:#000000;stroke-opacity:1;stroke-width:0.1875;stroke-linecap:butt;stroke-linejoin:miter;stroke-miterlimit:4;stroke-dasharray:none"
         id="path5781" /><path
         d="m 385.25,13.25 -1,1 -1,1 0,1 -1,1 0,1 -1,1 -1,1 -1,1 0,0 -1,1 -1,1 -1,1 0,1 -1,0 -1,1 -1,1 -1,1 -1,0 0,1 -1,1 -1,1 -1,1 -1,0 -1,1 0,1 -1,1 -1,0 -1,1 -1,1 0,1 -1,0 -1,1"
         style="fill:none;stroke:#000000;stroke-opacity:1;stroke-width:0.1875;stroke-linecap:butt;stroke-linejoin:miter;stroke-miterlimit:4;stroke-dasharray:none"
         id="path5783" /><path
         d="m 370.25,48.25 0,-1 1,-1 0,0 1,-1 1,-1 0,0 1,-1 0,-1 1,0 0,-1 1,-1 0,-1 1,0 1,-1 0,-1"
         style="fill:none;stroke:#000000;stroke-opacity:1;stroke-width:0.1875;stroke-linecap:butt;stroke-linejoin:miter;stroke-miterlimit:4;stroke-dasharray:none"
         id="path5785" /><path
         d="m 183.25,168.25 1,-1 1,-1 1,-1 1,-1 1,0 1,-1 1,-1 2,-1 1,0 1,-1 1,-1 2,0 1,-1 1,0 2,-1 1,0 2,-1 1,-1 2,0 1,-1 1,0 2,-1 1,-1 1,0 2,-1 1,-1 1,0 2,-1 1,-1 1,-1 1,-1 1,-1"
         style="fill:none;stroke:#000000;stroke-opacity:1;stroke-width:0.1875;stroke-linecap:butt;stroke-linejoin:miter;stroke-miterlimit:4;stroke-dasharray:none"
         id="path5787" /><path
         d="m 89.25,191.25 39,-19"
         style="fill:none;stroke:#000000;stroke-opacity:1;stroke-width:0.1875;stroke-linecap:butt;stroke-linejoin:miter;stroke-miterlimit:4;stroke-dasharray:none"
         id="path5789" /><path
         d="m 27.25,230.25 2,-1 1,0 1,-1 1,0 0,-1 2,0 0,-1 3,0 1,-1 1,0 0,-1 3,0 1,-1 1,0 2,0 1,-1 1,0 3,0 0,0"
         style="fill:none;stroke:#000000;stroke-opacity:1;stroke-width:0.1875;stroke-linecap:butt;stroke-linejoin:miter;stroke-miterlimit:4;stroke-dasharray:none"
         id="path5791" /><path
         d="m 55.25,202.25 1,0 0,-1 4,0 1,-1 2,0 0,-1 2,0 1,-1 2,0 1,-1 1,0 1,-1 1,0 1,-1 2,0 1,-1 0,0 1,-1 2,0 1,-1 0,0 1,-1 1,0"
         style="fill:none;stroke:#000000;stroke-opacity:1;stroke-width:0.1875;stroke-linecap:butt;stroke-linejoin:miter;stroke-miterlimit:4;stroke-dasharray:none"
         id="path5793" /><path
         d="m 144.25,184.25 1,0 1,-1 1,0 1,-1 1,0 1,-1 3,0 1,-1 3,0 1,-1 3,0 1,-1 4,0 0,-1 2,0 1,-1 2,0 0,-1 1,0"
         style="fill:none;stroke:#000000;stroke-opacity:1;stroke-width:0.1875;stroke-linecap:butt;stroke-linejoin:miter;stroke-miterlimit:4;stroke-dasharray:none"
         id="path5795" /><path
         d="m 169.25,156.25 2,-1 2,-1 2,-1 2,-2 2,-1 1,-1 2,-2 2,-1 3,0"
         style="fill:none;stroke:#000000;stroke-opacity:1;stroke-width:0.1875;stroke-linecap:butt;stroke-linejoin:miter;stroke-miterlimit:4;stroke-dasharray:none"
         id="path5797" /><path
         d="m 327.25,99.25 2,0 0,-1 2,0 2,0 0,-1 2,0 1,0 1,-1 2,0 0,-1 1,0 0,0 1,-1 1,0 0,0 1,-1 0,0 1,-1 0,0 1,-1 0,0 1,-1"
         style="fill:none;stroke:#ababab;stroke-opacity:1;stroke-width:0.1875;stroke-linecap:butt;stroke-linejoin:miter;stroke-miterlimit:4;stroke-dasharray:none"
         id="path5799" /><path
         d="m 344.25,165.25 1,-3 1,-4 1,-5 2,-4 -5,-5 -5,-6 -4,-7 -4,-6 -5,-6 -5,-5 -5,-4 -6,-3 -6,-1 -43,0 -6,-1 -4,-1 -3,-4 -1,-3 -2,-4 4,2 4,2 5,1 5,1 15,0 4,-1 -5,0 -5,-1 -6,-2 -6,-2 -6,-3 -5,-3 -3,-5 -1,-5 3,1 3,1 3,4 3,2 4,1 5,1 5,1 6,1 5,1 5,1 -6,-3 -6,-4 -6,-3 -5,-3 -4,-3 -3,-4 -1,-5 -1,-7 3,4 5,4 3,2 3,3 5,2 4,2 6,2 7,3 7,3 8,4 7,3 7,2 8,1 6,-1 4,-2 4,-2 3,-2 2,-4 2,4 -1,3 -2,4 -5,3 -5,2 -4,2 -4,2 -3,2 4,3 3,3 5,6 3,4 4,4 3,3 4,4 3,4 4,4 3,4 0,2 -1,3 -1,4 -1,4 -1,3 -2,1 -3,0 -4,2 -2,1 -2,1"
         style="fill:#000000;fill-opacity:1;fill-rule:nonzero;stroke:none"
         id="path5801" /><path
         d="m 344.25,165.25 1,-3 1,-4 1,-5 2,-4 -5,-5 -5,-6 -4,-7 -4,-6 -5,-6 -5,-5 -5,-4 -6,-3 -6,-1 -43,0 -6,-1 -4,-1 -3,-4 -1,-3 -2,-4 4,2 4,2 5,1 5,1 15,0 4,-1 -5,0 -5,-1 -6,-2 -6,-2 -6,-3 -5,-3 -3,-5 -1,-5 3,1 3,1 3,4 3,2 4,1 5,1 5,1 6,1 5,1 5,1 -6,-3 -6,-4 -6,-3 -5,-3 -4,-3 -3,-4 -1,-5 -1,-7 3,4 5,4 3,2 3,3 5,2 4,2 6,2 7,3 7,3 8,4 7,3 7,2 8,1 6,-1 4,-2 4,-2 3,-2 2,-4 2,4 -1,3 -2,4 -5,3 -5,2 -4,2 -4,2 -3,2 4,3 3,3 5,6 3,4 4,4 3,3 4,4 3,4 4,4 3,4 0,2 -1,3 -1,4 -1,4 -1,3 -2,1 -3,0 -4,2 -2,1 -2,1 z"
         style="fill:none;stroke:#ababab;stroke-opacity:1;stroke-width:0.1875;stroke-linecap:butt;stroke-linejoin:miter;stroke-miterlimit:4;stroke-dasharray:none"
         id="path5803" /><path
         d="m 252.25,100.25 1,0 1,1 2,0 1,1 5,0 1,1 4,0 1,1 22,0 2,-1 14,0 2,1 3,0"
         style="fill:none;stroke:#ababab;stroke-opacity:1;stroke-width:0.1875;stroke-linecap:butt;stroke-linejoin:miter;stroke-miterlimit:4;stroke-dasharray:none"
         id="path5805" /><path
         d="m 249.25,81.25 0,1 2,2 1,2 2,1 1,1 2,0 2,1 1,1 2,0 2,1 3,0 2,1 4,0 2,1 1,0 3,1 2,1 5,0 2,1 10,0 2,1 4,0 2,1 3,1 2,0"
         style="fill:none;stroke:#ababab;stroke-opacity:1;stroke-width:0.1875;stroke-linecap:butt;stroke-linejoin:miter;stroke-miterlimit:4;stroke-dasharray:none"
         id="path5807" /><path
         d="m 264.25,73.25 1,1 2,2 2,1 2,1 2,1 3,1 2,1 2,1 2,0 1,1 2,1 1,0 2,1 1,1 1,0 26,11"
         style="fill:none;stroke:#ababab;stroke-opacity:1;stroke-width:0.1875;stroke-linecap:butt;stroke-linejoin:miter;stroke-miterlimit:4;stroke-dasharray:none"
         id="path5809" /><path
         d="m 352.25,152.25 0,-3 -1,-2 0,-1 -1,-2 -1,-1 -1,-2 -1,-2 -1,-1 -2,-2 -1,-2 -1,-1 -1,-1 -2,-3 -2,-2 -1,-2 -2,-2 -1,-2 -2,-1 -2,-2 -2,-2 -1,-2 -2,-2 -2,-1 -2,-2 -1,-2 -2,-2 -2,-1 4,0 1,1 2,2 2,1 1,1 1,2 2,1 1,1 2,2 1,1 1,1 2,1 1,2 0,1 2,1 1,2 2,1 1,1 1,2 2,1 1,2 1,1 0,2 1,1 1,1 2,2 1,1 1,1 0,2 1,1 1,2 0,5 -2,2 -1,0"
         style="fill:#ababab;fill-opacity:1;fill-rule:nonzero;stroke:none"
         id="path5811" /><path
         d="m 352.25,152.25 0,-3 -1,-2 0,-1 -1,-2 -1,-1 -1,-2 -1,-2 -1,-1 -2,-2 -1,-2 -1,-1 -1,-1 -2,-3 -2,-2 -1,-2 -2,-2 -1,-2 -2,-1 -2,-2 -2,-2 -1,-2 -2,-2 -2,-1 -2,-2 -1,-2 -2,-2 -2,-1 4,0 1,1 2,2 2,1 1,1 1,2 2,1 1,1 2,2 1,1 1,1 2,1 1,2 0,1 2,1 1,2 2,1 1,1 1,2 2,1 1,2 1,1 0,2 1,1 1,1 2,2 1,1 1,1 0,2 1,1 1,2 0,5 -2,2 -1,0 z"
         style="fill:none;stroke:#000000;stroke-opacity:1;stroke-width:0.1875;stroke-linecap:butt;stroke-linejoin:miter;stroke-miterlimit:4;stroke-dasharray:none"
         id="path5813" /><path
         d="m 400.25,162.25 -5,-1 -2,0 -3,-1 -3,0 1,-7 2,-5 3,-5 2,-5 2,-4 1,-5 1,-5 -2,-4 -1,-2 -6,-7 -5,-5 -5,-5 -4,-6 -5,-6 -4,-6 -5,-5 -6,-5 -28,0 -7,-2 -6,-3 -4,-4 -2,-7 5,4 5,3 6,1 6,0 7,-1 5,-1 5,-1 4,-1 -3,-3 -4,-4 -5,-4 -5,-4 -3,-5 -2,-4 0,-5 2,-4 2,3 1,2 2,3 3,4 5,4 3,1 4,3 4,4 3,2 2,2 3,2 4,3 4,-1 6,-2 6,-3 6,-4 5,-4 5,-5 3,-5 1,-5 1,5 -1,5 -2,5 -3,6 -3,4 -5,5 -4,3 -4,2 -3,3 0,3 3,0 2,-1 3,-2 2,-2 1,2 -2,5 -4,4 -3,5 2,4 3,3 2,3 2,3 3,2 3,3 2,2 3,3 2,2 4,3 3,3 2,3 1,3 0,4 -2,5 -1,5 -2,5 -1,4 -2,5 -1,3 -1,4 0,4 -1,3 -3,-1"
         style="fill:#000000;fill-opacity:1;fill-rule:nonzero;stroke:none"
         id="path5815" /><path
         d="m 400.25,162.25 -5,-1 -2,0 -3,-1 -3,0 1,-7 2,-5 3,-5 2,-5 2,-4 1,-5 1,-5 -2,-4 -1,-2 -6,-7 -5,-5 -5,-5 -4,-6 -5,-6 -4,-6 -5,-5 -6,-5 -28,0 -7,-2 -6,-3 -4,-4 -2,-7 5,4 5,3 6,1 6,0 7,-1 5,-1 5,-1 4,-1 -3,-3 -4,-4 -5,-4 -5,-4 -3,-5 -2,-4 0,-5 2,-4 2,3 1,2 2,3 3,4 5,4 3,1 4,3 4,4 3,2 2,2 3,2 4,3 4,-1 6,-2 6,-3 6,-4 5,-4 5,-5 3,-5 1,-5 1,5 -1,5 -2,5 -3,6 -3,4 -5,5 -4,3 -4,2 -3,3 0,3 3,0 2,-1 3,-2 2,-2 1,2 -2,5 -4,4 -3,5 2,4 3,3 2,3 2,3 3,2 3,3 2,2 3,3 2,2 4,3 3,3 2,3 1,3 0,4 -2,5 -1,5 -2,5 -1,4 -2,5 -1,3 -1,4 0,4 -1,3 -3,-1 z"
         style="fill:none;stroke:#ababab;stroke-opacity:1;stroke-width:0.1875;stroke-linecap:butt;stroke-linejoin:miter;stroke-miterlimit:4;stroke-dasharray:none"
         id="path5817" /><path
         d="m 398.25,143.25 1,-2 1,-2 0,-3 1,-2 0,-1 1,-2 0,-1 1,-1 0,-2 1,-2 -1,-1 0,-2 -1,-1 -1,-2 -2,-2 -1,-1 -2,-2 -1,-2 -2,-2 -1,-2 -2,-1 -1,-2 -1,-1 -2,-2 0,-1 -2,-3 -2,-1 -1,-2 -1,-2 -1,-1 -2,-1 -1,-2 -1,-1 -1,-2 -1,-1 -1,-2 -1,-1 -2,-2 -1,-2 -1,-2 1,0 1,1 2,1 1,2 2,2 1,2 1,2 2,1 1,2 1,1 1,1 2,1 1,2 1,1 1,1 2,1 1,2 1,1 1,1 2,2 1,2 1,1 1,2 2,1 1,0 1,1 2,2 1,2 0,0 1,2 1,1 1,1 2,1 0,6 -1,1 0,1 -1,2 0,2 -1,1 -1,2 -1,2 -1,1 -1,2 -1,1 -1,2 -1,1"
         style="fill:#ababab;fill-opacity:1;fill-rule:nonzero;stroke:none"
         id="path5819" /><path
         d="m 398.25,143.25 1,-2 1,-2 0,-3 1,-2 0,-1 1,-2 0,-1 1,-1 0,-2 1,-2 -1,-1 0,-2 -1,-1 -1,-2 -2,-2 -1,-1 -2,-2 -1,-2 -2,-2 -1,-2 -2,-1 -1,-2 -1,-1 -2,-2 0,-1 -2,-3 -2,-1 -1,-2 -1,-2 -1,-1 -2,-1 -1,-2 -1,-1 -1,-2 -1,-1 -1,-2 -1,-1 -2,-2 -1,-2 -1,-2 1,0 1,1 2,1 1,2 2,2 1,2 1,2 2,1 1,2 1,1 1,1 2,1 1,2 1,1 1,1 2,1 1,2 1,1 1,1 2,2 1,2 1,1 1,2 2,1 1,0 1,1 2,2 1,2 0,0 1,2 1,1 1,1 2,1 0,6 -1,1 0,1 -1,2 0,2 -1,1 -1,2 -1,2 -1,1 -1,2 -1,1 -1,2 -1,1 z"
         style="fill:none;stroke:#000000;stroke-opacity:1;stroke-width:0.1875;stroke-linecap:butt;stroke-linejoin:miter;stroke-miterlimit:4;stroke-dasharray:none"
         id="path5821" /><path
         d="m 313.25,62.25 1,2 1,1 2,2 1,1 2,1 2,0 1,1 3,0 2,1 3,0 3,-1 20,0 3,1 2,1 2,2 3,2"
         style="fill:none;stroke:#ababab;stroke-opacity:1;stroke-width:0.1875;stroke-linecap:butt;stroke-linejoin:miter;stroke-miterlimit:4;stroke-dasharray:none"
         id="path5823" /><path
         d="m 332.25,33.25 0,1 1,3 0,1 1,2 1,2 1,1 2,2 1,1 2,2 1,1 1,1 2,1 1,1 2,2 1,1 1,1 2,1 2,2 1,1 2,2 1,1 1,2 0,1 2,1 1,1 1,2 1,1 1,2 1,1"
         style="fill:none;stroke:#ababab;stroke-opacity:1;stroke-width:0.1875;stroke-linecap:butt;stroke-linejoin:miter;stroke-miterlimit:4;stroke-dasharray:none"
         id="path5825" /><path
         d="m 371.25,73.25 1,-1 2,-3 2,-1 2,-2 2,-1 2,-2 2,-1 3,-1 2,-1 2,-2 2,-1 2,-1 2,-2 2,-2 1,-2 1,-2 1,-1 0,-2 1,-1 0,-3 1,-1 0,-3"
         style="fill:none;stroke:#ababab;stroke-opacity:1;stroke-width:0.1875;stroke-linecap:butt;stroke-linejoin:miter;stroke-miterlimit:4;stroke-dasharray:none"
         id="path5827" /><path
         d="m 380.25,84.25 0,-2 2,-2 1,-2 2,-1 1,-2 2,-2 1,-1 1,-2 1,-1"
         style="fill:none;stroke:#ababab;stroke-opacity:1;stroke-width:0.1875;stroke-linecap:butt;stroke-linejoin:miter;stroke-miterlimit:4;stroke-dasharray:none"
         id="path5829" /><path
         d="m 184.25,502.25 4,-10 2,4 -1,-6 3,5 0,-4 2,4 0,-3 1,2 -2,5 -2,5 -3,6 -2,4 -4,5 -5,8 -6,6 -4,3 -3,2 -4,2 -3,1 -5,1 -4,1 -4,-1 -4,0 -4,-1 -4,-1 -5,-3 -4,-2 -5,-4 -4,-4 -3,-5 -2,-5 0,-9 2,-4 1,-4 4,-4 3,-4 3,-2 3,1 4,0 4,1 3,2 3,2 1,2 -2,2 -4,3 -4,1 -10,0 -2,2 -1,2 -1,2 0,3 1,3 3,5 4,5 4,3 4,2 4,2 4,1 4,1 8,0 3,-1 4,-1 3,-2 3,-2 4,-4 6,-7 4,-8 5,-8"
         style="fill:#000000;fill-opacity:1;fill-rule:nonzero;stroke:none"
         id="path5831" /><path
         d="m 184.25,502.25 4,-10 2,4 -1,-6 3,5 0,-4 2,4 0,-3 1,2 -2,5 -2,5 -3,6 -2,4 -4,5 -5,8 -6,6 -4,3 -3,2 -4,2 -3,1 -5,1 -4,1 -4,-1 -4,0 -4,-1 -4,-1 -5,-3 -4,-2 -5,-4 -4,-4 -3,-5 -2,-5 0,-9 2,-4 1,-4 4,-4 3,-4 3,-2 3,1 4,0 4,1 3,2 3,2 1,2 -2,2 -4,3 -4,1 -10,0 -2,2 -1,2 -1,2 0,3 1,3 3,5 4,5 4,3 4,2 4,2 4,1 4,1 8,0 3,-1 4,-1 3,-2 3,-2 4,-4 6,-7 4,-8 5,-8 z"
         style="fill:none;stroke:#ababab;stroke-opacity:1;stroke-width:0.1875;stroke-linecap:butt;stroke-linejoin:miter;stroke-miterlimit:4;stroke-dasharray:none"
         id="path5833" /><path
         d="m 169.25,455.25 1,-2 1,-1 1,-3 0,-2 1,-2 2,0 1,-1 1,-2 1,-2 0,-2 -1,-1 0,-1 -2,-2 -1,-1 -5,0 -2,1 -1,1 -2,0 -2,1 -2,0 -1,1 -2,1 -2,0 -2,1 -8,0 2,3 1,2 2,2 2,2 1,1 2,1 1,1 2,0 2,1 3,0 1,1 3,0 1,1 1,1"
         style="fill:#ffbd00;fill-opacity:1;fill-rule:nonzero;stroke:none"
         id="path5835" /><path
         d="m 169.25,455.25 1,-2 1,-1 1,-3 0,-2 1,-2 2,0 1,-1 1,-2 1,-2 0,-2 -1,-1 0,-1 -2,-2 -1,-1 -5,0 -2,1 -1,1 -2,0 -2,1 -2,0 -1,1 -2,1 -2,0 -2,1 -8,0 2,3 1,2 2,2 2,2 1,1 2,1 1,1 2,0 2,1 3,0 1,1 3,0 1,1 1,1 z"
         style="fill:none;stroke:#ababab;stroke-opacity:1;stroke-width:0.1875;stroke-linecap:butt;stroke-linejoin:miter;stroke-miterlimit:4;stroke-dasharray:none"
         id="path5837" /><path
         d="m 146.25,440.25 3,1 9,0 3,-1 4,-1 4,0 2,-1 7,0 -2,0 -2,1 -5,0 -3,1 -4,0 -3,1 -3,0 -2,1 -2,-1 -4,0 -2,-1"
         style="fill:#000000;fill-opacity:1;fill-rule:nonzero;stroke:none"
         id="path5839" /><path
         d="m 146.25,440.25 3,1 9,0 3,-1 4,-1 4,0 2,-1 7,0 -2,0 -2,1 -5,0 -3,1 -4,0 -3,1 -3,0 -2,1 -2,-1 -4,0 -2,-1 z"
         style="fill:none;stroke:#000000;stroke-opacity:1;stroke-width:0.1875;stroke-linecap:butt;stroke-linejoin:miter;stroke-miterlimit:4;stroke-dasharray:none"
         id="path5841" /><path
         d="m 169.25,452.25 -1,-1 -2,0 -2,-1 -1,-1 1,0 2,1 1,0 1,1 1,1 0,0"
         style="fill:#000000;fill-opacity:1;fill-rule:nonzero;stroke:none"
         id="path5843" /><path
         d="m 169.25,452.25 -1,-1 -2,0 -2,-1 -1,-1 1,0 2,1 1,0 1,1 1,1 0,0 z"
         style="fill:none;stroke:#000000;stroke-opacity:1;stroke-width:0.1875;stroke-linecap:butt;stroke-linejoin:miter;stroke-miterlimit:4;stroke-dasharray:none"
         id="path5845" /><path
         d="m 169.25,455.25 -2,5 0,11 1,6 2,-9 1,15 1,-9 2,13 1,-10 3,13 0,-9 3,11 0,-8 3,9 0,-6 3,6 0,-5 3,8 -1,-6 3,5 0,-4 2,4 0,-3 3,5 0,-3 3,4 1,-3 3,5 1,-4 4,4 -1,-4 4,4 1,-4 5,6 0,-5 4,2 -1,-3 4,3 0,-4 4,6 -1,-7 4,6 -1,-8 4,6 -1,-6 4,4 1,-5 4,5 0,-6 5,4 -2,-6 5,3 0,-5 6,5 0,-8 3,3 0,-7 4,5 0,-7 3,3 1,-8 2,4 0,-7 2,4 1,-8 3,6 0,-10 2,4 1,-8 1,4 1,-9 2,4 0,-6 2,-5 -2,3 -3,3 -3,2 -2,2 -4,3 -3,3 0,-2 -5,6 1,-4 -5,7 1,-4 -5,6 0,-3 -2,5 -3,2 -2,-3 -1,4 -1,-3 -1,5 -3,1 -2,-4 -1,5 -3,-2 -1,3 -2,-1 -4,0 -3,1 0,2 -4,-1 -3,0 0,2 -3,-1 -3,0 -4,-1 -3,-1 -2,0 -4,-2 -3,1 -2,-3 -3,0 -1,-3 -3,-2 -3,-2 -4,-4 -5,-5 -2,-2 -3,-1 -1,-5 -1,3"
         style="fill:#000000;fill-opacity:1;fill-rule:nonzero;stroke:none"
         id="path5847" /><path
         d="m 169.25,455.25 -2,5 0,11 1,6 2,-9 1,15 1,-9 2,13 1,-10 3,13 0,-9 3,11 0,-8 3,9 0,-6 3,6 0,-5 3,8 -1,-6 3,5 0,-4 2,4 0,-3 3,5 0,-3 3,4 1,-3 3,5 1,-4 4,4 -1,-4 4,4 1,-4 5,6 0,-5 4,2 -1,-3 4,3 0,-4 4,6 -1,-7 4,6 -1,-8 4,6 -1,-6 4,4 1,-5 4,5 0,-6 5,4 -2,-6 5,3 0,-5 6,5 0,-8 3,3 0,-7 4,5 0,-7 3,3 1,-8 2,4 0,-7 2,4 1,-8 3,6 0,-10 2,4 1,-8 1,4 1,-9 2,4 0,-6 2,-5 -2,3 -3,3 -3,2 -2,2 -4,3 -3,3 0,-2 -5,6 1,-4 -5,7 1,-4 -5,6 0,-3 -2,5 -3,2 -2,-3 -1,4 -1,-3 -1,5 -3,1 -2,-4 -1,5 -3,-2 -1,3 -2,-1 -4,0 -3,1 0,2 -4,-1 -3,0 0,2 -3,-1 -3,0 -4,-1 -3,-1 -2,0 -4,-2 -3,1 -2,-3 -3,0 -1,-3 -3,-2 -3,-2 -4,-4 -5,-5 -2,-2 -3,-1 -1,-5 -1,3 z"
         style="fill:none;stroke:#ababab;stroke-opacity:1;stroke-width:0.1875;stroke-linecap:butt;stroke-linejoin:miter;stroke-miterlimit:4;stroke-dasharray:none"
         id="path5849" /><path
         d="m 205.25,457.25 2,1 1,2 1,1 2,2 1,1 2,1 6,0 2,-1 1,-1 1,0 1,-1 2,-1 1,-1 1,-1 0,-1 -1,-2 -2,-2 -2,-1 -11,0 -2,1 -1,0 -2,1 -1,0 -2,1 0,1"
         style="fill:#850303;fill-opacity:1;fill-rule:nonzero;stroke:none"
         id="path5851" /><path
         d="m 205.25,457.25 2,1 1,2 1,1 2,2 1,1 2,1 6,0 2,-1 1,-1 1,0 1,-1 2,-1 1,-1 1,-1 0,-1 -1,-2 -2,-2 -2,-1 -11,0 -2,1 -1,0 -2,1 -1,0 -2,1 0,1 z"
         style="fill:none;stroke:#ababab;stroke-opacity:1;stroke-width:0.1875;stroke-linecap:butt;stroke-linejoin:miter;stroke-miterlimit:4;stroke-dasharray:none"
         id="path5853" /><path
         d="m 212.25,457.25 1,2 1,1 1,1 1,1 2,1 3,0 1,-1 1,-3 0,-1 -1,-1 -1,-2 -1,-1 -5,0 -2,1 -1,1 0,1"
         style="fill:#000000;fill-opacity:1;fill-rule:nonzero;stroke:none"
         id="path5855" /><path
         d="m 212.25,457.25 1,2 1,1 1,1 1,1 2,1 3,0 1,-1 1,-3 0,-1 -1,-1 -1,-2 -1,-1 -5,0 -2,1 -1,1 0,1 z"
         style="fill:none;stroke:#000000;stroke-opacity:1;stroke-width:0.1875;stroke-linecap:butt;stroke-linejoin:miter;stroke-miterlimit:4;stroke-dasharray:none"
         id="path5857" /><path
         d="m 219.25,465.25 -3,0 -1,-1 -2,0 -1,-3 0,-5 1,1 1,2 1,1 3,2 4,0 0,1 -2,2 -1,0"
         style="fill:#ffffff;fill-opacity:1;fill-rule:nonzero;stroke:none"
         id="path5859" /><path
         d="m 219.25,465.25 -3,0 -1,-1 -2,0 -1,-3 0,-5 1,1 1,2 1,1 3,2 4,0 0,1 -2,2 -1,0 z"
         style="fill:none;stroke:#000000;stroke-opacity:1;stroke-width:0.1875;stroke-linecap:butt;stroke-linejoin:miter;stroke-miterlimit:4;stroke-dasharray:none"
         id="path5861" /><path
         d="m 172.25,458.25 1,6 3,5 2,1 2,3 3,5 1,-3 2,4 1,4 1,-4 1,3 2,2 0,-3 2,2 2,3 0,-3 3,3 2,3 1,-3 2,4 4,2 0,-2 3,1 3,3 0,-4 4,2 4,-1 4,1 -1,-3 2,1 3,0 4,-1 3,-2 3,1 2,-2 1,-3 4,0 4,-2 3,-3 4,-2 5,-5 6,-5 4,-5 4,-5 -2,1 -3,1 -8,6 -9,7 -9,5 -10,3 -3,2 -5,0 -1,3 -4,-1 -4,0 -3,1 -2,1 -4,-2 -1,3 -2,-2 -3,-1 -2,-1 -6,-3 -4,-3 -4,-2 -3,-2 -3,-4 -3,-3 -2,-2 -4,-5"
         style="fill:#ffffff;fill-opacity:1;fill-rule:nonzero;stroke:none"
         id="path5863" /><path
         d="m 172.25,458.25 1,6 3,5 2,1 2,3 3,5 1,-3 2,4 1,4 1,-4 1,3 2,2 0,-3 2,2 2,3 0,-3 3,3 2,3 1,-3 2,4 4,2 0,-2 3,1 3,3 0,-4 4,2 4,-1 4,1 -1,-3 2,1 3,0 4,-1 3,-2 3,1 2,-2 1,-3 4,0 4,-2 3,-3 4,-2 5,-5 6,-5 4,-5 4,-5 -2,1 -3,1 -8,6 -9,7 -9,5 -10,3 -3,2 -5,0 -1,3 -4,-1 -4,0 -3,1 -2,1 -4,-2 -1,3 -2,-2 -3,-1 -2,-1 -6,-3 -4,-3 -4,-2 -3,-2 -3,-4 -3,-3 -2,-2 -4,-5 z"
         style="fill:none;stroke:#ffffff;stroke-opacity:1;stroke-width:0.1875;stroke-linecap:butt;stroke-linejoin:miter;stroke-miterlimit:4;stroke-dasharray:none"
         id="path5865" /><path
         d="m 223.25,464.25 3,1 4,1 3,-2 4,1 5,-2 -2,-3 5,2 -1,-3 3,1 1,-3 -1,-3 3,0 -3,-4 3,1 -2,-3 -1,-5 0,-5 -2,-5 -2,-5 -3,-4 0,3 -3,-5 0,-2 -3,-4 -2,-5 -2,-2 -1,-3 -3,-4 -1,3 -1,-5 0,3 -3,-6 -3,-2 -1,-3 0,3 -2,-5 -3,-4 0,4 -2,-6 0,3 -1,-5 0,3 -2,-6 -1,4 -2,-2 -1,5 -1,3 3,2 5,4 3,2 2,4 0,-5 2,5 2,4 3,3 1,3 3,2 1,3 3,3 1,3 3,5 2,2 3,3 1,4 3,7 -3,-1 4,9 -3,-4 2,7 -2,-3 1,6 -3,-2 1,4 -3,-2 0,3 -4,-2 0,2 -2,0 -3,1 -2,1 -3,2"
         style="fill:#ffffff;fill-opacity:1;fill-rule:nonzero;stroke:none"
         id="path5867" /><path
         d="m 223.25,464.25 3,1 4,1 3,-2 4,1 5,-2 -2,-3 5,2 -1,-3 3,1 1,-3 -1,-3 3,0 -3,-4 3,1 -2,-3 -1,-5 0,-5 -2,-5 -2,-5 -3,-4 0,3 -3,-5 0,-2 -3,-4 -2,-5 -2,-2 -1,-3 -3,-4 -1,3 -1,-5 0,3 -3,-6 -3,-2 -1,-3 0,3 -2,-5 -3,-4 0,4 -2,-6 0,3 -1,-5 0,3 -2,-6 -1,4 -2,-2 -1,5 -1,3 3,2 5,4 3,2 2,4 0,-5 2,5 2,4 3,3 1,3 3,2 1,3 3,3 1,3 3,5 2,2 3,3 1,4 3,7 -3,-1 4,9 -3,-4 2,7 -2,-3 1,6 -3,-2 1,4 -3,-2 0,3 -4,-2 0,2 -2,0 -3,1 -2,1 -3,2 z"
         style="fill:none;stroke:#ffffff;stroke-opacity:1;stroke-width:0.1875;stroke-linecap:butt;stroke-linejoin:miter;stroke-miterlimit:4;stroke-dasharray:none"
         id="path5869" /><path
         d="m 255.25,424.25 0,-1 1,-2 0,-3 1,-1 1,-1 2,0 1,1 0,1 -1,2 -2,1 -1,1 -1,1 -1,1"
         style="fill:#000000;fill-opacity:1;fill-rule:nonzero;stroke:none"
         id="path5871" /><path
         d="m 255.25,424.25 0,-1 1,-2 0,-3 1,-1 1,-1 2,0 1,1 0,1 -1,2 -2,1 -1,1 -1,1 -1,1 z"
         style="fill:none;stroke:#000000;stroke-opacity:1;stroke-width:0.1875;stroke-linecap:butt;stroke-linejoin:miter;stroke-miterlimit:4;stroke-dasharray:none"
         id="path5873" /><path
         d="m 273.25,403.25 0,-1 1,-2 0,-1 1,-1 0,-2 2,-1 1,0 1,3 -1,1 -1,1 -2,1 -1,1 -1,1"
         style="fill:#000000;fill-opacity:1;fill-rule:nonzero;stroke:none"
         id="path5875" /><path
         d="m 273.25,403.25 0,-1 1,-2 0,-1 1,-1 0,-2 2,-1 1,0 1,3 -1,1 -1,1 -2,1 -1,1 -1,1 z"
         style="fill:none;stroke:#000000;stroke-opacity:1;stroke-width:0.1875;stroke-linecap:butt;stroke-linejoin:miter;stroke-miterlimit:4;stroke-dasharray:none"
         id="path5877" /><path
         d="m 280.25,403.25 0,-1 1,-2 0,-2 1,-2 1,-1 2,0 1,3 -1,1 -1,1 -2,1 -1,1 -1,1"
         style="fill:#000000;fill-opacity:1;fill-rule:nonzero;stroke:none"
         id="path5879" /><path
         d="m 280.25,403.25 0,-1 1,-2 0,-2 1,-2 1,-1 2,0 1,3 -1,1 -1,1 -2,1 -1,1 -1,1 z"
         style="fill:none;stroke:#000000;stroke-opacity:1;stroke-width:0.1875;stroke-linecap:butt;stroke-linejoin:miter;stroke-miterlimit:4;stroke-dasharray:none"
         id="path5881" /><path
         d="m 288.25,405.25 0,-3 1,-2 0,-1 1,-1 1,-2 1,0 2,1 0,2 -1,1 -2,1 -1,1 -1,1 -1,2"
         style="fill:#000000;fill-opacity:1;fill-rule:nonzero;stroke:none"
         id="path5883" /><path
         d="m 288.25,405.25 0,-3 1,-2 0,-1 1,-1 1,-2 1,0 2,1 0,2 -1,1 -2,1 -1,1 -1,1 -1,2 z"
         style="fill:none;stroke:#000000;stroke-opacity:1;stroke-width:0.1875;stroke-linecap:butt;stroke-linejoin:miter;stroke-miterlimit:4;stroke-dasharray:none"
         id="path5885" /><path
         d="m 299.25,409.25 0,-1 1,-2 0,-2 1,-2 1,-1 2,0 1,1 0,1 -1,2 -2,1 -1,1 -1,1 -1,1"
         style="fill:#000000;fill-opacity:1;fill-rule:nonzero;stroke:none"
         id="path5887" /><path
         d="m 299.25,409.25 0,-1 1,-2 0,-2 1,-2 1,-1 2,0 1,1 0,1 -1,2 -2,1 -1,1 -1,1 -1,1 z"
         style="fill:none;stroke:#000000;stroke-opacity:1;stroke-width:0.1875;stroke-linecap:butt;stroke-linejoin:miter;stroke-miterlimit:4;stroke-dasharray:none"
         id="path5889" /><path
         d="m 309.25,412.25 0,-2 1,-1 0,-3 1,-1 1,-1 1,0 2,2 -1,1 -2,2 -1,1 -1,1 -1,1"
         style="fill:#000000;fill-opacity:1;fill-rule:nonzero;stroke:none"
         id="path5891" /><path
         d="m 309.25,412.25 0,-2 1,-1 0,-3 1,-1 1,-1 1,0 2,2 -1,1 -2,2 -1,1 -1,1 -1,1 z"
         style="fill:none;stroke:#000000;stroke-opacity:1;stroke-width:0.1875;stroke-linecap:butt;stroke-linejoin:miter;stroke-miterlimit:4;stroke-dasharray:none"
         id="path5893" /><path
         d="m 320.25,413.25 0,-2 1,-1 0,-3 1,-1 1,-1 2,0 1,1 0,1 -1,1 -2,1 -1,2 -1,1 -1,1"
         style="fill:#000000;fill-opacity:1;fill-rule:nonzero;stroke:none"
         id="path5895" /><path
         d="m 320.25,413.25 0,-2 1,-1 0,-3 1,-1 1,-1 2,0 1,1 0,1 -1,1 -2,1 -1,2 -1,1 -1,1 z"
         style="fill:none;stroke:#000000;stroke-opacity:1;stroke-width:0.1875;stroke-linecap:butt;stroke-linejoin:miter;stroke-miterlimit:4;stroke-dasharray:none"
         id="path5897" /><path
         d="m 299.25,421.25 0,-3 1,-2 0,-1 1,-1 1,-1 1,0 1,1 0,1 -1,1 -1,1 -1,2 -2,1 0,1"
         style="fill:#000000;fill-opacity:1;fill-rule:nonzero;stroke:none"
         id="path5899" /><path
         d="m 299.25,421.25 0,-3 1,-2 0,-1 1,-1 1,-1 1,0 1,1 0,1 -1,1 -1,1 -1,2 -2,1 0,1 z"
         style="fill:none;stroke:#000000;stroke-opacity:1;stroke-width:0.1875;stroke-linecap:butt;stroke-linejoin:miter;stroke-miterlimit:4;stroke-dasharray:none"
         id="path5901" /><path
         d="m 289.25,428.25 0,-3 1,-1 0,-1 1,-2 1,-1 2,0 1,1 0,2 -1,1 -2,1 -1,1 -2,1 0,1"
         style="fill:#000000;fill-opacity:1;fill-rule:nonzero;stroke:none"
         id="path5903" /><path
         d="m 289.25,428.25 0,-3 1,-1 0,-1 1,-2 1,-1 2,0 1,1 0,2 -1,1 -2,1 -1,1 -2,1 0,1 z"
         style="fill:none;stroke:#000000;stroke-opacity:1;stroke-width:0.1875;stroke-linecap:butt;stroke-linejoin:miter;stroke-miterlimit:4;stroke-dasharray:none"
         id="path5905" /><path
         d="m 292.25,412.25 1,-1 0,-3 1,-1 0,-2 1,-1 2,0 1,1 0,2 -1,1 -1,1 -2,1 -1,1 -1,1"
         style="fill:#000000;fill-opacity:1;fill-rule:nonzero;stroke:none"
         id="path5907" /><path
         d="m 292.25,412.25 1,-1 0,-3 1,-1 0,-2 1,-1 2,0 1,1 0,2 -1,1 -1,1 -2,1 -1,1 -1,1 z"
         style="fill:none;stroke:#000000;stroke-opacity:1;stroke-width:0.1875;stroke-linecap:butt;stroke-linejoin:miter;stroke-miterlimit:4;stroke-dasharray:none"
         id="path5909" /><path
         d="m 290.25,434.25 0,-1 1,-2 0,-1 1,-1 0,-2 2,-1 1,0 1,1 0,2 -1,1 -1,1 -2,1 -1,1 -1,1"
         style="fill:#000000;fill-opacity:1;fill-rule:nonzero;stroke:none"
         id="path5911" /><path
         d="m 290.25,434.25 0,-1 1,-2 0,-1 1,-1 0,-2 2,-1 1,0 1,1 0,2 -1,1 -1,1 -2,1 -1,1 -1,1 z"
         style="fill:none;stroke:#000000;stroke-opacity:1;stroke-width:0.1875;stroke-linecap:butt;stroke-linejoin:miter;stroke-miterlimit:4;stroke-dasharray:none"
         id="path5913" /><path
         d="m 278.25,436.25 0,-1 1,-2 0,-2 1,-2 1,-1 2,0 1,1 0,1 -1,2 -1,1 -2,1 -1,1 -1,1"
         style="fill:#000000;fill-opacity:1;fill-rule:nonzero;stroke:none"
         id="path5915" /><path
         d="m 278.25,436.25 0,-1 1,-2 0,-2 1,-2 1,-1 2,0 1,1 0,1 -1,2 -1,1 -2,1 -1,1 -1,1 z"
         style="fill:none;stroke:#000000;stroke-opacity:1;stroke-width:0.1875;stroke-linecap:butt;stroke-linejoin:miter;stroke-miterlimit:4;stroke-dasharray:none"
         id="path5917" /><path
         d="m 273.25,451.25 0,-2 1,-1 0,-1 1,-2 0,-1 2,-1 1,0 1,1 0,1 -1,2 -1,1 -2,1 -1,1 -1,1"
         style="fill:#000000;fill-opacity:1;fill-rule:nonzero;stroke:none"
         id="path5919" /><path
         d="m 273.25,451.25 0,-2 1,-1 0,-1 1,-2 0,-1 2,-1 1,0 1,1 0,1 -1,2 -1,1 -2,1 -1,1 -1,1 z"
         style="fill:none;stroke:#000000;stroke-opacity:1;stroke-width:0.1875;stroke-linecap:butt;stroke-linejoin:miter;stroke-miterlimit:4;stroke-dasharray:none"
         id="path5921" /><path
         d="m 266.25,459.25 0,-3 1,-2 0,-1 1,-1 1,-2 1,0 2,2 0,1 -2,1 -1,1 -1,1 -2,2 0,1"
         style="fill:#000000;fill-opacity:1;fill-rule:nonzero;stroke:none"
         id="path5923" /><path
         d="m 266.25,459.25 0,-3 1,-2 0,-1 1,-1 1,-2 1,0 2,2 0,1 -2,1 -1,1 -1,1 -2,2 0,1 z"
         style="fill:none;stroke:#000000;stroke-opacity:1;stroke-width:0.1875;stroke-linecap:butt;stroke-linejoin:miter;stroke-miterlimit:4;stroke-dasharray:none"
         id="path5925" /><path
         d="m 254.25,464.25 0,-1 1,-2 1,-1 1,-1 1,-1 1,-1 2,1 0,2 -2,1 -1,1 -2,1 -2,0 0,1"
         style="fill:#000000;fill-opacity:1;fill-rule:nonzero;stroke:none"
         id="path5927" /><path
         d="m 254.25,464.25 0,-1 1,-2 1,-1 1,-1 1,-1 1,-1 2,1 0,2 -2,1 -1,1 -2,1 -2,0 0,1 z"
         style="fill:none;stroke:#000000;stroke-opacity:1;stroke-width:0.1875;stroke-linecap:butt;stroke-linejoin:miter;stroke-miterlimit:4;stroke-dasharray:none"
         id="path5929" /><path
         d="m 244.25,468.25 1,-1 2,-1 1,-2 1,0 2,-1 1,1 1,1 -1,1 -2,1 -3,0 -2,1 -1,0"
         style="fill:#000000;fill-opacity:1;fill-rule:nonzero;stroke:none"
         id="path5931" /><path
         d="m 244.25,468.25 1,-1 2,-1 1,-2 1,0 2,-1 1,1 1,1 -1,1 -2,1 -3,0 -2,1 -1,0 z"
         style="fill:none;stroke:#000000;stroke-opacity:1;stroke-width:0.1875;stroke-linecap:butt;stroke-linejoin:miter;stroke-miterlimit:4;stroke-dasharray:none"
         id="path5933" /><path
         d="m 192.25,471.25 1,0 1,1 1,0 1,1 -1,1 -1,-1 -1,-1 -1,-1"
         style="fill:#000000;fill-opacity:1;fill-rule:nonzero;stroke:none"
         id="path5935" /><path
         d="m 192.25,471.25 1,0 1,1 1,0 1,1 -1,1 -1,-1 -1,-1 -1,-1 z"
         style="fill:none;stroke:#000000;stroke-opacity:1;stroke-width:0.1875;stroke-linecap:butt;stroke-linejoin:miter;stroke-miterlimit:4;stroke-dasharray:none"
         id="path5937" /><path
         d="m 198.25,474.25 1,0 1,1 1,0 1,2 -1,0 -1,-1 -1,-1 -1,-1"
         style="fill:#000000;fill-opacity:1;fill-rule:nonzero;stroke:none"
         id="path5939" /><path
         d="m 198.25,474.25 1,0 1,1 1,0 1,2 -1,0 -1,-1 -1,-1 -1,-1 z"
         style="fill:none;stroke:#000000;stroke-opacity:1;stroke-width:0.1875;stroke-linecap:butt;stroke-linejoin:miter;stroke-miterlimit:4;stroke-dasharray:none"
         id="path5941" /><path
         d="m 201.25,473.25 1,0 1,1 1,0 1,2 -1,0 -1,-1 -1,-1 -1,-1"
         style="fill:#000000;fill-opacity:1;fill-rule:nonzero;stroke:none"
         id="path5943" /><path
         d="m 201.25,473.25 1,0 1,1 1,0 1,2 -1,0 -1,-1 -1,-1 -1,-1 z"
         style="fill:none;stroke:#000000;stroke-opacity:1;stroke-width:0.1875;stroke-linecap:butt;stroke-linejoin:miter;stroke-miterlimit:4;stroke-dasharray:none"
         id="path5945" /><path
         d="m 207.25,475.25 1,1 3,0 1,2 -2,1 -1,-2 -1,-1 -1,-1"
         style="fill:#000000;fill-opacity:1;fill-rule:nonzero;stroke:none"
         id="path5947" /><path
         d="m 207.25,475.25 1,1 3,0 1,2 -2,1 -1,-2 -1,-1 -1,-1 z"
         style="fill:none;stroke:#000000;stroke-opacity:1;stroke-width:0.1875;stroke-linecap:butt;stroke-linejoin:miter;stroke-miterlimit:4;stroke-dasharray:none"
         id="path5949" /><path
         d="m 212.25,478.25 3,0 1,1 0,1 -1,1 -1,-1 -1,-2 -1,0"
         style="fill:#000000;fill-opacity:1;fill-rule:nonzero;stroke:none"
         id="path5951" /><path
         d="m 212.25,478.25 3,0 1,1 0,1 -1,1 -1,-1 -1,-2 -1,0 z"
         style="fill:none;stroke:#000000;stroke-opacity:1;stroke-width:0.1875;stroke-linecap:butt;stroke-linejoin:miter;stroke-miterlimit:4;stroke-dasharray:none"
         id="path5953" /><path
         d="m 221.25,479.25 2,-1 1,-1 1,0 1,2 -5,0"
         style="fill:#000000;fill-opacity:1;fill-rule:nonzero;stroke:none"
         id="path5955" /><path
         d="m 221.25,479.25 2,-1 1,-1 1,0 1,2 -5,0 z"
         style="fill:none;stroke:#000000;stroke-opacity:1;stroke-width:0.1875;stroke-linecap:butt;stroke-linejoin:miter;stroke-miterlimit:4;stroke-dasharray:none"
         id="path5957" /><path
         d="m 228.25,478.25 1,-1 2,-1 1,0 1,2 -5,0"
         style="fill:#000000;fill-opacity:1;fill-rule:nonzero;stroke:none"
         id="path5959" /><path
         d="m 228.25,478.25 1,-1 2,-1 1,0 1,2 -5,0 z"
         style="fill:none;stroke:#000000;stroke-opacity:1;stroke-width:0.1875;stroke-linecap:butt;stroke-linejoin:miter;stroke-miterlimit:4;stroke-dasharray:none"
         id="path5961" /><path
         d="m 224.25,475.25 2,-1 1,-1 1,0 1,2 -5,0"
         style="fill:#000000;fill-opacity:1;fill-rule:nonzero;stroke:none"
         id="path5963" /><path
         d="m 224.25,475.25 2,-1 1,-1 1,0 1,2 -5,0 z"
         style="fill:none;stroke:#000000;stroke-opacity:1;stroke-width:0.1875;stroke-linecap:butt;stroke-linejoin:miter;stroke-miterlimit:4;stroke-dasharray:none"
         id="path5965" /><path
         d="m 233.25,472.25 1,-1 1,-1 1,0 1,2 -4,0"
         style="fill:#000000;fill-opacity:1;fill-rule:nonzero;stroke:none"
         id="path5967" /><path
         d="m 233.25,472.25 1,-1 1,-1 1,0 1,2 -4,0 z"
         style="fill:none;stroke:#000000;stroke-opacity:1;stroke-width:0.1875;stroke-linecap:butt;stroke-linejoin:miter;stroke-miterlimit:4;stroke-dasharray:none"
         id="path5969" /><path
         d="m 240.25,473.25 1,-1 1,-1 1,0 1,1 -1,1 -3,0 0,0"
         style="fill:#000000;fill-opacity:1;fill-rule:nonzero;stroke:none"
         id="path5971" /><path
         d="m 240.25,473.25 1,-1 1,-1 1,0 1,1 -1,1 -3,0 0,0 z"
         style="fill:none;stroke:#000000;stroke-opacity:1;stroke-width:0.1875;stroke-linecap:butt;stroke-linejoin:miter;stroke-miterlimit:4;stroke-dasharray:none"
         id="path5973" /><path
         d="m 241.25,468.25 0,-2 1,-1 1,-1 2,1 -2,1 -1,1 -1,0 0,1"
         style="fill:#000000;fill-opacity:1;fill-rule:nonzero;stroke:none"
         id="path5975" /><path
         d="m 241.25,468.25 0,-2 1,-1 1,-1 2,1 -2,1 -1,1 -1,0 0,1 z"
         style="fill:none;stroke:#000000;stroke-opacity:1;stroke-width:0.1875;stroke-linecap:butt;stroke-linejoin:miter;stroke-miterlimit:4;stroke-dasharray:none"
         id="path5977" /><path
         d="m 264.25,452.25 0,-3 1,-1 0,-2 1,-1 1,-1 2,0 1,2 -1,2 -2,1 -1,1 -1,1 -1,1"
         style="fill:#000000;fill-opacity:1;fill-rule:nonzero;stroke:none"
         id="path5979" /><path
         d="m 264.25,452.25 0,-3 1,-1 0,-2 1,-1 1,-1 2,0 1,2 -1,2 -2,1 -1,1 -1,1 -1,1 z"
         style="fill:none;stroke:#000000;stroke-opacity:1;stroke-width:0.1875;stroke-linecap:butt;stroke-linejoin:miter;stroke-miterlimit:4;stroke-dasharray:none"
         id="path5981" /><path
         d="m 259.25,449.25 0,-1 1,-2 0,-3 1,-1 1,-1 2,0 1,2 -1,2 -1,1 -2,1 -1,1 -1,1"
         style="fill:#000000;fill-opacity:1;fill-rule:nonzero;stroke:none"
         id="path5983" /><path
         d="m 259.25,449.25 0,-1 1,-2 0,-3 1,-1 1,-1 2,0 1,2 -1,2 -1,1 -2,1 -1,1 -1,1 z"
         style="fill:none;stroke:#000000;stroke-opacity:1;stroke-width:0.1875;stroke-linecap:butt;stroke-linejoin:miter;stroke-miterlimit:4;stroke-dasharray:none"
         id="path5985" /><path
         d="m 277.25,423.25 0,-1 1,-2 0,-2 1,-2 1,-1 2,0 1,1 0,2 -1,1 -2,1 -1,1 -1,1 -1,1"
         style="fill:#000000;fill-opacity:1;fill-rule:nonzero;stroke:none"
         id="path5987" /><path
         d="m 277.25,423.25 0,-1 1,-2 0,-2 1,-2 1,-1 2,0 1,1 0,2 -1,1 -2,1 -1,1 -1,1 -1,1 z"
         style="fill:none;stroke:#000000;stroke-opacity:1;stroke-width:0.1875;stroke-linecap:butt;stroke-linejoin:miter;stroke-miterlimit:4;stroke-dasharray:none"
         id="path5989" /><path
         d="m 272.25,434.25 0,-3 1,-1 0,-2 1,-1 1,-1 1,0 2,1 -1,1 -1,2 -1,1 -1,1 -2,1 0,1"
         style="fill:#000000;fill-opacity:1;fill-rule:nonzero;stroke:none"
         id="path5991" /><path
         d="m 272.25,434.25 0,-3 1,-1 0,-2 1,-1 1,-1 1,0 2,1 -1,1 -1,2 -1,1 -1,1 -2,1 0,1 z"
         style="fill:none;stroke:#000000;stroke-opacity:1;stroke-width:0.1875;stroke-linecap:butt;stroke-linejoin:miter;stroke-miterlimit:4;stroke-dasharray:none"
         id="path5993" /><path
         d="m 271.25,446.25 0,-2 1,-1 0,-3 1,-1 1,-1 2,0 1,1 0,1 -1,1 -2,2 -1,1 -1,1 -1,1"
         style="fill:#000000;fill-opacity:1;fill-rule:nonzero;stroke:none"
         id="path5995" /><path
         d="m 271.25,446.25 0,-2 1,-1 0,-3 1,-1 1,-1 2,0 1,1 0,1 -1,1 -2,2 -1,1 -1,1 -1,1 z"
         style="fill:none;stroke:#000000;stroke-opacity:1;stroke-width:0.1875;stroke-linecap:butt;stroke-linejoin:miter;stroke-miterlimit:4;stroke-dasharray:none"
         id="path5997" /><path
         d="m 282.25,427.25 0,-1 1,-2 0,-1 1,-1 1,-1 1,0 2,1 0,1 -2,1 -1,1 -2,1 -1,1 0,0"
         style="fill:#000000;fill-opacity:1;fill-rule:nonzero;stroke:none"
         id="path5999" /><path
         d="m 282.25,427.25 0,-1 1,-2 0,-1 1,-1 1,-1 1,0 2,1 0,1 -2,1 -1,1 -2,1 -1,1 0,0 z"
         style="fill:none;stroke:#000000;stroke-opacity:1;stroke-width:0.1875;stroke-linecap:butt;stroke-linejoin:miter;stroke-miterlimit:4;stroke-dasharray:none"
         id="path6001" /><path
         d="m 252.25,450.25 0,-2 1,-1 0,-3 1,-1 1,-1 2,0 1,1 0,1 -1,1 -2,1 -1,2 -1,1 -1,1"
         style="fill:#000000;fill-opacity:1;fill-rule:nonzero;stroke:none"
         id="path6003" /><path
         d="m 252.25,450.25 0,-2 1,-1 0,-3 1,-1 1,-1 2,0 1,1 0,1 -1,1 -2,1 -1,2 -1,1 -1,1 z"
         style="fill:none;stroke:#000000;stroke-opacity:1;stroke-width:0.1875;stroke-linecap:butt;stroke-linejoin:miter;stroke-miterlimit:4;stroke-dasharray:none"
         id="path6005" /><path
         d="m 249.25,439.25 0,-2 1,-1 0,-3 1,-1 1,-2 2,0 1,2 0,1 -1,1 -2,1 -1,1 -1,1 -1,2"
         style="fill:#000000;fill-opacity:1;fill-rule:nonzero;stroke:none"
         id="path6007" /><path
         d="m 249.25,439.25 0,-2 1,-1 0,-3 1,-1 1,-2 2,0 1,2 0,1 -1,1 -2,1 -1,1 -1,1 -1,2 z"
         style="fill:none;stroke:#000000;stroke-opacity:1;stroke-width:0.1875;stroke-linecap:butt;stroke-linejoin:miter;stroke-miterlimit:4;stroke-dasharray:none"
         id="path6009" /><path
         d="m 256.25,433.25 0,-1 1,-2 0,-3 1,-1 1,-1 2,0 1,1 0,2 -1,1 -2,1 -1,1 -1,1 -1,1"
         style="fill:#000000;fill-opacity:1;fill-rule:nonzero;stroke:none"
         id="path6011" /><path
         d="m 256.25,433.25 0,-1 1,-2 0,-3 1,-1 1,-1 2,0 1,1 0,2 -1,1 -2,1 -1,1 -1,1 -1,1 z"
         style="fill:none;stroke:#000000;stroke-opacity:1;stroke-width:0.1875;stroke-linecap:butt;stroke-linejoin:miter;stroke-miterlimit:4;stroke-dasharray:none"
         id="path6013" /><path
         d="m 250.25,418.25 0,-3 1,-1 0,-2 1,-1 1,-1 1,0 2,1 -1,1 -1,2 -1,1 -1,1 -2,1 0,1"
         style="fill:#000000;fill-opacity:1;fill-rule:nonzero;stroke:none"
         id="path6015" /><path
         d="m 250.25,418.25 0,-3 1,-1 0,-2 1,-1 1,-1 1,0 2,1 -1,1 -1,2 -1,1 -1,1 -2,1 0,1 z"
         style="fill:none;stroke:#000000;stroke-opacity:1;stroke-width:0.1875;stroke-linecap:butt;stroke-linejoin:miter;stroke-miterlimit:4;stroke-dasharray:none"
         id="path6017" /><path
         d="m 269.25,423.25 0,-1 1,-1 0,-3 1,-1 1,-2 2,0 1,2 0,1 -1,1 -1,1 -2,1 -1,2 -1,0"
         style="fill:#000000;fill-opacity:1;fill-rule:nonzero;stroke:none"
         id="path6019" /><path
         d="m 269.25,423.25 0,-1 1,-1 0,-3 1,-1 1,-2 2,0 1,2 0,1 -1,1 -1,1 -2,1 -1,2 -1,0 z"
         style="fill:none;stroke:#000000;stroke-opacity:1;stroke-width:0.1875;stroke-linecap:butt;stroke-linejoin:miter;stroke-miterlimit:4;stroke-dasharray:none"
         id="path6021" /><path
         d="m 269.25,414.25 0,-1 1,-2 0,-3 1,-1 1,-1 2,0 1,2 -1,2 -2,1 -1,1 -1,1 -1,1"
         style="fill:#000000;fill-opacity:1;fill-rule:nonzero;stroke:none"
         id="path6023" /><path
         d="m 269.25,414.25 0,-1 1,-2 0,-3 1,-1 1,-1 2,0 1,2 -1,2 -2,1 -1,1 -1,1 -1,1 z"
         style="fill:none;stroke:#000000;stroke-opacity:1;stroke-width:0.1875;stroke-linecap:butt;stroke-linejoin:miter;stroke-miterlimit:4;stroke-dasharray:none"
         id="path6025" /><path
         d="m 260.25,413.25 0,-1 1,-2 0,-2 1,-2 2,-1 1,0 1,1 0,2 -1,1 -1,1 -2,1 -1,1 -1,1"
         style="fill:#000000;fill-opacity:1;fill-rule:nonzero;stroke:none"
         id="path6027" /><path
         d="m 260.25,413.25 0,-1 1,-2 0,-2 1,-2 2,-1 1,0 1,1 0,2 -1,1 -1,1 -2,1 -1,1 -1,1 z"
         style="fill:none;stroke:#000000;stroke-opacity:1;stroke-width:0.1875;stroke-linecap:butt;stroke-linejoin:miter;stroke-miterlimit:4;stroke-dasharray:none"
         id="path6029" /><path
         d="m 249.25,406.25 0,-1 1,-2 0,-3 1,-1 1,-1 2,0 1,1 0,1 -1,2 -2,1 -1,1 -1,1 -1,1"
         style="fill:#000000;fill-opacity:1;fill-rule:nonzero;stroke:none"
         id="path6031" /><path
         d="m 249.25,406.25 0,-1 1,-2 0,-3 1,-1 1,-1 2,0 1,1 0,1 -1,2 -2,1 -1,1 -1,1 -1,1 z"
         style="fill:none;stroke:#000000;stroke-opacity:1;stroke-width:0.1875;stroke-linecap:butt;stroke-linejoin:miter;stroke-miterlimit:4;stroke-dasharray:none"
         id="path6033" /><path
         d="m 262.25,397.25 0,-3 1,-1 0,-2 1,-1 1,-1 1,0 2,1 0,1 -1,2 -2,1 -1,1 -1,1 -1,1"
         style="fill:#000000;fill-opacity:1;fill-rule:nonzero;stroke:none"
         id="path6035" /><path
         d="m 262.25,397.25 0,-3 1,-1 0,-2 1,-1 1,-1 1,0 2,1 0,1 -1,2 -2,1 -1,1 -1,1 -1,1 z"
         style="fill:none;stroke:#000000;stroke-opacity:1;stroke-width:0.1875;stroke-linecap:butt;stroke-linejoin:miter;stroke-miterlimit:4;stroke-dasharray:none"
         id="path6037" /><path
         d="m 258.25,390.25 0,-2 1,-1 0,-3 1,-1 1,-1 2,0 1,1 0,1 -1,1 -2,2 -1,1 -1,1 -1,1"
         style="fill:#000000;fill-opacity:1;fill-rule:nonzero;stroke:none"
         id="path6039" /><path
         d="m 258.25,390.25 0,-2 1,-1 0,-3 1,-1 1,-1 2,0 1,1 0,1 -1,1 -2,2 -1,1 -1,1 -1,1 z"
         style="fill:none;stroke:#000000;stroke-opacity:1;stroke-width:0.1875;stroke-linecap:butt;stroke-linejoin:miter;stroke-miterlimit:4;stroke-dasharray:none"
         id="path6041" /><path
         d="m 267.25,386.25 0,-4 1,-2 0,-1 2,-1 1,0 1,1 0,1 -1,1 -1,1 -2,2 -1,1 0,1"
         style="fill:#000000;fill-opacity:1;fill-rule:nonzero;stroke:none"
         id="path6043" /><path
         d="m 267.25,386.25 0,-4 1,-2 0,-1 2,-1 1,0 1,1 0,1 -1,1 -1,1 -2,2 -1,1 0,1 z"
         style="fill:none;stroke:#000000;stroke-opacity:1;stroke-width:0.1875;stroke-linecap:butt;stroke-linejoin:miter;stroke-miterlimit:4;stroke-dasharray:none"
         id="path6045" /><path
         d="m 270.25,392.25 0,-1 1,-2 0,-3 1,-1 1,-1 2,0 1,1 0,1 -1,2 -2,1 -1,1 -1,1 -1,1"
         style="fill:#000000;fill-opacity:1;fill-rule:nonzero;stroke:none"
         id="path6047" /><path
         d="m 270.25,392.25 0,-1 1,-2 0,-3 1,-1 1,-1 2,0 1,1 0,1 -1,2 -2,1 -1,1 -1,1 -1,1 z"
         style="fill:none;stroke:#000000;stroke-opacity:1;stroke-width:0.1875;stroke-linecap:butt;stroke-linejoin:miter;stroke-miterlimit:4;stroke-dasharray:none"
         id="path6049" /><path
         d="m 303.25,389.25 2,-1 0,0 1,-1 0,-1 1,-1 1,-1 0,0 1,-1 1,-1 0,-2 1,0 1,-2 1,0 0,-2 1,-1 1,-1 0,0 1,-1 1,-1 0,-1 1,-1 1,-1 1,-1 1,0 1,-1 0,0 1,-1 2,0 1,-1 1,0"
         style="fill:none;stroke:#000000;stroke-opacity:1;stroke-width:0.1875;stroke-linecap:butt;stroke-linejoin:miter;stroke-miterlimit:4;stroke-dasharray:none"
         id="path6051" /><path
         d="m 527.25,161.25 1,-1 2,-2 2,-1 2,-1 2,-1 2,-1 3,-2 2,-1 3,0 2,-1 2,-1 3,0 2,-1 2,0 2,-1 2,0 -1,1 -2,2 -2,2 -2,1 -2,1 -2,1 -2,1 -2,0 -3,1 -2,1 -2,1 -3,0 -2,1 -2,0 -3,1 -2,0"
         style="fill:#000000;fill-opacity:1;fill-rule:nonzero;stroke:none"
         id="path6053" /><path
         d="m 527.25,161.25 1,-1 2,-2 2,-1 2,-1 2,-1 2,-1 3,-2 2,-1 3,0 2,-1 2,-1 3,0 2,-1 2,0 2,-1 2,0 -1,1 -2,2 -2,2 -2,1 -2,1 -2,1 -2,1 -2,0 -3,1 -2,1 -2,1 -3,0 -2,1 -2,0 -3,1 -2,0 z"
         style="fill:none;stroke:#000000;stroke-opacity:1;stroke-width:0.1875;stroke-linecap:butt;stroke-linejoin:miter;stroke-miterlimit:4;stroke-dasharray:none"
         id="path6055" /><path
         d="m 498.25,170.25 1,-1 0,-1 1,-2 2,-2 1,-1 1,-1 2,0 1,-1 1,-1 2,-1 1,0 1,-1 1,0 3,-1 0,2 -1,2 -3,3 -1,0 -2,1 -2,1 -1,1 -2,1 -1,1 -2,0 -1,1 -2,0"
         style="fill:#000000;fill-opacity:1;fill-rule:nonzero;stroke:none"
         id="path6057" /><path
         d="m 498.25,170.25 1,-1 0,-1 1,-2 2,-2 1,-1 1,-1 2,0 1,-1 1,-1 2,-1 1,0 1,-1 1,0 3,-1 0,2 -1,2 -3,3 -1,0 -2,1 -2,1 -1,1 -2,1 -1,1 -2,0 -1,1 -2,0 z"
         style="fill:none;stroke:#000000;stroke-opacity:1;stroke-width:0.1875;stroke-linecap:butt;stroke-linejoin:miter;stroke-miterlimit:4;stroke-dasharray:none"
         id="path6059" /><path
         d="m 558.25,167.25 1,-1 1,-3 2,-1 1,-2 2,-2 2,-1 1,-2 2,-1 2,-1 1,-2 2,-1 2,-1 1,-2 2,-1 1,-1 2,-2 -9,0 -1,1 -2,3 -2,1 -1,2 -2,1 -1,2 -1,1 -2,2 -1,1 -1,2 -1,1 0,2 -1,1 0,4"
         style="fill:#000000;fill-opacity:1;fill-rule:nonzero;stroke:none"
         id="path6061" /><path
         d="m 558.25,167.25 1,-1 1,-3 2,-1 1,-2 2,-2 2,-1 1,-2 2,-1 2,-1 1,-2 2,-1 2,-1 1,-2 2,-1 1,-1 2,-2 -9,0 -1,1 -2,3 -2,1 -1,2 -2,1 -1,2 -1,1 -2,2 -1,1 -1,2 -1,1 0,2 -1,1 0,4 z"
         style="fill:none;stroke:#000000;stroke-opacity:1;stroke-width:0.1875;stroke-linecap:butt;stroke-linejoin:miter;stroke-miterlimit:4;stroke-dasharray:none"
         id="path6063" /><path
         d="m 518.25,166.25 1,-2 2,-2 1,-2 2,-2 2,-2 2,-2 2,-1 2,-1 2,-1 2,-2 2,-1 2,-1 3,0 2,-1 2,-1 2,0 3,-1 2,-1 3,0 2,-1 2,0 3,-1 2,0 3,-1 2,-1 2,0 3,-1 2,-1 2,0 3,-1 2,-1 2,-1"
         style="fill:none;stroke:#ffffff;stroke-opacity:1;stroke-width:0.1875;stroke-linecap:butt;stroke-linejoin:miter;stroke-miterlimit:4;stroke-dasharray:none"
         id="path6065" /><path
         d="m 547.25,166.25 0,0 1,-1 0,-1 1,0 0,-1 1,0 1,-1 1,0 0,-1"
         style="fill:none;stroke:#ffffff;stroke-opacity:1;stroke-width:0.1875;stroke-linecap:butt;stroke-linejoin:miter;stroke-miterlimit:4;stroke-dasharray:none"
         id="path6067" /><path
         d="m 296.25,358.25 0,-6 1,-3 0,-3 1,-3 0,-4 1,-3 1,-3 1,-4 1,-3 1,-3 2,-3 1,-3 2,-2 2,-3 2,-2 -1,1 -1,2 -1,2 -2,3 -1,3 -1,3 -2,3 -1,4 -1,3 -2,3 -1,3 -1,3 0,4 -1,3 0,8"
         style="fill:#000000;fill-opacity:1;fill-rule:nonzero;stroke:none"
         id="path6069" /><path
         d="m 296.25,358.25 0,-6 1,-3 0,-3 1,-3 0,-4 1,-3 1,-3 1,-4 1,-3 1,-3 2,-3 1,-3 2,-2 2,-3 2,-2 -1,1 -1,2 -1,2 -2,3 -1,3 -1,3 -2,3 -1,4 -1,3 -2,3 -1,3 -1,3 0,4 -1,3 0,8 z"
         style="fill:none;stroke:#000000;stroke-opacity:1;stroke-width:0.1875;stroke-linecap:butt;stroke-linejoin:miter;stroke-miterlimit:4;stroke-dasharray:none"
         id="path6071" /><path
         d="m 293.25,386.25 1,-1 1,-1 2,-1 1,-2 1,-2 1,-2 1,-2 1,-2 1,-2 1,-2 1,-2 1,-2 1,-1 2,-1 1,-1 2,0 -1,2 0,2 -1,1 -1,2 -1,1 -1,2 0,1 -1,2 -1,1 -1,2 0,1 -1,2 -1,1 -1,1 -1,1 -2,1 -1,1 -4,0"
         style="fill:#000000;fill-opacity:1;fill-rule:nonzero;stroke:none"
         id="path6073" /><path
         d="m 293.25,386.25 1,-1 1,-1 2,-1 1,-2 1,-2 1,-2 1,-2 1,-2 1,-2 1,-2 1,-2 1,-2 1,-1 2,-1 1,-1 2,0 -1,2 0,2 -1,1 -1,2 -1,1 -1,2 0,1 -1,2 -1,1 -1,2 0,1 -1,2 -1,1 -1,1 -1,1 -2,1 -1,1 -4,0 z"
         style="fill:none;stroke:#000000;stroke-opacity:1;stroke-width:0.1875;stroke-linecap:butt;stroke-linejoin:miter;stroke-miterlimit:4;stroke-dasharray:none"
         id="path6075" /><path
         d="m 292.25,377.25 1,-2 0,-1 1,-1 1,-2 1,-1 0,-2 1,-2 1,-1 1,-2 0,-1 1,-2 1,-2 0,-1 1,-2 1,-2 1,-1 0,-2 1,-2 1,-1 1,-2 0,-1 1,-2 1,-1 1,-2 1,-1 1,-2 1,-1 1,-1 1,-2 0,-1 2,-1 1,-1"
         style="fill:none;stroke:#ffffff;stroke-opacity:1;stroke-width:0.1875;stroke-linecap:butt;stroke-linejoin:miter;stroke-miterlimit:4;stroke-dasharray:none"
         id="path6077" /><path
         d="m 317.25,332.25 0,-1 1,-3 1,-1 1,-2 0,-2 2,-1 1,-2 1,-2 1,-1 1,-2 1,-2 1,-1 1,-2 2,-1 1,-2 1,-1 1,-2 2,-1 2,-2 1,-2 2,-1 1,-1 0,3 -1,1 -1,2 -2,2 -2,2 -2,2 -2,2 -1,1 -1,1 -1,2 -1,1 -1,2 -1,1 -2,2 0,1 -1,1 -1,2 -1,1 -1,1 -1,2 -1,1 -1,2"
         style="fill:#000000;fill-opacity:1;fill-rule:nonzero;stroke:none"
         id="path6079" /><path
         d="m 317.25,332.25 0,-1 1,-3 1,-1 1,-2 0,-2 2,-1 1,-2 1,-2 1,-1 1,-2 1,-2 1,-1 1,-2 2,-1 1,-2 1,-1 1,-2 2,-1 2,-2 1,-2 2,-1 1,-1 0,3 -1,1 -1,2 -2,2 -2,2 -2,2 -2,2 -1,1 -1,1 -1,2 -1,1 -1,2 -1,1 -2,2 0,1 -1,1 -1,2 -1,1 -1,1 -1,2 -1,1 -1,2 z"
         style="fill:none;stroke:#000000;stroke-opacity:1;stroke-width:0.1875;stroke-linecap:butt;stroke-linejoin:miter;stroke-miterlimit:4;stroke-dasharray:none"
         id="path6081" /><path
         d="m 462.25,198.25 2,-2 3,-1 5,-3 5,-3 5,-2 6,-2 5,-2 6,-2 5,-2 6,-1 6,-2 5,-1 6,-1 6,-1 5,0 6,-1 6,0 -3,0 -2,-1 -5,0 -4,-1 -5,0 -4,-1 -4,1 -7,0 -4,1 -3,1 -4,1 -4,1 -4,2 -4,1 -4,2 -4,2 -2,0 -1,1 -1,1 -1,1 -1,1 -2,1 -1,1 -1,2 -1,1 -2,1 -1,2 -2,1 -2,1 -1,1 -2,1 -2,1"
         style="fill:#000000;fill-opacity:1;fill-rule:nonzero;stroke:none"
         id="path6083" /><path
         d="m 462.25,198.25 2,-2 3,-1 5,-3 5,-3 5,-2 6,-2 5,-2 6,-2 5,-2 6,-1 6,-2 5,-1 6,-1 6,-1 5,0 6,-1 6,0 -3,0 -2,-1 -5,0 -4,-1 -5,0 -4,-1 -4,1 -7,0 -4,1 -3,1 -4,1 -4,1 -4,2 -4,1 -4,2 -4,2 -2,0 -1,1 -1,1 -1,1 -1,1 -2,1 -1,1 -1,2 -1,1 -2,1 -1,2 -2,1 -2,1 -1,1 -2,1 -2,1 z"
         style="fill:none;stroke:#000000;stroke-opacity:1;stroke-width:0.1875;stroke-linecap:butt;stroke-linejoin:miter;stroke-miterlimit:4;stroke-dasharray:none"
         id="path6085" /><path
         d="m 481.25,337.25 0,-1 1,-1 2,-3 2,-2 2,-3 2,-2 2,-3 2,-3 3,-2 2,-3 1,-3 2,-2 2,-3 1,-3 1,-3 0,-7 -1,2 -1,1 -3,3 -2,3 -2,3 -2,2 -2,4 -2,2 -2,3 -1,3 -2,4 -2,2 -1,3 -2,3 -2,3 -2,3 -2,3 2,0 1,-1 2,-1 1,-1 0,0"
         style="fill:#000000;fill-opacity:1;fill-rule:nonzero;stroke:none"
         id="path6087" /><path
         d="m 481.25,337.25 0,-1 1,-1 2,-3 2,-2 2,-3 2,-2 2,-3 2,-3 3,-2 2,-3 1,-3 2,-2 2,-3 1,-3 1,-3 0,-7 -1,2 -1,1 -3,3 -2,3 -2,3 -2,2 -2,4 -2,2 -2,3 -1,3 -2,4 -2,2 -1,3 -2,3 -2,3 -2,3 -2,3 2,0 1,-1 2,-1 1,-1 0,0 z"
         style="fill:none;stroke:#000000;stroke-opacity:1;stroke-width:0.1875;stroke-linecap:butt;stroke-linejoin:miter;stroke-miterlimit:4;stroke-dasharray:none"
         id="path6089" /><path
         d="m 407.25,388.25 1,0 3,-1 2,-1 2,-1 2,-1 2,-1 1,-1 2,-2 2,-1 1,-1 2,-1 2,-2 1,-1 2,-1 2,-2 1,-1 -1,-1 -6,0 -1,1 -1,0 -2,1 -2,1 -1,1 -2,1 -2,1 -2,2 -1,1 -2,1 -2,2 -2,1 -1,1 -1,2 -1,1 -1,2 0,1 3,0 1,-1 -1,0"
         style="fill:#000000;fill-opacity:1;fill-rule:nonzero;stroke:none"
         id="path6091" /><path
         d="m 407.25,388.25 1,0 3,-1 2,-1 2,-1 2,-1 2,-1 1,-1 2,-2 2,-1 1,-1 2,-1 2,-2 1,-1 2,-1 2,-2 1,-1 -1,-1 -6,0 -1,1 -1,0 -2,1 -2,1 -1,1 -2,1 -2,1 -2,2 -1,1 -2,1 -2,2 -2,1 -1,1 -1,2 -1,1 -1,2 0,1 3,0 1,-1 -1,0 z"
         style="fill:none;stroke:#000000;stroke-opacity:1;stroke-width:0.1875;stroke-linecap:butt;stroke-linejoin:miter;stroke-miterlimit:4;stroke-dasharray:none"
         id="path6093" /><path
         d="m 329.25,380.25 1,-1 2,-1 2,-1 1,-2 2,-1 2,-2 2,-1 2,-1 2,-2 1,-1 2,-1 2,-1 2,-1 2,0 2,-1 2,0 -1,1 -2,2 -2,1 -2,2 -1,1 -2,1 -2,1 -2,1 -2,1 -2,1 -1,1 -2,0 -2,1 -2,1 -2,1 -2,1"
         style="fill:#000000;fill-opacity:1;fill-rule:nonzero;stroke:none"
         id="path6095" /><path
         d="m 329.25,380.25 1,-1 2,-1 2,-1 1,-2 2,-1 2,-2 2,-1 2,-1 2,-2 1,-1 2,-1 2,-1 2,-1 2,0 2,-1 2,0 -1,1 -2,2 -2,1 -2,2 -1,1 -2,1 -2,1 -2,1 -2,1 -2,1 -1,1 -2,0 -2,1 -2,1 -2,1 -2,1 z"
         style="fill:none;stroke:#000000;stroke-opacity:1;stroke-width:0.1875;stroke-linecap:butt;stroke-linejoin:miter;stroke-miterlimit:4;stroke-dasharray:none"
         id="path6097" /><path
         d="m 416.25,343.25 1,0 1,-1 3,-2 3,-2 2,-2 3,-2 2,-3 3,-2 2,-2 3,-2 2,-3 2,-2 3,-2 2,-3 2,-2 2,-3 3,-2 -3,0 -2,1 -2,2 -3,1 -2,3 -3,2 -2,3 -3,3 -2,2 -2,3 -3,3 -2,2 -2,3 -2,2 -2,1 -2,1 -2,3"
         style="fill:#000000;fill-opacity:1;fill-rule:nonzero;stroke:none"
         id="path6099" /><path
         d="m 416.25,343.25 1,0 1,-1 3,-2 3,-2 2,-2 3,-2 2,-3 3,-2 2,-2 3,-2 2,-3 2,-2 3,-2 2,-3 2,-2 2,-3 3,-2 -3,0 -2,1 -2,2 -3,1 -2,3 -3,2 -2,3 -3,3 -2,2 -2,3 -3,3 -2,2 -2,3 -2,2 -2,1 -2,1 -2,3 z"
         style="fill:none;stroke:#000000;stroke-opacity:1;stroke-width:0.1875;stroke-linecap:butt;stroke-linejoin:miter;stroke-miterlimit:4;stroke-dasharray:none"
         id="path6101" /><path
         d="m 523.25,285.25 0,-3 1,-2 0,-4 1,-2 0,-4 1,-2 0,-10 -1,-2 0,-1 0,6 -1,2 0,6 -1,3 0,4 -1,2 0,1 -1,3 0,1 2,2"
         style="fill:#000000;fill-opacity:1;fill-rule:nonzero;stroke:none"
         id="path6103" /><path
         d="m 523.25,285.25 0,-3 1,-2 0,-4 1,-2 0,-4 1,-2 0,-10 -1,-2 0,-1 0,6 -1,2 0,6 -1,3 0,4 -1,2 0,1 -1,3 0,1 2,2 z"
         style="fill:none;stroke:#000000;stroke-opacity:1;stroke-width:0.1875;stroke-linecap:butt;stroke-linejoin:miter;stroke-miterlimit:4;stroke-dasharray:none"
         id="path6105" /><path
         d="m 496.25,191.25 1,-1 3,-2 2,-1 3,-1 2,-1 3,0 4,-1 12,0 3,1 3,0 2,1 3,2 1,1 -7,0 -3,-1 -8,0 -2,-1 -6,0 -3,1 -5,0 -3,1 -2,1 -3,1"
         style="fill:#000000;fill-opacity:1;fill-rule:nonzero;stroke:none"
         id="path6107" /><path
         d="m 496.25,191.25 1,-1 3,-2 2,-1 3,-1 2,-1 3,0 4,-1 12,0 3,1 3,0 2,1 3,2 1,1 -7,0 -3,-1 -8,0 -2,-1 -6,0 -3,1 -5,0 -3,1 -2,1 -3,1 z"
         style="fill:none;stroke:#000000;stroke-opacity:1;stroke-width:0.1875;stroke-linecap:butt;stroke-linejoin:miter;stroke-miterlimit:4;stroke-dasharray:none"
         id="path6109" /><path
         d="m 440.25,253.25 2,-1 1,-1 2,-1 1,0 2,-1 2,-1 2,-1 1,-1 2,-1 2,-1 2,-1 1,-1 2,-1 1,-1 1,-1 1,-1 9,0 1,-1 4,0 2,-1 4,0 2,-1 2,0 1,-1 2,0 1,-1 -8,0 -4,1 -7,0 -3,1 -3,1 -3,1 -3,1 -3,2 -3,1 -3,2 -3,2 -3,3 -3,2 -4,3"
         style="fill:#000000;fill-opacity:1;fill-rule:nonzero;stroke:none"
         id="path6111" /><path
         d="m 440.25,253.25 2,-1 1,-1 2,-1 1,0 2,-1 2,-1 2,-1 1,-1 2,-1 2,-1 2,-1 1,-1 2,-1 1,-1 1,-1 1,-1 9,0 1,-1 4,0 2,-1 4,0 2,-1 2,0 1,-1 2,0 1,-1 -8,0 -4,1 -7,0 -3,1 -3,1 -3,1 -3,1 -3,2 -3,1 -3,2 -3,2 -3,3 -3,2 -4,3 z"
         style="fill:none;stroke:#000000;stroke-opacity:1;stroke-width:0.1875;stroke-linecap:butt;stroke-linejoin:miter;stroke-miterlimit:4;stroke-dasharray:none"
         id="path6113" /><path
         d="m 351.25,331.25 1,-2 1,-1 3,-3 3,-3 2,-3 3,-3 3,-3 3,-2 2,-3 3,-2 3,-2 4,-3 3,-2 3,-2 3,-2 4,-2 4,-2 -2,1 -1,1 -3,2 -3,3 -3,2 -3,2 -3,3 -4,2 -3,3 -3,2 -3,3 -3,2 -3,3 -3,3 -3,2 -3,3 -2,3"
         style="fill:#000000;fill-opacity:1;fill-rule:nonzero;stroke:none"
         id="path6115" /><path
         d="m 351.25,331.25 1,-2 1,-1 3,-3 3,-3 2,-3 3,-3 3,-3 3,-2 2,-3 3,-2 3,-2 4,-3 3,-2 3,-2 3,-2 4,-2 4,-2 -2,1 -1,1 -3,2 -3,3 -3,2 -3,2 -3,3 -4,2 -3,3 -3,2 -3,3 -3,2 -3,3 -3,3 -3,2 -3,3 -2,3 z"
         style="fill:none;stroke:#000000;stroke-opacity:1;stroke-width:0.1875;stroke-linecap:butt;stroke-linejoin:miter;stroke-miterlimit:4;stroke-dasharray:none"
         id="path6117" /><path
         d="m 340.25,406.25 2,0 2,-1 1,0 2,-1 5,0 1,-1 5,0 2,-1 1,0 2,-1 2,0 1,-1 2,-1 1,-1 -2,-1 -2,0 -2,1 -4,0 -3,1 -2,1 -2,0 -3,1 -2,1 -2,1 -2,1 -1,0 -2,2"
         style="fill:#000000;fill-opacity:1;fill-rule:nonzero;stroke:none"
         id="path6119" /><path
         d="m 340.25,406.25 2,0 2,-1 1,0 2,-1 5,0 1,-1 5,0 2,-1 1,0 2,-1 2,0 1,-1 2,-1 1,-1 -2,-1 -2,0 -2,1 -4,0 -3,1 -2,1 -2,0 -3,1 -2,1 -2,1 -2,1 -1,0 -2,2 z"
         style="fill:none;stroke:#000000;stroke-opacity:1;stroke-width:0.1875;stroke-linecap:butt;stroke-linejoin:miter;stroke-miterlimit:4;stroke-dasharray:none"
         id="path6121" /><path
         d="m 383.25,354.25 2,-2 1,-1 1,0 2,-1 1,-1 1,-1 2,-1 1,-1 2,-1 1,0 2,-1 1,-1 3,0 1,-1 -2,2 -2,1 -1,1 -2,1 -2,1 -1,1 -2,1 -2,1 -2,0 -1,1 -1,0 -3,1 0,1"
         style="fill:#000000;fill-opacity:1;fill-rule:nonzero;stroke:none"
         id="path6123" /><path
         d="m 383.25,354.25 2,-2 1,-1 1,0 2,-1 1,-1 1,-1 2,-1 1,-1 2,-1 1,0 2,-1 1,-1 3,0 1,-1 -2,2 -2,1 -1,1 -2,1 -2,1 -1,1 -2,1 -2,1 -2,0 -1,1 -1,0 -3,1 0,1 z"
         style="fill:none;stroke:#000000;stroke-opacity:1;stroke-width:0.1875;stroke-linecap:butt;stroke-linejoin:miter;stroke-miterlimit:4;stroke-dasharray:none"
         id="path6125" /><path
         d="m 484.25,272.25 1,-2 1,-1 2,0 0,-1 2,-3 2,-2 1,-2 1,-2 2,-2 1,-2 1,-2 2,-2 1,-2 1,-2 1,-2 1,-2 1,-2 1,-2 1,-2 0,4 -1,1 0,2 -1,1 -1,2 -1,1 -1,2 -1,1 -1,2 -1,1 0,2 -1,1 -1,2 0,2 -1,1 -2,2 -2,1 -2,1 -2,2 -1,1 -2,1 -1,2"
         style="fill:#000000;fill-opacity:1;fill-rule:nonzero;stroke:none"
         id="path6127" /><path
         d="m 484.25,272.25 1,-2 1,-1 2,0 0,-1 2,-3 2,-2 1,-2 1,-2 2,-2 1,-2 1,-2 2,-2 1,-2 1,-2 1,-2 1,-2 1,-2 1,-2 1,-2 0,4 -1,1 0,2 -1,1 -1,2 -1,1 -1,2 -1,1 -1,2 -1,1 0,2 -1,1 -1,2 0,2 -1,1 -2,2 -2,1 -2,1 -2,2 -1,1 -2,1 -1,2 z"
         style="fill:none;stroke:#000000;stroke-opacity:1;stroke-width:0.1875;stroke-linecap:butt;stroke-linejoin:miter;stroke-miterlimit:4;stroke-dasharray:none"
         id="path6129" /><path
         d="m 525.25,234.25 0,-7 1,-2 0,-2 1,-2 0,-2 1,-3 0,-2 1,-2 1,-2 1,-1 0,-2 1,-1 1,-1 -1,1 -1,2 -2,1 -1,2 -1,2 -1,2 -1,2 -1,2 -1,2 0,2 -1,2 0,4 1,2 0,2 1,2 0,-1 1,0"
         style="fill:#000000;fill-opacity:1;fill-rule:nonzero;stroke:none"
         id="path6131" /><path
         d="m 525.25,234.25 0,-7 1,-2 0,-2 1,-2 0,-2 1,-3 0,-2 1,-2 1,-2 1,-1 0,-2 1,-1 1,-1 -1,1 -1,2 -2,1 -1,2 -1,2 -1,2 -1,2 -1,2 -1,2 0,2 -1,2 0,4 1,2 0,2 1,2 0,-1 1,0 z"
         style="fill:none;stroke:#000000;stroke-opacity:1;stroke-width:0.1875;stroke-linecap:butt;stroke-linejoin:miter;stroke-miterlimit:4;stroke-dasharray:none"
         id="path6133" /><path
         d="m 450.25,351.25 0,-1 3,-2 2,-2 2,-1 1,-2 2,-2 1,-1 2,-2 1,-2 2,-2 1,-1 1,-2 1,-2 1,-2 1,-2 1,-2 -1,0 -2,2 -2,2 -1,2 -2,2 -2,2 -2,2 -2,2 -2,3 -3,2 -3,3 -4,3 -5,3 -4,3 -6,3 -6,3 3,0 2,-1 2,-1 2,-1 2,-1 2,-1 3,-1 2,0 1,-1 2,-1 2,-1 2,0"
         style="fill:#000000;fill-opacity:1;fill-rule:nonzero;stroke:none"
         id="path6135" /><path
         d="m 450.25,351.25 0,-1 3,-2 2,-2 2,-1 1,-2 2,-2 1,-1 2,-2 1,-2 2,-2 1,-1 1,-2 1,-2 1,-2 1,-2 1,-2 -1,0 -2,2 -2,2 -1,2 -2,2 -2,2 -2,2 -2,2 -2,3 -3,2 -3,3 -4,3 -5,3 -4,3 -6,3 -6,3 3,0 2,-1 2,-1 2,-1 2,-1 2,-1 3,-1 2,0 1,-1 2,-1 2,-1 2,0 z"
         style="fill:none;stroke:#000000;stroke-opacity:1;stroke-width:0.1875;stroke-linecap:butt;stroke-linejoin:miter;stroke-miterlimit:4;stroke-dasharray:none"
         id="path6137" /><path
         d="m 454.25,209.25 1,-1 1,-1 3,-1 2,-1 3,0 2,-1 5,0 3,-1 7,0 3,1 11,0 6,5 -5,0 -3,-1 -3,0 -3,-1 -7,0 -3,-1 -15,0 -3,1 -3,1 -2,1"
         style="fill:#000000;fill-opacity:1;fill-rule:nonzero;stroke:none"
         id="path6139" /><path
         d="m 454.25,209.25 1,-1 1,-1 3,-1 2,-1 3,0 2,-1 5,0 3,-1 7,0 3,1 11,0 6,5 -5,0 -3,-1 -3,0 -3,-1 -7,0 -3,-1 -15,0 -3,1 -3,1 -2,1 z"
         style="fill:none;stroke:#000000;stroke-opacity:1;stroke-width:0.1875;stroke-linecap:butt;stroke-linejoin:miter;stroke-miterlimit:4;stroke-dasharray:none"
         id="path6141" /><path
         d="m 506.25,199.25 3,-1 11,0 2,1 2,0 -1,1 0,1 -2,1 -1,0 -2,-1 -2,0 -2,-1 -2,0 -2,-1 -4,0"
         style="fill:#000000;fill-opacity:1;fill-rule:nonzero;stroke:none"
         id="path6143" /><path
         d="m 506.25,199.25 3,-1 11,0 2,1 2,0 -1,1 0,1 -2,1 -1,0 -2,-1 -2,0 -2,-1 -2,0 -2,-1 -4,0 z"
         style="fill:none;stroke:#000000;stroke-opacity:1;stroke-width:0.1875;stroke-linecap:butt;stroke-linejoin:miter;stroke-miterlimit:4;stroke-dasharray:none"
         id="path6145" /><path
         d="m 326.25,357.25 0,-1 1,-1 1,-2 1,-2 1,-2 1,-1 2,-2 1,-2 2,-2 1,-1 2,-2 1,-1 2,-1 3,0 -1,2 -1,1 -2,2 -1,1 -1,1 -1,2 -2,1 -1,2 -1,1 -1,1 -1,2 -2,1 -1,1 -2,1 -1,1"
         style="fill:#000000;fill-opacity:1;fill-rule:nonzero;stroke:none"
         id="path6147" /><path
         d="m 326.25,357.25 0,-1 1,-1 1,-2 1,-2 1,-2 1,-1 2,-2 1,-2 2,-2 1,-1 2,-2 1,-1 2,-1 3,0 -1,2 -1,1 -2,2 -1,1 -1,1 -1,2 -2,1 -1,2 -1,1 -1,1 -1,2 -2,1 -1,1 -2,1 -1,1 z"
         style="fill:none;stroke:#000000;stroke-opacity:1;stroke-width:0.1875;stroke-linecap:butt;stroke-linejoin:miter;stroke-miterlimit:4;stroke-dasharray:none"
         id="path6149" /><path
         d="m 335.25,394.25 1,-2 2,-2 2,-1 1,-1 1,0 2,-1 1,0 2,-1 2,0 2,-1 4,0 -1,1 -1,2 -1,0 -1,1 -4,0 -1,1 -1,0 -1,1 -3,0 -1,1 -2,1 -2,0 -1,1"
         style="fill:#000000;fill-opacity:1;fill-rule:nonzero;stroke:none"
         id="path6151" /><path
         d="m 335.25,394.25 1,-2 2,-2 2,-1 1,-1 1,0 2,-1 1,0 2,-1 2,0 2,-1 4,0 -1,1 -1,2 -1,0 -1,1 -4,0 -1,1 -1,0 -1,1 -3,0 -1,1 -2,1 -2,0 -1,1 z"
         style="fill:none;stroke:#000000;stroke-opacity:1;stroke-width:0.1875;stroke-linecap:butt;stroke-linejoin:miter;stroke-miterlimit:4;stroke-dasharray:none"
         id="path6153" /><path
         d="m 379.25,333.25 2,-1 1,-1 1,-1 2,-1 1,-1 2,-1 1,-1 2,-1 1,0 2,-1 1,-1 1,-1 2,-1 1,-1 1,-1 1,-1 0,2 -1,1 0,2 -1,1 -2,1 -1,2 -1,1 -4,0 -2,1 -2,0 -2,1 -2,1 -2,1 -1,1 -1,0"
         style="fill:#000000;fill-opacity:1;fill-rule:nonzero;stroke:none"
         id="path6155" /><path
         d="m 379.25,333.25 2,-1 1,-1 1,-1 2,-1 1,-1 2,-1 1,-1 2,-1 1,0 2,-1 1,-1 1,-1 2,-1 1,-1 1,-1 1,-1 0,2 -1,1 0,2 -1,1 -2,1 -1,2 -1,1 -4,0 -2,1 -2,0 -2,1 -2,1 -2,1 -1,1 -1,0 z"
         style="fill:none;stroke:#000000;stroke-opacity:1;stroke-width:0.1875;stroke-linecap:butt;stroke-linejoin:miter;stroke-miterlimit:4;stroke-dasharray:none"
         id="path6157" /><path
         d="m 315.25,317.25 0,-2 1,-2 1,-3 2,-2 1,-2 1,-2 2,-2 1,-2 2,-2 1,-2 2,-2 1,-2 2,-2 2,-2 2,-2 2,-2 2,-1 2,-2 1,-2 2,-1 2,-2 2,-1 3,-2 2,-1 2,-2 2,-1 2,-1 2,-1 2,-2 2,-1 2,-1 2,-1"
         style="fill:none;stroke:#ffffff;stroke-opacity:1;stroke-width:0.1875;stroke-linecap:butt;stroke-linejoin:miter;stroke-miterlimit:4;stroke-dasharray:none"
         id="path6159" /><path
         d="m 341.25,326.25 1,-3 2,-2 1,-3 2,-2 2,-2 1,-2 2,-2 2,-2 3,-2 2,-2 2,-2 3,-2 2,-1 2,-2 3,-1 3,-2 2,-2 3,-1 3,-2 2,-1 3,-1 2,-2 3,-1 2,-2 3,-1 2,-2 2,-1 3,-2 2,-1 2,-2 2,-2 1,-1"
         style="fill:none;stroke:#ffffff;stroke-opacity:1;stroke-width:0.1875;stroke-linecap:butt;stroke-linejoin:miter;stroke-miterlimit:4;stroke-dasharray:none"
         id="path6161" /><path
         d="m 399.25,264.25 2,-2 2,-2 3,-2 2,-2 3,-2 2,-2 3,-2 3,-2 2,-2 3,-1 3,-2 3,-2 3,-2 3,-1 3,-2 3,-1 3,-1 3,-2 3,-1 3,-1 3,-1 3,-1 4,-1 3,-1 3,-1 3,-1 3,0 3,-1 12,0"
         style="fill:none;stroke:#ffffff;stroke-opacity:1;stroke-width:0.1875;stroke-linecap:butt;stroke-linejoin:miter;stroke-miterlimit:4;stroke-dasharray:none"
         id="path6163" /><path
         d="m 464.25,220.25 1,-1 2,-1 1,0 1,-1 1,0 2,-1 13,0 2,1 3,0 2,1 3,0 2,1 6,0 1,1"
         style="fill:none;stroke:#ffffff;stroke-opacity:1;stroke-width:0.1875;stroke-linecap:butt;stroke-linejoin:miter;stroke-miterlimit:4;stroke-dasharray:none"
         id="path6165" /><path
         d="m 480.25,197.25 1,-1 2,0 0,0 1,-1 1,0 2,0 1,0 0,-1 2,0 2,0 1,-1 2,0"
         style="fill:none;stroke:#ffffff;stroke-opacity:1;stroke-width:0.1875;stroke-linecap:butt;stroke-linejoin:miter;stroke-miterlimit:4;stroke-dasharray:none"
         id="path6167" /><path
         d="m 370.25,408.25 8,0 3,-1 4,0 4,-1 3,-1 4,-2 3,-1 4,-1 3,-2 3,-2 4,-2 3,-2 3,-2 3,-2 3,-2 3,-2 4,-2 3,-3 3,-2 3,-3 3,-2 3,-2 3,-3 3,-2 3,-3 3,-2 3,-2 3,-3 3,-2 3,-2 3,-2"
         style="fill:none;stroke:#ffffff;stroke-opacity:1;stroke-width:0.1875;stroke-linecap:butt;stroke-linejoin:miter;stroke-miterlimit:4;stroke-dasharray:none"
         id="path6169" /><path
         d="m 317.25,396.25 2,-2 3,-2 5,-3 6,-3 6,-4 5,-3 6,-3 6,-3 6,-3 6,-3 5,-3 6,-3 6,-3 6,-3 6,-2 6,-3 6,-2 2,-1 1,-1 1,-1 2,-1 1,-1 1,-1 2,-2"
         style="fill:none;stroke:#ffffff;stroke-opacity:1;stroke-width:0.1875;stroke-linecap:butt;stroke-linejoin:miter;stroke-miterlimit:4;stroke-dasharray:none"
         id="path6171" /><path
         d="m 317.25,380.25 1,-1 2,-1 2,-1 2,-1 2,-1 2,-2 2,-1 1,-1 3,-4 4,-3 7,-6 7,-7 7,-7 7,-7 8,-7 8,-7 8,-7 8,-6 8,-6 9,-5 9,-4 9,-4 9,-3 9,-1 10,-1"
         style="fill:none;stroke:#ffffff;stroke-opacity:1;stroke-width:0.1875;stroke-linecap:butt;stroke-linejoin:miter;stroke-miterlimit:4;stroke-dasharray:none"
         id="path6173" /><path
         d="m 481.25,315.25 1,-1 0,-2 2,-2 2,-3 2,-2 2,-3 1,-3 2,-3 2,-3 2,-3 2,-3 1,-3 2,-3 1,-2 2,-3 0,-2 1,-2 1,-1 1,-3 0,-3 1,-2 1,-3 0,-3 1,-4 1,-3 0,-6 1,-3 0,-3 1,-3 0,-8"
         style="fill:none;stroke:#ffffff;stroke-opacity:1;stroke-width:0.1875;stroke-linecap:butt;stroke-linejoin:miter;stroke-miterlimit:4;stroke-dasharray:none"
         id="path6175" /><path
         d="m 511.25,288.25 1,-1 0,-2 1,-2 0,-3 1,-2 1,-2 0,-2 1,-1 0,-3 1,-3 1,-3 0,-30"
         style="fill:none;stroke:#ffffff;stroke-opacity:1;stroke-width:0.1875;stroke-linecap:butt;stroke-linejoin:miter;stroke-miterlimit:4;stroke-dasharray:none"
         id="path6177" /><path
         d="m 531.25,241.25 0,-9 1,-2 0,-8 1,-1 0,-3 1,-1 0,-4 1,-2 0,-2 1,-2 0,-2 1,-2 1,-2 1,-2 0,-1 1,-2 1,-2 1,-1 1,-2 1,-1 1,-2 1,-1 1,-2 2,-1"
         style="fill:none;stroke:#ffffff;stroke-opacity:1;stroke-width:0.1875;stroke-linecap:butt;stroke-linejoin:miter;stroke-miterlimit:4;stroke-dasharray:none"
         id="path6179" /><path
         d="m 555.25,181.25 0,-1 1,-1 0,-1 1,0 1,-1 1,-1 0,-1 1,0 1,-1 1,-1 1,-1 0,0 1,-1 1,-1 1,0"
         style="fill:none;stroke:#ffffff;stroke-opacity:1;stroke-width:0.1875;stroke-linecap:butt;stroke-linejoin:miter;stroke-miterlimit:4;stroke-dasharray:none"
         id="path6181" /><path
         d="m 460.25,317.25 0,-1 1,-1 1,0 0,-1 1,-1 1,-1 0,-1 1,-1 1,0 1,-1 0,-1 1,-1 1,-1 0,-1 1,0 1,-1 1,-1 0,-1 1,-1 1,-1 1,-1 1,-1 0,-1 1,-1 1,-1 1,-2 0,-1 1,-1 1,-2 0,-1 1,-1 1,-2"
         style="fill:none;stroke:#ffffff;stroke-opacity:1;stroke-width:0.1875;stroke-linecap:butt;stroke-linejoin:miter;stroke-miterlimit:4;stroke-dasharray:none"
         id="path6183" /><path
         d="m 362.25,385.25 1,0 1,-1 1,0 1,-1 1,0 1,-1 1,0 1,-1 1,0 1,-1 2,0 1,-1 1,0 1,-1 2,0 1,-1 1,0 1,-1 1,0 1,-1 1,0 1,-1 1,0 1,-1 1,-1 1,0 1,-1 0,-1 1,0 1,-1"
         style="fill:none;stroke:#ffffff;stroke-opacity:1;stroke-width:0.1875;stroke-linecap:butt;stroke-linejoin:miter;stroke-miterlimit:4;stroke-dasharray:none"
         id="path6185" /><path
         d="m 383.25,386.25 1,0 1,-1 2,0 1,-1 2,-1 1,-1 2,-1 1,-1 2,-1 2,-1 1,-2 2,-1 1,-1 2,-1 2,-2 1,-1 2,-1 1,-2 2,-1 2,-1 1,-2 2,-1 1,-2 1,-1 2,-1 1,-2 1,-1 2,-1 1,-1 1,-1 1,-1 1,-1"
         style="fill:none;stroke:#ffffff;stroke-opacity:1;stroke-width:0.1875;stroke-linecap:butt;stroke-linejoin:miter;stroke-miterlimit:4;stroke-dasharray:none"
         id="path6187" /><path
         d="m 379.25,401.25 1,-1 1,-1 1,-1 1,0 0,-1 1,0 1,-1 1,0 0,-1 1,0 1,0 0,-1 2,0 0,0 1,-1 1,0 2,0 1,0 0,0"
         style="fill:none;stroke:#ffffff;stroke-opacity:1;stroke-width:0.1875;stroke-linecap:butt;stroke-linejoin:miter;stroke-miterlimit:4;stroke-dasharray:none"
         id="path6189" /><path
         d="m 341.25,413.25 4,0 0,0 1,-1 3,0 1,-1 3,0 0,-1 3,0 1,-1 3,0 1,-1 2,0 1,0 1,-1 2,0 2,0"
         style="fill:none;stroke:#ffffff;stroke-opacity:1;stroke-width:0.1875;stroke-linecap:butt;stroke-linejoin:miter;stroke-miterlimit:4;stroke-dasharray:none"
         id="path6191" /><path
         d="m 313.25,354.25 2,-1 1,-1 1,-1 0,-1 1,-1 1,-1 1,-1 1,-1 1,-1 1,-1 1,-2 0,-1 1,-1 1,-1 1,-2 1,-1 1,-1 1,-1 1,-1 1,-2 1,-1 1,0 1,-1 1,-1 0,-1 1,-1 1,0 1,-1 3,0"
         style="fill:none;stroke:#000000;stroke-opacity:1;stroke-width:0.1875;stroke-linecap:butt;stroke-linejoin:miter;stroke-miterlimit:4;stroke-dasharray:none"
         id="path6193" /><path
         d="m 261.25,273.25 2,-1 1,-1 2,-1 1,-1 2,-1 1,-1 1,-1 2,-2 2,-1 1,-1 1,-1 2,-1 2,-1 1,-1 2,-1 1,0 0,1 -1,2 -1,1 -1,2 -1,0 3,0 1,-1 1,-1 1,-1 1,-1 2,-1 1,-1 1,-1 1,-1 2,-1 1,-1 1,0 2,-1 2,0 0,2 1,-1 2,-1 1,-1 2,-1 1,-1 1,1 1,0 2,-1 1,-1 3,-1 2,-1 2,0 2,-1 2,0 2,-1 6,0 1,1 2,0 1,1 -3,1 -1,0 -1,1 -1,1 -2,1 -1,1 -1,1 -2,1 -1,0 -1,1 -2,1 -1,1 -2,0 -2,1 1,-2 0,-1 -2,0 -1,2 -1,1 -1,0 -2,1 -2,0 -2,1 -2,1 -2,1 -3,1 -2,1 -3,2 -2,1 -2,1 -3,2 -2,1 -2,1 -1,0 -1,1 0,-3 1,-1 0,-1 -2,1 -2,2 -1,2 -1,2 -2,2 -1,2 -2,2 -1,1 0,-5 -12,10 1,-1 1,-2 1,-1 0,-2 1,-3 0,-5 0,1"
         style="fill:#ffffff;fill-opacity:1;fill-rule:nonzero;stroke:none"
         id="path6195" /><path
         d="m 261.25,273.25 2,-1 1,-1 2,-1 1,-1 2,-1 1,-1 1,-1 2,-2 2,-1 1,-1 1,-1 2,-1 2,-1 1,-1 2,-1 1,0 0,1 -1,2 -1,1 -1,2 -1,0 3,0 1,-1 1,-1 1,-1 1,-1 2,-1 1,-1 1,-1 1,-1 2,-1 1,-1 1,0 2,-1 2,0 0,2 1,-1 2,-1 1,-1 2,-1 1,-1 1,1 1,0 2,-1 1,-1 3,-1 2,-1 2,0 2,-1 2,0 2,-1 6,0 1,1 2,0 1,1 -3,1 -1,0 -1,1 -1,1 -2,1 -1,1 -1,1 -2,1 -1,0 -1,1 -2,1 -1,1 -2,0 -2,1 1,-2 0,-1 -2,0 -1,2 -1,1 -1,0 -2,1 -2,0 -2,1 -2,1 -2,1 -3,1 -2,1 -3,2 -2,1 -2,1 -3,2 -2,1 -2,1 -1,0 -1,1 0,-3 1,-1 0,-1 -2,1 -2,2 -1,2 -1,2 -2,2 -1,2 -2,2 -1,1 0,-5 -12,10 1,-1 1,-2 1,-1 0,-2 1,-3 0,-5 0,1 z"
         style="fill:none;stroke:#ffffff;stroke-opacity:1;stroke-width:0.1875;stroke-linecap:butt;stroke-linejoin:miter;stroke-miterlimit:4;stroke-dasharray:none"
         id="path6197" /><path
         d="m 263.25,305.25 0,-1 1,-3 1,-1 1,-2 1,-1 1,-2 1,-1 1,-1 1,-2 1,-1 2,-1 1,-1 1,-1 1,-2 1,-1 2,-1 0,3 -1,1 0,3 1,-1 1,-1 0,-2 2,-1 1,-1 2,-2 2,-1 1,-2 2,-1 1,-1 2,-1 -2,5 1,-1 2,-2 2,-1 2,-2 2,-2 2,-1 2,-1 3,-1 1,0 1,-1 2,-1 0,3 -1,2 -1,1 -1,2 -2,1 -1,1 -2,2 -2,1 -1,1 -2,2 -2,1 -1,1 -2,1 -1,1 -1,1 -2,1 -2,2 -2,1 -1,1 -1,1 -1,1 -3,2 -1,1 -1,-2 -1,1 -1,1 -2,2 -1,1 -1,2 -1,1 -2,2 -1,1 0,-2 1,-1 0,-5 -1,1 -1,2 -1,1 -1,1 0,1 -1,1 -2,0 0,-1 1,-1"
         style="fill:#ffffff;fill-opacity:1;fill-rule:nonzero;stroke:none"
         id="path6199" /><path
         d="m 263.25,305.25 0,-1 1,-3 1,-1 1,-2 1,-1 1,-2 1,-1 1,-1 1,-2 1,-1 2,-1 1,-1 1,-1 1,-2 1,-1 2,-1 0,3 -1,1 0,3 1,-1 1,-1 0,-2 2,-1 1,-1 2,-2 2,-1 1,-2 2,-1 1,-1 2,-1 -2,5 1,-1 2,-2 2,-1 2,-2 2,-2 2,-1 2,-1 3,-1 1,0 1,-1 2,-1 0,3 -1,2 -1,1 -1,2 -2,1 -1,1 -2,2 -2,1 -1,1 -2,2 -2,1 -1,1 -2,1 -1,1 -1,1 -2,1 -2,2 -2,1 -1,1 -1,1 -1,1 -3,2 -1,1 -1,-2 -1,1 -1,1 -2,2 -1,1 -1,2 -1,1 -2,2 -1,1 0,-2 1,-1 0,-5 -1,1 -1,2 -1,1 -1,1 0,1 -1,1 -2,0 0,-1 1,-1 z"
         style="fill:none;stroke:#ffffff;stroke-opacity:1;stroke-width:0.1875;stroke-linecap:butt;stroke-linejoin:miter;stroke-miterlimit:4;stroke-dasharray:none"
         id="path6201" /><path
         d="m 257.25,334.25 0,-1 1,-2 1,-1 0,-1 1,-2 1,-1 1,-2 1,-1 1,-1 1,-2 1,-1 1,-1 1,-2 1,-1 1,-1 1,-1 0,2 -1,2 0,1 -1,2 -1,1 -1,2 -1,1 -1,2 0,2 -1,1 -1,2 0,4 -1,0 -2,1 -1,-1 -1,-1 -1,2 0,-2"
         style="fill:#000000;fill-opacity:1;fill-rule:nonzero;stroke:none"
         id="path6203" /><path
         d="m 257.25,334.25 0,-1 1,-2 1,-1 0,-1 1,-2 1,-1 1,-2 1,-1 1,-1 1,-2 1,-1 1,-1 1,-2 1,-1 1,-1 1,-1 0,2 -1,2 0,1 -1,2 -1,1 -1,2 -1,1 -1,2 0,2 -1,1 -1,2 0,4 -1,0 -2,1 -1,-1 -1,-1 -1,2 0,-2 z"
         style="fill:none;stroke:#000000;stroke-opacity:1;stroke-width:0.1875;stroke-linecap:butt;stroke-linejoin:miter;stroke-miterlimit:4;stroke-dasharray:none"
         id="path6205" /><path
         d="m 276.25,323.25 0,-2 1,-1 1,-2 1,-2 1,-2 2,-2 1,-2 2,-2 2,-2 1,-2 2,-2 2,-1 2,-2 1,-2 2,-1 2,-2 2,-2 -1,2 0,3 -2,2 -1,2 -1,1 -1,3 -1,1 0,1 -1,1 0,3 -1,0 -1,1 -1,1 -2,2 -2,2 -1,2 -1,1 -1,1 0,1 -2,2 -1,2 0,1 0,-4 -1,1 -1,1 -1,1 -1,-1 0,-2"
         style="fill:#ffffff;fill-opacity:1;fill-rule:nonzero;stroke:none"
         id="path6207" /><path
         d="m 276.25,323.25 0,-2 1,-1 1,-2 1,-2 1,-2 2,-2 1,-2 2,-2 2,-2 1,-2 2,-2 2,-1 2,-2 1,-2 2,-1 2,-2 2,-2 -1,2 0,3 -2,2 -1,2 -1,1 -1,3 -1,1 0,1 -1,1 0,3 -1,0 -1,1 -1,1 -2,2 -2,2 -1,2 -1,1 -1,1 0,1 -2,2 -1,2 0,1 0,-4 -1,1 -1,1 -1,1 -1,-1 0,-2 z"
         style="fill:none;stroke:#ffffff;stroke-opacity:1;stroke-width:0.1875;stroke-linecap:butt;stroke-linejoin:miter;stroke-miterlimit:4;stroke-dasharray:none"
         id="path6209" /><path
         d="m 255.25,364.25 0,-2 1,-3 1,-2 0,-2 2,-2 1,-2 1,-2 2,-2 2,-2 2,-2 1,-2 2,-2 2,-1 2,-2 1,-2 2,-1 -1,1 -1,1 0,2 -1,1 -1,2 0,2 -1,1 0,2 2,-2 1,-1 1,-2 2,-1 1,-1 1,0 2,-1 1,-1 1,-1 1,0 2,-1 1,-1 1,-1 0,2 -1,2 -2,2 -1,1 -1,1 -2,2 -1,1 -2,1 -1,1 -2,2 -1,1 -2,1 -2,1 -1,1 -2,2 -1,1 0,-4 1,-1 0,-1 -1,1 -2,3 -1,2 -2,2 -2,2 -1,2 -2,2 -2,2"
         style="fill:#ffffff;fill-opacity:1;fill-rule:nonzero;stroke:none"
         id="path6211" /><path
         d="m 255.25,364.25 0,-2 1,-3 1,-2 0,-2 2,-2 1,-2 1,-2 2,-2 2,-2 2,-2 1,-2 2,-2 2,-1 2,-2 1,-2 2,-1 -1,1 -1,1 0,2 -1,1 -1,2 0,2 -1,1 0,2 2,-2 1,-1 1,-2 2,-1 1,-1 1,0 2,-1 1,-1 1,-1 1,0 2,-1 1,-1 1,-1 0,2 -1,2 -2,2 -1,1 -1,1 -2,2 -1,1 -2,1 -1,1 -2,2 -1,1 -2,1 -2,1 -1,1 -2,2 -1,1 0,-4 1,-1 0,-1 -1,1 -2,3 -1,2 -2,2 -2,2 -1,2 -2,2 -2,2 z"
         style="fill:none;stroke:#ffffff;stroke-opacity:1;stroke-width:0.1875;stroke-linecap:butt;stroke-linejoin:miter;stroke-miterlimit:4;stroke-dasharray:none"
         id="path6213" /><path
         d="m 252.25,379.25 1,-1 1,-2 1,-1 1,-1 1,-1 2,-2 1,-1 1,-1 1,-1 2,-1 1,-1 1,-1 1,-1 2,-1 1,0 -1,1 -1,1 0,2 -1,1 2,-1 1,-2 2,-1 1,0 2,-1 1,-1 1,-1 2,-1 1,1 0,2 1,-1 1,0 2,-1 2,0 1,1 -1,1 -1,2 -1,1 -1,1 -2,2 -1,1 -2,0 -5,0 -2,1 -2,0 -2,1 -2,1 -1,2 -2,1 2,-2 -2,0 -1,1 -1,1 -1,1 -2,1 -1,1 -2,-1 -1,1 -1,0 0,0"
         style="fill:#ffffff;fill-opacity:1;fill-rule:nonzero;stroke:none"
         id="path6215" /><path
         d="m 252.25,379.25 1,-1 1,-2 1,-1 1,-1 1,-1 2,-2 1,-1 1,-1 1,-1 2,-1 1,-1 1,-1 1,-1 2,-1 1,0 -1,1 -1,1 0,2 -1,1 2,-1 1,-2 2,-1 1,0 2,-1 1,-1 1,-1 2,-1 1,1 0,2 1,-1 1,0 2,-1 2,0 1,1 -1,1 -1,2 -1,1 -1,1 -2,2 -1,1 -2,0 -5,0 -2,1 -2,0 -2,1 -2,1 -1,2 -2,1 2,-2 -2,0 -1,1 -1,1 -1,1 -2,1 -1,1 -2,-1 -1,1 -1,0 0,0 z"
         style="fill:none;stroke:#ffffff;stroke-opacity:1;stroke-width:0.1875;stroke-linecap:butt;stroke-linejoin:miter;stroke-miterlimit:4;stroke-dasharray:none"
         id="path6217" /><path
         d="m 257.25,265.25 2,-2 3,-2 2,-2 2,-1 2,-1 3,-2 2,-1 1,-1 1,0 0,1 -1,1 -2,2 -2,2 -3,2 -1,1 -1,0 -1,1 -1,0 -2,1 -1,0 -1,1 -2,0"
         style="fill:#000000;fill-opacity:1;fill-rule:nonzero;stroke:none"
         id="path6219" /><path
         d="m 257.25,265.25 2,-2 3,-2 2,-2 2,-1 2,-1 3,-2 2,-1 1,-1 1,0 0,1 -1,1 -2,2 -2,2 -3,2 -1,1 -1,0 -1,1 -1,0 -2,1 -1,0 -1,1 -2,0 z"
         style="fill:none;stroke:#000000;stroke-opacity:1;stroke-width:0.1875;stroke-linecap:butt;stroke-linejoin:miter;stroke-miterlimit:4;stroke-dasharray:none"
         id="path6221" /><path
         d="m 281.25,279.25 1,-1 1,-1 2,-1 2,-1 2,-1 1,-1 2,-2 1,0 -7,0 -2,1 -2,1 -2,1 -1,2 -1,2 0,2 2,-1 1,0"
         style="fill:#000000;fill-opacity:1;fill-rule:nonzero;stroke:none"
         id="path6223" /><path
         d="m 281.25,279.25 1,-1 1,-1 2,-1 2,-1 2,-1 1,-1 2,-2 1,0 -7,0 -2,1 -2,1 -2,1 -1,2 -1,2 0,2 2,-1 1,0 z"
         style="fill:none;stroke:#000000;stroke-opacity:1;stroke-width:0.1875;stroke-linecap:butt;stroke-linejoin:miter;stroke-miterlimit:4;stroke-dasharray:none"
         id="path6225" /><path
         d="m 269.25,359.25 2,0 1,-1 2,-1 1,-1 2,-1 1,-1 1,-1 2,-1 -2,-2 -2,0 -2,1 -1,1 -2,0 -1,2 -1,1 -2,1 -1,2 0,3 1,-1 1,-1"
         style="fill:#000000;fill-opacity:1;fill-rule:nonzero;stroke:none"
         id="path6227" /><path
         d="m 269.25,359.25 2,0 1,-1 2,-1 1,-1 2,-1 1,-1 1,-1 2,-1 -2,-2 -2,0 -2,1 -1,1 -2,0 -1,2 -1,1 -2,1 -1,2 0,3 1,-1 1,-1 z"
         style="fill:none;stroke:#000000;stroke-opacity:1;stroke-width:0.1875;stroke-linecap:butt;stroke-linejoin:miter;stroke-miterlimit:4;stroke-dasharray:none"
         id="path6229" /><path
         d="m 472.25,180.25 -4,0 -6,4 -8,5 -4,3 -5,2 -5,2 -5,2 -5,1 -5,1 -5,1 -5,1 -5,1 -5,1 -5,1 -5,1 -5,1 -5,1 -4,2 -8,3 -7,4 -7,5 -7,4 -7,5 -6,5 -6,6 -6,6 -5,7 -5,6 -5,7 -5,7 -4,7 -4,8 -3,7 -3,9 -2,4 -1,5 -1,5 -1,6 0,6 -1,6 0,5 -1,6 -1,6 0,6 -1,6 -1,5 -2,5 -2,5 -3,11 4,-7 2,-5 2,-4 1,-3 1,-5 1,-4 1,-4 0,-5 1,-4 0,-4 1,-5 0,-4 1,-5 1,-4 0,-4 1,-4 1,-5 2,-4 3,-7 3,-8 4,-8 4,-7 10,-14 5,-6 5,-7 6,-6 6,-5 6,-6 7,-5 7,-5 7,-4 7,-4 8,-3 5,-2 4,-1 5,-2 5,-1 5,-1 6,-1 5,-1 5,-1 5,-1 5,-2 5,-1 5,-2 5,-1 4,-2 5,-2 4,-3 4,-3 3,-3 3,-3 2,-3 -2,-2"
         style="fill:#000000;fill-opacity:1;fill-rule:nonzero;stroke:none"
         id="path6231" /><path
         d="m 472.25,180.25 -4,0 -6,4 -8,5 -4,3 -5,2 -5,2 -5,2 -5,1 -5,1 -5,1 -5,1 -5,1 -5,1 -5,1 -5,1 -5,1 -5,1 -4,2 -8,3 -7,4 -7,5 -7,4 -7,5 -6,5 -6,6 -6,6 -5,7 -5,6 -5,7 -5,7 -4,7 -4,8 -3,7 -3,9 -2,4 -1,5 -1,5 -1,6 0,6 -1,6 0,5 -1,6 -1,6 0,6 -1,6 -1,5 -2,5 -2,5 -3,11 4,-7 2,-5 2,-4 1,-3 1,-5 1,-4 1,-4 0,-5 1,-4 0,-4 1,-5 0,-4 1,-5 1,-4 0,-4 1,-4 1,-5 2,-4 3,-7 3,-8 4,-8 4,-7 10,-14 5,-6 5,-7 6,-6 6,-5 6,-6 7,-5 7,-5 7,-4 7,-4 8,-3 5,-2 4,-1 5,-2 5,-1 5,-1 6,-1 5,-1 5,-1 5,-1 5,-2 5,-1 5,-2 5,-1 4,-2 5,-2 4,-3 4,-3 3,-3 3,-3 2,-3 -2,-2 z"
         style="fill:none;stroke:#000000;stroke-opacity:1;stroke-width:0.1875;stroke-linecap:butt;stroke-linejoin:miter;stroke-miterlimit:4;stroke-dasharray:none"
         id="path6233" /></g></g></svg>