<?xml version="1.0" encoding="UTF-8"?>
<!DOCTYPE svg PUBLIC "-//W3C//DTD SVG 1.1//EN" "http://www.w3.org/Graphics/SVG/1.1/DTD/svg11.dtd">
<svg version="1.1" xmlns="http://www.w3.org/2000/svg" xmlns:xlink="http://www.w3.org/1999/xlink" x="0" y="0" width="640" height="400" viewBox="0, 0, 640, 400">
  <defs>
    <radialGradient id="Gradient_1" gradientUnits="userSpaceOnUse" cx="0" cy="0" r="1" fx="0" fy="0.7">
      <stop offset="0.05" stop-color="#2D385B"/>
      <stop offset="0.95" stop-color="#111522"/>
    </radialGradient>
  </defs>
  <g id="Layer_1">
    <path d="M0,0 L1,0 L1,1 L0,1 z" fill="url(#Gradient_1)"/>
  </g>
  <g id="monkeyLayers">
    <g id="ears">
      <path d="M220,181 C220,225.183 184.183,261 140,261 C95.817,261 60,225.183 60,181 C60,136.817 95.817,101 140,101 C184.183,101 220,136.817 220,181 z" fill="#F5DEB3"/>
      <path d="M580,181 C580,225.183 544.183,261 500,261 C455.817,261 420,225.183 420,181 C420,136.817 455.817,101 500,101 C544.183,101 580,136.817 580,181 z" fill="#F5DEB3"/>
    </g>
    <path d="M510,200 C510,304.934 424.934,390 320,390 C215.066,390 130,304.934 130,200 C130,95.066 215.066,10 320,10 C424.934,10 510,95.066 510,200 z" fill="#8B4513" id="face"/>
    <g>
      <path d="M240.5,244.5 C205.43,244.5 177,216.07 177,181 C177,145.93 205.43,117.5 240.5,117.5 C275.57,117.5 304,145.93 304,181 C304,216.07 275.57,244.5 240.5,244.5 z" fill="#FFFFFF"/>
      <path d="M240.5,244.5 C205.43,244.5 177,216.07 177,181 C177,145.93 205.43,117.5 240.5,117.5 C275.57,117.5 304,145.93 304,181 C304,216.07 275.57,244.5 240.5,244.5 z" fill-opacity="0" stroke="#000000" stroke-width="2"/>
    </g>
    <g>
      <path d="M399.5,244.5 C364.43,244.5 336,216.07 336,181 C336,145.93 364.43,117.5 399.5,117.5 C434.57,117.5 463,145.93 463,181 C463,216.07 434.57,244.5 399.5,244.5 z" fill="#FFFFFF"/>
      <path d="M399.5,244.5 C364.43,244.5 336,216.07 336,181 C336,145.93 364.43,117.5 399.5,117.5 C434.57,117.5 463,145.93 463,181 C463,216.07 434.57,244.5 399.5,244.5 z" fill-opacity="0" stroke="#000000" stroke-width="2"/>
    </g>
    <g id="eyes">
      <path d="M255,180 C255,188.284 248.284,195 240,195 C231.716,195 225,188.284 225,180 C225,171.716 231.716,165 240,165 C248.284,165 255,171.716 255,180 z" fill="#000000" id="left-pupil"/>
      <path d="M415,180 C415,188.284 408.284,195 400,195 C391.716,195 385,188.284 385,180 C385,171.716 391.716,165 400,165 C408.284,165 415,171.716 415,180 z" fill="#000000" id="right-pupil"/>
    </g>
    <path d="M510,300 C510,349.706 424.934,390 320,390 C215.066,390 130,349.706 130,300 C130,250.294 215.066,210 320,210 C424.934,210 510,250.294 510,300 z" fill="#F5DEB3" id="mouthShape"/>
    <path d="M184,301 L456,301 L456,309 L184,309 L184,301 z" fill="#DEB887"/>
  </g>
</svg>
