<?xml version="1.0" encoding="UTF-8"?>
<!DOCTYPE svg PUBLIC "-//W3C//DTD SVG 1.1//EN" "http://www.w3.org/Graphics/SVG/1.1/DTD/svg11.dtd">
<svg version="1.1" xmlns="http://www.w3.org/2000/svg" xmlns:xlink="http://www.w3.org/1999/xlink" x="0" y="0" width="600" height="600" viewBox="0, 0, 600, 600">
  <g id="Layer_1">
    <path d="M538.852,302.071 C538.852,433.946 431.946,540.852 300.071,540.852 C168.197,540.852 61.291,433.946 61.291,302.071 C61.291,170.197 168.197,63.291 300.071,63.291 C431.946,63.291 538.852,170.197 538.852,302.071 z" fill-opacity="0" stroke="#000000" stroke-width="55" id="path2160"/>
    <path d="M394.121,301.644 C394.132,353.672 351.958,395.854 299.93,395.854 C247.902,395.854 205.728,353.672 205.738,301.644 C205.728,249.616 247.902,207.434 299.93,207.434 C351.958,207.434 394.132,249.616 394.121,301.644 z" fill-opacity="0" stroke="#000000" stroke-width="33" id="use3134"/>
    <path d="M299.358,-96.927 C299.358,674.501 299.358,674.501 299.358,674.501" fill-opacity="0" stroke="#000000" stroke-width="1" id="path4105" opacity="0"/>
    <path d="M-23.499,303.073 C646.501,303.073 647.93,303.073 647.93,303.073" fill-opacity="0" stroke="#000000" stroke-width="1" id="path4107" opacity="0"/>
    <path d="M298.16,104.884 L299.438,104.884 L299.438,181.856 L298.16,181.856 z" fill-opacity="0" stroke="#000000" stroke-width="31.494" id="rect5080"/>
    <path d="M145.578,176.524 L146.375,175.525 L206.553,223.515 L205.757,224.514 z" fill-opacity="0" stroke="#000000" stroke-width="31.494" id="rect5080"/>
    <path d="M457.107,180.524 L456.311,179.525 L396.132,227.515 L396.929,228.514 z" fill-opacity="0" stroke="#000000" stroke-width="31.494" id="rect5080"/>
    <path d="M110.816,354.299 L110.532,353.053 L185.573,335.925 L185.857,337.171 z" fill-opacity="0" stroke="#000000" stroke-width="31.494" id="rect5080"/>
    <path d="M489.573,354.299 L489.857,353.053 L414.816,335.925 L414.532,337.171 z" fill-opacity="0" stroke="#000000" stroke-width="31.494" id="rect5080"/>
    <path d="M220.677,482.322 L219.525,481.767 L252.922,412.418 L254.073,412.973 z" fill-opacity="0" stroke="#000000" stroke-width="31.494" id="rect5080"/>
    <path d="M382.922,482.322 L384.073,481.767 L350.677,412.418 L349.525,412.973 z" fill-opacity="0" stroke="#000000" stroke-width="31.494" id="rect5080"/>
  </g>
</svg>
