<?xml version="1.0" encoding="UTF-8"?>
<!DOCTYPE svg PUBLIC "-//W3C//DTD SVG 1.1//EN" "http://www.w3.org/Graphics/SVG/1.1/DTD/svg11.dtd">
<svg version="1.1" xmlns="http://www.w3.org/2000/svg" xmlns:xlink="http://www.w3.org/1999/xlink" x="0" y="0" width="150" height="150" viewBox="0, 0, 150, 150">
  <g id="Layer_1">
    <path d="M51.895,109.079 C48.508,109.079 44.796,108.111 40.857,105.687 C35.27,102.243 32.027,97.799 31.219,92.477 C29.74,82.74 37.294,73.956 37.614,73.587 C37.64,73.555 45.41,63.838 40.653,58.854 C38.671,56.774 36.403,55.734 34.44,56.01 C33.05,56.203 31.917,57.055 31.166,58.473 C30.472,59.788 30.261,60.865 30.539,61.674 C30.928,62.812 32.28,63.447 32.294,63.454 C33.952,64.2 34.732,66.151 34.013,67.822 C33.292,69.492 31.391,70.286 29.709,69.594 C29.299,69.427 25.68,67.838 24.281,63.968 C23.624,62.144 23.261,59.17 25.276,55.359 C27.018,52.063 30.025,49.896 33.525,49.41 C37.635,48.84 41.994,50.605 45.476,54.255 C52.597,61.719 47.073,72.634 42.686,77.907 C42.581,78.03 36.782,84.839 37.81,91.503 C38.324,94.834 40.465,97.618 44.354,100.012 C55.797,107.065 63.209,96.245 64.017,94.988 C65.01,93.445 67.068,92.988 68.613,93.975 C70.159,94.961 70.622,97.007 69.641,98.558 C66.843,102.984 60.396,109.079 51.895,109.079" fill="#5F6360"/>
    <path d="M60.968,87.479 C60.968,99.06 71.394,108.446 84.256,108.446 L84.256,66.515 C71.394,66.515 60.968,75.903 60.968,87.479" fill="#C5B7B0"/>
    <path d="M107.543,87.479 C107.543,75.903 97.118,66.515 84.256,66.515 L84.256,108.446 C97.118,108.446 107.543,99.06 107.543,87.479" fill="#F2E0D6"/>
    <path d="M57.274,77.435 C57.274,89.014 69.356,98.4 84.256,98.4 L84.256,56.469 C69.356,56.469 57.274,65.856 57.274,77.435" fill="#C5B7B0"/>
    <path d="M111.235,77.435 C111.235,65.856 99.153,56.469 84.256,56.469 L84.256,100.621 C99.153,100.621 111.235,89.014 111.235,77.435" fill="#C5B7B0"/>
    <path d="M70.765,103.32 L81.288,103.32 L81.288,112.493 L70.765,112.493 z" fill="#C5B7B0"/>
    <path d="M67.799,116 C67.799,111.456 71.483,107.772 76.026,107.772 C80.571,107.772 84.256,111.456 84.256,116" fill="#C5B7B0"/>
    <path d="M88.976,103.32 L99.497,103.32 L99.497,112.493 L88.976,112.493 z" fill="#F2E0D6"/>
    <path d="M86.01,116 C86.01,111.456 89.693,107.772 94.234,107.772 C98.782,107.772 102.467,111.456 102.467,116" fill="#F2E0D6"/>
    <g id="right-ear">
      <path d="M98.016,42.752 C103.816,33.849 119.6,33.714 119.6,33.714 C119.6,33.714 121.52,53.734 112.719,60.423" fill="#5F6360"/>
      <path d="M115.148,38.705 C115.148,38.705 107.591,38.571 102.467,44.102 C97.342,49.631 111.639,55.568 111.639,55.568 C111.639,55.568 117.44,46.663 115.148,38.705" fill="#C66870"/>
    </g>
    <path d="M72.611,42.752 C66.81,33.849 51.027,33.714 51.027,33.714 C51.027,33.714 49.105,53.734 57.906,60.423" fill="#5F6360"/>
    <path d="M55.477,38.705 C55.477,38.705 63.034,38.571 68.16,44.102 C73.284,49.631 58.987,55.568 58.987,55.568 C58.987,55.568 53.187,46.663 55.477,38.705" fill="#C66870"/>
    <path d="M84.256,72.159 L84.256,36.374 C84.256,36.374 78.858,36.007 70.765,38.975 C62.671,41.943 55.927,50.846 53.77,65.416 C53.77,65.416 48.538,73.494 47.834,81.331 C47.834,81.331 54.507,83.344 60.968,87.479 C62.355,78.853 72.246,72.159 84.256,72.159" fill="#C5B7B0"/>
    <path d="M107.543,87.479 C114.003,83.344 120.677,81.331 120.677,81.331 C120.677,73.478 114.741,65.416 114.741,65.416 C112.584,50.846 105.84,41.943 97.747,38.975 C89.652,36.007 84.256,36.374 84.256,36.374 L84.256,72.159 C96.266,72.159 106.155,78.853 107.543,87.479" fill="#F2E0D6"/>
    <path d="M62.058,59.468 C62.058,59.468 74.412,55.887 74.134,68.449 C74.134,68.449 62.058,72.835 62.058,59.468" fill="#619B7D"/>
    <path d="M94.377,68.449 C94.377,68.449 106.452,72.835 106.452,59.468 C106.452,59.468 94.099,55.887 94.377,68.449" fill="#619B7D"/>
    <path d="M98.291,77.839 C98.137,77.839 97.988,77.752 97.921,77.601 C97.828,77.396 97.921,77.157 98.124,77.066 C98.854,76.738 116.066,69.057 122.527,71.788 C122.732,71.874 122.828,72.111 122.742,72.317 C122.652,72.521 122.42,72.616 122.209,72.532 C116.073,69.93 98.632,77.724 98.456,77.803 L98.291,77.839" fill="#747975"/>
    <path d="M102.259,80.827 C102.052,80.827 101.876,80.67 101.855,80.462 C101.832,80.241 101.996,80.041 102.218,80.021 C104.31,79.807 122.707,77.981 124.77,78.98 C124.971,79.08 125.058,79.319 124.96,79.52 C124.863,79.72 124.625,79.808 124.419,79.708 C123.013,79.029 110.423,80.006 102.299,80.825 L102.259,80.827" fill="#747975"/>
    <path d="M119.566,88.347 C119.458,88.347 119.347,88.3 119.267,88.212 C117.31,86.022 108.112,85.22 104.736,85.095 C104.51,85.087 104.336,84.897 104.345,84.675 C104.352,84.451 104.544,84.298 104.763,84.284 C105.273,84.304 117.286,84.779 119.87,87.672 C120.018,87.839 120.004,88.095 119.836,88.244 C119.762,88.313 119.664,88.347 119.566,88.347" fill="#747975"/>
    <path d="M70.22,77.839 C70.373,77.839 70.521,77.752 70.587,77.601 C70.681,77.396 70.589,77.157 70.387,77.066 C69.653,76.738 52.443,69.057 45.982,71.788 C45.778,71.874 45.68,72.111 45.769,72.317 C45.854,72.521 46.09,72.616 46.299,72.532 C52.437,69.93 69.877,77.724 70.054,77.803 L70.22,77.839" fill="#747975"/>
    <path d="M66.252,80.827 C66.457,80.827 66.632,80.67 66.654,80.462 C66.676,80.241 66.515,80.041 66.292,80.021 C64.201,79.807 45.802,77.981 43.739,78.98 C43.537,79.078 43.453,79.319 43.55,79.52 C43.646,79.72 43.884,79.808 44.089,79.708 C45.496,79.029 58.089,80.006 66.211,80.825 L66.252,80.827" fill="#747975"/>
    <path d="M48.94,88.347 C49.053,88.347 49.164,88.3 49.243,88.212 C51.199,86.022 60.398,85.22 63.774,85.095 C63.999,85.087 64.173,84.897 64.165,84.675 C64.155,84.451 63.966,84.298 63.747,84.284 C63.233,84.304 51.223,84.779 48.641,87.672 C48.491,87.839 48.506,88.095 48.673,88.244 C48.749,88.313 48.846,88.347 48.94,88.347" fill="#747975"/>
    <path d="M81.542,78.224 L75.492,73.795 C75.398,73.7 75.351,73.594 75.278,73.494 C67.608,75.855 61.987,81.14 60.968,87.479 C62.722,88.604 64.347,90.012 66.044,91.315 C69.771,94.17 73.19,95.901 84.256,95.901 L84.256,79.344 C83.28,79.349 82.297,78.98 81.542,78.224" fill="#C5B7B0"/>
    <path d="M93.187,73.478 L93.106,73.595 L86.771,78.311 C86.082,79.001 85.172,79.339 84.256,79.344 L84.256,95.901 C95.319,95.901 98.74,94.171 102.467,91.315 C104.165,90.012 105.79,88.604 107.543,87.479 C106.52,81.127 100.88,75.832 93.187,73.478" fill="#F2E0D6"/>
    <path d="M97.77,82.065 C97.551,81.85 97.201,81.849 96.983,82.067 C96.943,82.107 92.888,86.109 89.062,85.599 C87.368,85.364 85.944,84.269 84.811,82.311 L84.811,79.289 C85.531,79.178 86.221,78.861 86.771,78.311 L93.106,73.595 L93.187,73.478 C90.431,72.636 87.419,72.159 84.256,72.159 C81.072,72.159 78.047,72.641 75.278,73.494 C75.351,73.594 75.398,73.7 75.492,73.795 L81.542,78.224 C82.153,78.835 82.915,79.181 83.7,79.293 L83.7,82.311 C82.57,84.262 81.142,85.368 79.452,85.599 C75.628,86.113 71.567,82.107 71.525,82.067 C71.309,81.848 70.959,81.848 70.74,82.066 C70.524,82.282 70.524,82.632 70.738,82.85 C70.908,83.021 74.678,86.756 78.743,86.756 C79.028,86.756 79.312,86.739 79.598,86.699 C81.442,86.448 83.004,85.375 84.256,83.514 C85.505,85.375 87.068,86.448 88.912,86.699 C89.198,86.739 89.484,86.756 89.768,86.756 C93.832,86.756 97.602,83.021 97.77,82.85 C97.988,82.632 97.986,82.282 97.77,82.065" fill="#303331"/>
    <path d="M72.238,61.654 C72.238,62.803 71.306,63.736 70.155,63.736 C69.007,63.736 68.073,62.803 68.073,61.654 C68.073,60.504 69.007,59.572 70.155,59.572 C71.306,59.572 72.238,60.504 72.238,61.654" fill="#FFFFFE"/>
    <path d="M103.935,62.654 C103.935,63.803 103.003,64.736 101.853,64.736 C100.702,64.736 99.77,63.803 99.77,62.654 C99.77,61.504 100.702,60.572 101.853,60.572 C103.003,60.572 103.935,61.504 103.935,62.654" fill="#FFFFFE"/>
  </g>
</svg>
