<?xml version="1.0" encoding="UTF-8"?>
<!DOCTYPE svg PUBLIC "-//W3C//DTD SVG 1.1//EN" "http://www.w3.org/Graphics/SVG/1.1/DTD/svg11.dtd">
<svg version="1.1" xmlns="http://www.w3.org/2000/svg" xmlns:xlink="http://www.w3.org/1999/xlink" x="0" y="0" width="150" height="150" viewBox="0, 0, 150, 150">
  <g id="Layer_1">
    <path d="M58.731,111.169 L69.593,111.169 L69.593,126.146 L58.731,126.146 z" fill="#C5B7B0"/>
    <path d="M79.499,111.169 L90.362,111.169 L90.362,126.146 L79.499,126.146 z" fill="#F2E0D6"/>
    <path d="M64.047,128.087 C64.506,128.087 64.879,128.46 64.879,128.92 L64.879,131 L73.616,131 C73.616,125.779 69.382,121.547 64.162,121.547 C58.941,121.547 54.708,125.779 54.708,131 L63.214,131 L63.214,128.92 C63.214,128.46 63.587,128.087 64.047,128.087" fill="#303331"/>
    <path d="M84.814,128.087 C85.274,128.087 85.647,128.46 85.647,128.92 L85.647,131 L94.384,131 C94.384,125.779 90.15,121.547 84.929,121.547 C79.708,121.547 75.475,125.779 75.475,131 L83.981,131 L83.981,128.92 C83.981,128.46 84.354,128.087 84.814,128.087" fill="#303331"/>
    <path d="M74.546,102.029 C58.804,102.029 45.532,94.048 41.293,83.12 C45.532,68.506 58.804,60.519 74.546,60.519 C90.286,60.519 103.559,68.506 107.798,83.12 C103.559,94.048 90.286,102.029 74.546,102.029" fill="#CACABD"/>
    <path d="M74.546,102.029 C90.286,102.029 103.559,94.048 107.798,83.12 C103.559,68.506 90.286,60.519 74.546,60.519 C58.804,60.519 45.532,68.506 41.293,83.12 C45.532,94.048 58.804,102.029 74.546,102.029" fill="#C5B7B0"/>
    <path d="M41.293,83.12 C40.372,86.291 39.859,89.761 39.859,93.543 C39.859,108.115 55.389,119.925 74.546,119.925 L74.546,102.029 C58.804,102.029 45.532,94.048 41.293,83.12" fill="#C5B7B0"/>
    <path d="M91.888,103.69 C92.595,100.554 96.482,99.793 97.763,97.048 C99.035,94.312 106.566,90.999 109.171,94.439 C109.186,94.14 109.232,93.847 109.232,93.543 C109.232,89.761 108.718,86.291 107.798,83.12 C103.559,94.048 90.286,102.029 74.546,102.029 L74.546,119.925 C83.965,119.925 92.495,117.06 98.745,112.426 C96.963,112.136 95.163,111.377 93.593,109.778 C93.593,109.778 91.181,106.826 91.888,103.69" fill="#F2E0D6"/>
    <path d="M109.171,94.439 C106.566,90.999 99.035,94.312 97.763,97.048 C96.482,99.793 92.595,100.554 91.888,103.69 C91.181,106.826 93.593,109.778 93.593,109.778 C95.163,111.377 96.963,112.136 98.745,112.426 C104.944,107.829 108.86,101.486 109.171,94.439" fill="#303331"/>
    <path d="M56.052,104.268 C56.052,104.268 53.809,101.877 55.243,99.484 C56.677,97.092 60.525,100.316 60.525,100.316 C60.525,100.316 64.209,102.719 65.205,103.02 C69.118,104.209 68.534,108.118 63.854,109.99 C60.498,111.331 56.052,104.268 56.052,104.268" fill="#303331"/>
    <path d="M24.091,23.282 C24.091,23.282 27.17,44.44 39.09,44.44 C51.008,44.44 55.009,44.44 55.009,44.44 C55.009,44.44 49.536,23.282 37.616,23.282 C25.697,23.282 24.091,23.282 24.091,23.282" fill="#303331"/>
    <path d="M29.57,27.03 C29.57,27.03 31.557,40.691 39.251,40.691 C46.947,40.691 49.531,40.691 49.531,40.691 C49.531,40.691 45.996,27.03 38.301,27.03 C30.606,27.03 29.57,27.03 29.57,27.03" fill="#C66870"/>
    <path d="M125,23.282 C125,23.282 121.921,44.44 110.002,44.44 C98.08,44.44 94.079,44.44 94.079,44.44 C94.079,44.44 99.556,23.282 111.474,23.282 C123.391,23.282 125,23.282 125,23.282" fill="#303331"/>
    <path d="M119.521,27.03 C119.521,27.03 117.532,40.691 109.839,40.691 C102.144,40.691 99.56,40.691 99.56,40.691 C99.56,40.691 103.095,27.03 110.789,27.03 C118.484,27.03 119.521,27.03 119.521,27.03" fill="#C66870"/>
    <path d="M92.655,24.66 C91.536,25.357 79.799,33.119 80.328,51.629 C80.88,70.956 105.437,61.725 105.705,61.624 C105.839,62.796 105.945,64.001 105.985,65.298 C105.998,65.756 106.026,66.196 106.026,66.675 C106.026,82.453 92.768,95.244 74.358,95.244 L74.358,17.971 C81.43,17.971 87.842,20.589 92.655,24.66" fill="#F2E0D6"/>
    <path d="M80.328,51.629 C79.799,33.119 91.536,25.357 92.655,24.66 C97.217,28.52 100.344,33.685 101.19,39.206 C101.209,39.341 101.245,39.472 101.264,39.606 C101.264,39.606 102.435,44.733 102.913,47.314 C103.906,52.661 105.147,56.738 105.705,61.624 C105.437,61.725 80.88,70.956 80.328,51.629" fill="#303331"/>
    <path d="M56.25,24.66 C57.369,25.357 69.106,33.119 68.576,51.629 C68.024,70.956 43.467,61.725 43.199,61.624 C43.066,62.796 42.96,64.001 42.919,65.298 C42.906,65.756 42.878,66.196 42.878,66.675 C42.878,82.453 56.137,95.244 74.546,95.244 L74.546,17.971 C67.474,17.971 61.063,20.589 56.25,24.66" fill="#C5B7B0"/>
    <path d="M68.576,51.629 C69.106,33.119 57.369,25.357 56.25,24.66 C51.687,28.52 48.561,33.685 47.715,39.206 C47.695,39.341 47.659,39.472 47.641,39.606 C47.641,39.606 46.47,44.733 45.991,47.314 C44.998,52.661 43.756,56.738 43.199,61.624 C43.467,61.725 68.024,70.956 68.576,51.629" fill="#303331"/>
    <path d="M100.619,80.102 C100.619,89.524 88.946,97.161 74.546,97.161 C60.144,97.161 48.472,89.524 48.472,80.102 C48.472,70.681 60.144,63.043 74.546,63.043 C88.946,63.043 100.619,70.681 100.619,80.102" fill="#EA9291"/>
    <path d="M62.732,77.467 C62.732,79.536 61.056,81.211 58.987,81.211 C56.92,81.211 55.243,79.536 55.243,77.467 C55.243,75.398 56.92,73.723 58.987,73.723 C61.056,73.723 62.732,75.398 62.732,77.467" fill="#C66870"/>
    <path d="M93.936,77.467 C93.936,79.536 92.26,81.211 90.191,81.211 C88.123,81.211 86.447,79.536 86.447,77.467 C86.447,75.398 88.123,73.723 90.191,73.723 C92.26,73.723 93.936,75.398 93.936,77.467" fill="#C66870"/>
    <path d="M96.536,46.4 C96.536,49.667 93.889,52.317 90.62,52.317 C87.351,52.317 84.703,49.667 84.703,46.4 C84.703,43.131 87.351,40.481 90.62,40.481 C93.889,40.481 96.536,43.131 96.536,46.4" fill="#F1EAE8"/>
    <path d="M94.781,46.4 C94.781,48.697 92.918,50.559 90.618,50.559 C88.322,50.559 86.458,48.697 86.458,46.4 C86.458,44.1 88.322,42.239 90.618,42.239 C92.918,42.239 94.781,44.1 94.781,46.4" fill="#303331"/>
    <path d="M66.233,46.4 C66.233,49.667 63.585,52.317 60.316,52.317 C57.048,52.317 54.4,49.667 54.4,46.4 C54.4,43.131 57.048,40.481 60.316,40.481 C63.585,40.481 66.233,43.131 66.233,46.4" fill="#C5B7B0"/>
    <path d="M64.476,46.4 C64.476,48.697 62.613,50.559 60.316,50.559 C58.017,50.559 56.156,48.697 56.156,46.4 C56.156,44.1 58.017,42.239 60.316,42.239 C62.613,42.239 64.476,44.1 64.476,46.4" fill="#303331"/>
    <path d="M63.394,45.151 C63.394,45.994 62.711,46.678 61.867,46.678 C61.023,46.678 60.34,45.994 60.34,45.151 C60.34,44.308 61.023,43.624 61.867,43.624 C62.711,43.624 63.394,44.308 63.394,45.151" fill="#FFFFFE"/>
    <path d="M93.416,45.151 C93.416,45.994 92.733,46.678 91.889,46.678 C91.045,46.678 90.362,45.994 90.362,45.151 C90.362,44.308 91.045,43.624 91.889,43.624 C92.733,43.624 93.416,44.308 93.416,45.151" fill="#FFFFFE"/>
  </g>
</svg>
