<?xml version="1.0" encoding="UTF-8"?>
<!DOCTYPE svg PUBLIC "-//W3C//DTD SVG 1.1//EN" "http://www.w3.org/Graphics/SVG/1.1/DTD/svg11.dtd">
<svg version="1.1" xmlns="http://www.w3.org/2000/svg" xmlns:xlink="http://www.w3.org/1999/xlink" x="0" y="0" width="150" height="150" viewBox="0, 0, 150, 150">
  <g id="Layer_1">
    <path d="M56.925,107.508 L70.75,107.508 L70.75,122.481 L56.925,122.481 z" fill="#775749"/>
    <path d="M77.329,107.508 L91.158,107.508 L91.158,122.481 L77.329,122.481 z" fill="#A27767"/>
    <path d="M63.835,117.253 C58.454,117.253 54.093,121.617 54.093,127 L73.584,127 C73.584,121.617 69.219,117.253 63.835,117.253" fill="#775749"/>
    <path d="M84.245,117.253 C78.862,117.253 74.497,121.617 74.497,127 L93.989,127 C93.989,121.617 89.624,117.253 84.245,117.253" fill="#A27767"/>
    <path d="M74.1,105.214 C62.591,105.214 52.887,99.379 49.787,91.387 C52.887,80.704 62.591,74.861 74.1,74.861 C85.608,74.861 95.313,80.704 98.412,91.387 C95.313,99.379 85.608,105.214 74.1,105.214" fill="#CACABD"/>
    <path d="M74.1,105.214 C85.608,105.214 95.313,99.378 98.412,91.387 C95.313,80.704 85.608,74.861 74.1,74.861 C62.591,74.861 52.887,80.704 49.787,91.387 C52.887,99.378 62.591,105.214 74.1,105.214" fill="#775749"/>
    <path d="M49.787,91.387 C49.115,93.705 48.738,96.244 48.738,99.01 C48.738,109.663 60.093,118.299 74.1,118.299 L74.1,105.214 C62.591,105.214 52.887,99.378 49.787,91.387" fill="#775749"/>
    <path d="M98.353,91.387 C99.029,93.705 99.403,96.244 99.403,99.01 C99.403,109.663 88.049,118.299 74.04,118.299 L74.04,105.214 C85.55,105.214 95.252,99.378 98.353,91.387" fill="#A27767"/>
    <path d="M53.623,35.639 C52.521,34.475 51.051,33.161 49.799,32.446 L49.385,32.214 C49.314,32.503 49.146,33.077 49.02,33.749 C48.799,35.145 48.822,36.581 48.857,38.545 C48.898,40.487 48.924,42.854 48.736,45.279 C48.556,47.711 48.185,50.184 47.673,52.568 C46.641,57.354 45.105,61.826 43.393,66.091 L43.292,66.345 C41.13,71.733 35.009,74.35 29.621,72.19 C24.232,70.028 21.616,63.907 23.777,58.518 C24.144,57.601 24.66,56.727 25.234,55.981 C27.534,53.02 29.611,50.015 31.257,46.97 C32.081,45.442 32.791,43.914 33.4,42.286 C34.018,40.654 34.509,38.908 35.071,36.749 C35.628,34.617 36.361,31.948 37.612,29.469 C38.22,28.211 38.932,26.894 40.068,25.499 C40.639,24.807 41.332,24.09 42.227,23.424 C43.117,22.766 44.224,22.16 45.472,21.832 C46.711,21.489 48.013,21.445 49.133,21.614 C50.262,21.779 51.212,22.125 52.028,22.511 C53.643,23.302 54.768,24.25 55.743,25.188 C56.708,26.132 57.505,27.095 58.227,28.074 C58.961,29.077 59.557,29.993 60.225,31.157 C61.326,33.069 60.667,35.51 58.755,36.61 C57.122,37.549 55.104,37.206 53.864,35.895 L53.623,35.639" fill="#5A372C"/>
    <path d="M94.394,35.639 C95.497,34.475 96.969,33.161 98.22,32.446 L98.634,32.214 C98.704,32.503 98.873,33.077 98.998,33.749 C99.22,35.145 99.198,36.581 99.161,38.545 C99.119,40.487 99.096,42.854 99.283,45.279 C99.463,47.711 99.832,50.184 100.345,52.568 C101.377,57.354 102.913,61.826 104.625,66.091 L104.727,66.345 C106.888,71.733 113.009,74.35 118.397,72.19 C123.786,70.028 126.403,63.907 124.242,58.518 C123.873,57.601 123.359,56.727 122.785,55.981 C120.484,53.02 118.407,50.015 116.762,46.97 C115.938,45.442 115.228,43.914 114.618,42.286 C114.001,40.654 113.509,38.908 112.947,36.749 C112.39,34.617 111.658,31.948 110.407,29.469 C109.799,28.211 109.086,26.894 107.951,25.499 C107.379,24.807 106.687,24.09 105.792,23.424 C104.902,22.766 103.794,22.16 102.547,21.832 C101.308,21.489 100.006,21.445 98.886,21.614 C97.757,21.779 96.807,22.125 95.991,22.511 C94.376,23.302 93.251,24.25 92.276,25.188 C91.311,26.132 90.513,27.095 89.792,28.074 C89.057,29.077 88.46,29.993 87.792,31.157 C86.693,33.069 87.351,35.51 89.263,36.61 C90.896,37.549 92.915,37.206 94.154,35.895 L94.394,35.639" fill="#5A372C"/>
    <path d="M101.868,53.647 C101.401,51.138 100.261,46.15 100.261,46.15 C98.103,34.28 87.651,25.107 74.094,25.107 L74.094,100.267 C91.997,100.267 104.896,87.827 104.896,72.48 C104.896,65.204 103.147,60.539 101.868,53.647" fill="#A27767"/>
    <path d="M46.335,53.647 C46.8,51.138 47.938,46.15 47.938,46.15 C50.097,34.28 60.55,25.107 74.112,25.107 L74.112,100.267 C56.205,100.267 43.308,87.827 43.308,72.48 C43.308,65.204 45.056,60.539 46.335,53.647" fill="#775749"/>
    <path d="M73.305,90.038 L74.415,90.038 L74.415,96.439 L73.305,96.439 z" fill="#230D0E"/>
    <path d="M90.351,78.977 C90.351,85.086 83.08,90.038 74.112,90.038 C65.139,90.038 57.867,85.086 57.867,78.977 C57.867,72.868 65.139,67.916 74.112,67.916 C83.08,67.916 90.351,72.868 90.351,78.977" fill="#5A372C"/>
    <path d="M86.725,80.087 C86.338,80.087 85.961,79.885 85.757,79.524 C83.622,75.748 78.327,74.403 78.273,74.39 C77.678,74.243 77.314,73.642 77.461,73.046 C77.607,72.45 78.211,72.085 78.805,72.234 C79.06,72.297 85.089,73.829 87.69,78.43 C87.993,78.964 87.804,79.642 87.27,79.943 C87.098,80.041 86.91,80.087 86.725,80.087" fill="#F8E6DE"/>
    <path d="M73.749,73.614 L72.874,73.614 C72.26,73.614 71.764,73.116 71.764,72.503 C71.764,71.889 72.26,71.392 72.874,71.392 L73.749,71.392 C74.363,71.392 74.86,71.889 74.86,72.503 C74.86,73.116 74.363,73.614 73.749,73.614" fill="#F8E6DE"/>
    <path d="M73.584,97.549 C67.56,97.549 65.136,95.269 65.036,95.172 C64.816,94.96 64.811,94.607 65.023,94.388 C65.237,94.169 65.585,94.16 65.806,94.372 C65.828,94.393 68.056,96.439 73.584,96.439 C78.662,96.439 81.376,94.357 81.403,94.336 C81.645,94.15 81.993,94.189 82.182,94.43 C82.371,94.672 82.329,95.021 82.088,95.211 C81.967,95.306 79.042,97.549 73.584,97.549" fill="#28100F"/>
    <path d="M92.825,54.977 C92.825,57.794 91.016,60.076 88.778,60.076 C86.543,60.076 84.731,57.794 84.731,54.977 C84.731,52.161 86.543,49.878 88.778,49.878 C91.016,49.878 92.825,52.161 92.825,54.977" fill="#28100F"/>
    <path d="M63.35,54.977 C63.35,57.794 61.538,60.076 59.303,60.076 C57.066,60.076 55.258,57.794 55.258,54.977 C55.258,52.161 57.066,49.878 59.303,49.878 C61.538,49.878 63.35,52.161 63.35,54.977" fill="#28100F"/>
    <path d="M59.304,52.672 C59.304,53.527 59.954,54.22 60.758,54.22 C61.562,54.22 62.213,53.527 62.213,52.672 C62.213,51.818 61.562,51.125 60.758,51.125 C59.954,51.125 59.304,51.818 59.304,52.672" fill="#FFFFFE"/>
    <path d="M88.897,52.672 C88.897,53.527 89.547,54.22 90.351,54.22 C91.154,54.22 91.805,53.527 91.805,52.672 C91.805,51.818 91.154,51.125 90.351,51.125 C89.547,51.125 88.897,51.818 88.897,52.672" fill="#FFFFFE"/>
  </g>
</svg>
