<?xml version="1.0" encoding="UTF-8"?>
<!DOCTYPE svg PUBLIC "-//W3C//DTD SVG 1.1//EN" "http://www.w3.org/Graphics/SVG/1.1/DTD/svg11.dtd">
<svg version="1.1" xmlns="http://www.w3.org/2000/svg" xmlns:xlink="http://www.w3.org/1999/xlink" x="0" y="0" width="150" height="150" viewBox="0, 0, 150, 150">
  <g id="Layer_1">
    <path d="M93.916,46.14 C93.916,46.14 89.678,25.547 94.918,3.335 C94.918,3.335 96.869,-4.745 101.018,4.141 C105.168,13.027 116.177,37.945 108.799,56.909 L93.916,46.14" fill="#4F7086"/>
    <path d="M97.558,43.948 C97.558,43.948 95.25,29.869 96.742,12.286 C96.742,12.286 97.832,3.251 100.344,9.573 C106.11,24.083 109.662,41.68 106.366,50.701 L97.558,43.948" fill="#C66870"/>
    <path d="M72.579,46.14 C72.579,46.14 78.49,25.963 75.086,3.397 C75.086,3.397 73.804,-4.816 68.94,3.7 C64.076,12.217 51.063,36.148 56.863,55.654 L72.579,46.14" fill="#4F7086"/>
    <path d="M69.13,43.657 C69.13,43.657 72.582,29.814 72.535,12.168 C72.535,12.168 72.189,3.075 69.168,9.169 C62.233,23.158 57.313,40.421 59.858,49.684 L69.13,43.657" fill="#C66870"/>
    <path d="M83.373,122.65 C71.54,122.65 61.564,116.65 58.379,108.435 C61.564,97.45 71.54,91.446 83.373,91.446 C95.205,91.446 105.182,97.45 108.37,108.435 C105.182,116.65 95.205,122.65 83.373,122.65" fill="#CACABD"/>
    <path d="M83.373,122.65 C95.206,122.65 105.182,116.65 108.37,108.435 C105.182,97.45 95.206,91.446 83.373,91.446 C71.54,91.446 61.563,97.45 58.379,108.435 C61.563,116.65 71.54,122.65 83.373,122.65" fill="#29425B"/>
    <path d="M58.379,108.435 C57.685,110.82 57.298,113.428 57.298,116.271 C57.298,127.224 64.071,136.102 83.373,136.102 L83.373,122.65 C71.54,122.65 61.563,116.65 58.379,108.435" fill="#29425B"/>
    <path d="M108.308,108.435 C108.999,110.82 109.385,113.428 109.385,116.271 C109.385,127.224 102.764,136.658 83.312,136.102 L83.312,122.65 C95.144,122.65 105.121,116.65 108.308,108.435" fill="#4F7086"/>
    <path d="M67.558,129.169 L78.42,129.169 L78.42,144.146 L67.558,144.146 z" fill="#29425B"/>
    <path d="M88.325,129.169 L99.189,129.169 L99.189,144.146 L88.325,144.146 z" fill="#4F7086"/>
    <path d="M72.876,146.087 C73.334,146.087 73.707,146.46 73.707,146.92 L73.707,149 L82.446,149 C82.446,143.779 78.211,139.547 72.989,139.547 C67.768,139.547 63.534,143.779 63.534,149 L72.043,149 L72.043,146.92 C72.043,146.46 72.414,146.087 72.876,146.087" fill="#303331"/>
    <path d="M93.641,146.087 C94.102,146.087 94.475,146.46 94.475,146.92 L94.475,149 L103.211,149 C103.211,143.779 98.979,139.547 93.756,139.547 C88.536,139.547 84.304,143.779 84.304,149 L92.81,149 L92.81,146.92 C92.81,146.46 93.181,146.087 93.641,146.087" fill="#303331"/>
    <path d="M84.933,30.523 C85.182,32.001 85.02,33.202 84.734,34.319 C84.431,35.425 83.967,36.422 83.362,37.325 C82.759,38.229 82.01,39.035 81.1,39.732 C80.173,40.418 79.12,41.018 77.651,41.34 C77.395,39.858 77.555,38.656 77.841,37.539 C78.145,36.435 78.611,35.437 79.221,34.537 C79.831,33.639 80.577,32.832 81.488,32.135 C82.418,31.45 83.468,30.847 84.933,30.523" fill="#29425B"/>
    <path d="M89.836,32.824 C90.087,34.302 89.925,35.503 89.641,36.62 C89.335,37.726 88.871,38.724 88.266,39.627 C87.663,40.53 86.914,41.336 86.003,42.033 C85.078,42.719 84.025,43.321 82.555,43.641 C82.301,42.159 82.459,40.957 82.748,39.841 C83.051,38.735 83.516,37.738 84.125,36.839 C84.734,35.939 85.483,35.133 86.392,34.436 C87.322,33.75 88.372,33.148 89.836,32.824" fill="#4F7086"/>
    <path d="M111.89,66.425 C111.411,63.844 110.237,58.717 110.237,58.717 C108.02,46.512 97.273,37.081 83.333,37.081 L83.333,114.355 C101.741,114.355 115,101.564 115,85.785 C115,78.304 113.202,73.509 111.89,66.425" fill="#4F7086"/>
    <path d="M54.795,66.425 C55.272,63.844 56.445,58.717 56.445,58.717 C58.664,46.512 69.409,37.081 83.351,37.081 L83.351,114.355 C64.943,114.355 51.685,101.564 51.685,85.785 C51.685,78.304 53.482,73.509 54.795,66.425" fill="#29425B"/>
    <path d="M109.406,99.213 C109.406,108.634 97.733,116.271 83.333,116.271 C68.934,116.271 57.259,108.634 57.259,99.213 C57.259,89.791 68.934,82.155 83.333,82.155 C97.733,82.155 109.406,89.791 109.406,99.213" fill="#8B8D89"/>
    <path d="M71.519,96.577 C71.519,98.646 69.843,100.322 67.774,100.322 C65.706,100.322 64.03,98.646 64.03,96.577 C64.03,94.509 65.706,92.833 67.774,92.833 C69.843,92.833 71.519,94.509 71.519,96.577" fill="#303331"/>
    <path d="M102.724,96.577 C102.724,98.646 101.047,100.322 98.977,100.322 C96.911,100.322 95.234,98.646 95.234,96.577 C95.234,94.509 96.911,92.833 98.977,92.833 C101.047,92.833 102.724,94.509 102.724,96.577" fill="#303331"/>
    <path d="M75.086,65.509 C75.086,68.814 72.41,71.493 69.103,71.493 C65.8,71.493 63.12,68.814 63.12,65.509 C63.12,62.204 65.8,59.526 69.103,59.526 C72.41,59.526 75.086,62.203 75.086,65.509" fill="#8B8D89"/>
    <path d="M105.39,65.509 C105.39,68.814 102.713,71.493 99.407,71.493 C96.104,71.493 93.424,68.814 93.424,65.509 C93.424,62.204 96.104,59.526 99.407,59.526 C102.713,59.526 105.39,62.203 105.39,65.509" fill="#8B8D89"/>
    <path d="M72.452,65.509 C72.452,67.36 70.955,68.859 69.103,68.859 C67.254,68.859 65.754,67.36 65.754,65.509 C65.754,63.66 67.254,62.161 69.103,62.161 C70.955,62.161 72.452,63.66 72.452,65.509" fill="#303331"/>
    <path d="M102.756,65.509 C102.756,67.36 101.258,68.859 99.407,68.859 C97.559,68.859 96.058,67.36 96.058,65.509 C96.058,63.66 97.559,62.161 99.407,62.161 C101.258,62.161 102.756,63.66 102.756,65.509" fill="#303331"/>
    <path d="M71.519,64.446 C71.519,65.099 70.991,65.63 70.336,65.63 C69.682,65.63 69.153,65.099 69.153,64.446 C69.153,63.793 69.682,63.263 70.336,63.263 C70.991,63.263 71.519,63.793 71.519,64.446" fill="#FFFFFE"/>
    <path d="M101.774,64.446 C101.774,65.099 101.245,65.63 100.59,65.63 C99.936,65.63 99.407,65.099 99.407,64.446 C99.407,63.793 99.936,63.263 100.59,63.263 C101.245,63.263 101.774,63.793 101.774,64.446" fill="#FFFFFE"/>
    <path d="M77.999,112.957 C77.999,115.274 79.061,115.23 80.445,115.402 C81.978,115.506 82.892,115.511 82.892,112.957 L82.892,111.4 C82.892,111.662 77.999,111.039 77.999,111.039 L77.999,112.957" fill="#F2E0D6"/>
    <path d="M88.685,112.957 C88.685,115.274 87.622,115.23 86.239,115.402 C84.706,115.506 83.793,115.511 83.793,112.957 L83.793,111.4 C83.793,111.662 88.685,111.039 88.685,111.039 L88.685,112.957" fill="#F2E0D6"/>
    <path d="M83.705,112.4 C72.739,112.4 65.075,106.701 64.754,106.458 C64.509,106.272 64.461,105.925 64.646,105.68 C64.83,105.435 65.178,105.388 65.424,105.572 C65.498,105.629 73.126,111.289 83.705,111.289 C94.263,111.289 101.171,105.645 101.24,105.588 C101.475,105.393 101.825,105.423 102.022,105.66 C102.218,105.895 102.186,106.244 101.952,106.441 C101.66,106.684 94.684,112.4 83.705,112.4" fill="#303331"/>
    <path d="M33.024,126.556 C34.591,125.857 39.153,123.84 44.682,126.641 C47.118,127.878 48.493,128.934 49.526,129.743 C50.55,130.572 52.437,132.599 53.215,134.135 C51.646,134.841 51.387,135.137 49.383,135.78 C48.133,136.178 46.287,136.357 45.116,135.942 C43.945,135.527 42.693,135.052 41.166,133.72 C40.139,132.885 36.169,127.302 33.024,126.556" fill="#303331"/>
    <path d="M52.081,135.266 C51.37,135.266 50.632,135.207 49.863,135.083 C48.35,134.839 47.321,133.414 47.566,131.901 C47.81,130.388 49.235,129.359 50.749,129.601 C59.714,131.043 63.199,115.822 63.233,115.667 C63.566,114.172 65.047,113.226 66.546,113.561 C68.043,113.894 68.986,115.377 68.653,116.874 C68.476,117.666 64.407,135.266 52.081,135.266" fill="#29425B"/>
  </g>
</svg>
