<?xml version="1.0" encoding="UTF-8"?>
<!DOCTYPE svg PUBLIC "-//W3C//DTD SVG 1.1//EN" "http://www.w3.org/Graphics/SVG/1.1/DTD/svg11.dtd">
<svg version="1.1" xmlns="http://www.w3.org/2000/svg" xmlns:xlink="http://www.w3.org/1999/xlink" x="0" y="0" width="150" height="150" viewBox="0, 0, 150, 150">
  <g id="Layer_1">
    <path d="M44.927,126.302 C43.949,126.302 43.156,125.508 43.156,124.532 C43.156,123.553 43.949,122.759 44.927,122.759 C45.906,122.759 46.699,123.553 46.699,124.532 C46.699,125.508 45.906,126.302 44.927,126.302 z M61.221,106.192 C59.362,106.192 57.854,107.7 57.854,109.559 C57.854,116.361 52.32,121.896 45.517,121.896 C41.986,121.896 38.802,120.402 36.554,118.016 C35.924,118.657 35.048,119.06 34.081,119.06 C32.167,119.06 30.613,117.503 30.613,115.591 C30.613,113.886 31.85,112.473 33.473,112.182 C33.387,111.794 33.318,111.4 33.271,110.998 C29.931,112.506 27.712,111.678 26.512,110.828 C26.857,116.066 29.338,120.722 33.073,123.96 C33.949,122.065 36.083,121.006 38.163,121.563 C39.284,121.866 40.219,122.588 40.792,123.594 C41.365,124.602 41.51,125.771 41.199,126.893 L38.604,126.171 C38.723,125.748 38.667,125.307 38.453,124.929 C38.235,124.55 37.883,124.277 37.459,124.162 C36.568,123.927 35.659,124.449 35.415,125.332 C35.381,125.454 35.392,125.572 35.388,125.696 C38.323,127.55 41.793,128.629 45.517,128.629 C56.032,128.629 64.587,120.074 64.587,109.559 C64.587,107.7 63.08,106.192 61.221,106.192" fill="#BA7A39"/>
    <path d="M33.305,115.591 C33.305,116.018 33.654,116.365 34.081,116.365 C34.473,116.365 34.784,116.069 34.836,115.692 C34.552,115.199 34.296,114.688 34.081,114.156 L34.081,114.814 C33.654,114.814 33.305,115.163 33.305,115.591" fill="#BA7A39"/>
    <path d="M33.271,110.998 C33.214,110.523 33.179,110.046 33.179,109.559 C33.179,108.143 33.417,106.755 33.887,105.433 C34.508,103.679 33.591,101.756 31.839,101.135 C30.087,100.514 28.165,101.428 27.54,103.181 C26.815,105.229 26.447,107.376 26.447,109.559 C26.447,109.985 26.483,110.408 26.512,110.828 C27.712,111.678 29.931,112.506 33.271,110.998" fill="#311413"/>
    <path d="M30.613,115.591 C30.613,117.503 32.167,119.06 34.081,119.06 C35.048,119.06 35.924,118.657 36.554,118.016 C35.892,117.316 35.319,116.533 34.836,115.692 C34.784,116.069 34.473,116.365 34.081,116.365 C33.654,116.365 33.305,116.018 33.305,115.591 C33.305,115.163 33.654,114.814 34.081,114.814 L34.081,114.156 C33.825,113.523 33.621,112.864 33.473,112.182 C31.85,112.473 30.613,113.886 30.613,115.591" fill="#311413"/>
    <path d="M37.459,124.162 C37.883,124.277 38.235,124.55 38.453,124.929 C38.667,125.307 38.723,125.748 38.604,126.171 L41.199,126.893 C41.51,125.771 41.365,124.602 40.792,123.594 C40.219,122.588 39.284,121.866 38.163,121.563 C36.083,121.006 33.949,122.065 33.073,123.96 C33.801,124.593 34.568,125.179 35.388,125.696 C35.392,125.572 35.381,125.454 35.415,125.332 C35.659,124.449 36.568,123.927 37.459,124.162" fill="#311413"/>
    <path d="M44.927,122.759 C43.949,122.759 43.156,123.553 43.156,124.532 C43.156,125.508 43.949,126.302 44.927,126.302 C45.906,126.302 46.699,125.508 46.699,124.532 C46.699,123.553 45.906,122.759 44.927,122.759" fill="#311413"/>
    <path d="M92.715,104.732 C92.715,102.82 94.271,101.263 96.185,101.263 L96.185,103.957 C95.757,103.957 95.409,104.305 95.409,104.732 C95.409,105.161 95.757,105.508 96.185,105.508 C96.611,105.508 96.959,105.161 96.959,104.732 L99.359,104.732 C101.334,101.147 102.551,97.089 102.739,92.75 C97.153,101.114 87.041,106.729 75.448,106.758 L75.448,118.909 C77.121,118.909 78.75,118.737 80.34,118.45 L80.34,120.182 C77.714,122.227 76.016,125.413 76.016,129 L98.387,129 C98.387,125.413 96.69,122.227 94.066,120.182 L94.066,111.559 C95.225,110.478 96.278,109.287 97.235,108.021 C96.902,108.128 96.554,108.201 96.185,108.201 C94.271,108.201 92.715,106.645 92.715,104.732" fill="#EB9742"/>
    <path d="M96.959,104.732 C96.959,105.161 96.611,105.508 96.185,105.508 C95.757,105.508 95.409,105.161 95.409,104.732 C95.409,104.305 95.757,103.957 96.185,103.957 L96.185,101.263 C94.271,101.263 92.715,102.82 92.715,104.732 C92.715,106.645 94.271,108.201 96.185,108.201 C96.554,108.201 96.902,108.128 97.235,108.021 C98.021,106.98 98.725,105.88 99.359,104.732 L96.959,104.732" fill="#311413"/>
    <path d="M53.857,99.196 C53.757,99.117 53.661,99.034 53.563,98.951 C53.661,99.034 53.757,99.117 53.857,99.196" fill="#BA7A39"/>
    <path d="M59.9,103.137 L59.9,103.136 L59.871,103.12 L59.9,103.137" fill="#BA7A39"/>
    <path d="M50.656,96.15 C51.053,96.59 51.46,97.018 51.883,97.435 C51.46,97.018 51.053,96.59 50.656,96.15 z M49.458,94.744 C49.808,95.183 50.166,95.614 50.54,96.033 C50.166,95.614 49.808,95.183 49.458,94.744 z M48.098,91.557 C48.098,92.055 48.147,92.535 48.174,93.024 C48.532,93.548 48.909,94.059 49.303,94.56 C48.909,94.059 48.532,93.548 48.174,93.024 C48.401,97.237 49.598,101.182 51.514,104.677 C52.182,104.594 52.861,104.705 53.476,105.011 C54.309,105.424 54.927,106.135 55.224,107.013 C55.517,107.89 55.454,108.831 55.041,109.662 L55.017,109.697 C55.595,110.346 56.199,110.968 56.834,111.559 L56.834,120.182 C54.21,122.227 52.513,125.413 52.513,129 L74.88,129 C74.88,125.413 73.186,122.227 70.559,120.182 L70.559,118.45 C72.148,118.737 73.775,118.909 75.448,118.909 L75.448,106.758 L75.365,106.761 C69.747,106.761 64.481,105.438 59.9,103.136 L59.9,103.137 L59.871,103.12 C59.146,102.755 58.439,102.365 57.751,101.952 L57.663,101.898 C56.99,101.488 56.332,101.062 55.696,100.609 L55.642,100.574 C55.028,100.137 54.434,99.676 53.857,99.196 C53.757,99.117 53.661,99.034 53.563,98.951 C53,98.474 52.449,97.984 51.923,97.473 C52.449,97.984 53,98.474 53.563,98.951 C53.661,99.034 53.757,99.117 53.857,99.196 C54.434,99.674 55.028,100.137 55.642,100.574 L55.696,100.609 C56.332,101.062 56.99,101.49 57.663,101.898 L57.751,101.952 C58.439,102.365 59.146,102.755 59.871,103.12 L59.9,103.136 C59.594,101.321 59.32,99.411 59.022,97.406 C61.172,98.058 63.456,98.681 65.882,99.25 L65.875,99.265 C67.703,100.179 69.605,101.208 71.58,102.365 C72.842,103.106 74.126,103.883 75.448,104.732 L75.448,64.205 C60.343,64.205 48.098,76.453 48.098,91.557" fill="#BA7A39"/>
    <path d="M57.751,101.952 L57.663,101.898 L57.751,101.952" fill="#BA7A39"/>
    <path d="M55.696,100.609 L55.642,100.574 L55.696,100.609" fill="#BA7A39"/>
    <path d="M55.224,107.013 C54.927,106.135 54.309,105.424 53.476,105.011 C52.861,104.705 52.182,104.594 51.514,104.677 C52.502,106.478 53.663,108.171 55.017,109.697 L55.041,109.662 C55.454,108.831 55.517,107.89 55.224,107.013" fill="#311413"/>
    <path d="M75.448,64.205 L75.448,92.807 L75.451,92.807 L75.451,104.732 C76.773,103.883 78.056,103.106 79.323,102.365 C81.294,101.208 83.196,100.179 85.026,99.265 C87.504,98.684 89.832,98.054 92.017,97.386 C91.73,99.329 91.473,101.193 91.186,102.958 C95.93,100.502 99.914,96.98 102.739,92.75 C102.757,92.351 102.802,91.96 102.802,91.557 C102.802,76.453 90.557,64.205 75.448,64.205" fill="#BA7A39"/>
    <path d="M75.451,98.001 L75.448,98.001 C74.126,97.149 60.929,97.189 58.783,96.533 C59.079,98.539 59.594,101.322 59.9,103.137 C61.467,112.444 63.948,118.909 75.448,118.909 L75.448,106.758 C81.18,106.741 86.546,105.359 91.186,102.958 C91.473,101.193 91.799,98.613 92.085,96.672 C89.901,97.339 76.773,97.149 75.451,98.001" fill="#C6C6A2"/>
    <path d="M91.186,102.958 C86.546,105.359 81.18,106.741 75.448,106.758 L75.448,118.909 C87.288,118.909 89.65,112.366 91.186,102.958" fill="#F1F0C5"/>
    <path d="M56.301,96.416 C55.596,95.816 54.709,95.534 53.774,95.602 C52.851,95.679 52.012,96.107 51.413,96.813 C50.812,97.52 50.525,98.418 50.598,99.343 C50.674,100.265 51.104,101.102 51.811,101.703 C52.443,102.242 53.23,102.53 54.05,102.53 C54.146,102.53 54.24,102.526 54.338,102.519 L54.119,99.834 C53.916,99.848 53.712,99.787 53.555,99.652 C53.397,99.518 53.3,99.331 53.285,99.124 C53.267,98.916 53.332,98.715 53.464,98.557 C53.599,98.398 53.787,98.305 53.993,98.289 C54.197,98.264 54.402,98.335 54.559,98.468 C54.718,98.602 54.812,98.791 54.828,98.997 L57.514,98.779 C57.439,97.856 57.011,97.015 56.301,96.416" fill="#311413"/>
    <path d="M57.751,106.339 C58.729,106.339 59.523,105.545 59.523,104.566 C59.523,103.59 58.729,102.794 57.751,102.794 C56.773,102.794 55.981,103.59 55.981,104.566 C55.981,105.545 56.773,106.339 57.751,106.339" fill="#311413"/>
    <path d="M99.678,97.348 C98.699,97.348 97.906,98.142 97.906,99.119 C97.906,100.098 98.699,100.89 99.678,100.89 C100.655,100.89 101.449,100.098 101.449,99.119 C101.449,98.142 100.655,97.348 99.678,97.348" fill="#311413"/>
    <path d="M70.45,93.555 L70.466,93.579 L70.453,93.553 L70.45,93.555" fill="#000E12"/>
    <path d="M75.381,92.252 L75.415,92.249 L75.381,92.247 L75.381,92.252" fill="#95482F"/>
    <path d="M64.917,34.136 C64.917,42.18 58.396,48.703 50.351,48.703 C42.305,48.703 35.783,42.18 35.783,34.136 C35.783,26.09 42.305,19.568 50.351,19.568 C58.396,19.568 64.917,26.09 64.917,34.136" fill="#9C5937"/>
    <path d="M58.748,34.136 C58.748,38.773 54.989,42.533 50.351,42.533 C45.712,42.533 41.952,38.773 41.952,34.136 C41.952,29.498 45.712,25.737 50.351,25.737 C54.989,25.737 58.748,29.498 58.748,34.136" fill="#311413"/>
    <path d="M114.246,34.136 C114.246,42.18 107.724,48.703 99.678,48.703 C91.634,48.703 85.111,42.18 85.111,34.136 C85.111,26.09 91.634,19.568 99.678,19.568 C107.724,19.568 114.246,26.09 114.246,34.136" fill="#EB9742"/>
    <path d="M108.078,34.136 C108.078,38.773 104.316,42.533 99.678,42.533 C95.041,42.533 91.28,38.773 91.28,34.136 C91.28,29.498 95.041,25.737 99.678,25.737 C104.316,25.737 108.078,29.498 108.078,34.136" fill="#311413"/>
    <path d="M64.917,34.136 C64.917,42.18 58.396,48.703 50.351,48.703 C42.305,48.703 35.783,42.18 35.783,34.136 C35.783,26.09 42.305,19.568 50.351,19.568 C58.396,19.568 64.917,26.09 64.917,34.136" fill="#EB9742"/>
    <path d="M58.748,34.136 C58.748,38.773 54.989,42.533 50.351,42.533 C45.712,42.533 41.952,38.773 41.952,34.136 C41.952,29.498 45.712,25.737 50.351,25.737 C54.989,25.737 58.748,29.498 58.748,34.136" fill="#311413"/>
    <path d="M117.805,78.336 C117.914,78.399 118.025,78.462 118.133,78.526 C118.133,78.526 113.557,72.106 111.364,63.177 C111.364,43.861 102.693,26.111 75.385,26.111 L75.385,77.728 L75.366,77.738 L75.385,85.105 L75.385,86.862 L75.387,86.862 L75.419,98.791 C98.346,101.73 118.964,79.616 118.964,79.616 C118.66,79.169 118.268,78.741 117.805,78.336" fill="#EB9742"/>
    <path d="M39.45,63.177 C37.259,72.106 32.682,78.526 32.682,78.526 C32.79,78.462 32.901,78.399 33.011,78.336 C32.548,78.741 32.154,79.169 31.852,79.616 C31.852,79.616 42.73,91.273 57.467,96.533 C57.467,95.915 57.467,94.139 57.467,89.519 C57.467,84.274 58.106,81.7 58.681,80.44 C64.68,82.813 69.26,85.688 70.45,88.194 C71.934,87.37 73.618,86.862 75.431,86.862 L75.431,26.111 C48.123,26.111 39.45,43.861 39.45,63.177" fill="#BA7A39"/>
    <path d="M63.639,76.935 C62.166,77.541 60.758,78.295 59.57,79.257 C59.57,79.257 57.467,80.01 57.467,89.519 C57.467,94.139 57.467,95.915 57.467,96.533 C63.021,98.516 68.787,100.137 75.398,100.137 L75.45,77.738 C69.257,74.69 66.786,75.941 63.639,76.935" fill="#C6C6A2"/>
    <path d="M87.148,76.935 C88.62,77.541 90.032,78.295 91.218,79.257 C91.218,79.257 93.321,80.01 93.321,89.519 C93.321,94.139 93.321,95.915 93.321,96.533 C87.767,98.516 81.641,100.137 75.391,100.137 L75.338,77.738 C81.53,74.69 84.003,75.941 87.148,76.935" fill="#F1F0C5"/>
    <path d="M51.233,56.665 C51.233,56.665 66.214,52.322 65.877,67.555 C65.877,67.555 51.233,72.872 51.233,56.665" fill="#311413"/>
    <path d="M64.284,62.401 C64.284,65.47 61.796,67.956 58.729,67.956 C55.662,67.956 53.174,65.47 53.174,62.401 C53.174,59.334 55.662,56.848 58.729,56.848 C61.796,56.848 64.284,59.334 64.284,62.401" fill="#619B7D"/>
    <path d="M62.501,60.108 C62.501,61.165 61.643,62.022 60.585,62.022 C59.528,62.022 58.672,61.165 58.672,60.108 C58.672,59.049 59.528,58.193 60.585,58.193 C61.643,58.193 62.501,59.049 62.501,60.108" fill="#FFFFFE"/>
    <path d="M99.678,56.665 C99.678,56.665 84.699,52.322 85.037,67.555 C85.037,67.555 99.678,72.872 99.678,56.665" fill="#311413"/>
    <path d="M86.532,62.401 C86.532,65.47 89.019,67.956 92.085,67.956 C95.153,67.956 97.642,65.47 97.642,62.401 C97.642,59.334 95.153,56.848 92.085,56.848 C89.019,56.848 86.532,59.334 86.532,62.401" fill="#619B7D"/>
    <path d="M92.354,60.108 C92.354,61.165 93.212,62.022 94.269,62.022 C95.328,62.022 96.185,61.165 96.185,60.108 C96.185,59.049 95.328,58.193 94.269,58.193 C93.212,58.193 92.354,59.049 92.354,60.108" fill="#FFFFFE"/>
    <path d="M74.511,83.1 C73.677,82.949 72.968,82.586 72.497,82.036 C70.287,79.445 67.371,77.65 65.815,76.772 C67.331,76.312 70.468,75.599 75.366,75.599 C80.197,75.599 83.362,76.316 84.892,76.775 C82.122,78.47 79.704,80.347 78.014,82.12 C77.539,82.618 76.907,82.949 76.134,83.1 L74.511,83.1" fill="#C66870"/>
    <path d="M75.366,75.044 C67.983,75.044 64.456,76.663 64.481,76.663 L64.482,76.663 C64.566,76.783 69.032,78.83 72.076,82.397 C72.713,83.143 73.618,83.503 74.511,83.655 L76.187,83.655 C77.009,83.504 77.802,83.146 78.416,82.502 C81.594,79.167 86.155,76.689 86.196,76.642 C86.196,76.642 82.666,75.044 75.366,75.044 z M75.366,76.154 C79.088,76.154 81.8,76.585 83.516,76.985 C81.148,78.52 79.133,80.14 77.613,81.736 C77.228,82.14 76.712,82.412 76.08,82.545 L74.611,82.545 C73.858,82.402 73.29,82.11 72.92,81.677 C71.126,79.573 68.889,77.987 67.248,76.974 C68.964,76.577 71.662,76.154 75.366,76.154" fill="#311413"/>
    <path d="M74.692,87.353 C73.322,89.719 71.589,91.061 69.54,91.341 C64.904,91.963 59.98,87.105 59.93,87.057 C59.668,86.791 59.242,86.791 58.978,87.057 C58.714,87.316 58.714,87.746 58.976,88.007 C59.182,88.214 63.753,92.744 68.683,92.744 C69.027,92.744 69.373,92.723 69.719,92.675 C71.955,92.37 73.85,91.069 75.366,88.811 C76.883,91.069 78.777,92.37 81.011,92.675 C81.358,92.723 81.705,92.744 82.05,92.744 C86.978,92.744 91.549,88.214 91.753,88.007 C92.017,87.746 92.016,87.316 91.753,87.055 C91.489,86.795 91.062,86.792 90.799,87.057 C90.751,87.105 85.834,91.957 81.195,91.341 C79.142,91.055 77.414,89.726 76.038,87.353 L76.038,83.689 L76.187,83.655 L74.511,83.655 L74.692,83.692 L74.692,87.353" fill="#311413"/>
    <path d="M26.447,87.724 C26.285,87.724 26.12,87.667 25.993,87.548 C25.72,87.297 25.7,86.872 25.952,86.598 C39.251,72.088 59.895,80.21 60.1,80.296 C60.446,80.433 60.614,80.825 60.474,81.171 C60.335,81.514 59.941,81.68 59.598,81.541 C59.397,81.461 39.605,73.694 26.943,87.508 C26.81,87.65 26.628,87.724 26.447,87.724" fill="#775749"/>
    <path d="M30.826,91.96 C30.658,91.96 30.488,91.896 30.357,91.769 C30.091,91.51 30.084,91.085 30.342,90.819 C42.798,77.975 59.047,82.298 59.208,82.343 C59.566,82.444 59.778,82.813 59.677,83.171 C59.578,83.53 59.214,83.743 58.848,83.64 C58.693,83.598 43.196,79.5 31.308,91.755 C31.177,91.892 31.001,91.96 30.826,91.96" fill="#775749"/>
    <path d="M36.421,96.672 C36.288,96.672 36.152,96.634 36.034,96.55 C35.731,96.336 35.659,95.915 35.87,95.611 C44.501,83.351 58.952,84.543 59.091,84.557 C59.462,84.591 59.735,84.918 59.7,85.29 C59.664,85.658 59.358,85.932 58.966,85.896 C58.829,85.886 45.144,84.775 36.973,96.386 C36.841,96.573 36.633,96.672 36.421,96.672" fill="#775749"/>
    <path d="M123.327,87.724 C123.144,87.724 122.964,87.65 122.832,87.508 C110.169,73.694 90.377,81.462 90.177,81.541 C89.83,81.68 89.44,81.514 89.3,81.171 C89.161,80.825 89.328,80.433 89.672,80.296 C89.879,80.21 110.523,72.088 123.823,86.598 C124.074,86.872 124.056,87.297 123.782,87.548 C123.654,87.667 123.491,87.724 123.327,87.724" fill="#775749"/>
    <path d="M118.948,91.96 C118.772,91.96 118.598,91.892 118.465,91.755 C106.559,79.482 91.082,83.598 90.926,83.64 C90.565,83.742 90.197,83.53 90.098,83.173 C89.997,82.813 90.207,82.444 90.565,82.343 C90.728,82.298 106.973,77.975 119.433,90.819 C119.69,91.085 119.683,91.51 119.417,91.769 C119.287,91.896 119.117,91.96 118.948,91.96" fill="#775749"/>
    <path d="M113.352,96.672 C113.14,96.672 112.933,96.573 112.801,96.386 C104.628,84.771 90.94,85.886 90.807,85.896 C90.419,85.923 90.108,85.658 90.074,85.29 C90.04,84.918 90.313,84.591 90.684,84.557 C90.827,84.543 105.274,83.349 113.903,95.611 C114.116,95.915 114.044,96.336 113.74,96.55 C113.622,96.634 113.487,96.672 113.352,96.672" fill="#775749"/>
    <path d="M87.911,41.862 C87.163,41.313 86.248,41.085 85.331,41.227 L85.74,43.889 C85.945,43.861 86.147,43.909 86.312,44.033 C86.48,44.155 86.59,44.336 86.623,44.539 C86.686,44.962 86.393,45.359 85.972,45.423 C85.535,45.484 85.151,45.194 85.088,44.774 L82.425,45.18 C82.686,46.892 84.168,48.125 85.853,48.125 C86.026,48.125 86.201,48.112 86.377,48.086 C88.269,47.798 89.571,46.025 89.283,44.134 C89.143,43.219 88.656,42.411 87.911,41.862" fill="#311413"/>
    <path d="M81.638,51.917 C80.681,51.254 79.524,51.009 78.385,51.218 C77.244,51.427 76.254,52.069 75.598,53.024 L75.45,53.294 L75.45,57.707 C75.76,58.231 76.174,58.705 76.708,59.073 L78.238,56.858 C77.488,56.34 77.299,55.304 77.816,54.55 C78.064,54.186 78.439,53.944 78.872,53.865 C79.304,53.785 79.743,53.879 80.106,54.133 C80.857,54.65 81.047,55.686 80.53,56.44 L82.748,57.965 C84.105,55.993 83.608,53.278 81.638,51.917" fill="#311413"/>
    <path d="M75.381,57.571 L75.381,53.419 C74.659,54.742 74.691,56.302 75.381,57.571" fill="#311413"/>
    <path d="M75.381,31.501 L75.45,31.501 L75.45,35.122 C76.122,35.532 76.903,35.784 77.746,35.784 C80.181,35.784 82.164,33.803 82.164,31.364 L79.472,31.364 C79.472,32.316 78.698,33.09 77.746,33.09 C76.796,33.09 76.021,32.316 76.021,31.364 C76.021,30.415 76.796,29.642 77.746,29.642 L77.746,26.948 C75.309,26.948 73.329,28.93 73.329,31.364 C73.329,32.931 74.152,34.298 75.381,35.084 L75.381,31.501" fill="#311413"/>
    <path d="M75.381,31.501 L75.415,31.501 L75.381,31.501" fill="#311413"/>
    <path d="M75.415,31.501 L75.45,31.501 L75.415,31.501" fill="#311413"/>
    <path d="M87.83,35.081 L89.455,32.934 C89.115,32.676 89.048,32.187 89.305,31.848 C89.563,31.507 90.049,31.437 90.391,31.695 C90.731,31.955 90.799,32.44 90.541,32.784 L92.691,34.406 C93.843,32.882 93.541,30.703 92.016,29.549 C90.491,28.395 88.31,28.698 87.157,30.222 C86.004,31.75 86.306,33.928 87.83,35.081" fill="#311413"/>
    <path d="M94.344,45.023 L96.216,43.09 C95.91,42.792 95.902,42.301 96.2,41.994 C96.497,41.684 96.991,41.68 97.298,41.976 C97.446,42.119 97.531,42.313 97.533,42.519 C97.538,42.727 97.459,42.924 97.315,43.071 L99.247,44.947 C99.894,44.282 100.241,43.403 100.225,42.477 C100.211,41.551 99.838,40.685 99.17,40.042 C97.797,38.712 95.599,38.747 94.266,40.12 C92.936,41.495 92.971,43.694 94.344,45.023" fill="#311413"/>
    <path d="M104.45,51.483 C104.628,51.375 104.834,51.346 105.037,51.395 C105.238,51.446 105.408,51.571 105.514,51.75 C105.62,51.928 105.651,52.136 105.603,52.336 C105.551,52.537 105.426,52.705 105.246,52.813 L106.633,55.122 C107.427,54.644 107.988,53.889 108.214,52.99 C108.437,52.09 108.3,51.16 107.822,50.363 C107.346,49.569 106.588,49.01 105.69,48.782 C104.791,48.558 103.858,48.698 103.064,49.175 C101.425,50.158 100.891,52.292 101.874,53.932 L104.183,52.548 C103.962,52.181 104.082,51.703 104.45,51.483" fill="#311413"/>
    <path d="M52.654,73.422 C52.971,73.135 53.464,73.158 53.751,73.473 C53.89,73.627 53.962,73.826 53.952,74.033 C53.942,74.238 53.853,74.429 53.698,74.569 C53.384,74.857 52.89,74.832 52.601,74.515 L50.611,76.33 C51.295,77.082 52.236,77.461 53.178,77.461 C54.013,77.461 54.849,77.164 55.511,76.558 C56.197,75.937 56.599,75.084 56.641,74.159 C56.685,73.235 56.366,72.346 55.741,71.659 C54.454,70.248 52.258,70.146 50.841,71.43 L52.654,73.422" fill="#311413"/>
    <path d="M44.927,65.871 C46.841,65.871 48.396,64.315 48.396,62.403 L45.702,62.403 C45.702,62.831 45.355,63.177 44.927,63.177 C44.499,63.177 44.151,62.831 44.151,62.403 C44.151,61.975 44.499,61.627 44.927,61.627 L44.927,58.934 C43.015,58.934 41.457,60.489 41.457,62.403 C41.457,64.315 43.015,65.871 44.927,65.871" fill="#311413"/>
    <path d="M57.511,37.555 C57.992,37.788 58.507,37.908 59.026,37.908 C59.407,37.908 59.791,37.842 60.162,37.714 L59.282,35.169 C59.086,35.236 58.873,35.223 58.69,35.133 C58.502,35.044 58.364,34.887 58.295,34.688 C58.228,34.493 58.241,34.283 58.33,34.096 C58.421,33.91 58.578,33.771 58.777,33.702 C58.97,33.635 59.182,33.647 59.37,33.739 C59.555,33.827 59.693,33.987 59.762,34.182 L62.306,33.306 C62.006,32.43 61.381,31.723 60.548,31.318 C59.713,30.911 58.772,30.854 57.898,31.157 C57.021,31.46 56.314,32.084 55.911,32.917 C55.503,33.752 55.448,34.692 55.75,35.566 C56.053,36.443 56.677,37.15 57.511,37.555" fill="#311413"/>
    <path d="M67.675,48.123 C69.587,48.123 71.142,46.568 71.142,44.656 L68.451,44.656 C68.451,45.083 68.101,45.432 67.675,45.432 C67.248,45.432 66.898,45.083 66.898,44.656 C66.898,44.227 67.248,43.881 67.675,43.881 L67.675,41.186 C65.76,41.186 64.207,42.744 64.207,44.656 C64.207,46.568 65.76,48.123 67.675,48.123" fill="#311413"/>
    <path d="M57.621,53.684 C58.051,53.826 58.494,53.899 58.934,53.899 C59.577,53.899 60.217,53.746 60.809,53.446 C62.857,52.41 63.697,49.891 62.683,47.835 C62.187,46.829 61.333,46.083 60.277,45.728 C59.217,45.375 58.086,45.457 57.087,45.965 L58.302,48.368 C58.655,48.191 59.054,48.161 59.422,48.283 C59.792,48.407 60.091,48.67 60.266,49.023 C60.632,49.765 60.331,50.672 59.594,51.043 C59.242,51.223 58.842,51.254 58.473,51.13 C58.106,51.005 57.807,50.743 57.632,50.39 L55.214,51.578 C55.71,52.584 56.565,53.331 57.621,53.684" fill="#311413"/>
    <path d="M107.402,68.39 C107.402,68.815 107.052,69.165 106.626,69.165 C106.199,69.165 105.85,68.815 105.85,68.39 C105.85,67.961 106.199,67.613 106.626,67.613 L106.626,64.921 C104.713,64.921 103.157,66.478 103.157,68.39 C103.157,70.303 104.713,71.857 106.626,71.857 C108.539,71.857 110.094,70.303 110.094,68.39 L107.402,68.39" fill="#311413"/>
    <path d="M98.489,70.949 C97.51,70.949 96.718,71.743 96.718,72.723 C96.718,73.7 97.51,74.494 98.489,74.494 C99.468,74.494 100.261,73.7 100.261,72.723 C100.261,71.743 99.468,70.949 98.489,70.949" fill="#311413"/>
    <path d="M94.125,75.047 C94.125,74.067 93.333,73.273 92.354,73.273 C91.376,73.273 90.584,74.067 90.584,75.047 C90.584,76.022 91.376,76.814 92.354,76.814 C93.333,76.814 94.125,76.022 94.125,75.047" fill="#311413"/>
    <path d="M50.351,44.306 C51.327,44.306 52.12,43.511 52.12,42.533 C52.12,41.556 51.327,40.762 50.351,40.762 C49.372,40.762 48.579,41.556 48.579,42.533 C48.579,43.511 49.372,44.306 50.351,44.306" fill="#311413"/>
    <path d="M45.549,48.654 C46.527,48.654 47.321,47.86 47.321,46.881 C47.321,45.904 46.527,45.11 45.549,45.11 C44.571,45.11 43.777,45.904 43.777,46.881 C43.777,47.86 44.571,48.654 45.549,48.654" fill="#311413"/>
    <path d="M43.777,72.723 C43.777,73.7 44.571,74.494 45.549,74.494 C46.527,74.494 47.321,73.7 47.321,72.723 C47.321,71.743 46.527,70.949 45.549,70.949 C44.571,70.949 43.777,71.743 43.777,72.723" fill="#311413"/>
    <path d="M37.01,78.036 C37.989,78.036 38.781,77.244 38.781,76.265 C38.781,75.289 37.989,74.494 37.01,74.494 C36.031,74.494 35.238,75.289 35.238,76.265 C35.238,77.244 36.031,78.036 37.01,78.036" fill="#311413"/>
    <path d="M75.338,40.462 C74.359,40.462 73.566,41.257 73.566,42.233 C73.566,43.213 74.359,44.007 75.338,44.007 L75.381,43.997 L75.381,40.47 L75.338,40.462" fill="#311413"/>
    <path d="M77.109,42.233 C77.109,41.295 76.373,40.546 75.45,40.485 L75.45,43.983 C76.373,43.922 77.109,43.174 77.109,42.233" fill="#311413"/>
    <path d="M75.45,40.485 L75.381,40.47 L75.381,43.997 L75.45,43.983 L75.45,40.485" fill="#311413"/>
    <path d="M70.777,57.965 C70.777,56.988 69.984,56.194 69.006,56.194 C68.029,56.194 67.236,56.988 67.236,57.965 C67.236,58.945 68.029,59.738 69.006,59.738 C69.984,59.738 70.777,58.945 70.777,57.965" fill="#311413"/>
    <path d="M73.329,62.433 C72.35,62.433 71.557,63.227 71.557,64.205 C71.557,65.183 72.35,65.977 73.329,65.977 C74.307,65.977 75.1,65.183 75.1,64.205 C75.1,63.227 74.307,62.433 73.329,62.433" fill="#311413"/>
    <path d="M92.958,51.996 C92.958,51.019 92.164,50.225 91.186,50.225 C90.207,50.225 89.414,51.019 89.414,51.996 C89.414,52.975 90.207,53.768 91.186,53.768 C92.164,53.768 92.958,52.975 92.958,51.996" fill="#311413"/>
    <path d="M79.472,64.363 C78.493,64.363 77.699,65.157 77.699,66.136 C77.699,67.114 78.493,67.908 79.472,67.908 C80.45,67.908 81.243,67.114 81.243,66.136 C81.243,65.157 80.45,64.363 79.472,64.363" fill="#311413"/>
    <path d="M79.472,70.102 C78.493,70.102 77.699,70.898 77.699,71.874 C77.699,72.852 78.493,73.647 79.472,73.647 C80.45,73.647 81.243,72.852 81.243,71.874 C81.243,70.898 80.45,70.102 79.472,70.102" fill="#311413"/>
    <path d="M63.639,70.102 C62.66,70.102 61.867,70.898 61.867,71.874 C61.867,72.852 62.66,73.647 63.639,73.647 C64.617,73.647 65.411,72.852 65.411,71.874 C65.411,70.898 64.617,70.102 63.639,70.102" fill="#311413"/>
    <path d="M71.567,69.179 C70.589,69.179 69.797,69.973 69.797,70.949 C69.797,71.93 70.589,72.723 71.567,72.723 C72.547,72.723 73.34,71.93 73.34,70.949 C73.34,69.973 72.547,69.179 71.567,69.179" fill="#311413"/>
  </g>
</svg>
