<?xml version="1.0" encoding="UTF-8"?>
<!DOCTYPE svg PUBLIC "-//W3C//DTD SVG 1.1//EN" "http://www.w3.org/Graphics/SVG/1.1/DTD/svg11.dtd">
<svg version="1.1" xmlns="http://www.w3.org/2000/svg" xmlns:xlink="http://www.w3.org/1999/xlink" x="0" y="0" width="150" height="150" viewBox="0, 0, 150, 150">
  <g id="Layer_1">
    <path d="M61.221,106.564 C59.361,106.564 57.854,108.07 57.854,109.93 C57.854,116.732 52.319,122.267 45.517,122.267 C39.2,122.267 33.986,117.493 33.271,111.369 C29.931,112.878 27.713,112.05 26.512,111.2 C27.17,121.122 35.43,129 45.517,129 C56.032,129 64.587,120.446 64.587,109.93 C64.587,108.07 63.079,106.564 61.221,106.564" fill="#C0906D"/>
    <path d="M33.271,111.369 C33.215,110.896 33.179,110.417 33.179,109.93 C33.179,108.515 33.417,107.126 33.887,105.804 C34.506,104.051 33.592,102.128 31.839,101.505 C30.086,100.883 28.164,101.799 27.541,103.552 C26.815,105.599 26.447,107.746 26.447,109.93 C26.447,110.358 26.483,110.779 26.512,111.2 C27.713,112.05 29.931,112.878 33.271,111.369" fill="#311413"/>
    <path d="M64.919,34.506 C64.919,42.551 58.396,49.073 50.351,49.073 C42.305,49.073 35.783,42.551 35.783,34.506 C35.783,26.461 42.305,19.94 50.351,19.94 C58.396,19.94 64.919,26.461 64.919,34.506" fill="#9C5937"/>
    <path d="M58.748,34.506 C58.748,39.143 54.989,42.904 50.351,42.904 C45.712,42.904 41.952,39.143 41.952,34.506 C41.952,29.868 45.712,26.109 50.351,26.109 C54.989,26.109 58.748,29.868 58.748,34.506" fill="#311413"/>
    <path d="M114.244,34.506 C114.244,42.551 107.723,49.073 99.678,49.073 C91.633,49.073 85.111,42.551 85.111,34.506 C85.111,26.461 91.633,19.94 99.678,19.94 C107.723,19.94 114.244,26.461 114.244,34.506" fill="#ECBD8E"/>
    <path d="M108.078,34.506 C108.078,39.143 104.316,42.904 99.678,42.904 C95.041,42.904 91.279,39.143 91.279,34.506 C91.279,29.868 95.041,26.109 99.678,26.109 C104.316,26.109 108.078,29.868 108.078,34.506" fill="#311413"/>
    <path d="M64.919,34.506 C64.919,42.551 58.396,49.073 50.351,49.073 C42.305,49.073 35.783,42.551 35.783,34.506 C35.783,26.461 42.305,19.94 50.351,19.94 C58.396,19.94 64.919,26.461 64.919,34.506" fill="#ECBD8E"/>
    <path d="M58.748,34.506 C58.748,39.143 54.989,42.904 50.351,42.904 C45.712,42.904 41.952,39.143 41.952,34.506 C41.952,29.868 45.712,26.109 50.351,26.109 C54.989,26.109 58.748,29.868 58.748,34.506" fill="#311413"/>
    <path d="M94.013,119.997 L94.013,111.372 C99.104,106.635 102.367,99.988 102.688,92.563 C97.101,100.93 86.989,106.543 75.399,106.571 L75.399,118.724 C77.07,118.724 78.697,118.552 80.289,118.265 L80.289,119.997 C77.663,122.043 75.965,125.227 75.965,128.815 L98.335,128.815 C98.335,125.227 96.638,122.043 94.013,119.997" fill="#ECBD8E"/>
    <path d="M75.399,97.815 L75.399,92.622 L75.402,92.622 L75.399,104.548 L75.399,97.815 z M51.873,97.285 C54.175,99.534 56.864,101.451 59.849,102.952 C56.864,101.452 54.174,99.537 51.873,97.285 z M49.408,94.56 C49.756,94.998 50.115,95.429 50.49,95.849 C50.115,95.429 49.756,94.998 49.408,94.56 z M50.602,95.967 C51.001,96.404 51.408,96.835 51.832,97.248 C51.408,96.833 51.001,96.405 50.602,95.967 z M75.399,64.021 C60.29,64.021 48.044,76.267 48.044,91.373 C48.044,91.868 48.096,92.35 48.123,92.838 C48.481,93.363 48.859,93.874 49.251,94.375 C48.859,93.874 48.481,93.363 48.123,92.838 C48.515,100.15 51.756,106.693 56.782,111.372 L56.782,119.997 C54.157,122.043 52.462,125.227 52.462,128.815 L74.829,128.815 C74.829,125.227 73.135,122.043 70.506,119.997 L70.506,118.265 C70.718,118.301 70.933,118.319 71.142,118.353 C71.659,118.45 72.208,118.525 72.78,118.582 L72.963,118.603 C73.731,118.676 74.53,118.724 75.399,118.724 L75.399,106.571 C81.127,106.558 86.496,105.174 91.135,102.773 C95.879,100.316 99.861,96.794 102.688,92.563 C102.705,92.165 102.751,91.775 102.751,91.373 C102.751,76.267 90.505,64.021 75.399,64.021" fill="#C0906D"/>
    <path d="M91.135,102.773 C86.496,105.174 81.127,106.558 75.399,106.571 L75.399,118.724 C87.237,118.724 89.598,112.183 91.135,102.773" fill="#ECBD8E"/>
    <path d="M75.381,31.869 L75.381,31.873 L75.416,31.872 L75.381,31.869" fill="#DE653F"/>
    <path d="M70.453,93.924 L70.449,93.924 L70.465,93.95 L70.453,93.924" fill="#000E12"/>
    <path d="M75.45,31.869 L75.416,31.872 L75.45,31.873 L75.45,31.869" fill="#95482F"/>
    <path d="M75.45,62.42 L75.45,31.873 L75.416,31.872 L75.381,31.873 L75.381,62.427 L75.45,62.42" fill="#95482F"/>
    <path d="M75.381,92.618 L75.416,92.621 L75.45,92.618 L75.45,62.42 L75.381,62.427 L75.381,92.618" fill="#95482F"/>
    <path d="M75.381,92.618 L75.381,92.622 L75.416,92.621 L75.381,92.618" fill="#95482F"/>
    <path d="M117.804,78.706 C117.912,78.769 118.026,78.832 118.133,78.899 C118.133,78.899 113.557,72.478 111.365,63.549 C111.365,44.232 102.694,26.484 75.385,26.484 L75.385,78.101 L75.365,78.109 L75.385,85.477 L75.385,87.234 L75.388,87.234 L75.419,99.163 C98.346,102.102 118.964,79.988 118.964,79.988 C118.659,79.538 118.268,79.112 117.804,78.706" fill="#ECBD8E"/>
    <path d="M39.451,63.549 C37.258,72.478 32.682,78.899 32.682,78.899 C32.789,78.832 32.901,78.769 33.011,78.706 C32.547,79.112 32.153,79.538 31.851,79.988 C31.851,79.988 42.73,91.646 57.466,96.905 C57.466,96.287 57.466,94.509 57.466,89.89 C57.466,84.644 58.106,82.071 58.68,80.811 C64.68,83.183 69.26,86.06 70.449,88.565 C71.933,87.741 73.616,87.234 75.433,87.234 L75.433,26.484 C48.123,26.484 39.451,44.232 39.451,63.549" fill="#C0906D"/>
    <path d="M63.638,77.307 C62.166,77.912 60.757,78.666 59.571,79.629 C59.571,79.629 57.466,80.38 57.466,89.89 C57.466,94.509 57.466,96.287 57.466,96.905 C63.021,98.888 68.786,100.509 75.399,100.509 L75.45,78.109 C69.257,75.062 66.786,76.312 63.638,77.307" fill="#C6C6A2"/>
    <path d="M87.148,77.307 C88.62,77.912 90.031,78.666 91.219,79.629 C91.219,79.629 93.321,80.38 93.321,89.89 C93.321,94.509 93.321,96.287 93.321,96.905 C87.767,98.888 81.641,100.509 75.39,100.509 L75.338,78.109 C81.53,75.062 84.003,76.312 87.148,77.307" fill="#F1F0C5"/>
    <path d="M51.234,57.035 C51.234,57.035 66.213,52.692 65.876,67.925 C65.876,67.925 51.234,73.242 51.234,57.035" fill="#311413"/>
    <path d="M64.283,62.773 C64.283,65.841 61.796,68.328 58.729,68.328 C55.662,68.328 53.174,65.841 53.174,62.773 C53.174,59.704 55.662,57.218 58.729,57.218 C61.796,57.218 64.283,59.704 64.283,62.773" fill="#A4642E"/>
    <path d="M62.5,60.479 C62.5,61.534 61.642,62.392 60.585,62.392 C59.528,62.392 58.671,61.534 58.671,60.479 C58.671,59.421 59.528,58.564 60.585,58.564 C61.642,58.564 62.5,59.421 62.5,60.479" fill="#FFFFFE"/>
    <path d="M99.678,57.035 C99.678,57.035 84.697,52.692 85.037,67.925 C85.037,67.925 99.678,73.242 99.678,57.035" fill="#311413"/>
    <path d="M86.531,62.773 C86.531,65.841 89.018,68.328 92.086,68.328 C95.152,68.328 97.641,65.841 97.641,62.773 C97.641,59.704 95.152,57.218 92.086,57.218 C89.018,57.218 86.531,59.704 86.531,62.773" fill="#A4642E"/>
    <path d="M92.354,60.479 C92.354,61.534 93.212,62.392 94.269,62.392 C95.327,62.392 96.186,61.534 96.186,60.479 C96.186,59.421 95.327,58.564 94.269,58.564 C93.212,58.564 92.354,59.421 92.354,60.479" fill="#FFFFFE"/>
    <path d="M74.511,83.472 C73.677,83.32 72.967,82.958 72.497,82.406 C70.287,79.817 67.369,78.021 65.815,77.143 C67.332,76.684 70.47,75.97 75.365,75.97 C80.195,75.97 83.361,76.688 84.89,77.146 C82.12,78.842 79.703,80.717 78.014,82.49 C77.539,82.99 76.906,83.32 76.135,83.472 L74.511,83.472" fill="#C66870"/>
    <path d="M75.365,75.413 C67.985,75.413 64.456,77.034 64.48,77.034 L64.482,77.033 C64.567,77.154 69.032,79.202 72.076,82.768 C72.713,83.516 73.616,83.872 74.511,84.028 L76.188,84.028 C77.008,83.873 77.802,83.517 78.417,82.873 C81.592,79.537 86.154,77.061 86.195,77.015 C86.195,77.015 82.665,75.413 75.365,75.413 z M75.365,76.526 C79.088,76.526 81.8,76.957 83.515,77.355 C81.148,78.892 79.132,80.511 77.613,82.109 C77.227,82.512 76.712,82.782 76.078,82.916 L74.611,82.916 C73.858,82.772 73.289,82.48 72.921,82.046 C71.126,79.946 68.888,78.358 67.246,77.344 C68.965,76.947 71.661,76.526 75.365,76.526" fill="#311413"/>
    <path d="M74.692,87.723 C73.32,90.089 71.589,91.431 69.54,91.711 C64.903,92.333 59.98,87.477 59.932,87.429 C59.667,87.163 59.242,87.163 58.978,87.426 C58.715,87.689 58.715,88.113 58.976,88.379 C59.182,88.584 63.754,93.113 68.683,93.113 C69.027,93.113 69.372,93.093 69.718,93.046 C71.955,92.74 73.85,91.441 75.365,89.183 C76.882,91.441 78.777,92.74 81.01,93.046 C81.359,93.093 81.704,93.113 82.049,93.113 C86.979,93.113 91.548,88.584 91.753,88.379 C92.017,88.113 92.016,87.689 91.753,87.426 C91.49,87.166 91.062,87.163 90.799,87.429 C90.75,87.477 85.834,92.329 81.194,91.711 C79.141,91.427 77.414,90.098 76.037,87.723 L76.037,84.059 L76.188,84.028 L74.511,84.028 L74.692,84.065 L74.692,87.723" fill="#311413"/>
    <path d="M26.447,88.097 C26.283,88.097 26.121,88.038 25.991,87.92 C25.719,87.669 25.698,87.243 25.95,86.969 C39.25,72.458 59.895,80.581 60.101,80.663 C60.446,80.804 60.613,81.195 60.474,81.541 C60.334,81.886 59.942,82.052 59.597,81.913 C59.398,81.832 39.606,74.066 26.943,87.877 C26.81,88.023 26.627,88.097 26.447,88.097" fill="#775749"/>
    <path d="M30.826,92.329 C30.656,92.329 30.487,92.268 30.357,92.141 C30.09,91.881 30.083,91.454 30.342,91.189 C42.797,78.347 59.047,82.67 59.208,82.714 C59.566,82.814 59.777,83.183 59.676,83.543 C59.578,83.901 59.213,84.112 58.848,84.013 C58.694,83.968 43.196,79.871 31.308,92.125 C31.177,92.262 31.001,92.329 30.826,92.329" fill="#775749"/>
    <path d="M36.42,97.043 C36.288,97.043 36.152,97.003 36.033,96.92 C35.731,96.706 35.658,96.286 35.87,95.982 C44.5,83.721 58.95,84.916 59.091,84.927 C59.461,84.962 59.734,85.29 59.699,85.659 C59.664,86.029 59.358,86.306 58.966,86.268 C58.829,86.256 45.145,85.145 36.973,96.757 C36.841,96.944 36.633,97.043 36.42,97.043" fill="#775749"/>
    <path d="M123.328,88.097 C123.145,88.097 122.965,88.023 122.832,87.877 C110.169,74.066 90.377,81.834 90.176,81.913 C89.831,82.051 89.44,81.886 89.3,81.541 C89.16,81.195 89.327,80.804 89.671,80.663 C89.877,80.581 110.525,72.458 123.823,86.969 C124.074,87.243 124.056,87.669 123.781,87.92 C123.653,88.038 123.49,88.097 123.328,88.097" fill="#775749"/>
    <path d="M118.947,92.329 C118.773,92.329 118.598,92.262 118.466,92.125 C106.56,79.854 91.083,83.968 90.926,84.013 C90.566,84.112 90.196,83.901 90.098,83.543 C89.997,83.184 90.208,82.814 90.566,82.714 C90.728,82.67 106.974,78.346 119.433,91.189 C119.69,91.454 119.683,91.881 119.416,92.141 C119.285,92.268 119.117,92.329 118.947,92.329" fill="#775749"/>
    <path d="M113.353,97.043 C113.139,97.043 112.932,96.944 112.801,96.757 C104.628,85.142 90.942,86.254 90.808,86.268 C90.418,86.296 90.109,86.027 90.074,85.659 C90.041,85.29 90.313,84.962 90.683,84.927 C90.827,84.916 105.275,83.721 113.903,95.982 C114.115,96.286 114.044,96.706 113.738,96.92 C113.623,97.003 113.486,97.043 113.353,97.043" fill="#775749"/>
  </g>
</svg>
