<?xml version="1.0" encoding="UTF-8"?>
<!DOCTYPE svg PUBLIC "-//W3C//DTD SVG 1.1//EN" "http://www.w3.org/Graphics/SVG/1.1/DTD/svg11.dtd">
<svg version="1.1" xmlns="http://www.w3.org/2000/svg" xmlns:xlink="http://www.w3.org/1999/xlink" x="0" y="0" width="150" height="150" viewBox="0, 0, 150, 150">
  <g id="Layer_1">
    <path d="M57.456,111.021 L71.28,111.021 L71.28,125.995 L57.456,125.995 z" fill="#9C5937"/>
    <path d="M77.861,111.021 L91.688,111.021 L91.688,125.995 L77.861,125.995 z" fill="#DF7D41"/>
    <path d="M64.368,120.767 C58.989,120.767 54.624,125.13 54.624,130.513 L74.115,130.513 C74.115,125.13 69.753,120.767 64.368,120.767" fill="#ECBD8E"/>
    <path d="M84.773,120.767 C79.393,120.767 75.029,125.13 75.029,130.513 L94.52,130.513 C94.52,125.13 90.157,120.767 84.773,120.767" fill="#ECBD8E"/>
    <path d="M49.383,83.603 C48.542,86.187 48.073,88.94 48.073,91.807 C48.073,106.443 59.938,120.528 74.573,120.528 L74.573,96.137 C63.927,96.137 54.621,91.117 49.383,83.603" fill="#9C5937"/>
    <path d="M74.573,96.137 L74.573,120.528 C89.206,120.528 101.072,106.443 101.072,91.807 C101.072,88.94 100.603,86.187 99.762,83.603 C94.522,91.117 85.218,96.137 74.573,96.137" fill="#DF7D41"/>
    <path d="M74.573,65.309 C62.805,65.309 52.841,72.985 49.383,83.603 C54.621,91.117 63.927,98.359 74.573,98.359 C87.822,98.359 94.522,91.117 99.762,83.603 C96.303,72.985 86.34,65.309 74.573,65.309" fill="#9C5937"/>
    <path d="M69.83,53.488 C69.83,59.744 64.759,64.817 58.501,64.817 C52.245,64.817 47.172,59.744 47.172,53.488 C47.172,47.232 52.245,42.16 58.501,42.16 C64.759,42.16 69.83,47.232 69.83,53.488" fill="#ECBD8E"/>
    <path d="M50.156,56.186 C50.156,62.816 44.782,68.192 38.151,68.192 C31.519,68.192 26.144,62.816 26.144,56.186 C26.144,49.555 31.519,44.181 38.151,44.181 C44.782,44.181 50.156,49.555 50.156,56.186" fill="#9C5937"/>
    <path d="M45.973,56.186 C45.973,60.507 42.469,64.009 38.151,64.009 C33.828,64.009 30.325,60.507 30.325,56.186 C30.325,51.865 33.828,48.362 38.151,48.362 C42.469,48.362 45.973,51.865 45.973,56.186" fill="#494C4A"/>
    <path d="M123,56.186 C123,62.816 117.624,68.192 110.995,68.192 C104.36,68.192 98.988,62.816 98.988,56.186 C98.988,49.555 104.36,44.181 110.995,44.181 C117.624,44.181 123,49.555 123,56.186" fill="#DF7D41"/>
    <path d="M118.816,56.186 C118.816,60.508 115.313,64.009 110.995,64.009 C106.672,64.009 103.169,60.508 103.169,56.186 C103.169,51.865 106.672,48.362 110.995,48.362 C115.313,48.362 118.816,51.865 118.816,56.186" fill="#494C4A"/>
    <path d="M37.845,54.633 C37.845,75.24 54.553,91.948 75.162,91.948 L75.162,17.317 C54.553,17.317 37.845,34.022 37.845,54.633" fill="#9C5937"/>
    <path d="M112.476,54.633 C112.476,34.022 95.771,17.317 75.162,17.317 L75.162,91.948 C95.771,91.948 112.476,75.24 112.476,54.633" fill="#DF7D41"/>
    <path d="M92.428,68.541 C101.16,67.984 108.075,60.743 108.075,51.871 C108.075,42.631 100.587,35.143 91.348,35.143 C83.546,35.143 77.01,40.494 75.162,47.721 C73.314,40.494 66.776,35.143 58.973,35.143 C49.736,35.143 42.245,42.631 42.245,51.871 C42.245,61.106 49.736,68.596 58.973,68.596 L58.973,77.229 C58.973,78.626 59.164,79.971 59.485,81.267 C63.257,76.455 69.111,73.348 75.7,73.348 C82.29,73.348 88.143,76.455 91.916,81.27 C92.24,79.972 92.428,78.626 92.428,77.229 L92.428,68.541" fill="#494C4A"/>
    <path d="M75.7,73.348 C69.111,73.348 63.257,76.455 59.485,81.267 C61.295,88.55 67.859,93.957 75.7,93.957 C83.545,93.957 90.107,88.551 91.916,81.27 C88.143,76.455 82.29,73.348 75.7,73.348" fill="#ECBD8E"/>
    <path d="M73.274,68.327 C73.274,69.667 72.187,70.755 70.844,70.755 C69.503,70.755 68.418,69.667 68.418,68.327 C68.418,66.985 69.503,65.898 70.844,65.898 C72.187,65.898 73.274,66.985 73.274,68.327" fill="#28100F"/>
    <path d="M81.904,68.327 C81.904,69.667 80.819,70.755 79.477,70.755 C78.136,70.755 77.048,69.667 77.048,68.327 C77.048,66.985 78.136,65.898 79.477,65.898 C80.819,65.898 81.904,66.985 81.904,68.327" fill="#28100F"/>
    <path d="M69.562,52.377 C69.562,58.487 64.61,63.438 58.501,63.438 C52.391,63.438 47.439,58.487 47.439,52.377 C47.439,46.268 52.391,41.316 58.501,41.316 C64.61,41.316 69.562,46.268 69.562,52.377" fill="#ECBD8E"/>
    <path d="M102.879,52.377 C102.879,58.487 97.927,63.438 91.817,63.438 C85.709,63.438 80.756,58.487 80.756,52.377 C80.756,46.268 85.709,41.316 91.817,41.316 C97.927,41.316 102.879,46.268 102.879,52.377" fill="#ECBD8E"/>
    <path d="M64.502,52.377 C64.502,55.691 61.815,58.377 58.503,58.377 C55.189,58.377 52.502,55.691 52.502,52.377 C52.502,49.064 55.189,46.378 58.503,46.378 C61.815,46.378 64.502,49.064 64.502,52.377" fill="#28100F"/>
    <path d="M97.821,52.377 C97.821,55.691 95.135,58.377 91.821,58.377 C88.509,58.377 85.821,55.691 85.821,52.377 C85.821,49.064 88.509,46.378 91.821,46.378 C95.135,46.378 97.821,49.064 97.821,52.377" fill="#28100F"/>
    <path d="M62.529,50.377 C62.529,51.481 61.634,52.377 60.528,52.377 C59.423,52.377 58.526,51.481 58.526,50.377 C58.526,49.271 59.423,48.375 60.528,48.375 C61.634,48.375 62.529,49.271 62.529,50.377" fill="#FFFFFE"/>
    <path d="M95.819,50.377 C95.819,51.481 94.924,52.377 93.82,52.377 C92.715,52.377 91.817,51.481 91.817,50.377 C91.817,49.271 92.715,48.375 93.82,48.375 C94.924,48.375 95.819,49.271 95.819,50.377" fill="#FFFFFE"/>
    <path d="M75.162,88.631 C69.069,88.631 66.642,85.205 66.541,85.059 C66.367,84.806 66.432,84.461 66.685,84.288 C66.935,84.111 67.281,84.175 67.456,84.427 C67.552,84.565 69.697,87.52 75.162,87.52 C80.177,87.52 82.873,84.416 82.9,84.383 C83.098,84.151 83.451,84.122 83.682,84.322 C83.917,84.52 83.943,84.871 83.745,85.104 C83.624,85.247 80.682,88.631 75.162,88.631" fill="#28100F"/>
    <path d="M76.587,52.676 C77.323,50.86 77.743,45.962 74.317,39.763 C72.809,37.032 72.887,37.539 72.372,36.214 C71.857,34.891 71.131,33.653 70.165,32.506 C69.179,31.367 68.897,30.761 67.113,29.937 C66.37,31.758 66.04,32.065 65.391,34.38 C64.989,35.823 64.858,37.936 65.381,39.255 C65.904,40.576 66.495,41.985 68.078,43.674 C69.071,44.811 75.611,49.118 76.587,52.676" fill="#9C5937"/>
    <path d="M81.362,46.232 C83.741,36.977 75.223,28.228 74.259,27.078 C73.274,25.942 72.1,24.877 70.316,24.051 C69.57,25.873 69.434,27.45 69.486,28.956 C69.559,30.452 69.19,34.365 72.606,36.883 C77.562,40.534 79.565,42.492 81.362,46.232" fill="#9C5937"/>
    <path d="M106.42,127.899 C105.187,130.775 101.249,131.841 97.623,130.284 C93.999,128.725 92.063,125.132 93.299,122.258" fill="#ECBD8E"/>
    <path d="M106.291,128.675 C115.645,105.295 117.726,88.105 112.477,77.586 C109.887,72.392 105.867,69.7 102.969,68.916 L99.19,82.848 C98.677,82.71 98.487,82.596 98.477,82.592 C100.716,83.938 104.491,94.304 92.886,123.314 L106.291,128.675" fill="#DF7D41"/>
    <path d="M42.722,127.899 C43.958,130.775 47.897,131.841 51.521,130.284 C55.145,128.725 57.079,125.132 55.846,122.258" fill="#ECBD8E"/>
    <path d="M42.854,128.675 C33.501,105.295 31.418,88.105 36.665,77.586 C39.257,72.392 43.277,69.7 46.175,68.916 L49.953,82.848 C50.467,82.71 50.657,82.596 50.667,82.592 C48.429,83.938 44.651,94.304 56.258,123.314 L42.854,128.675" fill="#9C5937"/>
  </g>
</svg>
