<?xml version="1.0" encoding="UTF-8"?>
<!DOCTYPE svg PUBLIC "-//W3C//DTD SVG 1.1//EN" "http://www.w3.org/Graphics/SVG/1.1/DTD/svg11.dtd">
<svg version="1.1" xmlns="http://www.w3.org/2000/svg" xmlns:xlink="http://www.w3.org/1999/xlink" x="0" y="0" width="150" height="150" viewBox="0, 0, 150, 150">
  <g id="Layer_1">
    <path d="M87.025,117.816 C88.188,117.77 89.286,117.684 90.335,117.56 L90.338,117.56 C89.289,117.682 88.186,117.769 87.025,117.816" fill="#B4BEC3"/>
    <path d="M86.817,117.821 C86.301,117.84 85.779,117.851 85.24,117.853 C85.779,117.851 86.3,117.838 86.817,117.821" fill="#B4BEC3"/>
    <path d="M99.67,104.793 L99.461,104.853 L99.67,104.793" fill="#B4BEC3"/>
    <path d="M98.674,105.052 C98.567,105.076 98.459,105.1 98.349,105.123 C98.459,105.1 98.567,105.076 98.674,105.052" fill="#B4BEC3"/>
    <path d="M95.009,105.514 C94.828,105.521 94.653,105.533 94.469,105.536 C94.653,105.533 94.828,105.521 95.009,105.514" fill="#B4BEC3"/>
    <path d="M96.359,105.424 C96.193,105.439 96.032,105.457 95.864,105.47 C96.032,105.457 96.193,105.44 96.359,105.424" fill="#B4BEC3"/>
    <path d="M84.85,98.988 C85.613,98.867 86.361,98.726 87.105,98.579 C86.363,98.726 85.613,98.867 84.85,98.988" fill="#B4BEC3"/>
    <path d="M100.566,104.497 L100.504,104.518 L100.566,104.497" fill="#B4BEC3"/>
    <path d="M93.475,105.526 C93.304,105.523 93.141,105.524 92.966,105.517 C93.141,105.524 93.304,105.523 93.475,105.526" fill="#B4BEC3"/>
    <path d="M87.541,98.493 C93.203,97.33 98.297,95.456 102.512,93.052 L102.511,93.039 C98.295,95.446 93.203,97.327 87.541,98.493" fill="#B4BEC3"/>
    <path d="M97.573,105.264 C97.436,105.288 97.297,105.309 97.153,105.331 C97.297,105.309 97.436,105.288 97.573,105.264" fill="#B4BEC3"/>
    <path d="M55.196,97.118 L54.961,97.046 L55.196,97.118" fill="#7E7DAD"/>
    <path d="M59.621,98.286 C59.469,98.252 59.317,98.218 59.164,98.181 C59.317,98.218 59.469,98.251 59.621,98.286" fill="#7E7DAD"/>
    <path d="M45.631,93.055 C48.392,94.631 51.531,95.976 54.961,97.046 C51.533,95.976 48.393,94.627 45.631,93.05 L45.631,93.055" fill="#7E7DAD"/>
    <path d="M59.164,98.181 C57.805,97.868 56.481,97.513 55.196,97.118 C56.482,97.513 57.805,97.869 59.164,98.181" fill="#7E7DAD"/>
    <path d="M61.647,98.705 C60.963,98.577 60.288,98.433 59.621,98.286 C60.288,98.433 60.963,98.577 61.647,98.705" fill="#7E7DAD"/>
    <path d="M57.521,114.507 L71.345,114.507 L71.345,129.478 L57.521,129.478 z" fill="#303331"/>
    <path d="M77.925,114.507 L91.752,114.507 L91.752,129.478 L77.925,129.478 z" fill="#303331"/>
    <path d="M64.433,124.252 C59.052,124.252 54.688,128.616 54.688,134 L74.178,134 C74.178,128.616 69.817,124.252 64.433,124.252" fill="#303331"/>
    <path d="M84.837,124.252 C79.456,124.252 75.094,128.616 75.094,134 L94.585,134 C94.585,128.616 90.22,124.252 84.837,124.252" fill="#303331"/>
    <path d="M52.638,92.718 C51.919,94.927 51.519,97.28 51.519,99.733 C51.519,112.25 61.663,122.396 74.178,122.396 L74.178,103.436 C65.075,103.436 57.117,99.144 52.638,92.718" fill="#C5B7B0"/>
    <path d="M74.178,103.436 L74.178,122.396 C86.692,122.396 96.838,112.25 96.838,99.733 C96.838,97.28 96.438,94.927 95.719,92.718 C91.237,99.144 83.279,103.436 74.178,103.436" fill="#F1EAE8"/>
    <path d="M74.178,77.075 C64.116,77.075 55.594,83.639 52.638,92.718 C57.117,99.144 65.075,103.436 74.178,103.436 C83.279,103.436 91.237,99.144 95.719,92.718 C92.761,83.639 84.241,77.075 74.178,77.075" fill="#C5B7B0"/>
    <path d="M85.172,113.089 C82.043,113.089 79.507,110.553 79.507,107.423 C79.507,104.293 82.043,101.758 85.172,101.758" fill="#303331"/>
    <path d="M63.184,113.089 C66.311,113.089 68.846,110.553 68.846,107.423 C68.846,104.293 66.311,101.758 63.184,101.758" fill="#303331"/>
    <path d="M96.113,14.531 C89.682,14.531 84.47,20.854 84.47,27.286 C84.47,33.717 89.682,38.929 96.113,38.929 C102.544,38.929 107.76,33.717 107.76,27.286 C107.76,20.854 102.544,14.531 96.113,14.531" fill="#303331"/>
    <path d="M52.241,14.531 C45.811,14.531 40.597,20.854 40.597,27.286 C40.597,33.717 45.811,38.929 52.241,38.929 C58.675,38.929 63.886,33.717 63.886,27.286 C63.886,20.854 58.675,14.531 52.241,14.531" fill="#303331"/>
    <path d="M111.747,66.471 C112.007,64.689 112.145,62.87 112.145,61.015 C112.145,40.1 95.232,23.14 74.336,23.052 L74.178,23.05 L74.178,100.083 C74.307,100.086 74.447,100.092 74.568,100.092 C79.982,100.092 87.21,98.579 87.21,98.579 C87.355,98.551 87.501,98.521 87.647,98.493 C93.31,97.327 98.399,95.446 102.615,93.039 L102.615,93.052 C110.251,88.697 115,82.607 115,75.863 C115,72.53 113.841,69.355 111.747,66.471" fill="#F1EAE8"/>
    <path d="M74.178,23.05 C53.211,23.05 36.213,40.047 36.213,61.015 C36.213,62.87 36.352,64.689 36.606,66.471 C34.517,69.355 33.356,72.53 33.356,75.863 C33.356,82.606 38.102,88.698 45.736,93.055 L45.736,93.05 C48.5,94.627 51.638,95.976 55.067,97.046 L55.304,97.118 C56.585,97.513 57.911,97.868 59.271,98.181 C59.422,98.218 59.574,98.252 59.727,98.286 C60.395,98.433 61.752,98.705 61.752,98.705 C61.752,98.705 69.906,100.008 74.178,100.083 L74.178,23.05" fill="#C5B7B0"/>
    <path d="M46.192,59.232 C40.759,66.586 41.295,76.2 47.392,80.705 C53.487,85.206 59.168,81.303 64.602,73.948 C70.035,66.591 73.165,58.566 67.068,54.065 C60.974,49.563 51.625,51.875 46.192,59.232" fill="#303331"/>
    <path d="M102.163,59.232 C107.596,66.586 107.06,76.2 100.963,80.705 C94.867,85.206 89.186,81.303 83.753,73.948 C78.32,66.591 75.19,58.566 81.286,54.065 C87.381,49.563 96.729,51.875 102.163,59.232" fill="#303331"/>
    <path d="M97.026,65.221 C97.026,68.766 94.157,71.639 90.611,71.639 C87.067,71.639 84.193,68.766 84.193,65.221 C84.193,61.676 87.067,58.803 90.611,58.803 C94.157,58.803 97.026,61.676 97.026,65.221" fill="#F1EAE8"/>
    <path d="M95.123,65.221 C95.123,67.713 93.105,69.734 90.61,69.734 C88.118,69.734 86.098,67.713 86.098,65.221 C86.098,62.728 88.118,60.709 90.61,60.709 C93.105,60.709 95.123,62.728 95.123,65.221" fill="#303331"/>
    <path d="M64.163,65.221 C64.163,68.766 61.289,71.639 57.744,71.639 C54.2,71.639 51.328,68.766 51.328,65.221 C51.328,61.676 54.2,58.803 57.744,58.803 C61.289,58.803 64.163,61.676 64.163,65.221" fill="#C5B7B0"/>
    <path d="M62.257,65.221 C62.257,67.713 60.236,69.734 57.744,69.734 C55.252,69.734 53.234,67.713 53.234,65.221 C53.234,62.728 55.252,60.709 57.744,60.709 C60.236,60.709 62.257,62.728 62.257,65.221" fill="#303331"/>
    <path d="M61.082,63.868 C61.082,64.782 60.342,65.524 59.426,65.524 C58.511,65.524 57.771,64.782 57.771,63.868 C57.771,62.954 58.511,62.213 59.426,62.213 C60.342,62.213 61.082,62.954 61.082,63.868" fill="#FFFFFE"/>
    <path d="M93.646,63.868 C93.646,64.782 92.903,65.524 91.988,65.524 C91.073,65.524 90.334,64.782 90.334,63.868 C90.334,62.954 91.073,62.213 91.988,62.213 C92.903,62.213 93.646,62.954 93.646,63.868" fill="#FFFFFE"/>
    <path d="M81.839,84.287 L81.831,84.213 L81.831,84.206 L81.828,84.201 C81.731,82.284 78.346,80.745 74.178,80.745 C70.012,80.745 66.627,82.284 66.526,84.201 L66.524,84.206 L66.526,84.213 L66.517,84.287 C66.517,86.058 69.325,88.426 72.992,88.863 L72.992,94.136 C72.628,94.567 71.786,95.381 70.929,94.923 C70.387,94.63 69.714,94.833 69.425,95.374 C69.135,95.913 69.336,96.587 69.875,96.879 C70.42,97.171 70.952,97.292 71.456,97.292 C72.529,97.292 73.475,96.736 74.166,96.107 C74.845,96.737 75.781,97.293 76.867,97.293 C77.372,97.293 77.907,97.175 78.463,96.885 C79.007,96.603 79.221,95.933 78.94,95.388 C78.658,94.843 77.985,94.632 77.441,94.914 C76.524,95.385 75.713,94.586 75.364,94.152 L75.364,88.863 C79.031,88.426 81.839,86.058 81.839,84.287" fill="#303331"/>
  </g>
</svg>
