<?xml version="1.0" encoding="UTF-8"?>
<!DOCTYPE svg PUBLIC "-//W3C//DTD SVG 1.1//EN" "http://www.w3.org/Graphics/SVG/1.1/DTD/svg11.dtd">
<svg version="1.1" xmlns="http://www.w3.org/2000/svg" xmlns:xlink="http://www.w3.org/1999/xlink" x="0" y="0" width="150" height="150" viewBox="0, 0, 150, 150">
  <g id="Layer_1">
    <path d="M94.014,119.996 L94.014,111.373 C99.102,106.634 102.366,99.985 102.686,92.565 C97.101,100.93 86.99,106.543 75.397,106.572 L75.397,118.725 C77.07,118.725 78.697,118.551 80.288,118.264 L80.288,119.996 C77.66,122.043 75.964,125.227 75.964,128.814 L98.335,128.814 C98.335,125.227 96.638,122.043 94.014,119.996" fill="#5F6360"/>
    <path d="M75.397,64.021 C60.29,64.021 48.046,76.267 48.046,91.372 C48.046,91.868 48.095,92.35 48.121,92.837 C48.513,100.149 51.756,106.693 56.783,111.373 L56.783,114.936 C54.856,119.249 50.536,122.268 45.516,122.268 C39.2,122.268 33.986,117.494 33.27,111.369 C33.215,110.897 33.179,110.417 33.179,109.93 C33.179,108.516 33.417,107.128 33.886,105.803 C34.508,104.05 33.59,102.128 31.839,101.505 C30.087,100.883 28.163,101.801 27.541,103.554 C26.814,105.6 26.447,107.744 26.447,109.93 C26.447,110.358 26.483,110.776 26.51,111.2 C27.17,121.122 35.43,129 45.516,129 C47.995,129 50.356,128.509 52.53,127.646 C52.49,128.03 52.461,128.42 52.461,128.814 L74.828,128.814 C74.828,125.227 73.135,122.043 70.508,119.996 L70.508,118.264 C70.717,118.302 70.93,118.318 71.142,118.353 C71.658,118.45 72.209,118.524 72.779,118.583 L72.963,118.605 C73.73,118.676 74.53,118.725 75.397,118.725 L75.397,106.572 C81.127,106.558 86.494,105.176 91.135,102.772 C95.878,100.316 99.863,96.794 102.686,92.565 C102.706,92.166 102.75,91.775 102.75,91.372 C102.75,76.267 90.506,64.021 75.397,64.021" fill="#303331"/>
    <path d="M64.917,34.505 C64.917,42.551 58.396,49.072 50.349,49.072 C42.304,49.072 35.781,42.551 35.781,34.505 C35.781,26.461 42.304,19.94 50.349,19.94 C58.396,19.94 64.917,26.461 64.917,34.505" fill="#9C5937"/>
    <path d="M58.748,34.505 C58.748,39.145 54.989,42.904 50.349,42.904 C45.711,42.904 41.952,39.145 41.952,34.505 C41.952,29.869 45.711,26.108 50.349,26.108 C54.989,26.108 58.748,29.869 58.748,34.505" fill="#311413"/>
    <path d="M114.246,34.505 C114.246,42.551 107.722,49.072 99.677,49.072 C91.631,49.072 85.11,42.551 85.11,34.505 C85.11,26.461 91.631,19.94 99.677,19.94 C107.722,19.94 114.246,26.461 114.246,34.505" fill="#5F6360"/>
    <path d="M108.075,34.505 C108.075,39.145 104.318,42.904 99.677,42.904 C95.038,42.904 91.28,39.145 91.28,34.505 C91.28,29.869 95.038,26.108 99.677,26.108 C104.318,26.108 108.075,29.869 108.075,34.505" fill="#000E12"/>
    <path d="M64.917,34.505 C64.917,42.551 58.396,49.072 50.349,49.072 C42.304,49.072 35.781,42.551 35.781,34.505 C35.781,26.461 42.304,19.94 50.349,19.94 C58.396,19.94 64.917,26.461 64.917,34.505" fill="#5F6360"/>
    <path d="M58.748,34.505 C58.748,39.145 54.989,42.904 50.349,42.904 C45.711,42.904 41.952,39.145 41.952,34.505 C41.952,29.869 45.711,26.108 50.349,26.108 C54.989,26.108 58.748,29.869 58.748,34.505" fill="#000E12"/>
    <path d="M75.381,31.87 L75.381,31.872 L75.414,31.87 L75.381,31.87" fill="#DE653F"/>
    <path d="M70.453,93.923 L70.449,93.924 L70.466,93.95 L70.453,93.923" fill="#000E12"/>
    <path d="M75.449,31.87 L75.414,31.87 L75.449,31.872 L75.449,31.87" fill="#95482F"/>
    <path d="M75.449,62.421 L75.449,31.872 L75.414,31.87 L75.381,31.872 L75.381,62.426 L75.449,62.421" fill="#95482F"/>
    <path d="M75.381,92.618 L75.414,92.62 L75.449,92.618 L75.449,62.421 L75.381,62.426 L75.381,92.618" fill="#95482F"/>
    <path d="M75.381,92.618 L75.381,92.622 L75.414,92.62 L75.381,92.618" fill="#95482F"/>
    <path d="M58.679,80.811 L58.676,80.822 L58.679,80.811 z M75.431,85.948 L75.449,78.108 L75.431,78.1 L75.431,26.484 C48.121,26.484 39.368,44.231 39.451,63.549 C39.491,72.797 41.952,88.583 41.952,88.583 C41.952,88.583 42.728,91.646 57.465,96.905 C63.022,98.887 68.785,100.507 75.397,100.507 L75.429,87.231 L75.431,87.231 L75.431,85.948" fill="#303331"/>
    <path d="M75.384,26.484 L75.384,78.088 L75.337,78.108 L75.39,100.507 C81.016,100.507 86.536,99.192 91.635,97.482 C92.206,97.303 92.761,97.093 93.321,96.893 C108.066,91.638 108.858,88.57 108.858,88.57 C108.858,88.57 111.287,72.49 111.362,63.547 C111.527,44.231 102.692,26.484 75.384,26.484" fill="#5F6360"/>
    <path d="M93.321,96.905 L93.321,96.893 C92.761,97.093 92.206,97.303 91.635,97.482 C92.202,97.293 92.766,97.103 93.321,96.905" fill="#5F6360"/>
    <path d="M51.233,57.035 C51.233,57.035 66.213,52.692 65.875,67.924 C65.875,67.924 51.233,73.244 51.233,57.035" fill="#000E12"/>
    <path d="M64.283,62.774 C64.283,65.841 61.795,68.327 58.728,68.327 C55.662,68.327 53.174,65.841 53.174,62.774 C53.174,59.705 55.662,57.219 58.728,57.219 C61.795,57.219 64.283,59.705 64.283,62.774" fill="#A0A39F"/>
    <path d="M62.499,60.478 C62.499,61.536 61.643,62.392 60.585,62.392 C59.529,62.392 58.67,61.536 58.67,60.478 C58.67,59.421 59.529,58.565 60.585,58.565 C61.643,58.565 62.499,59.421 62.499,60.478" fill="#FFFFFE"/>
    <path d="M99.679,57.035 C99.679,57.035 84.699,52.692 85.034,67.924 C85.034,67.924 99.679,73.244 99.679,57.035" fill="#000E12"/>
    <path d="M86.532,62.774 C86.532,65.841 89.019,68.327 92.086,68.327 C95.153,68.327 97.64,65.841 97.64,62.774 C97.64,59.705 95.153,57.219 92.086,57.219 C89.019,57.219 86.532,59.705 86.532,62.774" fill="#A0A39F"/>
    <path d="M92.354,60.478 C92.354,61.536 93.212,62.392 94.268,62.392 C95.325,62.392 96.183,61.536 96.183,60.478 C96.183,59.421 95.325,58.565 94.268,58.565 C93.212,58.565 92.354,59.421 92.354,60.478" fill="#FFFFFE"/>
    <path d="M78.416,82.872 C81.591,79.537 86.155,77.06 86.194,77.013 C86.194,77.013 82.666,75.415 75.364,75.415 C67.917,75.415 64.391,77.064 64.481,77.033 C64.566,77.154 69.032,79.203 72.075,82.768 C72.713,83.515 73.616,83.872 74.511,84.026 L76.187,84.026 C77.009,83.874 77.801,83.519 78.416,82.872" fill="#000E12"/>
    <path d="M74.692,87.725 C73.321,90.09 71.587,91.43 69.54,91.71 C64.902,92.335 59.98,87.477 59.93,87.429 C59.667,87.162 59.241,87.162 58.978,87.428 C58.715,87.689 58.715,88.114 58.976,88.377 C59.179,88.586 63.751,93.113 68.682,93.113 C69.026,93.113 69.371,93.093 69.719,93.045 C71.953,92.74 73.848,91.44 75.364,89.182 C76.881,91.44 78.775,92.74 81.011,93.045 C81.356,93.093 81.704,93.113 82.046,93.113 C86.977,93.113 91.549,88.586 91.753,88.377 C92.016,88.114 92.015,87.689 91.751,87.426 C91.487,87.166 91.061,87.164 90.799,87.429 C90.749,87.477 85.834,92.328 81.194,91.71 C79.139,91.426 77.414,90.098 76.038,87.725 L76.038,84.061 L76.187,84.026 L74.511,84.026 L74.692,84.065 L74.692,87.725" fill="#000E12"/>
    <path d="M26.447,88.096 C26.283,88.096 26.12,88.038 25.991,87.919 C25.718,87.667 25.699,87.241 25.949,86.967 C39.249,72.458 59.894,80.581 60.101,80.664 C60.446,80.804 60.613,81.195 60.472,81.542 C60.333,81.886 59.941,82.049 59.595,81.913 C59.399,81.833 39.605,74.066 26.942,87.877 C26.809,88.024 26.628,88.096 26.447,88.096" fill="#000E12"/>
    <path d="M30.824,92.331 C30.656,92.331 30.488,92.268 30.358,92.14 C30.089,91.882 30.083,91.454 30.34,91.188 C42.799,78.347 59.043,82.668 59.208,82.714 C59.566,82.815 59.776,83.185 59.677,83.542 C59.578,83.899 59.213,84.11 58.848,84.013 C58.693,83.969 43.194,79.871 31.307,92.127 C31.176,92.262 31.002,92.331 30.824,92.331" fill="#000E12"/>
    <path d="M36.422,97.043 C36.287,97.043 36.153,97.003 36.033,96.919 C35.73,96.706 35.658,96.286 35.87,95.983 C44.5,83.721 58.949,84.915 59.089,84.928 C59.46,84.963 59.733,85.289 59.699,85.658 C59.665,86.029 59.358,86.304 58.965,86.269 C58.831,86.258 45.143,85.145 36.972,96.757 C36.841,96.942 36.633,97.043 36.422,97.043" fill="#000E12"/>
    <path d="M123.327,88.096 C123.144,88.096 122.964,88.024 122.83,87.877 C110.167,74.066 90.374,81.833 90.177,81.913 C89.832,82.049 89.44,81.886 89.3,81.542 C89.16,81.195 89.327,80.804 89.672,80.664 C89.878,80.581 110.522,72.458 123.823,86.967 C124.074,87.241 124.055,87.667 123.781,87.919 C123.653,88.038 123.491,88.096 123.327,88.096" fill="#000E12"/>
    <path d="M118.948,92.331 C118.771,92.331 118.596,92.262 118.466,92.127 C106.558,79.853 91.079,83.967 90.925,84.013 C90.563,84.11 90.196,83.899 90.097,83.543 C89.997,83.185 90.206,82.815 90.565,82.714 C90.726,82.668 106.972,78.347 119.432,91.188 C119.689,91.454 119.682,91.882 119.416,92.14 C119.285,92.268 119.116,92.331 118.948,92.331" fill="#000E12"/>
    <path d="M113.352,97.043 C113.14,97.043 112.932,96.942 112.802,96.757 C104.626,85.143 90.942,86.255 90.806,86.269 C90.42,86.295 90.107,86.028 90.074,85.658 C90.04,85.289 90.312,84.963 90.684,84.928 C90.824,84.915 105.272,83.72 113.902,95.983 C114.116,96.286 114.044,96.706 113.739,96.919 C113.622,97.003 113.485,97.043 113.352,97.043" fill="#000E12"/>
  </g>
</svg>
