<?xml version="1.0" encoding="UTF-8"?>
<!DOCTYPE svg PUBLIC "-//W3C//DTD SVG 1.1//EN" "http://www.w3.org/Graphics/SVG/1.1/DTD/svg11.dtd">
<svg version="1.1" xmlns="http://www.w3.org/2000/svg" xmlns:xlink="http://www.w3.org/1999/xlink" x="0" y="0" width="150" height="150" viewBox="0, 0, 150, 150">
  <g id="Layer_1">
    <path d="M93.025,76.325 C97.314,70.692 115.512,57.8 109.778,33.798 C104.046,9.797 93.666,-1.555 86.547,23.133 C79.426,47.816 88.15,71.905 88.15,71.905 L93.025,76.325" fill="#F2E0D6"/>
    <path d="M97.318,18.812 C97.318,18.812 97.327,23.796 95.989,30.104 C94.652,36.411 101.094,51.144 94.642,66.835 C94.642,66.835 118.697,49.556 97.318,18.812" fill="#EA9291"/>
    <path d="M58.306,76.325 C54.019,70.692 35.82,57.8 41.553,33.798 C47.285,9.797 57.666,-1.555 64.786,23.133 C71.905,47.816 63.182,71.905 63.182,71.905 L58.306,76.325" fill="#F2E0D6"/>
    <path d="M54.014,18.812 C54.014,18.812 54.006,23.796 55.343,30.104 C56.679,36.411 50.237,51.144 56.689,66.835 C56.689,66.835 32.635,49.556 54.014,18.812" fill="#EA9291"/>
    <path d="M50.612,110.679 C50.612,122.583 61.332,132.233 74.555,132.233 L74.555,89.125 C61.332,89.125 50.612,98.776 50.612,110.679" fill="#C5B7B0"/>
    <path d="M98.498,110.679 C98.498,98.776 87.777,89.125 74.555,89.125 L74.555,132.233 C87.777,132.233 98.498,122.583 98.498,110.679" fill="#F2E0D6"/>
    <path d="M74.458,78.797 C59.141,78.797 46.721,88.447 46.721,100.351 C46.721,112.254 59.141,124.126 74.458,124.126 C89.776,124.126 102.196,112.254 102.196,100.351 C102.196,88.447 89.776,78.797 74.458,78.797" fill="#C5B7B0"/>
    <path d="M59.785,126.963 L70.603,126.963 L70.603,136.394 L59.785,136.394 z" fill="#C5B7B0"/>
    <path d="M73.655,140 C73.655,135.327 69.868,131.539 65.194,131.539 C60.522,131.539 56.733,135.327 56.733,140 L73.655,140" fill="#C5B7B0"/>
    <path d="M78.507,126.963 L89.326,126.963 L89.326,136.394 L78.507,136.394 z" fill="#F2E0D6"/>
    <path d="M92.377,140 C92.377,135.327 88.59,131.539 83.917,131.539 C79.244,131.539 75.455,135.327 75.455,140 L92.377,140" fill="#F2E0D6"/>
    <path d="M61.799,60.365 L62.054,60.264 L61.799,60.365" fill="#311413"/>
    <path d="M87.059,60.264 L87.301,60.362 L87.059,60.264" fill="#311413"/>
    <path d="M112,104.358 C108.117,102.416 105.898,87.994 105.898,87.994 C103.679,73.015 96.745,63.863 88.425,60.811 C88.042,60.671 87.673,60.515 87.301,60.362 L87.059,60.264 C83.485,58.909 79.184,58.119 74.555,58.119 L74.555,94.928 L74.578,94.928 L74.555,94.928 L74.555,119.334 L74.642,119.336 C83.825,119.336 89.536,117.557 93.364,114.621 C95.11,113.283 96.78,111.833 98.584,110.679 L98.575,110.631 C105.192,106.413 112,104.358 112,104.358" fill="#F2E0D6"/>
    <path d="M62.054,60.264 L61.799,60.365 C61.434,60.518 61.067,60.672 60.684,60.811 C52.365,63.863 45.431,73.015 43.212,87.994 C43.212,87.994 40.994,102.416 37.111,104.358 C37.111,104.358 43.971,106.427 50.612,110.679 C50.612,110.679 54.174,113.283 55.92,114.621 C59.733,117.547 66.137,119.321 74.555,119.334 L74.555,94.928 L74.493,94.93 L74.555,94.928 L74.555,58.119 C69.927,58.119 65.63,58.909 62.054,60.264" fill="#C5B7B0"/>
    <path d="M61.242,85.914 C61.242,88.438 59.192,90.488 56.664,90.488 C54.137,90.488 52.087,88.438 52.087,85.914 C52.087,83.385 54.137,81.336 56.664,81.336 C59.192,81.336 61.242,83.385 61.242,85.914" fill="#A43C39"/>
    <path d="M97.021,85.914 C97.021,88.438 94.974,90.488 92.444,90.488 C89.918,90.488 87.868,88.438 87.868,85.914 C87.868,83.385 89.918,81.336 92.444,81.336 C94.974,81.336 97.021,83.385 97.021,85.914" fill="#A43C39"/>
    <path d="M59.988,84.506 C59.988,85.283 59.358,85.913 58.582,85.913 C57.805,85.913 57.176,85.283 57.176,84.506 C57.176,83.73 57.805,83.1 58.582,83.1 C59.358,83.1 59.988,83.73 59.988,84.506" fill="#FFFFFE"/>
    <path d="M96.048,84.506 C96.048,85.283 95.419,85.913 94.642,85.913 C93.866,85.913 93.236,85.283 93.236,84.506 C93.236,83.73 93.866,83.1 94.642,83.1 C95.419,83.1 96.048,83.73 96.048,84.506" fill="#FFFFFE"/>
    <path d="M80.905,96.913 L74.481,97.648 L68.055,96.913 C67.455,96.837 66.896,97.282 66.825,97.891 C66.756,98.5 67.193,99.05 67.803,99.119 L73.296,99.749 L73.296,107.821 C72.93,108.253 72.087,109.066 71.231,108.606 C70.689,108.315 70.017,108.518 69.727,109.058 C69.437,109.599 69.64,110.273 70.179,110.563 C70.724,110.856 71.254,110.977 71.757,110.977 C72.832,110.977 73.776,110.421 74.469,109.792 C75.149,110.423 76.084,110.978 77.169,110.978 C77.675,110.978 78.21,110.859 78.766,110.571 C79.311,110.288 79.523,109.618 79.241,109.074 C78.96,108.53 78.289,108.317 77.744,108.599 C76.827,109.07 76.016,108.27 75.666,107.836 L75.666,99.749 L81.159,99.119 C81.767,99.05 82.204,98.5 82.135,97.891 C82.065,97.281 81.514,96.835 80.905,96.913" fill="#EA9291"/>
  </g>
</svg>
