<?xml version="1.0" encoding="UTF-8"?>
<!DOCTYPE svg PUBLIC "-//W3C//DTD SVG 1.1//EN" "http://www.w3.org/Graphics/SVG/1.1/DTD/svg11.dtd">
<svg version="1.1" xmlns="http://www.w3.org/2000/svg" xmlns:xlink="http://www.w3.org/1999/xlink" x="0" y="0" width="150" height="150" viewBox="0, 0, 150, 150">
  <g id="Layer_1">
    <path d="M37.297,119.117 C35.945,117.905 34.863,116.398 34.149,114.699 C32.951,115.023 31.744,115.2 30.557,115.191 C31.695,114.778 32.78,114.207 33.725,113.522 C33.513,112.828 33.357,112.109 33.271,111.369 C29.931,112.881 27.712,112.051 26.511,111.201 C26.705,114.106 27.562,116.826 28.914,119.234 C29.549,119.24 30.192,119.201 30.838,119.108 C32.237,118.909 33.634,118.468 34.951,117.781 C33.9,118.83 32.641,119.726 31.237,120.393 C30.828,120.591 30.404,120.762 29.973,120.922 C30.383,121.499 30.814,122.059 31.285,122.587 C32.645,122.36 34.005,121.788 35.228,120.92 C35.963,120.399 36.656,119.79 37.297,119.117" fill="#9C5937"/>
    <path d="M64.587,109.931 C64.587,108.071 63.081,106.565 61.22,106.565 C59.362,106.565 57.853,108.071 57.853,109.931 C57.853,114.806 55.003,119.02 50.886,121.022 C51.03,121.708 51.149,122.401 51.221,123.096 C51.389,124.716 51.356,126.4 50.834,127.9 C50.91,126.319 50.486,124.818 49.916,123.415 C49.678,122.839 49.392,122.284 49.098,121.734 C47.966,122.078 46.761,122.267 45.517,122.267 C43.932,122.267 42.42,121.968 41.028,121.422 C40.776,121.731 40.532,122.042 40.261,122.327 C39.38,123.253 38.409,124.057 37.386,124.734 C38.099,123.734 38.685,122.675 39.138,121.584 C39.264,121.28 39.354,120.968 39.459,120.658 C38.893,120.336 38.351,119.972 37.845,119.568 C37.35,120.393 36.784,121.186 36.127,121.923 C35.286,122.863 34.25,123.691 33.085,124.343 C35.2,126.175 37.716,127.551 40.49,128.312 C41.402,127.154 42.112,125.733 42.482,124.174 C42.74,125.622 42.696,127.173 42.354,128.719 C43.085,128.843 43.832,128.919 44.588,128.954 C45.16,127.233 45.477,125.321 45.548,123.388 C46.178,125.134 46.634,126.976 46.796,128.937 C56.712,128.272 64.587,120.013 64.587,109.931" fill="#9C5937"/>
    <path d="M33.271,111.369 C33.215,110.899 33.179,110.417 33.179,109.931 C33.179,108.516 33.418,107.127 33.886,105.805 C34.507,104.051 33.592,102.127 31.84,101.507 C30.088,100.884 28.163,101.803 27.54,103.553 C26.815,105.602 26.446,107.746 26.446,109.931 C26.446,110.36 26.482,110.777 26.511,111.201 C27.712,112.051 29.931,112.881 33.271,111.369" fill="#311413"/>
    <path d="M34.149,114.699 C33.987,114.315 33.846,113.924 33.725,113.522 C32.78,114.207 31.695,114.778 30.557,115.191 C31.744,115.2 32.951,115.023 34.149,114.699" fill="#311413"/>
    <path d="M34.951,117.781 C33.634,118.468 32.237,118.909 30.838,119.108 C30.192,119.201 29.549,119.24 28.914,119.234 C29.24,119.814 29.59,120.379 29.973,120.922 C30.404,120.762 30.828,120.591 31.237,120.393 C32.641,119.726 33.9,118.83 34.951,117.781" fill="#311413"/>
    <path d="M37.845,119.568 C37.66,119.421 37.473,119.275 37.297,119.117 C36.656,119.79 35.963,120.399 35.228,120.92 C34.005,121.788 32.645,122.36 31.285,122.587 C31.841,123.216 32.45,123.792 33.085,124.343 C34.25,123.691 35.286,122.863 36.127,121.923 C36.784,121.186 37.35,120.393 37.845,119.568" fill="#311413"/>
    <path d="M37.386,124.734 C38.409,124.057 39.38,123.253 40.261,122.327 C40.532,122.042 40.776,121.731 41.028,121.422 C40.485,121.207 39.964,120.945 39.459,120.658 C39.354,120.968 39.264,121.28 39.138,121.584 C38.685,122.675 38.099,123.734 37.386,124.734" fill="#311413"/>
    <path d="M42.482,124.174 C42.112,125.733 41.402,127.154 40.49,128.312 C41.099,128.479 41.721,128.613 42.354,128.719 C42.696,127.173 42.74,125.622 42.482,124.174" fill="#311413"/>
    <path d="M44.588,128.954 C44.898,128.97 45.205,129 45.517,129 C45.948,129 46.369,128.963 46.796,128.937 C46.634,126.976 46.178,125.134 45.548,123.388 C45.477,125.321 45.16,127.233 44.588,128.954" fill="#311413"/>
    <path d="M50.834,127.9 C51.356,126.4 51.389,124.716 51.221,123.096 C51.149,122.401 51.03,121.708 50.886,121.022 C50.312,121.299 49.718,121.544 49.098,121.734 C49.392,122.284 49.678,122.839 49.916,123.415 C50.486,124.818 50.91,126.319 50.834,127.9" fill="#311413"/>
    <path d="M94.013,119.998 L94.013,111.374 C99.103,106.635 102.366,99.988 102.687,92.566 C97.101,100.932 86.989,106.544 75.397,106.571 L75.397,118.724 C77.07,118.724 78.698,118.553 80.289,118.265 L80.289,119.998 C77.661,122.042 75.966,125.231 75.966,128.816 L98.335,128.816 C98.335,125.231 96.638,122.042 94.013,119.998" fill="#DF7D41"/>
    <path d="M49.407,94.562 C49.757,94.998 50.114,95.429 50.491,95.85 C50.114,95.429 49.757,94.998 49.407,94.562 z M50.604,95.969 C51,96.404 51.408,96.835 51.833,97.25 C51.408,96.835 51,96.404 50.604,95.969 z M48.045,91.374 C48.045,91.869 48.095,92.351 48.122,92.839 C48.481,93.362 48.857,93.875 49.252,94.376 C48.857,93.875 48.481,93.362 48.122,92.839 C48.514,100.15 51.757,106.693 56.783,111.374 L56.783,119.998 C54.158,122.042 52.46,125.231 52.46,128.816 L74.828,128.816 C74.828,125.231 73.136,122.042 70.508,119.998 L70.508,118.265 C72.097,118.553 73.724,118.724 75.397,118.724 L75.397,106.571 L75.312,106.577 C66.039,106.577 57.709,102.993 51.873,97.287 C54.175,99.534 56.867,101.452 59.849,102.951 C59.542,101.137 59.267,99.226 58.97,97.223 C61.119,97.877 63.405,98.496 65.832,99.065 L65.823,99.081 C67.652,99.993 69.553,101.023 71.529,102.181 C72.791,102.923 74.074,103.697 75.397,104.549 L75.397,64.02 C60.29,64.02 48.045,76.269 48.045,91.374" fill="#9C5937"/>
    <path d="M75.397,64.02 L75.397,92.625 L75.4,92.625 L75.4,104.549 C76.724,103.697 78.004,102.923 79.272,102.181 C81.244,101.023 83.145,99.993 84.974,99.081 C87.453,98.502 89.78,97.869 91.966,97.2 C91.679,99.142 91.421,101.009 91.135,102.775 C95.88,100.317 99.864,96.795 102.687,92.566 C102.706,92.166 102.75,91.775 102.75,91.374 C102.75,76.269 90.506,64.02 75.397,64.02" fill="#9C5937"/>
    <path d="M75.4,97.817 L75.397,99.162 L75.397,97.817 C74.074,96.965 61.119,97.877 58.97,97.223 C59.267,99.226 59.542,101.137 59.849,102.951 C61.417,112.262 63.896,118.724 75.397,118.724 L75.397,106.571 C81.128,106.559 86.496,105.175 91.135,102.775 C91.421,101.009 91.679,99.142 91.966,97.2 C89.78,97.869 76.724,96.965 75.4,97.817" fill="#C6C6A2"/>
    <path d="M91.135,102.775 C86.496,105.175 81.128,106.559 75.397,106.571 L75.397,118.724 C87.238,118.724 89.597,112.181 91.135,102.775" fill="#F1F0C5"/>
    <path d="M64.918,34.509 C64.918,42.553 58.396,49.074 50.349,49.074 C42.305,49.074 35.784,42.553 35.784,34.509 C35.784,26.462 42.305,19.939 50.349,19.939 C58.396,19.939 64.918,26.462 64.918,34.509" fill="#9C5937"/>
    <path d="M58.749,34.509 C58.749,39.146 54.989,42.905 50.349,42.905 C45.713,42.905 41.952,39.146 41.952,34.509 C41.952,29.868 45.713,26.108 50.349,26.108 C54.989,26.108 58.749,29.868 58.749,34.509" fill="#311413"/>
    <path d="M114.245,34.509 C114.245,42.553 107.723,49.074 99.678,49.074 C91.633,49.074 85.111,42.553 85.111,34.509 C85.111,26.462 91.633,19.939 99.678,19.939 C107.723,19.939 114.245,26.462 114.245,34.509" fill="#DF7D41"/>
    <path d="M108.077,34.509 C108.077,39.146 104.316,42.905 99.678,42.905 C95.04,42.905 91.281,39.146 91.281,34.509 C91.281,29.868 95.04,26.108 99.678,26.108 C104.316,26.108 108.077,29.868 108.077,34.509" fill="#311413"/>
    <path d="M64.918,34.509 C64.918,42.553 58.396,49.074 50.349,49.074 C42.305,49.074 35.784,42.553 35.784,34.509 C35.784,26.462 42.305,19.939 50.349,19.939 C58.396,19.939 64.918,26.462 64.918,34.509" fill="#DF7D41"/>
    <path d="M58.749,34.509 C58.749,39.146 54.989,42.905 50.349,42.905 C45.713,42.905 41.952,39.146 41.952,34.509 C41.952,29.868 45.713,26.108 50.349,26.108 C54.989,26.108 58.749,29.868 58.749,34.509" fill="#311413"/>
    <path d="M39.452,63.55 C38.612,66.974 37.421,70.022 36.27,72.486 C36.008,72.549 35.748,72.617 35.495,72.701 C34.351,73.08 33.321,73.683 32.433,74.465 C31.557,75.262 30.785,76.217 30.362,77.521 C31.651,77.6 32.703,77.483 33.702,77.314 C33.086,78.328 32.682,78.899 32.682,78.899 C36.357,76.654 40.741,75.617 50.349,78.109 C60.146,80.65 68.753,84.987 70.452,88.565 C71.933,87.742 73.616,87.233 75.432,87.233 L75.432,26.485 C48.122,26.485 39.452,44.233 39.452,63.55" fill="#9C5937"/>
    <path d="M75.397,99.162 L75.45,78.109 C64.284,72.614 65.217,81.096 52.469,76.847 C43.051,73.707 34.431,76.176 31.85,79.989 C31.85,79.989 52.469,102.102 75.397,99.162" fill="#C6C6A2"/>
    <path d="M75.381,31.87 L75.381,31.873 L75.416,31.871 L75.381,31.87" fill="#DE653F"/>
    <path d="M70.453,93.925 L70.452,93.925 L70.466,93.951 L70.453,93.925" fill="#000E12"/>
    <path d="M75.45,31.87 L75.416,31.871 L75.45,31.873 L75.45,31.87" fill="#95482F"/>
    <path d="M75.45,62.423 L75.45,31.873 L75.416,31.871 L75.381,31.873 L75.381,62.427 L75.45,62.423" fill="#95482F"/>
    <path d="M75.381,92.62 L75.45,92.62 L75.45,62.423 L75.381,62.427 L75.381,92.62" fill="#95482F"/>
    <path d="M120.453,77.521 C120.029,76.217 119.258,75.262 118.381,74.465 C117.495,73.683 116.463,73.08 115.32,72.701 C115.068,72.617 114.806,72.549 114.544,72.486 C113.393,70.022 112.205,66.974 111.364,63.55 C111.364,44.233 102.692,26.485 75.384,26.485 L75.384,87.233 C77.199,87.233 78.882,87.742 80.366,88.565 C82.063,84.987 90.668,80.65 100.465,78.109 C110.075,75.617 114.459,76.654 118.132,78.899 C118.132,78.899 117.73,78.328 117.114,77.314 C118.113,77.483 119.165,77.6 120.453,77.521" fill="#DF7D41"/>
    <path d="M75.381,92.62 L75.381,92.625 L75.416,92.62 L75.381,92.62" fill="#95482F"/>
    <path d="M75.418,99.162 L75.366,78.109 C86.531,72.614 85.599,81.096 98.346,76.847 C107.763,73.707 116.385,76.176 118.965,79.989 C118.965,79.989 98.346,102.102 75.418,99.162" fill="#F1F0C5"/>
    <path d="M51.234,57.035 C51.234,57.035 66.213,52.693 65.877,67.926 C65.877,67.926 51.234,73.245 51.234,57.035" fill="#311413"/>
    <path d="M64.284,62.774 C64.284,65.84 61.798,68.328 58.729,68.328 C55.662,68.328 53.174,65.84 53.174,62.774 C53.174,59.707 55.662,57.22 58.729,57.22 C61.798,57.22 64.284,59.707 64.284,62.774" fill="#EB9742"/>
    <path d="M62.5,60.482 C62.5,61.538 61.64,62.394 60.584,62.394 C59.529,62.394 58.672,61.538 58.672,60.482 C58.672,59.424 59.529,58.567 60.584,58.567 C61.64,58.567 62.5,59.424 62.5,60.482" fill="#FFFFFE"/>
    <path d="M99.679,57.035 C99.679,57.035 84.699,52.693 85.037,67.926 C85.037,67.926 99.679,73.245 99.679,57.035" fill="#311413"/>
    <path d="M86.531,62.774 C86.531,65.84 89.016,68.328 92.087,68.328 C95.153,68.328 97.64,65.84 97.64,62.774 C97.64,59.707 95.153,57.22 92.087,57.22 C89.016,57.22 86.531,59.707 86.531,62.774" fill="#EB9742"/>
    <path d="M92.354,60.482 C92.354,61.538 93.212,62.394 94.268,62.394 C95.326,62.394 96.184,61.538 96.184,60.482 C96.184,59.424 95.326,58.567 94.268,58.567 C93.212,58.567 92.354,59.424 92.354,60.482" fill="#FFFFFE"/>
    <path d="M74.511,83.355 C73.726,83.208 73.04,82.861 72.589,82.332 C70.473,79.856 67.723,78.103 66.115,77.18 C67.711,76.723 70.761,76.087 75.366,76.087 C79.928,76.087 83.001,76.73 84.6,77.186 C81.894,78.859 79.603,80.652 77.928,82.41 C77.47,82.888 76.866,83.206 76.124,83.355 L74.511,83.355" fill="#C66870"/>
    <path d="M75.366,75.416 C67.982,75.416 64.455,77.036 64.479,77.036 L64.482,77.034 C64.567,77.156 69.035,79.202 72.076,82.769 C72.714,83.517 73.616,83.873 74.511,84.028 L76.188,84.028 C77.011,83.874 77.803,83.52 78.416,82.874 C81.593,79.539 86.154,77.06 86.195,77.015 C86.195,77.015 82.666,75.416 75.366,75.416 z M75.366,76.763 C78.698,76.763 81.214,77.109 82.918,77.467 C80.737,78.92 78.873,80.443 77.441,81.945 C77.094,82.309 76.631,82.557 76.053,82.682 L74.633,82.682 C73.945,82.547 73.43,82.282 73.1,81.895 C71.455,79.967 69.446,78.472 67.851,77.446 C69.547,77.097 72.035,76.763 75.366,76.763" fill="#311413"/>
    <path d="M74.693,87.724 C73.323,90.09 71.588,91.432 69.541,91.713 C64.904,92.336 59.98,87.477 59.929,87.43 C59.667,87.162 59.241,87.162 58.977,87.427 C58.716,87.691 58.716,88.114 58.976,88.379 C59.18,88.585 63.754,93.114 68.682,93.114 C69.029,93.114 69.372,93.095 69.72,93.047 C71.954,92.74 73.848,91.442 75.366,89.183 C76.881,91.442 78.775,92.74 81.012,93.047 C81.357,93.095 81.706,93.114 82.049,93.114 C86.978,93.114 91.547,88.585 91.755,88.379 C92.017,88.114 92.016,87.691 91.754,87.427 C91.488,87.167 91.062,87.164 90.799,87.43 C90.749,87.477 85.835,92.33 81.195,91.713 C79.141,91.426 77.413,90.1 76.039,87.724 L76.039,84.062 L76.188,84.028 L74.511,84.028 L74.693,84.066 L74.693,87.724" fill="#311413"/>
    <path d="M39.314,64.097 L50.349,70.45 L37.842,68.744 L39.314,64.097" fill="#311413"/>
    <path d="M40.453,52.857 C41.148,54.068 41.852,55.117 42.707,56.261 C44.42,58.537 46.455,60.641 48.876,62.394 C45.978,61.66 43.131,60.398 40.467,58.772 L39.68,58.277 C39.816,55.386 40.453,52.857 40.453,52.857" fill="#311413"/>
    <path d="M63.669,34.509 C65.127,32.981 67.005,31.79 68.986,30.798 C70.981,29.814 73.131,29.062 75.353,28.506 L75.353,35.245 C73.545,34.68 71.624,34.264 69.668,34.096 C67.714,33.942 65.681,33.964 63.669,34.509" fill="#311413"/>
    <path d="M61.72,42.905 C63.56,41.301 65.718,40.007 67.952,38.857 C70.198,37.715 72.905,36.76 75.353,35.96 L75.384,42.622 C73.135,42.278 71.102,42.115 68.77,42.122 C66.438,42.141 64.065,42.306 61.72,42.905" fill="#311413"/>
    <path d="M65.881,49.074 C67.186,47.95 68.589,46.912 70.136,45.972 C71.712,45.059 73.007,44.322 75.353,43.968 L75.353,50.497 C74.46,49.833 72.474,49.451 70.897,49.249 C69.288,49.054 67.59,48.996 65.881,49.074" fill="#311413"/>
    <path d="M48.35,95.003 C49.181,95.834 50.158,96.627 51.046,97.401 C51.935,98.176 52.856,98.916 53.828,99.592 C54.801,100.263 55.817,100.88 56.962,101.313 C55.741,101.439 54.468,101.339 53.222,101.161 C51.971,100.98 50.844,100.737 49.619,100.423 C48.562,97.381 48.35,95.003 48.35,95.003" fill="#311413"/>
    <path d="M50.648,102.951 C50.648,102.951 51.48,103.463 52.432,104.094 C54.337,105.35 56.337,106.494 58.557,107.313 C56.204,107.611 55.724,107.689 53.293,107.434 C53.293,107.434 52.285,106.218 50.648,102.951" fill="#311413"/>
    <path d="M111.408,64.097 L100.372,70.45 L112.879,68.744 L111.408,64.097" fill="#311413"/>
    <path d="M110.27,52.857 C109.571,54.068 108.87,55.117 108.014,56.261 C106.303,58.537 104.266,60.641 101.845,62.394 C104.744,61.66 107.591,60.398 110.256,58.772 L111.043,58.277 C110.905,55.386 110.27,52.857 110.27,52.857" fill="#311413"/>
    <path d="M87.053,34.509 C85.595,32.981 83.718,31.79 81.736,30.798 C79.741,29.814 77.592,29.062 75.369,28.506 L75.369,35.245 C77.177,34.68 79.097,34.264 81.054,34.096 C83.008,33.942 85.042,33.964 87.053,34.509" fill="#311413"/>
    <path d="M89.001,42.905 C87.162,41.301 85.005,40.007 82.77,38.857 C80.522,37.715 77.818,36.76 75.369,35.96 L75.337,42.622 C77.587,42.278 79.619,42.115 81.952,42.122 C84.283,42.141 86.657,42.306 89.001,42.905" fill="#311413"/>
    <path d="M84.84,49.074 C83.534,47.95 82.131,46.912 80.586,45.972 C79.011,45.059 77.716,44.322 75.369,43.968 L75.369,50.497 C76.263,49.833 78.247,49.451 79.825,49.249 C81.434,49.054 83.133,48.996 84.84,49.074" fill="#311413"/>
    <path d="M102.371,95.003 C101.54,95.834 100.564,96.627 99.676,97.401 C98.785,98.176 97.865,98.916 96.896,99.592 C95.921,100.263 94.904,100.88 93.76,101.313 C94.981,101.439 96.254,101.339 97.5,101.161 C98.751,100.98 99.878,100.737 101.106,100.423 C102.16,97.381 102.371,95.003 102.371,95.003" fill="#311413"/>
    <path d="M100.073,102.951 C100.073,102.951 99.242,103.463 98.291,104.094 C96.386,105.35 94.384,106.494 92.163,107.313 C94.518,107.611 94.996,107.689 97.428,107.434 C97.428,107.434 98.435,106.218 100.073,102.951" fill="#311413"/>
    <path d="M26.446,88.097 C26.282,88.097 26.121,88.039 25.991,87.922 C25.719,87.669 25.699,87.242 25.951,86.969 C39.251,72.461 59.895,80.579 60.102,80.665 C60.447,80.804 60.613,81.195 60.474,81.542 C60.333,81.885 59.939,82.053 59.596,81.914 C59.397,81.834 39.604,74.067 26.943,87.878 C26.809,88.024 26.628,88.097 26.446,88.097" fill="#775749"/>
    <path d="M30.827,92.331 C30.656,92.331 30.488,92.269 30.356,92.142 C30.091,91.88 30.084,91.455 30.341,91.192 C42.797,78.348 59.045,82.672 59.21,82.716 C59.566,82.816 59.776,83.186 59.677,83.544 C59.576,83.902 59.211,84.112 58.847,84.014 C58.694,83.968 43.194,79.872 31.306,92.127 C31.177,92.263 31,92.331 30.827,92.331" fill="#775749"/>
    <path d="M36.421,97.045 C36.287,97.045 36.151,97.005 36.034,96.92 C35.73,96.708 35.657,96.287 35.871,95.984 C44.5,83.721 58.95,84.919 59.09,84.929 C59.46,84.961 59.732,85.29 59.698,85.66 C59.664,86.031 59.361,86.31 58.967,86.27 C58.83,86.257 45.143,85.146 36.972,96.759 C36.842,96.944 36.634,97.045 36.421,97.045" fill="#775749"/>
    <path d="M123.327,88.097 C123.145,88.097 122.964,88.024 122.832,87.878 C110.167,74.067 90.376,81.834 90.177,81.914 C89.831,82.05 89.44,81.885 89.299,81.542 C89.16,81.195 89.328,80.804 89.673,80.665 C89.878,80.579 110.523,72.461 123.824,86.969 C124.074,87.242 124.056,87.669 123.782,87.922 C123.653,88.039 123.489,88.097 123.327,88.097" fill="#775749"/>
    <path d="M118.948,92.331 C118.773,92.331 118.596,92.263 118.465,92.127 C106.558,79.856 91.082,83.968 90.927,84.014 C90.563,84.109 90.196,83.902 90.098,83.544 C89.998,83.187 90.207,82.816 90.566,82.716 C90.725,82.672 106.974,78.345 119.432,91.192 C119.69,91.455 119.683,91.88 119.417,92.142 C119.286,92.269 119.117,92.331 118.948,92.331" fill="#775749"/>
    <path d="M113.352,97.045 C113.14,97.045 112.932,96.944 112.8,96.759 C104.629,85.145 90.937,86.255 90.806,86.27 C90.42,86.3 90.108,86.031 90.075,85.66 C90.041,85.29 90.311,84.961 90.681,84.929 C90.826,84.919 105.273,83.721 113.904,95.984 C114.116,96.287 114.043,96.708 113.739,96.92 C113.622,97.005 113.486,97.045 113.352,97.045" fill="#775749"/>
  </g>
</svg>
