<?xml version="1.0" encoding="UTF-8"?>
<!DOCTYPE svg PUBLIC "-//W3C//DTD SVG 1.1//EN" "http://www.w3.org/Graphics/SVG/1.1/DTD/svg11.dtd">
<svg version="1.1" xmlns="http://www.w3.org/2000/svg" xmlns:xlink="http://www.w3.org/1999/xlink" x="0" y="0" width="150" height="150" viewBox="0, 0, 150, 150">
  <g id="Layer_1">
    <path d="M84.205,8.793 C85.734,11.183 86.537,13.387 87.288,15.28 C87.662,16.265 87.973,16.83 88.369,17.758 C88.758,18.736 89.156,19.914 89.387,21.154 C89.879,23.642 89.762,26.424 88.882,28.912 C87.976,31.397 86.423,33.623 83.938,35.05 C83.041,32.334 82.566,30.213 82.084,28.278 C81.618,26.343 81.21,24.65 80.859,22.784 C80.676,21.841 80.527,20.868 80.386,19.693 C80.219,18.47 80.196,16.831 80.493,15.595 C81.065,13.05 82.167,10.81 84.205,8.793" fill="#303331"/>
    <path d="M33.221,117.366 C34.786,116.666 39.349,114.651 44.877,117.451 C47.315,118.688 48.69,119.744 49.722,120.552 C50.747,121.381 52.634,123.409 53.412,124.945 C51.843,125.651 51.583,125.948 49.578,126.59 C48.329,126.987 46.483,127.167 45.312,126.751 C44.142,126.336 42.89,125.862 41.363,124.528 C40.336,123.695 36.366,118.112 33.221,117.366" fill="#303331"/>
    <path d="M52.278,126.076 C51.567,126.076 50.828,126.018 50.06,125.894 C48.546,125.65 47.517,124.224 47.763,122.71 C48.008,121.198 49.431,120.169 50.946,120.412 C59.911,121.854 63.395,106.633 63.429,106.478 C63.764,104.982 65.244,104.036 66.742,104.372 C68.24,104.705 69.182,106.187 68.85,107.684 C68.672,108.475 64.604,126.076 52.278,126.076" fill="#C5B7B0"/>
    <path d="M103.422,108.037 C99.677,109.547 95.78,110.257 91.932,110.504 C95.631,109.419 99.177,107.879 102.21,105.773 C103.727,104.729 105.101,103.522 106.267,102.208 C106.734,101.676 109.369,98.535 110.431,97.086 C110.173,96.054 109.87,95.037 109.485,94.051 C112.997,89.56 115,84.12 115,78.245 C115,76.318 114.967,74.061 114.848,71.586 L104.398,72.964 L114.523,66.894 C114.252,63.836 113.835,60.594 113.191,57.317 L102.764,64.542 L111.907,51.936 C109.356,42.839 104.737,34.243 96.414,29.728 L89.686,40.278 L92.147,27.899 C89.285,26.962 86.077,26.432 82.457,26.432 L82.457,128.488 C84.172,128.488 85.843,128.326 87.477,128.067 L87.477,135.08 L98.485,135.08 L98.485,124.082 C102.486,121.649 105.76,118.329 107.979,114.439 L107.864,114.513 C106.219,115.531 104.496,116.363 102.735,117.026 C99.209,118.352 95.537,118.982 91.932,119.069 C95.419,118.135 98.707,116.686 101.562,114.74 C104.833,112.815 108.573,109.336 110.724,107.029 C110.949,105.85 111.08,104.642 111.119,103.413 C110.301,104.062 109.267,104.77 108.825,105.09 C107.114,106.315 105.295,107.285 103.422,108.037" fill="#F2E0D6"/>
    <path d="M113.191,57.317 C112.837,55.521 112.409,53.722 111.907,51.936 L102.764,64.542 L113.191,57.317" fill="#303331"/>
    <path d="M114.848,71.586 C114.777,70.095 114.668,68.519 114.523,66.894 L104.398,72.964 L114.848,71.586" fill="#303331"/>
    <path d="M96.414,29.728 C95.089,29.008 93.667,28.396 92.147,27.899 L89.686,40.278 L96.414,29.728" fill="#303331"/>
    <path d="M106.267,102.208 C105.101,103.522 103.727,104.729 102.21,105.773 C99.177,107.879 95.631,109.419 91.932,110.504 C95.78,110.257 99.677,109.547 103.422,108.037 C105.295,107.285 107.114,106.315 108.825,105.09 C109.267,104.77 110.301,104.062 111.119,103.413 C111.129,103.159 111.147,102.908 111.147,102.652 C111.147,100.735 110.88,98.881 110.431,97.086 C109.369,98.535 106.734,101.676 106.267,102.208" fill="#303331"/>
    <path d="M101.562,114.74 C98.707,116.686 95.419,118.135 91.932,119.069 C95.537,118.982 99.209,118.352 102.735,117.026 C104.496,116.363 106.219,115.531 107.864,114.513 L107.979,114.439 C109.288,112.147 110.226,109.657 110.724,107.029 C108.573,109.336 104.833,112.815 101.562,114.74" fill="#303331"/>
    <path d="M72.993,27.676 L75.498,40.278 L68.696,29.612 C61.831,33.77 58.678,38.68 58.678,38.68 C56.096,42.519 54.275,46.958 52.985,51.536 L62.42,64.542 L51.674,57.097 C51.038,60.385 50.626,63.643 50.364,66.718 L60.786,72.964 L50.054,71.549 C49.945,74.033 49.914,76.311 49.914,78.245 C49.914,84.12 51.916,89.56 55.43,94.051 C55.079,94.947 54.799,95.87 54.552,96.807 C55.427,98.073 58.416,101.64 58.917,102.208 C60.083,103.522 61.457,104.729 62.974,105.773 C66.007,107.879 69.552,109.419 73.251,110.504 C69.404,110.257 65.507,109.547 61.762,108.037 C59.889,107.285 58.07,106.315 56.359,105.09 C55.864,104.735 54.631,103.891 53.785,103.188 C53.813,104.369 53.929,105.531 54.126,106.667 C56.205,108.956 60.175,112.711 63.621,114.74 C66.476,116.686 69.765,118.135 73.251,119.069 C69.646,118.982 65.975,118.352 62.448,117.026 C60.688,116.363 58.965,115.531 57.32,114.513 C57.131,114.393 56.953,114.277 56.781,114.165 C59.002,118.172 62.333,121.593 66.428,124.082 L66.428,135.08 L77.438,135.08 L77.438,128.067 C79.071,128.326 80.742,128.488 82.457,128.488 L82.457,26.432 C78.963,26.432 75.771,26.818 72.993,27.676" fill="#C5B7B0"/>
    <path d="M62.42,64.542 L52.985,51.536 C52.466,53.378 52.035,55.24 51.674,57.097 L62.42,64.542" fill="#303331"/>
    <path d="M60.786,72.964 L50.364,66.718 C50.222,68.394 50.121,70.011 50.054,71.549 L60.786,72.964" fill="#303331"/>
    <path d="M68.696,29.612 L75.498,40.278 L72.993,27.676 C71.642,28.093 70.382,28.615 69.247,29.275 C69.057,29.388 68.88,29.5 68.696,29.612" fill="#303331"/>
    <path d="M53.785,103.188 C54.631,103.891 55.864,104.735 56.359,105.09 C58.07,106.315 59.889,107.285 61.762,108.037 C65.507,109.547 69.404,110.257 73.251,110.504 C69.552,109.419 66.007,107.879 62.974,105.773 C61.457,104.729 60.083,103.522 58.917,102.208 C58.416,101.64 55.427,98.073 54.552,96.807 C54.058,98.686 53.766,100.634 53.766,102.652 C53.766,102.832 53.782,103.009 53.785,103.188" fill="#303331"/>
    <path d="M57.32,114.513 C58.965,115.531 60.688,116.363 62.448,117.026 C65.975,118.352 69.646,118.982 73.251,119.069 C69.765,118.135 66.476,116.686 63.621,114.74 C60.175,112.711 56.205,108.956 54.126,106.667 C54.585,109.322 55.493,111.842 56.781,114.165 C56.953,114.277 57.131,114.393 57.32,114.513" fill="#303331"/>
    <path d="M67.542,59.259 C67.542,60.837 68.818,62.117 70.396,62.117 C71.973,62.117 73.251,60.837 73.251,59.259 L73.251,54.977 C73.251,53.403 71.973,52.125 70.396,52.125 C68.818,52.125 67.542,53.403 67.542,54.977 L67.542,59.259" fill="#131514"/>
    <path d="M91.662,59.259 C91.662,60.837 92.94,62.117 94.517,62.117 C96.095,62.117 97.373,60.837 97.373,59.259 L97.373,54.977 C97.373,53.403 96.095,52.125 94.517,52.125 C92.94,52.125 91.662,53.403 91.662,54.977 L91.662,59.259" fill="#131514"/>
    <path d="M57.22,25.843 C56.581,24.415 57.221,22.739 58.652,22.099 C60.079,21.46 61.756,22.1 62.396,23.528 L65.851,31.26 C66.909,30.52 68.045,29.861 69.247,29.275 L65.225,20.279 C63.703,16.877 59.716,15.355 56.315,16.874 C52.914,18.394 51.39,22.385 52.912,25.783 L58.678,38.68 C59.505,37.453 60.411,36.287 61.402,35.195 L57.22,25.843" fill="#F2E0D6"/>
    <path d="M58.652,22.099 C57.221,22.739 56.581,24.415 57.22,25.843 L61.402,35.195 C62.725,33.731 64.206,32.412 65.851,31.26 L62.396,23.528 C61.756,22.1 60.079,21.46 58.652,22.099" fill="#C66870"/>
    <path d="M107.848,25.843 C108.488,24.415 107.848,22.739 106.418,22.099 C104.989,21.46 103.314,22.1 102.673,23.528 L99.218,31.26 C98.159,30.52 97.024,29.861 95.821,29.275 L99.844,20.279 C101.365,16.877 105.352,15.355 108.756,16.874 C112.154,18.394 113.678,22.385 112.158,25.783 L106.391,38.68 C105.565,37.453 104.658,36.287 103.667,35.195 L107.848,25.843" fill="#F2E0D6"/>
    <path d="M106.418,22.099 C107.848,22.739 108.488,24.415 107.848,25.843 L103.667,35.195 C102.343,33.731 100.863,32.412 99.218,31.26 L102.673,23.528 C103.314,22.1 104.989,21.46 106.418,22.099" fill="#C66870"/>
    <path d="M71.818,137.049 C72.28,137.049 72.661,137.425 72.661,137.89 L72.661,140 L81.516,140 C81.516,134.708 77.223,130.419 71.933,130.419 C66.641,130.419 62.35,134.708 62.35,140 L70.974,140 L70.974,137.89 C70.974,137.425 71.349,137.049 71.818,137.049" fill="#303331"/>
    <path d="M92.864,137.049 C93.329,137.049 93.709,137.425 93.709,137.89 L93.709,140 L102.563,140 C102.563,134.708 98.274,130.419 92.979,130.419 C87.69,130.419 83.401,134.708 83.401,140 L92.02,140 L92.02,137.89 C92.02,137.425 92.396,137.049 92.864,137.049" fill="#303331"/>
    <path d="M79.887,70.109 L82.457,54.628 L85.027,70.109 L79.887,70.109" fill="#303331"/>
    <path d="M111.331,88.497 C111.331,98.93 98.404,109.609 82.459,109.609 C66.514,109.609 53.584,98.93 53.584,88.497 C53.584,78.066 66.514,69.609 82.459,69.609 C98.404,69.609 111.331,78.066 111.331,88.497" fill="#303331"/>
    <path d="M69.377,85.581 C69.377,87.87 67.519,89.727 65.228,89.727 C62.939,89.727 61.082,87.87 61.082,85.581 C61.082,83.29 62.939,81.433 65.228,81.433 C67.519,81.433 69.377,83.29 69.377,85.581" fill="#8B8D89"/>
    <path d="M103.931,85.581 C103.931,87.87 102.075,89.727 99.783,89.727 C97.494,89.727 95.638,87.87 95.638,85.581 C95.638,83.29 97.494,81.433 99.783,81.433 C102.075,81.433 103.931,83.29 103.931,85.581" fill="#8B8D89"/>
    <path d="M76.552,103.717 C76.552,106.285 77.729,106.236 79.261,106.425 C80.958,106.541 81.968,106.545 81.968,103.717 L81.968,101.994 C81.968,102.283 76.552,101.593 76.552,101.593 L76.552,103.717" fill="#F2E0D6"/>
    <path d="M88.385,103.717 C88.385,106.285 87.208,106.236 85.677,106.425 C83.979,106.541 82.969,106.545 82.969,103.717 L82.969,101.994 C82.969,102.283 88.385,101.593 88.385,101.593 L88.385,103.717" fill="#F2E0D6"/>
    <path d="M82.869,103.1 C70.727,103.1 62.239,96.789 61.885,96.521 C61.614,96.317 61.558,95.93 61.764,95.66 C61.969,95.388 62.354,95.336 62.625,95.541 C62.709,95.603 71.156,101.872 82.869,101.872 C94.563,101.872 102.212,95.62 102.288,95.558 C102.548,95.341 102.935,95.375 103.153,95.637 C103.372,95.898 103.337,96.286 103.077,96.501 C102.752,96.771 95.027,103.1 82.869,103.1" fill="#F2E0D6"/>
    <path d="M75.798,10.085 C78.01,11.861 79.476,13.694 80.792,15.248 C81.462,16.06 81.937,16.495 82.609,17.249 C83.29,18.051 84.043,19.039 84.659,20.142 C85.922,22.343 86.699,25.015 86.661,27.654 C86.597,30.297 85.836,32.905 83.938,35.05 C82.22,32.764 81.091,30.907 80.016,29.225 C78.956,27.541 78.028,26.068 77.099,24.412 C76.624,23.578 76.172,22.705 75.662,21.633 C75.114,20.531 74.567,18.984 74.454,17.716 C74.182,15.124 74.511,12.648 75.798,10.085" fill="#303331"/>
    <path d="M93.565,54.628 C93.565,55.547 94.227,56.293 95.045,56.293 C95.863,56.293 96.525,55.547 96.525,54.628 C96.525,53.708 95.863,52.962 95.045,52.962 C94.227,52.962 93.565,53.708 93.565,54.628" fill="#FFFFFE"/>
    <path d="M69.411,54.628 C69.411,55.547 70.074,56.293 70.891,56.293 C71.709,56.293 72.372,55.547 72.372,54.628 C72.372,53.708 71.709,52.962 70.891,52.962 C70.074,52.962 69.411,53.708 69.411,54.628" fill="#FFFFFE"/>
  </g>
</svg>
